<?xml version="1.0" encoding="UTF-8"?>
<!DOCTYPE svg PUBLIC "-//W3C//DTD SVG 1.1//EN" "http://www.w3.org/Graphics/SVG/1.1/DTD/svg11.dtd">
<!-- Creator: CorelDRAW 2017 -->
<svg xmlns="http://www.w3.org/2000/svg" xml:space="preserve" width="80mm" height="80mm" version="1.1" style="shape-rendering:geometricPrecision; text-rendering:geometricPrecision; image-rendering:optimizeQuality; fill-rule:evenodd; clip-rule:evenodd"
viewBox="0 0 8000 8000"
 xmlns:xlink="http://www.w3.org/1999/xlink">
 <defs>
  <style type="text/css">
   <![CDATA[
    .str0 {stroke:#FEFEFE;stroke-width:141.11;stroke-miterlimit:22.9256}
    .fil5 {fill:#4D4D4D;fill-rule:nonzero}
    .fil10 {fill:#537082;fill-rule:nonzero}
    .fil7 {fill:#662E2A;fill-rule:nonzero}
    .fil11 {fill:#6D9DBF;fill-rule:nonzero}
    .fil13 {fill:#A47152;fill-rule:nonzero}
    .fil8 {fill:#AA4A4D;fill-rule:nonzero}
    .fil12 {fill:#B88B70;fill-rule:nonzero}
    .fil9 {fill:#D0D4D0;fill-rule:nonzero}
    .fil4 {fill:#D3E4EA;fill-rule:nonzero}
    .fil3 {fill:#E0C74E;fill-rule:nonzero}
    .fil6 {fill:#EBEFEB;fill-rule:nonzero}
    .fil2 {fill:#EDD5BE;fill-rule:nonzero}
    .fil0 {fill:url(#id1)}
    .fil1 {fill:url(#id2)}
   ]]>
  </style>
     <clipPath id="id0">
      <path d="M3368.65 6139.05c-114.09,0 -228.18,-1.77 -342.26,-6.82 -166.34,-7.43 -333.74,-22.13 -489.41,-67.28 -121.55,-35.49 -115.16,-138.54 19.19,-156.33 3.2,-0.44 6.4,-0.71 9.6,-0.97 3.2,-0.09 6.39,-0.27 9.59,-0.27 31.99,0 62.91,10.09 94.9,15.49 43.72,7.53 87.43,9.12 131.15,9.12l0 0c0,0 0,0 0,0 18.12,0 35.18,-0.26 52.24,-0.44 543.79,-6.29 1087.57,-33.37 1631.36,-40.46 51.18,-0.7 102.36,-1.15 153.54,-1.41 27.72,-0.18 56.51,-0.27 84.23,-0.27l19.2 0c455.28,0.36 911.64,19.48 1360.53,81.62 17.06,26.38 -2.14,60.11 -33.06,77.55 -30.92,17.53 -70.37,22.66 -107.69,26.64 -97.03,10.45 -196.19,16.38 -294.28,20.36 -92.77,3.63 -186.6,5.58 -280.43,7.35 -330.53,6.38 -661.07,12.75 -991.6,19.03 -202.59,3.9 -406.24,7.88 -608.83,11.69 -39.45,0.8 -77.84,1.59 -117.29,2.21 -100.23,1.77 -200.45,3.19 -300.68,3.19l0 0z"/>
     </clipPath>
  <linearGradient id="id1" gradientUnits="userSpaceOnUse" x1="2485.37" y1="6014.27" x2="6103.9" y2="6014.27">
   <stop offset="0" style="stop-opacity:1; stop-color:#CCCCCC"/>
   <stop offset="1" style="stop-opacity:1; stop-color:#CCCCCC"/>
  </linearGradient>
  <linearGradient id="id2" gradientUnits="userSpaceOnUse" xlink:href="#id1" x1="2485.36" y1="6014.27" x2="6103.88" y2="6014.27">
  </linearGradient>
 </defs>
 <g id="Layer_x0020_1">
  <metadata id="CorelCorpID_0Corel-Layer"/>
  <g id="_2495131095936">
   <path class="fil0 str0" d="M3010.79 6131.51l-0.27 -0.02 -7.53 -0.36 -0.25 -0.02 -7.55 -0.36 -0.23 -0.02 -7.57 -0.39 -0.22 -0.01 -7.58 -0.4 -0.2 -0.02 -7.6 -0.41 -0.18 -0.01 -0.11 -0.01 -15.31 -0.88 15.48 0.89 0.12 0.01m-15.6 -0.9l-0.14 -0.01 -7.66 -0.46 -0.13 -0.01 -7.67 -0.48 -0.11 -0.01 -7.68 -0.5 -0.09 0 -7.71 -0.52 -0.07 -0.01 -7.72 -0.53 -0.06 0 -7.73 -0.56 -0.04 0 -7.74 -0.58 -0.03 0 -7.76 -0.59 -0.01 0 -7.77 -0.62 -7.76 -0.63 -0.01 -0.01 -7.75 -0.65 -0.02 0 -7.73 -0.67 -0.04 -0.01 -7.71 -0.69 -0.05 -0.01 -7.7 -0.71 -0.06 -0.01 -7.68 -0.74 -0.08 -0.01 -7.65 -0.76 -0.09 -0.01 -7.64 -0.78 -0.1 -0.01 -7.63 -0.8 -0.11 -0.02 -7.61 -0.82 -0.12 -0.02 -7.59 -0.85 -0.13 -0.01 -7.57 -0.88 -0.15 -0.02 -7.55 -0.9 -0.16 -0.02 -7.53 -0.93 -0.17 -0.02 -7.51 -0.95 -0.18 -0.02c-79.44,-10.21 -157.59,-24.93 -233.01,-46.81 -110.15,-32.16 -115.23,-119.81 -15.22,-149.2l0.06 -0.01c1.7,-0.5 3.44,-1 5.2,-1.46l0.05 -0.01 5.41 -1.35 0.02 -0.01 5.62 -1.24 0.01 -0.01c5.72,-1.19 11.7,-2.22 17.98,-3.05l0.61 -0.07 0.05 0 0.1 -0.02 0.05 0 0.11 -0.02 0.04 0 0.11 -0.02 0.04 0 0.11 -0.02 0.04 0 0.11 -0.01 0.04 -0.01 0.11 -0.01 0.04 0 0.12 -0.02 0.03 0 0.12 -0.01 -0.1 0.01 -0.02 0m0.12 -0.01l0.03 -0.01 0.12 -0.01 0.03 -0.01 0.12 -0.01 0.03 -0.01 0.12 -0.01 0.03 0 0.12 -0.01 -0.11 0.01 -0.01 0m0.12 -0.01l0.03 -0.01 0.13 -0.01 0.02 -0.01 0.13 0 0.02 -0.01 0.13 -0.01 0.02 -0.01 0.13 -0.01 0.02 -0.01 0.13 0 0.02 -0.01 0.13 -0.01 0.02 -0.01 0.28 -0.02 0.02 -0.01 0.29 -0.02 0.01 -0.01 0.29 -0.02 0.01 -0.01 0.29 -0.02 0.01 -0.01 0.29 -0.02 0.01 -0.01 0.29 -0.02 0.01 -0.01 0.44 -0.03 0.01 -0.01 0 0.01m0 -0.01l0.44 -0.03 -0.44 0.03zm2473.23 -1883.15c-5.35,-14.86 -10.91,-29.57 -16.71,-44.1 -7.45,-18.57 -235.31,-46.93 -266.38,-48.1 -100.42,-3.98 -236.44,3 -337.72,0.12 -10.27,-73.95 -17.3,-147.75 -16.56,-221.38l0.31 -15.21c0.2,-8.29 0.28,-16.57 0.25,-24.86 102.2,-69.96 221.14,-115.53 344.38,-128.57 -0.89,-47.89 -2.6,-95.77 -5.11,-143.61 120.07,-52.75 239.99,-110.35 335.84,-199.41 54.37,-50.41 99.67,-109.76 144.57,-168.73 15.35,-20.1 30.84,-40.48 43.1,-62.44 14.41,-2.62 28.78,-5.48 43.14,-8.34 8.48,-1.7 18.65,-5.05 20.04,-13.44l-8.39 -14.6 -17.55 -3.74c-6.44,-0.46 -12.89,-1.04 -19.33,-1.68 9.9,-34.39 7.92,-73.59 -13.46,-102.11 -19.31,-0.8 -38.13,2.45 -56.33,8.41 -3.89,-62.85 -7.49,-125.72 -10.99,-188.61 20.43,-4.89 40.22,-16.3 59.08,-27.93 16.01,-9.87 31.93,-20.04 47.7,-30.46 7.38,-4.8 15,-10.09 19.51,-18.63 -35.58,-11.74 -72.01,-19.27 -108.3,-26.73 -7.86,-1.65 -15.87,-3.29 -23.87,-3.41l-0.69 -12.58 5.38 -1.72c8.08,-3.57 6.82,-13.68 3.17,-20.35 -4.03,-7.16 -13.59,-10.72 -21.36,-7.93 -11.74,4.19 -15.53,24.32 -3.97,30 -0.25,4.46 -0.43,8.92 -0.56,13.39 -7.57,0.95 -14.67,3.7 -16.28,12.46 -2.96,16.17 4.8,35.19 6.76,51.14 1.54,13.28 0.53,26.8 1.85,40.08l1.32 3.96 2.33 0.77c2.69,0.29 5.38,0.41 8.05,0.41 3.44,51.58 6.94,103.15 10.45,154.74l2.62 38.13c-23.87,10.19 -46.53,24.45 -67.65,39.47 -86.55,61.62 -160.5,139.07 -243.02,206.04 -48.86,39.7 -102.2,76.21 -159.53,101.74 -3.95,-38.74 -8.42,-77.42 -13.41,-116.03 -139.32,15.17 -279.95,18.29 -419.83,9.39 3.46,-24.42 7.21,-48.74 11.35,-72.95 -59.97,-1.07 -172.46,-26.71 -232.36,-27.81 -0.65,13.79 -1.19,28.25 -1.64,43.25 -28.54,-5.17 -57.89,-6.74 -84.53,-7.11 -76.05,-1.1 -152.97,9.01 -227.78,-5.22 -64.88,-12.35 -125.55,-42.48 -190.64,-53.14 -18.97,-3.09 -39.56,-4.95 -60.92,-5.36 -0.13,-15.66 -0.22,-31.11 -0.24,-46.3 -65.02,-20.11 -134.46,20.52 -174.06,79.88l-5.05 2.48c-9.78,-5.23 -22.88,-6.29 -34.61,-6.61 -63.23,-1.78 -126.39,-3.5 -189.7,-5.19 -31.56,-0.86 -63.25,-1.81 -94.17,-7.71 -40.08,-7.69 -77.91,-23.7 -117.16,-35.11l-10.88 -1.01 -9.86 9.1c-23.91,36.35 -43.16,75.21 -61.07,114.64 -154.13,-54.16 -300.22,-143.72 -370.72,-269.33 -8.7,-15.46 -17.33,-32.02 -32.18,-41.88 -9.71,-6.52 -21.42,-14.21 -32.94,-11.65 -18.91,4.22 -41.34,2.78 -59.63,7.84l1.92 -38.54c10.18,-3.97 20.38,-7.87 30.6,-11.72 57.57,-21.76 116.85,-42.19 166.02,-79.08 19.43,-14.62 38.15,-33.5 41.96,-57.5 3.26,-19.95 -4.28,-39.93 -12.82,-58.27 -13.74,-29.66 -33.47,-60.21 -64.79,-69.77 -39.09,-11.87 -78.93,13.31 -111.72,37.68 -10.04,7.47 -20.04,14.98 -30.01,22.54 -12.33,-22.35 -25.14,-44.49 -41.24,-64.16 6.14,-4.48 11.92,-9.39 17.03,-15.08 12.03,-13.52 19.65,-32.55 14.76,-50.04 -67.9,49.79 -134.56,101.24 -199.98,154.29 -15.62,12.6 -34.89,24.71 -48.32,39.64 -8.94,9.87 -14.84,11.8 -1.08,15.13 13.46,3.34 31.34,-8.95 47.63,-22.93 1.62,7.57 9.25,16.27 12.49,21.61 11,18.14 21.99,36.21 32.92,54.4 -52.39,44.32 -103.66,89.98 -153.73,136.95 -9.32,8.78 -20.42,18.19 -33.17,16.78 -17.7,-1.94 -26.18,-22.84 -40.7,-33.08 -13.45,-9.34 -33.03,-8.72 -45.69,1.54 14.6,40.02 37.92,76.77 67.98,107.05 25.72,25.88 148.47,-57.87 180.01,-72.56 15.96,-7.43 31.97,-14.71 48.06,-21.85l-5.89 31.19c-1.54,8.54 -2.62,18.78 4.6,24.62l18.72 4.67c23.59,0.13 47.31,-3.79 69.3,-11.47l0.01 0.28c1.38,37.53 50.56,83.75 72.16,112.33 30.37,40.08 61.84,79.39 95.71,116.7 79.73,88.04 172.21,164.39 273.37,226.63l-1.06 2.4c-10.57,24.16 -35.2,72.48 -17.86,97.71 14.91,21.85 64.39,42.04 87.84,55.26 65.12,36.51 134.65,65.8 206.81,86.85 39.08,11.38 78.81,20.35 118.86,27.97 17.12,4.18 40.65,8.21 69.39,12.02 13.84,2.2 27.71,4.32 41.58,6.39 5.82,0.87 12.28,1.52 17.95,0.44l6.51 0.64c-12.94,113.2 -24.56,259.75 -34.04,413.9l-13.66 0.73 -0.28 0.01c-47.53,0.96 -95.07,1.64 -142.6,1.93 -46.47,0.29 -110.04,1.25 -174.91,9.37 -60.51,5.81 -222.43,31.01 -234.74,85.41 -0.58,2.56 -1.12,5.24 -1.63,8.02 -10.04,10.81 -18.65,22.74 -25.48,35.96 -3.84,7.44 -7.32,15.85 -10.49,25.02 -13.29,15.35 -30.34,37.93 -50.03,73.25 -120.57,180.4 -251.4,353.65 -382.3,526.66 131.45,6.29 263.27,6.54 394.81,0.61 2.29,-0.1 4.61,-0.2 6.93,-0.36 0.68,299.81 0.72,553.75 1.22,882.77 0.12,59.09 -13.81,212.97 5.86,295.45l0.3 1.27c1.43,5.82 3.02,11.28 4.81,16.31 3.04,8.58 6.64,15.93 10.87,21.73 45.68,62.67 124.63,84.33 203.93,94.08 20.09,2.47 40.21,4.18 59.81,5.59 540.18,39.4 1152.77,-15 1694.19,-1.17 146.64,3.72 306.65,1.57 431.96,-65.54 29.83,-15.98 57.71,-35.62 82.96,-59.76 8.31,-7.96 16.14,-16.75 23.55,-26.21 98.77,-126.23 119.6,-378.22 129.66,-531.37 17.41,-266.41 20.69,-471.65 9.77,-705.19 110.83,-17.91 222.49,-29.96 334.54,-36.12 11.96,-18.26 -3.34,-41.56 -17.72,-57.88 -75.74,-85.13 -152.04,-169.68 -229.1,-253.65 -32.54,-35.45 -127.48,-172.13 -191.61,-206.51 -26.95,-32.37 -59.89,-57.98 -96.77,-78.33zm-2738.98 -1512.06l-2.67 1.41c-25.02,17.95 -49.97,35.83 -74.9,53.78 -6.83,4.89 -8.27,8.75 -6.4,11.77 -10.64,8.72 -21.23,17.5 -31.78,26.33l-0.91 -3.55c-14.9,-24.31 -29.81,-48.53 -44.66,-72.87l-0.18 -0.27c7.38,-6.89 13.85,-13.02 18.59,-16.58 35.04,-26.42 71.47,-50.89 109.08,-73.42l6.95 -4.14c3.64,7.98 12.14,16.32 17.52,24.12l27.37 39.53 -18.01 13.89zm289.83 -77.27l-7.22 -5.6c-7.25,-2.95 -16.63,2.56 -17.58,10.4l-2.09 -2.01c3.26,9.01 7.84,17.56 13.52,25.24l10.18 7.22 9.25 -6.51c4.8,-9.25 0.77,-20.99 -6.06,-28.74zm-69.39 -10.27c-11.87,-21.66 -23.76,-43.42 -33.1,-66.35 -4.19,-10.33 -7.91,-21.21 -8.55,-32.39 8.39,-2.8 17.8,1.47 23.63,8.08 5.82,6.61 8.94,15.06 12.27,23.23 8.24,20.13 18.26,39.38 28.28,58.58 15.24,29.36 30.54,58.8 50.43,85.23 17.55,23.3 38.38,43.89 57.8,65.65l8.62 13.36 -4.83 14.14 -20.04 -7.86c-24.86,-25.7 -48.31,-52.9 -69.98,-81.33 -19.52,-25.48 -29.29,-52.46 -44.53,-80.34zm891.51 -120.21c-5.21,-0.85 -10.41,-1.91 -15.56,-3.24 -47.15,-12.11 -86.61,-44.11 -121.83,-77.76 -64.54,-61.53 -124.69,-144.51 -108.59,-232.2 22.69,30.37 56.47,52.34 93.38,60.82 -11.74,-44.59 -14.85,-91.43 -9.16,-137.2 24.31,29.14 62.91,45.77 100.75,43.34 58.2,-3.72 104.8,-47.61 157.72,-72.01 65.1,-29.99 140.15,-30.21 210.93,-19.03 112.95,17.8 221.48,63.63 313.07,132.07 40.41,30.22 78.48,65.96 99.6,111.79 21.14,45.76 22.53,103.17 -6.98,144.04 -9.02,12.43 -20.55,23.49 -33.61,32.56 10.66,53.44 15.41,108.39 16.68,162.82 3.1,136.83 -17.34,281.01 -101.09,390.17 -25.87,33.72 -58.42,63.93 -98.5,78.93 -40.94,15.37 -86.39,13.67 -129.67,7.22 -307.58,-45.83 -365.3,-300.58 -367.24,-568.06 -0.13,-17.9 -0.18,-36.04 0.1,-54.26zm-845.76 3602.93l0.01 -0.01c1.2,-0.09 2.4,-0.17 3.6,-0.31 3.2,-0.09 6.39,-0.27 9.59,-0.27 2.82,0 5.63,0.07 8.44,0.22m-21.63 0.36l-0.01 0.01m393.95 220.62l0.08 0.01m543.97 9.72l0.04 0 -0.16 0c-43.79,0.45 -87.62,0.73 -131.39,0.73l0 0c-114.09,0 -228.18,-1.77 -342.26,-6.82l-15.6 -0.72m489.41 6.81l4.67 -0.05 0.03 0 -0.15 0 -4.55 0.05zm4.7 -0.05l4.67 -0.05 0.02 0 -0.13 0 -4.56 0.05zm4.69 -0.05l4.69 -0.05 0.01 0 -0.13 0 -4.57 0.05zm4.7 -0.05l9.4 -0.11 -0.11 0 -9.29 0.11zm9.4 -0.11l4.7 -0.05 0 -0.01 4.61 -0.05 0.08 0 -4.69 0.05m4.69 -0.05l0.01 0 4.69 -0.06 0.02 0 4.68 -0.06 0.02 0 4.68 -0.06 0.03 0 4.67 -0.06 0.03 0 4.66 -0.06 0.05 0 4.65 -0.07 0.05 0 4.65 -0.06 0.05 0 4.65 -0.07 0.06 0 4.64 -0.07 0.06 0 4.63 -0.06 0.07 0 4.63 -0.07 0.08 0 4.62 -0.07 0.08 0 4.62 -0.07 0.09 0 4.61 -0.08 0.09 0 4.61 -0.07 0.09 0 4.6 -0.07 0.11 0 4.59 -0.08 0.11 0 4.59 -0.07 0.11 0 4.59 -0.08 0.11 0 9.28 -0.15 0.13 0 4.57 -0.08 0.13 0 4.57 -0.08 0.14 0 4.56 -0.08 0.14 0 4.56 -0.08 0.14 0 4.56 -0.08 0.14 0 9.25 -0.17 0.16 0 4.54 -0.08 0.16 0c39.39,-0.62 77.73,-1.41 117.13,-2.21 202.59,-3.81 406.24,-7.79 608.83,-11.69 330.53,-6.28 661.07,-12.65 991.6,-19.03 33.59,-0.61 67.24,-1.28 100.79,-2.05l0.32 0 -0.26 0m-1818.41 34.98l-0.16 0m1426.85 -241.96c337.22,8.68 673.83,31.1 1006.33,77.13 17.06,26.38 -2.14,60.11 -33.06,77.55 -30.92,17.53 -70.37,22.66 -107.69,26.64 -97.03,10.45 -196.19,16.38 -294.28,20.36 -39.14,1.54 -78.47,2.76 -117.9,3.81 39.37,-1.03 78.73,-2.24 118.07,-3.79 -39.33,1.54 -78.7,2.75 -118.07,3.79l-0.29 0.01 -4.09 0.11 -0.29 0.01 -4.09 0.1 -0.3 0.01 -4.09 0.1 -0.29 0.01 -4.09 0.1 -0.3 0.01 -4.09 0.1 -0.29 0.01 -4.09 0.1 -0.3 0.01 -4.09 0.1 -0.29 0 -4.1 0.1 -0.29 0.01 -4.1 0.1 -0.33 0 -4.06 0.1 -0.33 0 -4.06 0.1 -0.32 0 -4.07 0.1 -0.32 0 -4.07 0.1 -0.32 0 -4.07 0.1 4.12 -0.1 0.27 0 4.12 -0.1 0.27 0 4.11 -0.1 0.28 0 4.11 -0.1 0.28 0 4.11 -0.1 0.28 0 4.06 -0.1"/>
   <g>
    <path class="fil1" d="M3368.2 6139.03c-114.12,0 -228.26,-1.79 -342.13,-6.83 -165.87,-7.38 -333.16,-22.06 -488.68,-67.28 -121.82,-35.43 -115.13,-138.52 18.72,-156.31 3.26,-0.4 6.46,-0.7 9.63,-0.92 -3.17,0.22 -6.37,0.52 -9.54,0.92 -133.87,17.79 -140.54,120.88 -18.74,156.31 155.54,45.22 322.8,59.9 488.67,67.28 113.97,5.04 228.17,6.83 342.29,6.83 100.38,0 200.76,-1.39 301.07,-3.17 -100.38,1.78 -200.84,3.17 -301.29,3.17zm1027.14 -17.09c330.55,-6.3 661.13,-12.66 991.7,-19.03 93.53,-1.78 187.14,-3.65 280.61,-7.31 -93.47,3.66 -187.15,5.53 -280.7,7.31 -330.57,6.37 -661.06,12.73 -991.61,19.03zm-1593.57 -189.94c0,0 0,0 -0.09,0 17.25,0 34.58,-0.24 52.06,-0.46 543.97,-6.24 1087.1,-33.35 1630.94,-40.48 51.34,-0.64 102.63,-1.1 153.98,-1.41 -51.29,0.31 -102.56,0.77 -153.82,1.41 -543.91,7.13 -1087.04,34.24 -1631.03,40.48 -17.46,0.22 -34.8,0.46 -52.04,0.46zm1940.22 -42.57l-19.27 0c2.8,0 5.44,0 8.24,0 3.63,0 7.37,0 11.03,0z"/>
    <g style="clip-path:url(#id0)">
     <image x="2388.77" y="5857.1" width="3761.72" height="312.31" xlink:href="1.svg_Images\1.svg_ImgID1.png"/>
    </g>
    <path class="fil2" d="M2441.75 3032.56c157.88,174.33 365.68,302.89 592.07,366.6 26.64,7.47 55.16,13.99 81.41,5.38 48.56,-16.1 66.29,-74.2 77.15,-124.16 8.23,-38.15 15.85,-80.72 -4.89,-113.82 -26.96,-42.96 -86.24,-47.78 -136.65,-53.44 -220.48,-24.71 -508.47,-132.71 -617.08,-326.22 -8.7,-15.46 -17.33,-32.02 -32.18,-41.88 -9.71,-6.52 -21.42,-14.21 -32.94,-11.65 -40.79,9.09 -97.89,-8.09 -94.76,70.16 1.38,37.53 50.56,83.75 72.16,112.33 30.37,40.08 61.84,79.39 95.71,116.7z"/>
    <path class="fil3" d="M2990.85 3501.41c74.99,21.83 152.35,34.8 229.83,46.38 9.93,1.48 21.73,2.34 28.27,-4.98l4.8 -18.65c0.64,-80.16 -9.62,-162.43 15.31,-239.05 8.79,-26.95 21.76,-52.59 29.53,-79.85 15,-52.59 9.78,-109.63 29.2,-160.9 5.68,-15.08 13.37,-32.39 4.91,-46.31 -8.48,-14.05 -28.36,-16.07 -45.38,-16.54 -63.23,-1.78 -126.39,-3.5 -189.7,-5.19 -31.56,-0.86 -63.25,-1.81 -94.17,-7.71 -40.08,-7.69 -77.91,-23.7 -117.16,-35.11l-10.88 -1.01 -9.86 9.1c-32.79,49.85 -56.8,104.4 -80.65,158.71 -23.61,53.76 -47.24,107.51 -70.84,161.29 -10.57,24.16 -35.2,72.48 -17.86,97.71 14.91,21.85 64.39,42.04 87.84,55.26 65.12,36.51 134.65,65.8 206.81,86.85z"/>
    <path class="fil2" d="M4511.17 3428.85c-35.67,-21.83 -56.64,-65.43 -51.66,-106.9 5.11,-41.49 36.03,-78.7 75.89,-91.3 19.97,-6.28 41.09,-6.83 61.99,-9.07 105.6,-11.43 200.76,-69.31 283.18,-136.28 82.52,-66.97 156.47,-144.42 243.02,-206.04 42.04,-29.9 90.2,-56.77 141.78,-54.61 22.84,30.46 23.54,73.11 11.27,109.07 -12.2,36.05 -35.67,66.97 -58.82,97.28 -44.9,58.97 -90.2,118.32 -144.57,168.73 -102.87,95.58 -233.46,154.93 -362.2,210.93 -64,27.75 -140.37,54.55 -199.88,18.19z"/>
    <path class="fil2" d="M3775.06 2927.36c43.28,6.45 88.73,8.15 129.67,-7.22 40.08,-15 72.63,-45.21 98.5,-78.93 83.75,-109.16 104.19,-253.34 101.09,-390.17 -2.65,-113.5 -20.44,-229.18 -75.3,-329.01 -109.93,-200.05 -383.38,-296.77 -545.44,-97.34 -73.98,91.04 -76.62,217.91 -75.76,334.61 1.94,267.48 59.66,522.23 367.24,568.06z"/>
    <path class="fil3" d="M4397.58 3711.39l0.31 -15.21c3.57,-144.73 -28.98,-290.32 -93.92,-419.77 -32.33,-64.33 -78.71,-127.95 -119.49,-187.23 -43.19,-63.01 -133.08,-72.41 -203.86,-73.4 -76.05,-1.1 -152.97,9.01 -227.78,-5.22 -64.88,-12.35 -125.55,-42.48 -190.64,-53.14 -104.28,-17 -257.86,3.11 -317.06,97.67 -55.78,88.95 -36.51,44.81 -102.25,146.82 -77.05,119.56 -95.15,119.25 -110.15,258.94 -3.5,32.02 29.35,53.53 62.54,64.48 25.88,8.54 79.02,16.62 149.86,23.54 -42.87,375.24 -71.39,1116.79 -55.07,1288.1 4.27,44.5 55.23,79.32 117.84,80.4 281.31,5.04 1009.65,13.74 1085.62,-28.28 115.38,-63.93 90.21,-350.52 87.65,-453.32 -6.14,-243.32 -86,-484.69 -83.6,-724.38z"/>
    <path class="fil3" d="M4742.52 3542.75c-234.85,24.84 -454.1,167.81 -571.63,372.59 -37.06,-286.75 -74.19,-573.5 -111.26,-860.25 214.04,34.02 432.58,39.37 648,15.92 20.2,156.38 31.94,314.01 34.89,471.74z"/>
    <path class="fil4" d="M3268.84 4089.45c-11.81,285.34 -23.15,573.1 -23.7,860.16 396.84,81.11 786.77,49.42 1175.68,-30.83 -112.67,-657.03 -223.44,-1316.77 -121.67,-1911.33 -59.97,-1.07 -172.46,-26.71 -232.36,-27.81 -12.75,269.27 15.15,780.62 2.49,1049.91 -179.64,9.07 -359.16,18.1 -538.8,27.17 -0.46,-342.38 -28.89,-808.58 -29.44,-1150.96 -72.56,-22.44 -150.63,30.76 -186.59,101.23 -36.05,70.39 -12.2,277.5 -15.55,357.53 -10.02,241.61 -20.04,483.23 -30.06,724.93z"/>
    <path class="fil5" d="M3759.98 2261.41c-81.64,3.96 -161.58,24.55 -242.22,38.45 -41.49,7.16 -84.61,12.44 -125.4,1.94 -47.15,-12.11 -86.61,-44.11 -121.83,-77.76 -64.54,-61.53 -124.69,-144.51 -108.59,-232.2 22.69,30.37 56.47,52.34 93.38,60.82 -11.74,-44.59 -14.85,-91.43 -9.16,-137.2 24.31,29.14 62.91,45.77 100.75,43.34 58.2,-3.72 104.8,-47.61 157.72,-72.01 65.1,-29.99 140.15,-30.21 210.93,-19.03 112.95,17.8 221.48,63.63 313.07,132.07 40.41,30.22 78.48,65.96 99.6,111.79 21.14,45.76 22.53,103.17 -6.98,144.04 -32.88,45.3 -99.14,72.63 -150.81,50.19 -69.92,-30.46 -132.77,-48.25 -210.46,-44.44z"/>
    <path class="fil6" d="M2341.53 2690.95c57.57,-21.76 116.85,-42.19 166.02,-79.08 19.43,-14.62 38.15,-33.5 41.96,-57.5 3.26,-19.95 -4.28,-39.93 -12.82,-58.27 -13.74,-29.66 -33.47,-60.21 -64.79,-69.77 -39.09,-11.87 -78.93,13.31 -111.72,37.68 -121.89,90.67 -238.65,188.34 -349.53,292.35 -9.32,8.78 -20.42,18.19 -33.17,16.78 -17.7,-1.94 -26.18,-22.84 -40.7,-33.08 -13.45,-9.34 -33.03,-8.72 -45.69,1.54 14.6,40.02 37.92,76.77 67.98,107.05 25.72,25.88 148.47,-57.87 180.01,-72.56 66.42,-30.92 133.94,-59.35 202.45,-85.14z"/>
    <path class="fil7" d="M2516.41 2425.25c-11.87,-21.66 -23.76,-43.42 -33.1,-66.35 -4.19,-10.33 -7.91,-21.21 -8.55,-32.39 8.39,-2.8 17.8,1.47 23.63,8.08 5.82,6.61 8.94,15.06 12.27,23.23 8.24,20.13 18.26,39.38 28.28,58.58 15.24,29.36 30.54,58.8 50.43,85.23 17.55,23.3 38.38,43.89 57.8,65.65l8.62 13.36 -4.83 14.14 -20.04 -7.86c-24.86,-25.7 -48.31,-52.9 -69.98,-81.33 -19.52,-25.48 -29.29,-52.46 -44.53,-80.34z"/>
    <path class="fil7" d="M2585.8 2435.52l-7.22 -5.6c-7.25,-2.95 -16.63,2.56 -17.58,10.4l-2.09 -2.01c3.26,9.01 7.84,17.56 13.52,25.24l10.18 7.22 9.25 -6.51c4.8,-9.25 0.77,-20.99 -6.06,-28.74z"/>
    <path class="fil8" d="M2307.66 2768.03l-4.34 18.26 -18.04 12.57c-25.08,10.57 -52.98,16.01 -80.71,15.86l-18.72 -4.67c-7.22,-5.84 -6.14,-16.08 -4.6,-24.62 8.17,-43.12 16.25,-86.24 24.4,-129.36l4.67 -14.38 16.78 -13.19c13.74,-7.71 27.88,-14.78 42.33,-21.36 10.04,-4.61 35.59,-18.04 44.84,-7.01 7.84,9.32 -0.4,42.2 -0.93,53.6 -1.87,38.08 -3.74,76.14 -5.68,114.3z"/>
    <path class="fil7" d="M2262.14 2439.39c15.61,-9.31 31.62,-18.5 43.82,-32.08 12.03,-13.52 19.65,-32.55 14.76,-50.04 -67.9,49.79 -134.56,101.24 -199.98,154.29 -15.62,12.6 -34.89,24.71 -48.32,39.64 -8.94,9.87 -14.84,11.8 -1.08,15.13 24.77,6.14 64.55,-40.63 81.72,-53.52 35.04,-26.42 71.47,-50.89 109.08,-73.42z"/>
    <path class="fil8" d="M2167.97 2625.39l2.73 2.47 2.95 -0.77 9.72 -8.7 -4.06 -15.86c-14.9,-24.31 -29.81,-48.53 -44.66,-72.87 -4.51,-7.29 -14.6,3.81 -15.76,8.94 -1.88,8.39 8.61,19.89 12.57,26.41 12.2,20.13 24.4,40.17 36.51,60.38z"/>
    <path class="fil8" d="M2325.37 2515.3l3.03 3.33 11.65 -6.83 -4.33 -15.15c-15.16,-27.66 -30.4,-55.54 -51.05,-79.32l-4.27 -3.02 -4.21 1.39c-20.81,12.51 0.33,29.04 10.42,43.67 12.9,18.63 25.78,37.28 38.76,55.93z"/>
    <path class="fil9" d="M2260.88 2589.25c14.85,-1.93 29.14,-6.98 42.9,-12.88 11.1,-4.76 22.84,-10.81 27.66,-21.85 4.19,-9.77 1.79,-21.36 -3.34,-30.76 -4.98,-9.01 -14.38,-17.4 -24.4,-15.06l-10.4 5.5c-25.02,17.95 -49.97,35.83 -74.9,53.78 -27.04,19.34 30.46,22.68 42.48,21.27z"/>
    <path class="fil10" d="M5125.15 2937.38c-10.41,5.37 -21.45,16.56 -16.25,27.04l14.23 9.78c18.87,5.9 38.84,5.99 58.42,4.74 41.32,-2.56 81.97,-10.64 122.51,-18.72 8.48,-1.7 18.65,-5.05 20.04,-13.44l-8.39 -14.6 -17.55 -3.74c-58.51,-4.18 -117.07,-18.72 -173.01,8.94z"/>
    <path class="fil6" d="M5191.48 2524.71l5.38 -1.72c8.08,-3.57 6.82,-13.68 3.17,-20.35 -4.03,-7.16 -13.59,-10.72 -21.36,-7.93 -11.74,4.19 -15.53,24.32 -3.97,30 -2.09,37.35 0.25,74.81 2.8,112.18 3.66,54.92 7.38,109.84 11.12,164.77 1.94,27.72 3.81,55.47 5.59,83.2 0.93,13.06 1.63,26.12 2.71,39.15 1.41,16.17 3.11,15.7 19.05,16.1 -9.4,-138.36 -16.95,-276.88 -24.49,-415.4z"/>
    <path class="fil11" d="M5187.92 2537.37c9.4,-0.55 18.87,1.39 28.12,3.33 36.29,7.46 72.72,14.99 108.3,26.73 -4.51,8.54 -12.13,13.83 -19.51,18.63 -15.77,10.42 -31.69,20.59 -47.7,30.46 -27.35,16.87 -56.64,33.25 -87.01,29.99l-2.33 -0.77 -1.32 -3.96c-1.32,-13.28 -0.31,-26.8 -1.85,-40.08 -1.96,-15.95 -9.72,-34.97 -6.76,-51.14 2.64,-14.36 20.04,-12.57 30.06,-13.19z"/>
    <path class="fil12" d="M5552.43 4563.34c14.38,16.32 29.68,39.62 17.72,57.88 -115.77,6.36 -231.12,19.02 -345.57,37.92 -12.51,-110.24 -35.65,-219.32 -68.99,-325.22 -13.5,-42.79 -113.66,-228.64 -54.53,-238.26 59.2,-9.71 183.97,172.3 222.27,214.03 77.06,83.97 153.36,168.52 229.1,253.65z"/>
    <path class="fil12" d="M2557.28 4202.47c-120.57,180.4 -251.4,353.65 -382.3,526.66 131.45,6.29 263.27,6.54 394.81,0.61 12.35,-0.53 25.57,-1.39 35.5,-8.85 13.74,-10.17 16.78,-29.14 18.34,-46.14 6.37,-70.31 4.5,-141.16 2.71,-211.78 -1.72,-64.57 -3.35,-129.05 -4.98,-193.6 -1.16,-44.84 39.09,-136.19 15.77,-174.11 -5.26,13.06 -36.03,28.59 -79.85,107.21z"/>
    <path class="fil13" d="M2577.94 5612.15c0.15,70.78 -19.89,277.59 21.84,334.76 57.26,78.55 166.8,92.69 263.74,99.67 540.18,39.4 1152.77,-15 1694.19,-1.17 181.55,4.61 383.62,0.24 514.92,-125.3 119.16,-114.06 142.4,-392.95 153.21,-557.58 23.76,-363.59 21.21,-613.21 -7.86,-976.4 -6.92,-86 -16.39,-175.27 -61.6,-248.67 -92.23,-149.71 -293.29,-180.56 -468.7,-192.3 -543.37,-36.12 -1088.51,16.93 -1633.12,20.28 -123.67,0.77 -368.32,6.3 -436.76,138.76 -44.82,86.86 -42.11,302.37 -41.71,398.23 1.32,408.49 1.23,701.23 1.85,1109.72z"/>
    <path class="fil12" d="M2691.29 4745.05c145.43,22.15 293.59,11.74 440.42,2.33 588.49,-37.99 1178.09,-60.36 1767.74,-67.19 101.08,-1.16 203.09,-1.78 302.3,17.64 -2.95,-28.05 -9.87,-55.56 -16.78,-82.98 -52.22,-206.26 -87.87,-436.54 -166.73,-634.1 -7.45,-18.57 -235.31,-46.93 -266.38,-48.1 -101.79,-4.03 -240.16,3.19 -341.85,0 -205.41,-6.58 -398.85,0 -604.34,0 -203.31,-0.07 -405.16,20.22 -608.23,30.85 -103.33,5.44 -210.77,1.94 -313.86,10.95 -57.1,5.06 -226.08,30.15 -238.67,85.77 -9.78,43.21 -9.56,120.58 -3.26,165.32 8.08,56.8 15.3,113.75 21.6,170.76 12.88,115.93 22.22,232.23 28.04,348.75z"/>
   </g>
  </g>
 </g>
</svg>
