<?xml version="1.0" encoding="UTF-8"?>
<!DOCTYPE svg PUBLIC "-//W3C//DTD SVG 1.1//EN" "http://www.w3.org/Graphics/SVG/1.1/DTD/svg11.dtd">
<!-- Creator: CorelDRAW 2017 -->
<svg xmlns="http://www.w3.org/2000/svg" xml:space="preserve" width="80mm" height="80mm" version="1.1" style="shape-rendering:geometricPrecision; text-rendering:geometricPrecision; image-rendering:optimizeQuality; fill-rule:evenodd; clip-rule:evenodd"
viewBox="0 0 8000 8000"
 xmlns:xlink="http://www.w3.org/1999/xlink">
 <defs>
  <style type="text/css">
   <![CDATA[
    .str0 {stroke:#FEFEFE;stroke-width:141.11;stroke-linejoin:bevel;stroke-miterlimit:10}
    .fil1 {fill:#333333;fill-rule:nonzero}
    .fil2 {fill:#4D4D4D;fill-rule:nonzero}
    .fil3 {fill:#537082;fill-rule:nonzero}
    .fil5 {fill:#5E625E;fill-rule:nonzero}
    .fil4 {fill:#97A8B2;fill-rule:nonzero}
    .fil8 {fill:#AA6A64;fill-rule:nonzero}
    .fil0 {fill:#C7B299;fill-rule:nonzero}
    .fil7 {fill:#E5E5E5;fill-rule:nonzero}
    .fil6 {fill:white;fill-rule:nonzero}
   ]]>
  </style>
     <clipPath id="id0">
      <path d="M4413.95 6825.58c-8.82,0 -17.12,0 -25.42,-0.1 -313.25,-3.92 -625.99,-7.93 -939.25,-11.85 -3.63,0 -6.22,0 -9.85,0l0 0 0 0c-39.94,0 -84.54,2.74 -131.21,5.65 -47.2,2.83 -95.43,5.66 -141.59,5.66 -50.83,0 -99.06,-3.38 -139.52,-14.04 -44.6,-11.67 -62.75,-28.63 -62.75,-46.87l0 -0.45c0,-31.46 52.9,-66.47 114.1,-83.88 185.15,-53.06 381.2,-64.64 575.17,-75.95 163.89,-9.48 328.81,-18.96 493.22,-19.05l7.78 0c144.7,0.09 288.88,7.65 431.5,28.99 52.9,7.84 116.7,28.17 122.4,75.58 2.59,21.97 -9.85,43.4 -25.41,60.36 -62.24,66.83 -170.11,75.95 -269.17,75.95l0 0z"/>
     </clipPath>
     <clipPath id="id1">
      <path d="M4413.95 6825.58c-8.82,0 -17.12,0 -25.42,-0.1 -313.25,-3.92 -625.99,-7.93 -939.25,-11.85 -3.63,0 -6.22,0 -9.85,0l0 0 0 0c-39.94,0 -84.54,2.74 -131.21,5.65 -47.2,2.83 -95.43,5.66 -141.59,5.66 -50.83,0 -99.06,-3.38 -139.52,-14.04 -44.6,-11.67 -62.75,-28.63 -62.75,-46.87l0 -0.45c0,-31.46 52.9,-66.47 114.1,-83.88 185.15,-53.06 381.2,-64.64 575.17,-75.95 163.89,-9.48 328.81,-18.96 493.22,-19.05l7.78 0c144.7,0.09 288.88,7.65 431.5,28.99 52.9,7.84 116.7,28.17 122.4,75.58 2.59,21.97 -9.85,43.4 -25.41,60.36 -62.24,66.83 -170.11,75.95 -269.17,75.95l0 0z"/>
     </clipPath>
 </defs>
 <g id="Layer_x0020_1">
  <metadata id="CorelCorpID_0Corel-Layer"/>
  <g id="_2495063204432">
   <g>
    <g style="clip-path:url(#id0)">
     <image x="2920.28" y="6550.41" width="1829.75" height="321.66" xlink:href="10_Images\10_ImgID1.png"/>
    </g>
    <path class="fil0 str0" d="M3302.06 5932.69l8.52 -8.37c4,-7.85 -1.01,-17.17 -5.51,-24.58 -13.03,-20 -26.07,-39.95 -38.58,-59.89l-8.52 -8.1c-5.01,-1.58 -10.03,1.48 -14.53,4.4 -17.04,11.72 -34.07,23.45 -51.11,35.13 -21.55,14.62 -43.08,29.3 -62.12,46.84 -3.51,3.3 -7.52,7.03 -8.52,11.78l1 12.02c8.53,27.55 38.08,67.83 70.65,56.41 38.07,-13.53 76.15,-42.19 108.72,-65.64z"/>
    <path class="fil0 str0" d="M3723.42 6516.36l-1.5 3.79 -4.5 1.05c-29.08,-1.66 -58.13,-4.81 -87.19,-9.41l-10.01 -3.75c-3.51,-3.52 -4.02,-9.38 -3.51,-14.49 0.99,-42.45 2.5,-84.89 4,-127.31 0,-6.06 0.5,-12.58 4.51,-17.28 4.51,-5.81 12.52,-7.19 19.54,-7.87 28.06,-2.66 80.67,-2.73 82.67,32.76 2.5,46.74 -3.01,95.59 -4.01,142.51z"/>
    <path class="fil1 str0" d="M3746.47 6486.49c-2,33.46 19.53,67.02 50.61,79.61 21.54,8.8 46.08,7.65 69.63,7.3 64.14,-1.04 128.77,4.56 191.9,16.6 10.53,1.96 21.04,4.2 29.06,10.57 8.01,6.26 13.03,15.87 17.03,25.35 9.02,20.45 15.04,42.04 18.04,64.04 -131.77,3.23 -263.04,6.54 -394.81,9.81 -41.08,1.04 -82.66,2.06 -123.25,-1.92 -8.52,-0.84 -18.04,-2.34 -23.55,-8.86 -5.51,-6.52 -5.01,-15.93 -4.52,-24.39 1.51,-29.92 3.02,-59.89 5.02,-89.78 1.01,-18.29 -5.02,-59.42 7.51,-74.52 13.54,-15.92 46.1,-8.51 64.64,-8.96 31.06,-0.7 62.13,-2.32 92.69,-4.85z"/>
    <path class="fil2 str0" d="M3859.2 3741.41c-118.24,7.67 -249.51,42.14 -303.12,137.34 -28.05,50.13 -29.56,108.87 -28.56,165.17 6.52,446.62 122.25,888.88 108.73,1335.39 -9.53,312.28 -81.68,624.63 -52.62,935.07 -7.51,-1.16 -14.53,-2.09 -20.04,-0.54 -15.02,4.55 -14.03,28.85 -10.01,42.42l6.01 11.59c5.01,4.04 11.51,4.75 17.54,5.2 66.12,5.21 131.77,10.38 197.89,15.58l13.04 -1.54c7.02,-3.66 8.01,-12.6 8.51,-20.21 1,-11.2 1,-24.34 -8.01,-31.26 -5.02,-3.9 -11.52,-4.64 -18.04,-5.15 82.67,-273.61 156.32,-549.49 218.94,-827.3 15.54,-67.14 30.07,-134.39 42.6,-201.96 55.61,-308.69 61.12,-622.73 66.63,-935.48 2.5,-158.47 4.51,-312.78 27.56,-469.2 21.04,-140.79 -138.28,-163.44 -267.05,-155.12z"/>
    <path class="fil1 str0" d="M3210.37 5993.56c6.51,9.98 10.02,22.96 5.51,34.04 -6.01,14.87 -24.05,23.02 -27.56,38.77 -1.5,8.41 2.01,16.89 5.02,24.86 6.52,15.48 13.02,31.12 22.04,44.99 10.52,15.33 24.06,28.14 36.07,42.04 20.04,22.99 36.57,48.94 52.61,74.8 4.51,7.1 9.02,14.26 12.03,22.13 7.51,19.86 4.51,42.24 -1.51,62.59 -6.5,20.34 -16.03,39.57 -21.54,60.06 -10.53,-14.57 -24.05,-26.8 -37.07,-39.11 -51.12,-48.5 -99.72,-99.96 -147.8,-151.43 -42.1,-44.83 -84.68,-89.61 -126.78,-134.42 -10.5,-11.56 -22.04,-24.5 -23.03,-40.28 -1.01,-13.42 6.5,-26.1 15.02,-36.41 25.55,-30.77 63.63,-47.37 98.71,-64.65 14.03,-6.71 29.56,-16.12 45.09,-15.23 18.04,1 29.56,15.13 41.09,26.92 17.03,17.08 37.57,31.1 52.1,50.33z"/>
    <path class="fil2 str0" d="M4425.36 3997.83c-14.03,-24.16 -44.08,-33.57 -71.14,-39.92 -95.69,-22.36 -193.9,-31.63 -291.6,-27.82 -63.13,2.45 -188.89,-3.14 -218.94,67.9 -25.06,58.81 20.53,163.03 32.05,221.28 19.54,101.21 35.08,203.24 46.6,305.64 12.52,110.12 20.04,220.8 23.05,331.64 0.5,12.96 0.99,26.14 2,39.27l0 -0.09c-5.51,15.77 -16.53,35.88 -22.54,51.58 -15.54,40.91 -33.08,81.38 -56.62,118.51 -32.57,50.56 -75.66,93.79 -117.24,137.53 -126.26,132.47 -243.5,272.86 -350.72,420.02 -44.59,60.8 -89.68,124.49 -148.31,171.19 -9.52,-8.16 -18.53,-16.28 -28.05,-24.4l-11.52 -5.34 -7.01 3.59c-11.54,9.47 -31.08,31.26 -28.57,47.96 2.5,16.32 28.57,34.36 39.08,45.67 19.04,19.55 37.57,39.15 53.11,61.27 10.53,15.26 20.04,31.77 33.58,44.26 14.01,12.47 34.05,20.19 51.1,13.69 16.53,-6.26 26.04,-23.11 34.57,-38.65l3.01 -10.26 -5.51 -9.87c55.1,-48.11 101.7,-106.08 154.3,-157.18 55.62,-53.5 117.74,-99.66 179.38,-146.48 197.89,-150.63 396.81,-313.92 579.68,-481.15 25.55,-52.51 34.57,-111.42 42.59,-169.35 43.09,-300.98 73.64,-603.59 92.69,-907 1.5,-21.65 2,-44.85 -9.02,-63.49z"/>
    <path class="fil0 str0" d="M4864.77 2418.05c11.52,5 25.05,8.31 36.57,3.19 18.04,-7.85 22.54,-30.6 34.57,-45.98 10.52,-14.18 27.55,-21.9 42.59,-32.01 37.58,-25.97 62.12,-70.7 63.13,-116.65 0.5,-10.92 -0.51,-22.2 -6.02,-31.77 -11.02,-20.99 -40.08,-27.2 -62.62,-19.58 -22.55,7.61 -40.09,25.65 -55.62,44.09 -26.06,32.02 -48.6,67.24 -66.14,104.66 -8.01,16.49 -22.54,40.04 -23.55,58.47 -1.5,18.89 19.55,28.11 37.09,35.58z"/>
    <path class="fil3 str0" d="M3419.81 2892.12c24.04,-164.25 60.61,-331.93 154.8,-468.46 94.21,-136.49 259.54,-235.53 422.88,-208.14 37.07,6.22 74.15,19.15 102.2,44.04 22.05,19.55 37.58,45.3 50.61,71.5 46.59,91.19 71.14,191.5 94.19,291.15 98.7,426.78 172.35,859.47 219.44,1295.01 3.02,28.03 5.02,59.41 -12.52,81.35 -18.54,22.99 -51.6,26.76 -81.17,28.77 -139.28,9.48 -278.56,18.95 -417.35,28.39 -129.77,8.84 -263.54,17.8 -391.8,-8.5 -167.34,-34.32 -157.32,-91.83 -170.36,-250.66 -24.04,-301.32 -14.52,-605.35 29.08,-904.45z"/>
    <path class="fil0 str0" d="M3883.75 1370.85c-82.17,72.19 -134.28,174.41 -163.34,280.17 -31.55,115.44 -36.57,243.1 15.04,351.07 51.6,107.97 169.85,188.93 288.08,171.31 79.17,-11.77 146.81,-63.84 198.41,-124.87 132.78,-156.96 169.85,-385.69 104.71,-579.23 -26.54,-78.66 -67.63,-175.57 -153.31,-195.9 -92.19,-22 -222.45,38.98 -289.59,97.45z"/>
    <path class="fil4 str0" d="M4271.04 2638.85c60.63,149.5 121.75,299.06 182.38,448.61 17.03,40.89 34.06,84.63 26.05,128.06 -14.53,76.47 -98.19,117.8 -173.85,134.88 -149.81,-212.63 -307.64,-419.66 -472.47,-620.67 -94.2,-114.28 -240.5,-378.38 -24.55,-457.78 243.99,-89.94 389.3,187.92 462.44,366.9z"/>
    <path class="fil4 str0" d="M4802.13 2414.34c19.55,-29.51 104.22,-18.89 129.27,6.17 -69.64,251.76 -170.35,505.57 -224.46,760.9 -17.03,79.26 -38.58,166.69 -105.71,212.03 -28.56,19.34 -63.13,28.71 -97.2,34.52 -61.13,10.53 -135.28,5.16 -169.86,-46.64 -49.6,-74.2 11.53,-146.3 60.13,-197.75 57.62,-60.63 82.16,-99.62 117.24,-181.58 82.16,-190.14 175.85,-415.4 290.59,-587.65z"/>
    <path class="fil5 str0" d="M4802.13 2414.34c24.05,-7.92 43.59,-43.74 57.13,-60.23 52.6,-64.93 105.7,-129.87 165.33,-188.88 3.5,-3.6 7.51,-7.87 7.01,-13.03l-5.51 -10.47c-16.53,-17.94 -58.61,-36.87 -84.18,-35.02 -10.01,0.69 -19.03,5.8 -27.55,11.12 -30.56,19.14 -58.11,42.59 -81.66,69.44 -24.05,26.8 -43.59,56.81 -63.13,86.68 -18.04,27.1 -36.08,54.16 -54.11,81.27l-3.51 10.96c1.51,14.09 34.57,18.14 44.6,25.41 9.01,6.31 15.02,18.04 25.55,22.14 7.01,2.86 13.52,2.71 20.03,0.61z"/>
    <path class="fil6 str0" d="M4783.09 2368.3l10.03 4.46c7.51,0.59 13.02,-6.02 17.54,-11.93 32.56,-41.74 67.63,-81.01 106.22,-117.2 28.54,-27.1 60.11,-54.25 73.14,-91.58l0.49 -6.36 -4.5 -3.61c-8.52,-4.26 -17.04,-8.48 -25.55,-12.72 -5.01,-2.71 -11.02,-5.51 -17.04,-5.51 -8.51,-0.06 -16.03,5.25 -22.54,10.46 -41.09,32.02 -78.17,69.54 -109.73,111.08 -16.03,20.74 -30.56,42.54 -43.58,65.19 -4.01,6.8 -18.55,25.75 -17.05,33.52 1.51,9.12 25.06,19.33 32.57,24.2z"/>
    <path class="fil6 str0" d="M4768.06 2370.5l4.01 1.95 1.5 3.76 -3.5 2.75 -4.51 -0.65 -12.03 -5.31c-3.01,-1.95 -5.01,-5.91 -0.49,-7.36l15.02 4.86z"/>
    <path class="fil7 str0" d="M4295.1 2623.91c-26.06,-42.02 -35.58,-92.53 -42.1,-136.57 -10.51,-68 -51.1,-223.22 -93.68,-377.03l-3.01 2.1c43.09,153.52 83.17,307.58 93.69,375.37 6.51,44.34 16.54,95.26 42.09,137.74 13.02,21.44 30.56,40.43 47.09,58.92l2 -2.16c-16.53,-18.28 -33.56,-37.16 -46.08,-58.37z"/>
    <path class="fil7 str0" d="M4733 2375.06c-52.62,55.52 -72.15,151.15 -93.2,231.27 -10.52,41.48 -11.02,85.13 -12.03,127.31l0 14.03c-2,112.43 -12.52,241.4 -79.66,345.76 -24.55,38.27 -69.14,77.81 -113.73,63.38 -19.05,-6.12 -36.07,-21.94 -47.59,-44.64 -17.54,-33.31 -21.55,-72.2 -24.06,-112.44 -2,-32.7 -4.01,-66.02 -5.51,-98.25 -4.5,-86.08 -9.02,-175.06 -22.04,-261.73 -21.05,-138.89 -60.63,-249.31 -122.26,-337.44 -50.1,-72.2 -116.73,-131.52 -180.37,-186.09l-2.99 -2.3c-21.05,-18.04 -42.6,-36.63 -60.63,-58.12 -59.13,-70.79 -78.67,-178.11 -55.12,-295.56 4.51,0.96 10.02,0.51 14.53,-2.05 1.5,-5.9 3.01,-12.12 1,-17.99 -1.5,-5.85 -7.51,-11.06 -13.02,-9.66l2.5 1.65c-9.52,-6.11 -23.05,6.72 -19.03,17.48l9.02 8.92c-24.06,119.2 -4.02,228.38 56.11,300.52 18.54,21.79 40.08,40.58 61.63,58.72l2.49 2.35c63.65,54.31 129.77,113.38 179.88,185.09 60.63,87.47 100.21,197.14 121.24,335.29 13.03,86.36 17.54,175.25 22.04,261.18 1.51,32.27 3.51,65.58 5.53,98.35 2.5,40.83 6.5,80.26 24.04,114.43 12.53,23.96 30.57,40.69 50.61,47.19 7.01,2.26 14.03,3.31 21.04,3.31 40.08,0 77.15,-34.87 99.21,-68.78 67.63,-105.47 78.65,-235.33 80.16,-348.47l0.49 -14.07c0.51,-41.9 1.01,-85.19 11.54,-126.02 20.53,-79.01 40.07,-174.05 91.69,-229.11l-3.51 -3.51z"/>
    <path class="fil7 str0" d="M4337.68 2743.25l-2.5 -0.79 -1.01 -2.5 0 -20.99c-0.5,-4.92 -2.5,-9.83 -4.01,-14.59l-2 -6.06c-2,-7.47 -4,-16.59 0,-21.35 2,-2.46 5.51,-3.35 10.52,-2.7l8.01 5.41 1.51 5.56 5.01 57.12 -15.02 0.89 -0.51 0z"/>
    <path class="fil8 str0" d="M4408.33 1548.31c-23.55,-31.97 -42.09,-67.79 -54.11,-105.72 -9.02,-26.64 -27.05,-42.68 -45.6,-62.22 -1,-19.15 -13.03,-36.07 -24.54,-51.41 -45.61,-59.27 -100.22,-116.04 -171.36,-139.39 -39.58,-12.98 -82.17,-14.82 -123.75,-15.12 -42.6,-0.3 -86.18,0.99 -127.26,12.33 -41.6,11.36 -81.16,33.66 -106.22,68.48 -8.52,12.07 -12.52,25.15 -13.03,38.57l-9.52 -1.05c-111.73,-6.06 -178.37,148.36 -206.42,265.5 -5.51,23.19 -10.52,47.05 -21.04,67.39 -10.03,20.4 -27.06,37.07 -46.11,37.38 26.56,19.23 59.64,24.7 89.2,14.77 3.01,35.48 -17.05,66.64 -27.06,100.06 -10.52,36.13 -8.52,77.76 5.01,112.23 9.02,-26.05 25.55,-47.6 46.09,-59.02 17.54,48.09 39.58,101.11 79.16,116.73 15.03,5.77 33.07,7.57 40.59,24.42 4.51,9.36 4.01,21.33 8.51,30.5 6.52,12.63 19.54,15.98 30.56,19.59 12.03,3.66 23.06,9.17 34.08,15.48 4.51,24.61 11.53,47.55 29.57,64.28 -1.51,-13.68 0,-27.55 2.99,-40.97 5.51,4.95 11.02,10.11 16.04,15.77 -2.01,-15.43 -3.51,-31.01 -5.02,-46.54l2.52 -5.17c7.51,-13.47 17.52,-25.59 24.04,-39.68 10.53,-23.03 11.02,-50.84 27.06,-70.24 15.02,-17.94 43.58,-31.26 39.58,-54.31 -1.51,-9.77 -9.52,-17.19 -15.03,-25.25 -14.03,-19.75 -17.04,-45.1 -17.54,-69.24 0,-24.7 4.5,-53.76 26.56,-65.03 16.53,-8.27 36.57,-3.11 51.1,7.87 14.53,10.96 24.56,26.89 33.58,42.43 27.05,-36.47 18.03,-87.13 26.54,-131.67 3.01,-15.34 8.52,-31.02 20.55,-41.28 11.52,-10.23 31.06,-12.93 42.58,-2.62 12.03,10.48 13.04,30.47 26.56,38.63 11.52,7.08 26.56,1.96 39.08,-3.25 20.54,-8.72 41.09,-17.38 62.12,-26.05 4.52,-1.9 9.02,-3.82 14.04,-3.21 11.02,1.35 16.03,13.98 20.03,24.35 6.01,17.04 15.03,33.12 26.07,47.55l9.01 7.47c10.02,3.11 17.03,-9.48 25.55,-15.88 14.53,-10.88 37.07,-2.06 46.6,13.26 10.02,15.38 10.51,34.59 10.51,52.72 26.06,-34.92 43.6,-76.51 49.61,-119.7 27.06,1.41 54.11,2.8 81.66,4.21 -30.56,-0.36 -55.1,-23.85 -73.14,-47.95z"/>
    <path class="fil2 str0" d="M4142.28 3345.49c3.51,-5 8.02,-10.67 14.53,-10.27l10.03 5.77c12.52,11.27 25.05,22.54 37.58,33.87l8.5 10.27c3.51,8.26 -0.49,17.64 -5.01,25.39 -23.04,39.84 -58.61,70.5 -94.69,99.36 -45.09,36.73 -92.19,71.89 -139.79,105.53 -19.03,13.32 -41.59,27.09 -64.13,20.43 -41.08,-70.04 48.11,-98.31 91.7,-135.63 53.59,-45.39 101.2,-97.5 141.28,-154.72z"/>
    <path class="fil2 str0" d="M3814.11 2197.9c38.07,-4.82 76.66,-8.48 115.23,-11.02 55.12,-3.72 114.74,-4.02 161.33,26.54 52.62,34.47 75.16,101.07 76.17,163.68 -29.57,-23.84 -59.13,-47.69 -88.68,-71.53 -24.06,-19.25 -48.11,-38.73 -76.67,-50.11 -35.57,-14.17 -74.65,-14.73 -113.23,-15.03 -16.53,-0.15 -53.6,6.76 -68.15,-0.85 -17.02,-9.12 -9.51,-23.84 -6,-41.68z"/>
   </g>
   <g>
    <g style="clip-path:url(#id1)">
     <image x="2920.28" y="6550.41" width="1829.75" height="321.66" xlink:href="10_Images\10_ImgID2.png"/>
    </g>
    <path class="fil0" d="M3302.06 5932.69l8.52 -8.37c4,-7.85 -1.01,-17.17 -5.51,-24.58 -13.03,-20 -26.07,-39.95 -38.58,-59.89l-8.52 -8.1c-5.01,-1.58 -10.03,1.48 -14.53,4.4 -17.04,11.72 -34.07,23.45 -51.11,35.13 -21.55,14.62 -43.08,29.3 -62.12,46.84 -3.51,3.3 -7.52,7.03 -8.52,11.78l1 12.02c8.53,27.55 38.08,67.83 70.65,56.41 38.07,-13.53 76.15,-42.19 108.72,-65.64z"/>
    <path class="fil0" d="M3723.42 6516.36l-1.5 3.79 -4.5 1.05c-29.08,-1.66 -58.13,-4.81 -87.19,-9.41l-10.01 -3.75c-3.51,-3.52 -4.02,-9.38 -3.51,-14.49 0.99,-42.45 2.5,-84.89 4,-127.31 0,-6.06 0.5,-12.58 4.51,-17.28 4.51,-5.81 12.52,-7.19 19.54,-7.87 28.06,-2.66 80.67,-2.73 82.67,32.76 2.5,46.74 -3.01,95.59 -4.01,142.51z"/>
    <path class="fil1" d="M3746.47 6486.49c-2,33.46 19.53,67.02 50.61,79.61 21.54,8.8 46.08,7.65 69.63,7.3 64.14,-1.04 128.77,4.56 191.9,16.6 10.53,1.96 21.04,4.2 29.06,10.57 8.01,6.26 13.03,15.87 17.03,25.35 9.02,20.45 15.04,42.04 18.04,64.04 -131.77,3.23 -263.04,6.54 -394.81,9.81 -41.08,1.04 -82.66,2.06 -123.25,-1.92 -8.52,-0.84 -18.04,-2.34 -23.55,-8.86 -5.51,-6.52 -5.01,-15.93 -4.52,-24.39 1.51,-29.92 3.02,-59.89 5.02,-89.78 1.01,-18.29 -5.02,-59.42 7.51,-74.52 13.54,-15.92 46.1,-8.51 64.64,-8.96 31.06,-0.7 62.13,-2.32 92.69,-4.85z"/>
    <path class="fil2" d="M3859.2 3741.41c-118.24,7.67 -249.51,42.14 -303.12,137.34 -28.05,50.13 -29.56,108.87 -28.56,165.17 6.52,446.62 122.25,888.88 108.73,1335.39 -9.53,312.28 -81.68,624.63 -52.62,935.07 -7.51,-1.16 -14.53,-2.09 -20.04,-0.54 -15.02,4.55 -14.03,28.85 -10.01,42.42l6.01 11.59c5.01,4.04 11.51,4.75 17.54,5.2 66.12,5.21 131.77,10.38 197.89,15.58l13.04 -1.54c7.02,-3.66 8.01,-12.6 8.51,-20.21 1,-11.2 1,-24.34 -8.01,-31.26 -5.02,-3.9 -11.52,-4.64 -18.04,-5.15 82.67,-273.61 156.32,-549.49 218.94,-827.3 15.54,-67.14 30.07,-134.39 42.6,-201.96 55.61,-308.69 61.12,-622.73 66.63,-935.48 2.5,-158.47 4.51,-312.78 27.56,-469.2 21.04,-140.79 -138.28,-163.44 -267.05,-155.12z"/>
    <path class="fil1" d="M3210.37 5993.56c6.51,9.98 10.02,22.96 5.51,34.04 -6.01,14.87 -24.05,23.02 -27.56,38.77 -1.5,8.41 2.01,16.89 5.02,24.86 6.52,15.48 13.02,31.12 22.04,44.99 10.52,15.33 24.06,28.14 36.07,42.04 20.04,22.99 36.57,48.94 52.61,74.8 4.51,7.1 9.02,14.26 12.03,22.13 7.51,19.86 4.51,42.24 -1.51,62.59 -6.5,20.34 -16.03,39.57 -21.54,60.06 -10.53,-14.57 -24.05,-26.8 -37.07,-39.11 -51.12,-48.5 -99.72,-99.96 -147.8,-151.43 -42.1,-44.83 -84.68,-89.61 -126.78,-134.42 -10.5,-11.56 -22.04,-24.5 -23.03,-40.28 -1.01,-13.42 6.5,-26.1 15.02,-36.41 25.55,-30.77 63.63,-47.37 98.71,-64.65 14.03,-6.71 29.56,-16.12 45.09,-15.23 18.04,1 29.56,15.13 41.09,26.92 17.03,17.08 37.57,31.1 52.1,50.33z"/>
    <path class="fil2" d="M4425.36 3997.83c-14.03,-24.16 -44.08,-33.57 -71.14,-39.92 -95.69,-22.36 -193.9,-31.63 -291.6,-27.82 -63.13,2.45 -188.89,-3.14 -218.94,67.9 -25.06,58.81 20.53,163.03 32.05,221.28 19.54,101.21 35.08,203.24 46.6,305.64 12.52,110.12 20.04,220.8 23.05,331.64 0.5,12.96 0.99,26.14 2,39.27l0 -0.09c-5.51,15.77 -16.53,35.88 -22.54,51.58 -15.54,40.91 -33.08,81.38 -56.62,118.51 -32.57,50.56 -75.66,93.79 -117.24,137.53 -126.26,132.47 -243.5,272.86 -350.72,420.02 -44.59,60.8 -89.68,124.49 -148.31,171.19 -9.52,-8.16 -18.53,-16.28 -28.05,-24.4l-11.52 -5.34 -7.01 3.59c-11.54,9.47 -31.08,31.26 -28.57,47.96 2.5,16.32 28.57,34.36 39.08,45.67 19.04,19.55 37.57,39.15 53.11,61.27 10.53,15.26 20.04,31.77 33.58,44.26 14.01,12.47 34.05,20.19 51.1,13.69 16.53,-6.26 26.04,-23.11 34.57,-38.65l3.01 -10.26 -5.51 -9.87c55.1,-48.11 101.7,-106.08 154.3,-157.18 55.62,-53.5 117.74,-99.66 179.38,-146.48 197.89,-150.63 396.81,-313.92 579.68,-481.15 25.55,-52.51 34.57,-111.42 42.59,-169.35 43.09,-300.98 73.64,-603.59 92.69,-907 1.5,-21.65 2,-44.85 -9.02,-63.49z"/>
    <path class="fil0" d="M4864.77 2418.05c11.52,5 25.05,8.31 36.57,3.19 18.04,-7.85 22.54,-30.6 34.57,-45.98 10.52,-14.18 27.55,-21.9 42.59,-32.01 37.58,-25.97 62.12,-70.7 63.13,-116.65 0.5,-10.92 -0.51,-22.2 -6.02,-31.77 -11.02,-20.99 -40.08,-27.2 -62.62,-19.58 -22.55,7.61 -40.09,25.65 -55.62,44.09 -26.06,32.02 -48.6,67.24 -66.14,104.66 -8.01,16.49 -22.54,40.04 -23.55,58.47 -1.5,18.89 19.55,28.11 37.09,35.58z"/>
    <path class="fil3" d="M3419.81 2892.12c24.04,-164.25 60.61,-331.93 154.8,-468.46 94.21,-136.49 259.54,-235.53 422.88,-208.14 37.07,6.22 74.15,19.15 102.2,44.04 22.05,19.55 37.58,45.3 50.61,71.5 46.59,91.19 71.14,191.5 94.19,291.15 98.7,426.78 172.35,859.47 219.44,1295.01 3.02,28.03 5.02,59.41 -12.52,81.35 -18.54,22.99 -51.6,26.76 -81.17,28.77 -139.28,9.48 -278.56,18.95 -417.35,28.39 -129.77,8.84 -263.54,17.8 -391.8,-8.5 -167.34,-34.32 -157.32,-91.83 -170.36,-250.66 -24.04,-301.32 -14.52,-605.35 29.08,-904.45z"/>
    <path class="fil0" d="M3883.75 1370.85c-82.17,72.19 -134.28,174.41 -163.34,280.17 -31.55,115.44 -36.57,243.1 15.04,351.07 51.6,107.97 169.85,188.93 288.08,171.31 79.17,-11.77 146.81,-63.84 198.41,-124.87 132.78,-156.96 169.85,-385.69 104.71,-579.23 -26.54,-78.66 -67.63,-175.57 -153.31,-195.9 -92.19,-22 -222.45,38.98 -289.59,97.45z"/>
    <path class="fil4" d="M4271.04 2638.85c60.63,149.5 121.75,299.06 182.38,448.61 17.03,40.89 34.06,84.63 26.05,128.06 -14.53,76.47 -98.19,117.8 -173.85,134.88 -149.81,-212.63 -307.64,-419.66 -472.47,-620.67 -94.2,-114.28 -240.5,-378.38 -24.55,-457.78 243.99,-89.94 389.3,187.92 462.44,366.9z"/>
    <path class="fil4" d="M4802.13 2414.34c19.55,-29.51 104.22,-18.89 129.27,6.17 -69.64,251.76 -170.35,505.57 -224.46,760.9 -17.03,79.26 -38.58,166.69 -105.71,212.03 -28.56,19.34 -63.13,28.71 -97.2,34.52 -61.13,10.53 -135.28,5.16 -169.86,-46.64 -49.6,-74.2 11.53,-146.3 60.13,-197.75 57.62,-60.63 82.16,-99.62 117.24,-181.58 82.16,-190.14 175.85,-415.4 290.59,-587.65z"/>
    <path class="fil5" d="M4802.13 2414.34c24.05,-7.92 43.59,-43.74 57.13,-60.23 52.6,-64.93 105.7,-129.87 165.33,-188.88 3.5,-3.6 7.51,-7.87 7.01,-13.03l-5.51 -10.47c-16.53,-17.94 -58.61,-36.87 -84.18,-35.02 -10.01,0.69 -19.03,5.8 -27.55,11.12 -30.56,19.14 -58.11,42.59 -81.66,69.44 -24.05,26.8 -43.59,56.81 -63.13,86.68 -18.04,27.1 -36.08,54.16 -54.11,81.27l-3.51 10.96c1.51,14.09 34.57,18.14 44.6,25.41 9.01,6.31 15.02,18.04 25.55,22.14 7.01,2.86 13.52,2.71 20.03,0.61z"/>
    <path class="fil6" d="M4783.09 2368.3l10.03 4.46c7.51,0.59 13.02,-6.02 17.54,-11.93 32.56,-41.74 67.63,-81.01 106.22,-117.2 28.54,-27.1 60.11,-54.25 73.14,-91.58l0.49 -6.36 -4.5 -3.61c-8.52,-4.26 -17.04,-8.48 -25.55,-12.72 -5.01,-2.71 -11.02,-5.51 -17.04,-5.51 -8.51,-0.06 -16.03,5.25 -22.54,10.46 -41.09,32.02 -78.17,69.54 -109.73,111.08 -16.03,20.74 -30.56,42.54 -43.58,65.19 -4.01,6.8 -18.55,25.75 -17.05,33.52 1.51,9.12 25.06,19.33 32.57,24.2z"/>
    <path class="fil6" d="M4768.06 2370.5l4.01 1.95 1.5 3.76 -3.5 2.75 -4.51 -0.65 -12.03 -5.31c-3.01,-1.95 -5.01,-5.91 -0.49,-7.36l15.02 4.86z"/>
    <path class="fil7" d="M4295.1 2623.91c-26.06,-42.02 -35.58,-92.53 -42.1,-136.57 -10.51,-68 -51.1,-223.22 -93.68,-377.03l-3.01 2.1c43.09,153.52 83.17,307.58 93.69,375.37 6.51,44.34 16.54,95.26 42.09,137.74 13.02,21.44 30.56,40.43 47.09,58.92l2 -2.16c-16.53,-18.28 -33.56,-37.16 -46.08,-58.37z"/>
    <path class="fil7" d="M4733 2375.06c-52.62,55.52 -72.15,151.15 -93.2,231.27 -10.52,41.48 -11.02,85.13 -12.03,127.31l0 14.03c-2,112.43 -12.52,241.4 -79.66,345.76 -24.55,38.27 -69.14,77.81 -113.73,63.38 -19.05,-6.12 -36.07,-21.94 -47.59,-44.64 -17.54,-33.31 -21.55,-72.2 -24.06,-112.44 -2,-32.7 -4.01,-66.02 -5.51,-98.25 -4.5,-86.08 -9.02,-175.06 -22.04,-261.73 -21.05,-138.89 -60.63,-249.31 -122.26,-337.44 -50.1,-72.2 -116.73,-131.52 -180.37,-186.09l-2.99 -2.3c-21.05,-18.04 -42.6,-36.63 -60.63,-58.12 -59.13,-70.79 -78.67,-178.11 -55.12,-295.56 4.51,0.96 10.02,0.51 14.53,-2.05 1.5,-5.9 3.01,-12.12 1,-17.99 -1.5,-5.85 -7.51,-11.06 -13.02,-9.66l2.5 1.65c-9.52,-6.11 -23.05,6.72 -19.03,17.48l9.02 8.92c-24.06,119.2 -4.02,228.38 56.11,300.52 18.54,21.79 40.08,40.58 61.63,58.72l2.49 2.35c63.65,54.31 129.77,113.38 179.88,185.09 60.63,87.47 100.21,197.14 121.24,335.29 13.03,86.36 17.54,175.25 22.04,261.18 1.51,32.27 3.51,65.58 5.53,98.35 2.5,40.83 6.5,80.26 24.04,114.43 12.53,23.96 30.57,40.69 50.61,47.19 7.01,2.26 14.03,3.31 21.04,3.31 40.08,0 77.15,-34.87 99.21,-68.78 67.63,-105.47 78.65,-235.33 80.16,-348.47l0.49 -14.07c0.51,-41.9 1.01,-85.19 11.54,-126.02 20.53,-79.01 40.07,-174.05 91.69,-229.11l-3.51 -3.51z"/>
    <path class="fil7" d="M4337.68 2743.25l-2.5 -0.79 -1.01 -2.5 0 -20.99c-0.5,-4.92 -2.5,-9.83 -4.01,-14.59l-2 -6.06c-2,-7.47 -4,-16.59 0,-21.35 2,-2.46 5.51,-3.35 10.52,-2.7l8.01 5.41 1.51 5.56 5.01 57.12 -15.02 0.89 -0.51 0z"/>
    <path class="fil8" d="M4408.33 1548.31c-23.55,-31.97 -42.09,-67.79 -54.11,-105.72 -9.02,-26.64 -27.05,-42.68 -45.6,-62.22 -1,-19.15 -13.03,-36.07 -24.54,-51.41 -45.61,-59.27 -100.22,-116.04 -171.36,-139.39 -39.58,-12.98 -82.17,-14.82 -123.75,-15.12 -42.6,-0.3 -86.18,0.99 -127.26,12.33 -41.6,11.36 -81.16,33.66 -106.22,68.48 -8.52,12.07 -12.52,25.15 -13.03,38.57l-9.52 -1.05c-111.73,-6.06 -178.37,148.36 -206.42,265.5 -5.51,23.19 -10.52,47.05 -21.04,67.39 -10.03,20.4 -27.06,37.07 -46.11,37.38 26.56,19.23 59.64,24.7 89.2,14.77 3.01,35.48 -17.05,66.64 -27.06,100.06 -10.52,36.13 -8.52,77.76 5.01,112.23 9.02,-26.05 25.55,-47.6 46.09,-59.02 17.54,48.09 39.58,101.11 79.16,116.73 15.03,5.77 33.07,7.57 40.59,24.42 4.51,9.36 4.01,21.33 8.51,30.5 6.52,12.63 19.54,15.98 30.56,19.59 12.03,3.66 23.06,9.17 34.08,15.48 4.51,24.61 11.53,47.55 29.57,64.28 -1.51,-13.68 0,-27.55 2.99,-40.97 5.51,4.95 11.02,10.11 16.04,15.77 -2.01,-15.43 -3.51,-31.01 -5.02,-46.54l2.52 -5.17c7.51,-13.47 17.52,-25.59 24.04,-39.68 10.53,-23.03 11.02,-50.84 27.06,-70.24 15.02,-17.94 43.58,-31.26 39.58,-54.31 -1.51,-9.77 -9.52,-17.19 -15.03,-25.25 -14.03,-19.75 -17.04,-45.1 -17.54,-69.24 0,-24.7 4.5,-53.76 26.56,-65.03 16.53,-8.27 36.57,-3.11 51.1,7.87 14.53,10.96 24.56,26.89 33.58,42.43 27.05,-36.47 18.03,-87.13 26.54,-131.67 3.01,-15.34 8.52,-31.02 20.55,-41.28 11.52,-10.23 31.06,-12.93 42.58,-2.62 12.03,10.48 13.04,30.47 26.56,38.63 11.52,7.08 26.56,1.96 39.08,-3.25 20.54,-8.72 41.09,-17.38 62.12,-26.05 4.52,-1.9 9.02,-3.82 14.04,-3.21 11.02,1.35 16.03,13.98 20.03,24.35 6.01,17.04 15.03,33.12 26.07,47.55l9.01 7.47c10.02,3.11 17.03,-9.48 25.55,-15.88 14.53,-10.88 37.07,-2.06 46.6,13.26 10.02,15.38 10.51,34.59 10.51,52.72 26.06,-34.92 43.6,-76.51 49.61,-119.7 27.06,1.41 54.11,2.8 81.66,4.21 -30.56,-0.36 -55.1,-23.85 -73.14,-47.95z"/>
    <path class="fil2" d="M4142.28 3345.49c3.51,-5 8.02,-10.67 14.53,-10.27l10.03 5.77c12.52,11.27 25.05,22.54 37.58,33.87l8.5 10.27c3.51,8.26 -0.49,17.64 -5.01,25.39 -23.04,39.84 -58.61,70.5 -94.69,99.36 -45.09,36.73 -92.19,71.89 -139.79,105.53 -19.03,13.32 -41.59,27.09 -64.13,20.43 -41.08,-70.04 48.11,-98.31 91.7,-135.63 53.59,-45.39 101.2,-97.5 141.28,-154.72z"/>
    <path class="fil2" d="M3814.11 2197.9c38.07,-4.82 76.66,-8.48 115.23,-11.02 55.12,-3.72 114.74,-4.02 161.33,26.54 52.62,34.47 75.16,101.07 76.17,163.68 -29.57,-23.84 -59.13,-47.69 -88.68,-71.53 -24.06,-19.25 -48.11,-38.73 -76.67,-50.11 -35.57,-14.17 -74.65,-14.73 -113.23,-15.03 -16.53,-0.15 -53.6,6.76 -68.15,-0.85 -17.02,-9.12 -9.51,-23.84 -6,-41.68z"/>
   </g>
  </g>
 </g>
</svg>
