<?xml version="1.0" encoding="UTF-8"?>
<!DOCTYPE svg PUBLIC "-//W3C//DTD SVG 1.1//EN" "http://www.w3.org/Graphics/SVG/1.1/DTD/svg11.dtd">
<!-- Creator: CorelDRAW 2017 -->
<svg xmlns="http://www.w3.org/2000/svg" xml:space="preserve" width="80mm" height="80mm" version="1.1" style="shape-rendering:geometricPrecision; text-rendering:geometricPrecision; image-rendering:optimizeQuality; fill-rule:evenodd; clip-rule:evenodd"
viewBox="0 0 8000 8000"
 xmlns:xlink="http://www.w3.org/1999/xlink">
 <defs>
  <style type="text/css">
   <![CDATA[
    .str0 {stroke:#FEFEFE;stroke-width:141.11;stroke-linejoin:round;stroke-miterlimit:22.9256}
    .fil0 {fill:none}
    .fil35 {fill:#333333;fill-rule:nonzero}
    .fil38 {fill:#6D9DBF;fill-rule:nonzero}
    .fil36 {fill:#999999;fill-rule:nonzero}
    .fil40 {fill:#D3E4EA;fill-rule:nonzero}
    .fil41 {fill:#E0CDB3;fill-rule:nonzero}
    .fil37 {fill:#E8E8E8;fill-rule:nonzero}
    .fil42 {fill:#F4D787;fill-rule:nonzero}
    .fil39 {fill:white;fill-rule:nonzero}
    .fil5 {fill:url(#id1)}
    .fil19 {fill:url(#id2)}
    .fil9 {fill:url(#id3)}
    .fil26 {fill:url(#id4)}
    .fil29 {fill:url(#id5)}
    .fil21 {fill:url(#id6)}
    .fil4 {fill:url(#id7)}
    .fil8 {fill:url(#id8)}
    .fil17 {fill:url(#id9)}
    .fil24 {fill:url(#id10)}
    .fil10 {fill:url(#id11)}
    .fil13 {fill:url(#id12)}
    .fil18 {fill:url(#id13)}
    .fil15 {fill:url(#id14)}
    .fil1 {fill:url(#id15)}
    .fil22 {fill:url(#id16)}
    .fil14 {fill:url(#id17)}
    .fil6 {fill:url(#id18)}
    .fil30 {fill:url(#id19)}
    .fil27 {fill:url(#id20)}
    .fil23 {fill:url(#id21)}
    .fil12 {fill:url(#id22)}
    .fil16 {fill:url(#id23)}
    .fil11 {fill:url(#id24)}
    .fil7 {fill:url(#id25)}
    .fil3 {fill:url(#id26)}
    .fil34 {fill:url(#id27)}
    .fil33 {fill:url(#id28)}
    .fil31 {fill:url(#id29)}
    .fil32 {fill:url(#id30)}
    .fil20 {fill:url(#id31)}
    .fil25 {fill:url(#id32)}
    .fil2 {fill:url(#id33)}
    .fil28 {fill:url(#id34)}
   ]]>
  </style>
     <clipPath id="id0">
      <path d="M3276.11 7103.4c-405.68,0 -812.62,-6.63 -1218.29,-19.06 -41.97,-1.4 -89.02,-4.18 -125.9,-21.27 -16.53,-7.2 -30.52,-16.85 -43.24,-30.21 -24.16,-26.15 -34.34,-46.72 -34.34,-62.75l0 -1.63c0,-47.76 91.57,-54.96 162.78,-54.96 13.99,0 27.98,0.35 40.7,0.69l0 0c11.44,0.35 21.62,0.7 29.25,0.7l0 0c0,0 0,0 0,0 1.27,0 1.27,0 2.54,0 160.23,-3.02 321.74,-6.04 481.97,-8.95 581.17,-10.8 1161.07,-21.49 1742.23,-32.19 579.9,-10.8 1161.07,-21.49 1740.96,-32.18 0,0 1.28,-0.12 1.28,-0.12l7.63 0c55.95,0.7 125.89,18.71 125.89,73.09 0,54.15 -69.94,74.95 -123.35,79.37 -928.34,75.19 -1859.23,109.47 -2790.11,109.47l0 0z"/>
     </clipPath>
  <linearGradient id="id1" gradientUnits="objectBoundingBox" x1="inf%" y1="97.9284%" x2="inf%" y2="97.9284%">
   <stop offset="0" style="stop-opacity:1; stop-color:black"/>
   <stop offset="1" style="stop-opacity:1; stop-color:black"/>
  </linearGradient>
  <linearGradient id="id2" gradientUnits="objectBoundingBox" xlink:href="#id1" x1="1.2822%" y1="-nan(ind)%" x2="46.3613%" y2="-nan(ind)%">
  </linearGradient>
  <linearGradient id="id3" gradientUnits="objectBoundingBox" xlink:href="#id1" x1="1.2822%" y1="-nan(ind)%" x2="46.3613%" y2="-nan(ind)%">
  </linearGradient>
  <linearGradient id="id4" gradientUnits="userSpaceOnUse" xlink:href="#id1" x1="2438.43" y1="7094.26" x2="2438.54" y2="7094.26">
  </linearGradient>
  <linearGradient id="id5" gradientUnits="userSpaceOnUse" xlink:href="#id1" x1="2552.69" y1="7096.57" x2="2552.77" y2="7096.57">
  </linearGradient>
  <linearGradient id="id6" gradientUnits="userSpaceOnUse" xlink:href="#id1" x1="2286.13" y1="7090.7" x2="2286.24" y2="7090.7">
  </linearGradient>
  <linearGradient id="id7" gradientUnits="userSpaceOnUse" xlink:href="#id1" x1="1970.78" y1="7075.73" x2="1970.87" y2="7075.73">
  </linearGradient>
  <linearGradient id="id8" gradientUnits="userSpaceOnUse" xlink:href="#id1" x1="2019.27" y1="7082.39" x2="2019.38" y2="7082.39">
  </linearGradient>
  <linearGradient id="id9" gradientUnits="userSpaceOnUse" xlink:href="#id1" x1="2033.76" y1="7083.39" x2="2034.32" y2="7083.39">
  </linearGradient>
  <linearGradient id="id10" gradientUnits="userSpaceOnUse" xlink:href="#id1" x1="2362.27" y1="7092.57" x2="2362.39" y2="7092.57">
  </linearGradient>
  <linearGradient id="id11" gradientUnits="userSpaceOnUse" xlink:href="#id1" x1="2029.74" y1="7083.2" x2="2030.61" y2="7083.2">
  </linearGradient>
  <linearGradient id="id12" gradientUnits="userSpaceOnUse" xlink:href="#id1" x1="1997.05" y1="7080.56" x2="1998.68" y2="7080.56">
  </linearGradient>
  <linearGradient id="id13" gradientUnits="userSpaceOnUse" xlink:href="#id1" x1="2035.81" y1="7083.58" x2="2037.2" y2="7083.58">
  </linearGradient>
  <linearGradient id="id14" gradientUnits="userSpaceOnUse" xlink:href="#id1" x1="2009.23" y1="7081.67" x2="2010.04" y2="7081.67">
  </linearGradient>
  <linearGradient id="id15" gradientUnits="userSpaceOnUse" xlink:href="#id1" x1="6066.16" y1="6993.91" x2="6069.63" y2="6993.91">
  </linearGradient>
  <linearGradient id="id16" gradientUnits="objectBoundingBox" xlink:href="#id1" x1="1.2822%" y1="97.9284%" x2="46.3613%" y2="97.9284%">
  </linearGradient>
  <linearGradient id="id17" gradientUnits="objectBoundingBox" xlink:href="#id1" x1="1.2822%" y1="97.9284%" x2="46.3613%" y2="97.9284%">
  </linearGradient>
  <linearGradient id="id18" gradientUnits="userSpaceOnUse" xlink:href="#id1" x1="1974.96" y1="7076.92" x2="1975.84" y2="7076.92">
  </linearGradient>
  <linearGradient id="id19" gradientUnits="userSpaceOnUse" xlink:href="#id1" x1="2553.13" y1="7096.9" x2="2561.62" y2="7096.9">
  </linearGradient>
  <linearGradient id="id20" gradientUnits="userSpaceOnUse" xlink:href="#id1" x1="2438.91" y1="7094.66" x2="2447.39" y2="7094.66">
  </linearGradient>
  <linearGradient id="id21" gradientUnits="userSpaceOnUse" xlink:href="#id1" x1="2343.73" y1="7092.55" x2="2352.2" y2="7092.55">
  </linearGradient>
  <linearGradient id="id22" gradientUnits="userSpaceOnUse" xlink:href="#id1" x1="1990.99" y1="7080.04" x2="1993.49" y2="7080.04">
  </linearGradient>
  <linearGradient id="id23" gradientUnits="userSpaceOnUse" xlink:href="#id1" x1="2023.58" y1="7083.02" x2="2025.98" y2="7083.02">
  </linearGradient>
  <linearGradient id="id24" gradientUnits="userSpaceOnUse" xlink:href="#id1" x1="1972.96" y1="7076.3" x2="1973.28" y2="7076.3">
  </linearGradient>
  <linearGradient id="id25" gradientUnits="objectBoundingBox" xlink:href="#id1" x1="1.2822%" y1="97.9284%" x2="46.3613%" y2="97.9284%">
  </linearGradient>
  <linearGradient id="id26" gradientUnits="userSpaceOnUse" xlink:href="#id1" x1="1969.03" y1="7075.68" x2="1969.83" y2="7075.68">
  </linearGradient>
  <linearGradient id="id27" gradientUnits="userSpaceOnUse" xlink:href="#id1" x1="1931.51" y1="6972.42" x2="6189.11" y2="6972.42">
  </linearGradient>
  <linearGradient id="id28" gradientUnits="userSpaceOnUse" xlink:href="#id1" x1="1862.93" y1="6928.99" x2="3709.74" y2="6928.99">
  </linearGradient>
  <linearGradient id="id29" gradientUnits="userSpaceOnUse" xlink:href="#id1" x1="2811.59" y1="2014.11" x2="3400.47" y2="2014.11">
  </linearGradient>
  <linearGradient id="id30" gradientUnits="userSpaceOnUse" xlink:href="#id1" x1="3756.77" y1="6450.66" x2="4473.44" y2="6450.66">
  </linearGradient>
  <linearGradient id="id31" gradientUnits="userSpaceOnUse" xlink:href="#id1" x1="2267.6" y1="7090.7" x2="2276.06" y2="7090.7">
  </linearGradient>
  <linearGradient id="id32" gradientUnits="userSpaceOnUse" xlink:href="#id1" x1="2419.86" y1="7094.26" x2="2428.34" y2="7094.26">
  </linearGradient>
  <linearGradient id="id33" gradientUnits="userSpaceOnUse" xlink:href="#id1" x1="1931.84" y1="7072.12" x2="1943.43" y2="7072.12">
  </linearGradient>
  <linearGradient id="id34" gradientUnits="userSpaceOnUse" xlink:href="#id1" x1="2534.11" y1="7096.55" x2="2542.6" y2="7096.55">
  </linearGradient>
 </defs>
 <g id="Layer_x0020_1">
  <metadata id="CorelCorpID_0Corel-Layer"/>
  <g id="_2495060589632">
   <line class="fil0 str0" x1="6073.83" y1="6993.2" x2="6073.75" y2= "6993.2" />
   <polygon class="fil1 str0" points="6066.06,6993.92 6068.6,6993.7 6071.15,6993.46 6071.18,6993.46 6073.75,6993.2 6071.18,6993.46 6071.15,6993.46 6068.6,6993.7 "/>
   <polyline class="fil0 str0" points="2017.39,7082.23 2017.4,7082.24 2019.27,7082.37 "/>
   <polyline class="fil0 str0" points="2009.21,7081.5 2009.23,7081.52 2011,7081.67 "/>
   <line class="fil0 str0" x1="1967.07" y1="7074.85" x2="1969.01" y2= "7075.29" />
   <polygon class="fil2 str0" points="1957.23,7072.31 1955.47,7071.82 1953.57,7071.25 1951.69,7070.68 1949.79,7070.07 1947.91,7069.46 1946.05,7068.82 1944.2,7068.17 1942.36,7067.49 1940.53,7066.81 1938.69,7066.09 1936.88,7065.37 1935.07,7064.63 1933.28,7063.84 1931.51,7063.06 1933.28,7063.84 1935.07,7064.63 1936.88,7065.37 1938.69,7066.09 1940.53,7066.81 1942.36,7067.49 1944.2,7068.17 1946.05,7068.82 1947.91,7069.46 1949.79,7070.07 1951.69,7070.68 1953.57,7071.25 1955.47,7071.82 "/>
   <polygon class="fil3 str0" points="1970.78,7075.69 1969.01,7075.31 1969.01,7075.29 1969.01,7075.31 "/>
   <polygon class="fil4 str0" points="1970.97,7075.73 1970.78,7075.69 "/>
   <polygon class="fil5 str0" points="1974.93,7076.56 1974.93,7076.55 "/>
   <polygon class="fil6 str0" points="1976.9,7076.93 1974.93,7076.56 "/>
   <polygon class="fil5 str0" points="1980.9,7077.69 1980.9,7077.68 "/>
   <polygon class="fil7 str0" points="1982.88,7078.02 1980.9,7077.69 "/>
   <polygon class="fil5 str0" points="1986.9,7078.7 1986.9,7078.69 "/>
   <polygon class="fil8 str0" points="2019.5,7082.39 2019.27,7082.37 "/>
   <polygon class="fil9 str0" points="2029.68,7083.09 2029.67,7083.09 "/>
   <polygon class="fil9 str0" points="2029.71,7083.09 2029.68,7083.09 "/>
   <polygon class="fil10 str0" points="2031.66,7083.2 2029.71,7083.09 "/>
   <path class="fil0 str0" d="M5656.3 6848.94l398.47 -7.35c0,0 1.28,-0.12 1.28,-0.12l7.63 0c55.06,0.69 123.67,18.14 125.84,70.53l0.01 0.03 0.06 2.53 -0.06 -2.53 -0.01 -0.03 0.05 2.56c0,46.52 -51.62,68.42 -100.02,76.48l0.02 0 2.62 -0.44 0.04 0 2.62 -0.48 0.05 0 2.62 -0.5 0.04 0 2.62 -0.55 0.05 0 2.62 -0.57 0.04 0 2.62 -0.59 0.05 0 2.62 -0.63 0.04 0 2.6 -0.66 0.05 0 2.57 -0.67 0.07 0 2.58 -0.72 0.04 0 2.56 -0.75 0.06 0 2.54 -0.78 0.04 0 2.53 -0.81 0.05 0 2.51 -0.85 0.07 0 2.46 -0.88c26.92,-9.54 49.74,-24.77 57.65,-47.81l0.02 0 0.68 -2.19 0.02 0 0.59 -2.23 0.02 0 0.51 -2.27 0.02 0 0.39 -2.34 0.02 0 0.33 -2.36 0.22 -2.42 0.02 0 0.11 -2.47 0.02 0 0.02 -2.51 -0.02 2.51 -0.02 0 -0.11 2.47 -0.02 0 -0.22 2.42 -0.33 2.36 -0.02 0 -0.39 2.34 -0.02 0 -0.51 2.27 -0.02 0 -0.59 2.23 -0.02 0 -0.68 2.19 -0.02 0c-7.84,23.04 -30.67,38.27 -57.65,47.81l-2.46 0.88 -0.07 0 -2.51 0.85 -0.05 0 -2.53 0.81 -0.04 0 -2.54 0.78 -0.06 0 -2.56 0.75 -0.04 0 -2.58 0.72 -0.07 0 -2.57 0.67 -0.05 0 -2.6 0.66 -0.04 0 -2.62 0.63 -0.05 0 -2.62 0.59 -0.04 0 -2.62 0.57 -0.05 0 -2.62 0.55 -0.04 0 -2.62 0.5 -0.05 0 -2.62 0.48 -0.04 0 -2.62 0.44 -0.02 0 -0.03 0 -0.03 0.01 -2.59 0.42 -0.02 0 -0.03 0 -2.61 0.4 -0.01 0 -0.01 0 -2.6 0.37 -0.01 0 -0.01 0 -2.6 0.35 2.6 -0.35 0.01 0 0.01 0 2.6 -0.37 0.01 0 0.01 0 2.61 -0.4 0.03 0 0.02 0 2.59 -0.42 0.03 -0.01 0.03 0"/>
   <path class="fil0 str0" d="M2559.79 6906.17l11.79 -0.21c581.17,-10.8 1161.07,-21.49 1742.23,-32.19l736.76 -13.66"/>
   <path class="fil0 str0" d="M1957.23 7072.31c-8.8,-2.5 -17.29,-5.52 -25.31,-9.24 -16.53,-7.2 -30.52,-16.85 -43.24,-30.21 -24.16,-26.15 -34.34,-46.72 -34.34,-62.75l0 -1.63c0,-29.75 35.53,-43.76 79.54,-50.1"/>
   <polyline class="fil0 str0" points="1969.01,7075.29 1965.8,7074.55 1965.1,7074.39 1965.1,7074.38 1965.8,7074.55 1965.1,7074.39 1965.1,7074.38 "/>
   <polyline class="fil0 str0" points="1970.78,7075.69 1969.01,7075.29 1967.07,7074.85 1967.07,7074.83 "/>
   <polygon class="fil11 str0" points="1973.67,7076.3 1972.95,7076.15 1972.95,7076.16 "/>
   <polyline class="fil0 str0" points="1974.93,7076.55 1973.67,7076.3 1972.95,7076.16 1972.95,7076.15 1970.98,7075.73 1970.97,7075.73 1970.98,7075.73 "/>
   <polyline class="fil0 str0" points="1980.9,7077.68 1978.89,7077.32 1976.92,7076.95 1976.91,7076.94 1978.89,7077.32 1976.92,7076.95 1976.91,7076.94 1976.9,7076.93 1976.91,7076.94 "/>
   <polyline class="fil0 str0" points="1986.9,7078.69 1986.23,7078.58 1984.89,7078.39 1984.89,7078.37 1982.88,7078.03 1982.88,7078.02 1982.88,7078.03 1982.88,7078.04 1984.89,7078.37 1986.23,7078.58 1984.89,7078.39 1984.89,7078.37 1982.88,7078.04 1982.88,7078.03 "/>
   <polygon class="fil12 str0" points="1996.46,7080.06 1990.92,7079.3 1990.92,7079.31 1992.93,7079.59 1992.95,7079.62 1994.96,7079.86 1994.99,7079.88 "/>
   <polygon class="fil13 str0" points="2000.63,7080.57 1997,7080.13 1997,7080.14 1999.03,7080.38 1999.03,7080.4 "/>
   <path class="fil14 str0" d="M2008.85 7081.46c-2.6,-0.26 -5.2,-0.52 -7.79,-0.83l0 0.01 2.03 0.22 0 0.02 2.03 0.2 0.02 0.02 2.01 0.2 0.03 0.02 1.67 0.14z"/>
   <polyline class="fil0 str0" points="2009.21,7081.5 2008.85,7081.46 2007.18,7081.32 2007.15,7081.3 2005.14,7081.1 2005.12,7081.08 2003.09,7080.88 2003.09,7080.86 2001.06,7080.64 2001.06,7080.63 2000.63,7080.57 1999.03,7080.4 1999.03,7080.38 1997,7080.14 1997,7080.13 1996.46,7080.06 1994.99,7079.88 1994.96,7079.86 1992.95,7079.62 1992.93,7079.59 1990.92,7079.31 1990.92,7079.3 1990.55,7079.24 1988.91,7079.03 1988.91,7079 1990.55,7079.24 1988.91,7079.03 1988.91,7079 1986.9,7078.7 1988.91,7079 "/>
   <polygon class="fil15 str0" points="2011,7081.67 2009.21,7081.5 2009.23,7081.52 "/>
   <polyline class="fil0 str0" points="2017.39,7082.23 2013.6,7081.9 2011.26,7081.71 2011.24,7081.69 2013.6,7081.9 2011.26,7081.71 2011.24,7081.69 "/>
   <polygon class="fil7 str0" points="2019.27,7082.37 2017.39,7082.23 2017.4,7082.24 "/>
   <polygon class="fil16 str0" points="2028.84,7083.03 2023.51,7082.68 2023.54,7082.7 2025.55,7082.83 2025.59,7082.85 2027.58,7082.96 2027.62,7082.98 "/>
   <polyline class="fil0 str0" points="2029.67,7083.09 2028.84,7083.03 2027.62,7082.98 2027.58,7082.96 2025.59,7082.85 2025.55,7082.83 2023.54,7082.7 2023.51,7082.68 2021.54,7082.54 2019.5,7082.39 2021.54,7082.54 "/>
   <polygon class="fil17 str0" points="2035,7083.39 2033.74,7083.32 2033.76,7083.33 "/>
   <polygon class="fil18 str0" points="2038.86,7083.58 2035.77,7083.43 2035.79,7083.44 2037.78,7083.53 2037.85,7083.55 "/>
   <line class="fil0 str0" x1="2647.92" y1="7098.23" x2="2648.05" y2= "7098.23" />
   <line class="fil0 str0" x1="2533.65" y1="7096.2" x2="2533.84" y2= "7096.2" />
   <line class="fil0 str0" x1="2419.39" y1="7093.86" x2="2419.62" y2= "7093.86" />
   <line class="fil0 str0" x1="2343.23" y1="7092.11" x2="2343.47" y2= "7092.11" />
   <line class="fil0 str0" x1="2267.09" y1="7090.23" x2="2267.32" y2= "7090.23" />
   <line class="fil0 str0" x1="2171.95" y1="7087.68" x2="2172.14" y2= "7087.68" />
   <path class="fil0 str0" d="M2267.32 7090.23l-0.23 0c-31.66,-0.8 -63.3,-1.68 -94.95,-2.55l-0.19 0c-38.05,-1.06 -76.1,-2.16 -114.13,-3.34 -6.22,-0.21 -12.56,-0.45 -18.96,-0.76l-1.01 -0.03 -0.07 -0.02 -1.99 -0.09 -0.02 -0.01 -0.77 -0.04 -1.24 -0.06 -0.02 -0.01 -0.76 -0.04 -1.27 -0.06 -0.03 -0.01 1.3 0.07 -1.27 -0.06 -0.03 -0.01 -0.02 -0.01 0.02 0.01"/>
   <polygon class="fil19 str0" points="2267.36,7090.23 2267.32,7090.23 "/>
   <polygon class="fil20 str0" points="2286.13,7090.71 2267.36,7090.23 "/>
   <polygon class="fil21 str0" points="2286.37,7090.71 2286.13,7090.71 "/>
   <polygon class="fil9 str0" points="2286.39,7090.71 2286.37,7090.71 "/>
   <polygon class="fil22 str0" points="2305.16,7091.19 2286.39,7090.71 "/>
   <polyline class="fil0 str0" points="2343.47,7092.11 2343.23,7092.11 2305.4,7091.19 2305.16,7091.19 2305.4,7091.19 "/>
   <polygon class="fil9 str0" points="2343.49,7092.11 2343.47,7092.11 "/>
   <polygon class="fil23 str0" points="2362.27,7092.56 2343.49,7092.11 "/>
   <polygon class="fil24 str0" points="2362.52,7092.57 2362.27,7092.56 "/>
   <polygon class="fil9 str0" points="2362.54,7092.57 2362.52,7092.57 "/>
   <polygon class="fil22 str0" points="2381.31,7093 2362.54,7092.57 "/>
   <polyline class="fil0 str0" points="2419.62,7093.86 2419.39,7093.86 2385.59,7093.1 2381.55,7093.01 2381.31,7093 2381.55,7093.01 "/>
   <polygon class="fil25 str0" points="2438.43,7094.27 2419.62,7093.86 "/>
   <polygon class="fil26 str0" points="2438.67,7094.27 2438.43,7094.27 "/>
   <polygon class="fil27 str0" points="2457.47,7094.67 2438.67,7094.27 "/>
   <line class="fil0 str0" x1="2476.74" y1="7095.06" x2="2457.69" y2= "7094.67" />
   <polyline class="fil0 str0" points="2533.84,7096.2 2533.65,7096.2 2457.69,7094.67 2457.47,7094.67 2457.69,7094.67 2476.74,7095.06 2495.77,7095.45 2514.8,7095.82 2514.82,7095.82 "/>
   <polygon class="fil9 str0" points="2533.87,7096.2 2533.84,7096.2 "/>
   <polygon class="fil28 str0" points="2552.69,7096.56 2533.87,7096.2 "/>
   <polygon class="fil29 str0" points="2552.87,7096.57 2552.69,7096.56 "/>
   <polygon class="fil9 str0" points="2552.89,7096.57 2552.87,7096.57 "/>
   <polygon class="fil30 str0" points="2571.73,7096.91 2552.89,7096.57 "/>
   <polyline class="fil0 str0" points="2648.05,7098.23 2647.92,7098.23 2578.1,7097.02 2571.92,7096.92 2571.73,7096.91 2571.92,7096.92 "/>
   <polygon class="fil19 str0" points="2648.11,7098.23 2648.05,7098.23 "/>
   <path class="fil31 str0" d="M2899.26 1586.93c41,-83.45 82,-166.83 122.98,-250.3 61.58,-125.23 126.55,-254.77 233.67,-340.38 199.97,-160.05 500.28,-114.9 694.39,47.16 55.42,46.23 105.58,102.5 131.09,171.77 48.93,133.1 -1.31,283.52 -59.79,413.97 -58.5,130.54 -127.31,266.11 -115.36,408.6 -37.07,-7.4 -63.13,-44.32 -71.15,-82.86 -7.93,-38.53 -1.53,-78.74 4.64,-117.82l1.21 -7.59c-42.14,64.25 -95.04,121.78 -166.66,145.53 -121.83,40.55 -260.48,-37.53 -319.89,-151.33 -10.88,-20.84 -19.57,-42.49 -26.29,-64.72 -24.13,66.93 -42.36,136.08 -54.08,206.42 -65.66,-31.13 -139.35,-44.3 -211.69,-37.92 -30.06,2.62 -60.43,8.56 -89.78,2.47 -62.04,-12.87 -120.61,-77.05 -177.71,-47.47 11.1,-104.66 58.11,-201.43 104.42,-295.53z"/>
   <path class="fil32 str0" d="M4144.94 3473.69l11.35 124.1 -184.94 -21.25c7.04,319.17 8.43,614.87 -0.38,765.36 -71.93,0.33 -151.07,3.54 -234.58,8.47 30.19,160.75 57.65,361.82 56.48,396.11 -17.87,523.02 -66.12,1046.5 -34.45,1568.91 6.49,106.12 101.97,114.29 192.82,132.4 18.11,3.62 36.98,6.86 51.86,17.71 14.79,10.79 24.05,32.07 15.09,48.17 -0.73,1.31 -1.54,2.55 -2.44,3.7 178.59,-3.46 357.05,-10.61 535.1,-25.74 10.11,-0.85 21.21,-1.46 29.29,4.54 5.63,4.23 8.81,11.04 10.09,18l8.94 -0.19c19.2,-255.23 106.05,-500.44 375.98,-581.9 118.09,-35.61 230.53,-51.31 338.82,-46.21 8.64,-277.89 11.79,-556.31 12.2,-834.68 0.79,-560.09 -23.72,-1121.65 -65.95,-1682.5l-9.26 0.61c-58.32,-0.46 -118.68,-9.09 -176.76,-16.1 -100.39,-12.1 -201.12,-31.35 -299.86,-55.82 -59.9,24.94 -129.89,39.76 -189.65,40.33 -42.78,18.26 -91.4,30.52 -120.37,39.3l-319.38 96.68z"/>
   <path class="fil33 str0" d="M4682.18 6759.73c-4.79,6.85 -9.79,13.87 -16.8,18.56 -8.48,5.55 -18.81,7.26 -28.75,8.81 -182.49,28.11 -365.13,56.25 -549.3,67.74 -117.98,7.31 -236.2,7.77 -354.34,8.32 -58.1,0.22 -118.13,0.06 -171.45,-23.13 -41.09,-17.87 -75.21,-48.32 -113.14,-72.29 -20.27,-12.8 -41.47,-23.68 -63.34,-33.11 -245.42,1.94 -490.84,1.93 -736.16,0.6 -6.89,45.2 -22.2,88.27 -48.8,125.83 -11.8,16.66 -25.37,31.62 -40.31,45.11 -53.26,48.1 -123.92,77.44 -193.8,97.84 -105.57,30.82 -222.94,45.18 -322.75,-1.07 -42.61,-19.71 -78.93,-49.16 -109.36,-84.56 -43.8,-50.95 -75.4,-114.22 -96,-178.6 -32.59,-101.42 -41.92,-215.78 4,-311.87 46.55,-97.41 145.2,-163.38 250.23,-187.97 105.02,-24.49 215.84,-11.62 319.89,17.19 40.36,11.18 81.3,25.43 112.49,53.32 25.3,22.59 42.56,52.65 57.35,83.08 22.13,45.6 39.83,93.4 52.59,142.43 43.95,0.22 87.9,0.37 131.84,0.46 51.89,-19.12 178.41,-8.37 208.35,-9.27 176.18,-5.16 352.48,-5.86 528.72,-6.23l62.63 -0.1c-6.28,-26.77 -6.16,-55.09 0.42,-81.81l-4.79 0.83c-94.73,-335.75 -134.21,-683.37 -169.29,-1029.56 -6.26,2.15 -12.36,4.34 -18.2,6.65 -127.15,50.24 -254.53,99.87 -381.29,150.96 -256.54,103.26 -511.31,212.16 -756.15,341.3 -94.08,49.63 -62.19,139.96 -41.22,230.26 4.15,17.89 9.02,36.46 5.25,54.48 -3.78,18.05 -19.27,35.15 -37.62,33.69 -16.03,-1.4 -27.5,-15.49 -36.92,-28.51 -71.89,-100.11 -134.14,-207 -185.78,-318.88 -3.08,-6.71 -6.25,-13.96 -4.94,-21.28l8.41 -15.34c25.49,-30.42 62.04,-51.15 101.09,-58.49l-2.77 -3.91c-9.33,-13.81 40.54,-47.95 47.71,-53.65 146.64,-117.44 316.17,-211 476.32,-308.25 96.24,-58.48 192.82,-116.28 289.37,-174.17 36.98,-22.1 97.4,-44.38 126.37,-76.21l5.39 -6.31c27.22,-33.14 68.05,-104.36 71.13,-142.19 2.16,-26.74 -9.39,-52.47 -20.8,-76.74 -82.12,-175.55 -164.32,-351.08 -246.52,-526.61 -43.09,1.31 -84.5,1.91 -123.76,1.58 -85.3,-461.68 43.84,-1852.8 335.99,-2278.26 36.06,-52.49 96.48,-111.61 185.81,-108.74 72.19,2.31 122.52,44.47 177.07,74.81 118.31,65.97 297.63,82.86 440.42,41.46 91.01,82.62 105.49,189.2 114.91,290.14 13,139.92 26.58,405.69 37.05,699.16 24.87,6.01 50.69,5.99 74.9,-2.5 24.05,-8.47 53.8,-23.65 71.76,-5.55 8.54,8.63 10.16,21.81 11.25,33.91l7.45 81.38c123.79,-16.51 247.08,-30.95 393.2,-47.02 7.77,-0.85 16.34,-2.69 25.03,-4.85 15,-5.43 30.23,-11.83 45.08,-18.84 -1.98,-52.16 39.26,-100.98 113.51,-80.97l9.92 2.68 0.81 -0.36c11.09,-4.76 24.81,-5.55 34.6,1.55 3.51,2.56 6.13,6.34 7.61,10.48l36.72 10c13.58,-2.68 27.29,-4.06 41.06,-2.83 21.89,2 44.27,12.27 57.2,29.5 37.71,10.16 75.47,20.2 113.34,29.98 94.63,24.42 207.37,36 299.77,71.52 54.7,-26.43 140.7,-6.77 146.33,65.27 45.16,577.65 67.13,1154.48 65.34,1731.37 -0.83,263.4 -8.24,526.32 -21.5,788.86 -1.42,27.94 -2.32,55.36 -2.95,82.46 140.13,37.95 274.22,114.34 405.92,231.36 31.28,27.81 -3.02,92.86 -39.45,71.74 -130.19,-75.17 -245.67,-134.9 -368.32,-166.13 -0.51,42.95 -1.28,86.01 -3.26,130.03 12.22,2.88 24.37,6.01 36.42,9.36 40.45,11.16 81.39,25.43 112.67,53.41 25.21,22.57 42.47,52.54 57.34,82.99 23.03,47.62 41.31,97.64 54.18,148.95 26.8,107.04 27.74,228.58 -36,318.58 -14.87,21 -32.57,39.32 -52.26,55.38 -51.64,42.11 -117.08,68.72 -181.85,87.57 -105.51,30.83 -222.94,45.16 -322.75,-1 -38.84,-18.01 -72.44,-44.1 -101.13,-75.4 -48.05,-52.42 -82.32,-119.48 -104.23,-187.76 -32.53,-101.49 -41.85,-215.87 4.09,-311.96 46.39,-97.32 145.17,-163.38 250.22,-187.86 33.93,-7.95 68.46,-11.97 103.16,-12.83 1.71,-44.2 3.56,-88.49 5.29,-133.24 -44.62,-0.63 -91.16,2.6 -140.43,10.13 -303.63,46.31 -390.01,297.61 -389.09,573.02 0.1,34.97 -18.69,62.48 -45.14,78.26 -15.46,26.89 -40.76,55.58 -52.26,71.86z"/>
   <polygon class="fil14 str0" points="2666.96,7098.53 2648.11,7098.23 "/>
   <path class="fil0 str0" d="M2667.1 7098.53l-0.14 0 0.14 0c203.1,3.21 406.22,4.87 609.01,4.87l0 0c930.88,0 1861.77,-34.28 2790.11,-109.47l7.53 -0.73 0.08 0 5.14 -0.61 0.03 0 -0.03 0"/>
   <g>
    <path class="fil34" d="M3276.25 7103.36l-18.81 0 -0.22 0 -18.81 -0.02 -0.24 0 -18.8 -0.02 -0.22 0 -18.83 -0.05 -0.2 0 -18.83 -0.02 -0.22 0 -18.83 -0.06 -0.19 0 -18.86 -0.07 -0.19 0 -18.83 -0.07 -0.2 0 -18.85 -0.08 -0.18 0 -18.87 -0.09 -0.17 0 -18.88 -0.09 -0.15 0 -18.87 -0.11 -0.18 0 -18.87 -0.13 -0.16 0 -18.89 -0.13 -0.15 0 -18.88 -0.13 -0.15 0 -18.9 -0.15 -0.13 0 -18.91 -0.16 -0.13 0 -18.92 -0.17 -0.11 0 -18.92 -0.18 -0.13 0 -18.92 -0.17 -0.11 0 -18.94 -0.2 -0.1 0 -18.94 -0.19 -0.09 0 -18.94 -0.22 -0.11 0 -18.94 -0.22 -0.09 0 -18.96 -0.24 -0.08 0 -18.96 -0.24 -0.07 0 -18.96 -0.24 -0.09 0 -18.96 -0.26 -0.07 0 -18.98 -0.27 -0.06 0 -18.96 -0.28 -0.07 0 -18.98 -0.28 -0.07 0 -18.98 -0.29 -0.04 0 -18.99 -0.3 -0.06 0 -18.99 -0.33 -0.04 0 -19 -0.33 -0.03 0 -19 -0.33 -0.04 0 -19.01 -0.32 -0.02 0 -19.03 -0.35 -0.02 0 -19 -0.37 -0.03 0 -19.02 -0.38 -0.02 0 -19.03 -0.37 -19.03 -0.39 -19.05 -0.39 -19.02 -0.4 -19.05 -0.41 -19.03 -0.44 -19.02 -0.41 -0.02 0 -19.01 -0.44 -0.02 0 -19.03 -0.46 -0.02 0 -19 -0.46 -0.03 0 -19 -0.46 -0.04 0 -19.01 -0.48 -0.02 0 -19.01 -0.48 -0.04 0 -18.98 -0.5 -0.05 0 -18.98 -0.5 -0.06 0 -18.97 -0.51 -0.06 0 -18.98 -0.52 -0.05 0 -18.98 -0.52 -0.07 0 -18.96 -0.55 -0.06 0 -18.96 -0.55 -0.07 0 -18.96 -0.54 -0.06 0 -18.97 -0.57 -0.08 0 -18.94 -0.57 -0.09 0 -18.94 -0.59 18.94 0.59 0.09 0 18.94 0.57 0.08 0 18.97 0.57 0.06 0 18.96 0.54 0.07 0 18.96 0.55 0.06 0 18.96 0.55 0.07 0 18.98 0.52 0.05 0 18.98 0.52 0.06 0 18.97 0.51 0.06 0 18.98 0.5 0.05 0 18.98 0.5 0.04 0 19.01 0.48 0.02 0 19.01 0.48 0.04 0 19 0.46 0.03 0 19 0.46 0.02 0 19.03 0.46 0.02 0 19.01 0.44 0.02 0 19.02 0.41 19.03 0.44 19.05 0.41 19.02 0.4 19.05 0.39 19.03 0.39 19.03 0.37 0.02 0 19.02 0.38 0.03 0 19 0.37 0.02 0 19.03 0.35 0.02 0 19.01 0.32 0.04 0 19 0.33 0.03 0 19 0.33 0.04 0 18.99 0.33 0.06 0 18.99 0.3 0.04 0 18.98 0.29 0.07 0 18.98 0.28 0.07 0 18.96 0.28 0.06 0 18.98 0.27 0.07 0 18.96 0.26 0.09 0 18.96 0.24 0.07 0 18.96 0.24 0.08 0 18.96 0.24 0.09 0 18.94 0.22 0.11 0 18.94 0.22 0.09 0 18.94 0.19 0.1 0 18.94 0.2 0.11 0 18.92 0.17 0.13 0 18.92 0.18 0.11 0 18.92 0.17 0.13 0 18.91 0.16 0.13 0 18.9 0.15 0.15 0 18.88 0.13 0.15 0 18.89 0.13 0.16 0 18.87 0.13 0.18 0 18.87 0.11 0.15 0 18.88 0.09 0.17 0 18.87 0.09 0.18 0 18.85 0.08 0.2 0 18.83 0.07 0.19 0 18.86 0.07 0.19 0 18.83 0.06 0.22 0 18.83 0.02 0.2 0 18.83 0.05 0.22 0 18.8 0.02 0.24 0 18.81 0.02 0.22 0 18.81 0 0.24 0 -0.24 0zm-1218.2 -19.05l-0.09 0 0.09 0zm-0.09 0l-1.92 -0.06 -0.09 0 -1.92 -0.07 -0.06 0 -1.95 -0.06 -0.06 0 -1.95 -0.07 -0.06 -0.02 -1.97 -0.07 -0.06 0 -1.95 -0.06 -0.06 -0.02 -1.97 -0.07 -0.07 -0.02 -1.96 -0.07 -0.07 -0.02 -1.96 -0.07 -0.07 -0.02 -1.96 -0.06 -0.07 -0.02 -1.99 -0.09 -0.04 -0.02 -1.99 -0.09 -0.04 -0.02 -2.01 -0.09 -0.05 -0.02 -1.98 -0.11 -0.05 -0.02 -2.01 -0.09 -0.04 -0.02 -1.99 -0.11 -0.04 -0.02 -2.01 -0.13 -0.05 -0.03 -6.09 -0.43 -0.02 -0.03 -6.12 -0.5 -0.02 -0.02 -2.01 -0.17 -0.02 -0.03 -2.03 -0.17 -0.03 -0.02 -2.01 -0.2 -0.02 -0.02 -2.03 -0.2 0 -0.02 -2.03 -0.22 0 -0.02 -2.03 -0.22 0 -0.02 -2.03 -0.24 0 -0.02 -2.01 -0.24 -0.03 -0.02 -2.01 -0.24 -0.02 -0.03 -2.01 -0.28 0 -0.02 -2.01 -0.26 0 -0.03 -2.01 -0.3 0 -0.02 -2.01 -0.29 0 -0.02 -2.01 -0.33 0 -0.02 -1.98 -0.33 0 -0.02 -1.99 -0.35 -0.02 0 -1.97 -0.37 -0.02 -0.02 -1.97 -0.37 0 -0.02 -1.98 -0.38 0 -0.02 -1.97 -0.41 -1.97 -0.42 0 -0.02 -1.94 -0.44 0 -0.02 -1.97 -0.44 0 -0.02 -1.92 -0.46 -0.02 -0.02 -1.92 -0.48 -1.93 -0.52 -1.92 -0.53 -1.92 -0.54 -1.9 -0.57 -1.88 -0.57 -1.9 -0.61 -1.88 -0.61 -1.86 -0.64 -1.85 -0.65 -1.84 -0.68 -1.83 -0.68 -1.84 -0.72 -1.81 -0.72 -1.81 -0.74 -1.79 -0.79 -1.77 -0.78 1.77 0.78 1.79 0.79 1.81 0.74 1.81 0.72 1.84 0.72 1.83 0.68 1.84 0.68 1.85 0.65 1.86 0.64 1.88 0.61 1.9 0.61 1.88 0.57 1.9 0.57 1.92 0.54 1.92 0.53 1.93 0.52 1.92 0.48 0.02 0.02 1.92 0.46 0 0.02 1.97 0.44 0 0.02 1.94 0.44 0 0.02 1.97 0.42 1.97 0.41 0 0.02 1.98 0.38 0 0.02 1.97 0.37 0.02 0.02 1.97 0.37 0.02 0 1.99 0.35 0 0.02 1.98 0.33 0 0.02 2.01 0.33 0 0.02 2.01 0.29 0 0.02 2.01 0.3 0 0.03 2.01 0.26 0 0.02 2.01 0.28 0.02 0.03 2.01 0.24 0.03 0.02 2.01 0.24 0 0.02 2.03 0.24 0 0.02 2.03 0.22 0 0.02 2.03 0.22 0 0.02 2.03 0.2 0.02 0.02 2.01 0.2 0.03 0.02 2.03 0.17 0.02 0.03 2.01 0.17 0.02 0.02 6.12 0.5 0.02 0.03 6.09 0.43 0.05 0.03 2.01 0.13 0.04 0.02 1.99 0.11 0.04 0.02 2.01 0.09 0.05 0.02 1.98 0.11 0.05 0.02 2.01 0.09 0.04 0.02 1.99 0.09 0.04 0.02 1.99 0.09 0.07 0.02 1.96 0.06 0.07 0.02 1.96 0.07 0.07 0.02 1.96 0.07 0.07 0.02 1.97 0.07 0.06 0.02 1.95 0.06 0.06 0 1.97 0.07 0.06 0.02 1.95 0.07 0.06 0 1.95 0.06 0.06 0 1.92 0.07 0.09 0 1.92 0.06zm1218.53 19.05l43.4 -0.02 0.24 0 43.41 -0.09 0.22 0 43.42 -0.11 0.22 0 43.43 -0.17 0.22 0 43.42 -0.24 0.22 0 43.41 -0.29 0.22 0 43.42 -0.32 0.22 0 43.43 -0.38 0.19 0 43.45 -0.43 0.2 0 43.43 -0.48 0.19 0 43.45 -0.55 0.2 0 43.42 -0.59 0.2 0 43.45 -0.63 0.2 0 43.42 -0.7 0.2 0 43.45 -0.74 0.17 0 43.45 -0.79 0.18 0 43.47 -0.85 0.15 0 43.47 -0.9 0.15 0 43.47 -0.96 0.16 0 43.47 -1 0.15 0 43.47 -1.08 0.15 0 43.47 -1.11 0.16 0 43.47 -1.16 0.15 0 43.47 -1.22 0.13 0 43.47 -1.29 0.15 0 43.47 -1.31 0.14 0 43.49 -1.4 0.13 0 43.47 -1.44 0.13 0 43.47 -1.48 0.13 0 43.49 -1.56 0.11 0 43.5 -1.59 0.1 0 43.5 -1.66 0.11 0 43.49 -1.7 0.11 0 43.49 -1.77 0.09 0 43.49 -1.84 0.11 0 43.49 -1.88 0.09 0 43.49 -1.92 0.11 0 43.49 -1.99 0.09 0 43.49 -2.05 0.09 0 43.49 -2.1 0.09 0 43.49 -2.16 0.09 0 43.49 -2.21 0.07 0 43.51 -2.27 0.07 0 43.49 -2.34 0.06 0 43.52 -2.38 0.06 0 43.49 -2.44 0.07 0 43.49 -2.49 0.07 0 43.49 -2.56 0.07 0 43.49 -2.62 0.04 0 43.52 -2.67 0.04 0 43.49 -2.73 0.05 0 43.51 -2.77 0.04 0 43.5 -2.84 0.04 0 43.49 -2.91 0.04 0 43.5 -2.97 0.02 0 43.51 -3.01 0.02 0 43.5 -3.08 0.02 0 43.51 -3.15 43.52 -3.19 0.02 0 43.49 -3.25 43.52 -3.32 43.49 -3.37 0.02 0 43.49 -3.43 43.49 -3.49 -43.49 3.49 -43.49 3.43 -0.02 0 -43.49 3.37 -43.52 3.32 -43.49 3.25 -0.02 0 -43.52 3.19 -43.51 3.15 -0.02 0 -43.5 3.08 -0.02 0 -43.51 3.01 -0.02 0 -43.5 2.97 -0.04 0 -43.49 2.91 -0.04 0 -43.5 2.84 -0.04 0 -43.51 2.77 -0.05 0 -43.49 2.73 -0.04 0 -43.52 2.67 -0.04 0 -43.49 2.62 -0.07 0 -43.49 2.56 -0.07 0 -43.49 2.49 -0.07 0 -43.49 2.44 -0.06 0 -43.52 2.38 -0.06 0 -43.49 2.34 -0.07 0 -43.51 2.27 -0.07 0 -43.49 2.21 -0.09 0 -43.49 2.16 -0.09 0 -43.49 2.1 -0.09 0 -43.49 2.05 -0.09 0 -43.49 1.99 -0.11 0 -43.49 1.92 -0.09 0 -43.49 1.88 -0.11 0 -43.49 1.84 -0.09 0 -43.49 1.77 -0.11 0 -43.49 1.7 -0.11 0 -43.5 1.66 -0.1 0 -43.5 1.59 -0.11 0 -43.49 1.56 -0.13 0 -43.47 1.48 -0.13 0 -43.47 1.44 -0.13 0 -43.49 1.4 -0.14 0 -43.47 1.31 -0.15 0 -43.47 1.29 -0.13 0 -43.47 1.22 -0.15 0 -43.47 1.16 -0.16 0 -43.47 1.11 -0.15 0 -43.47 1.08 -0.15 0 -43.47 1 -0.16 0 -43.47 0.96 -0.15 0 -43.47 0.9 -0.15 0 -43.47 0.85 -0.18 0 -43.45 0.79 -0.17 0 -43.45 0.74 -0.2 0 -43.42 0.7 -0.2 0 -43.45 0.63 -0.2 0 -43.42 0.59 -0.2 0 -43.45 0.55 -0.19 0 -43.43 0.48 -0.2 0 -43.45 0.43 -0.19 0 -43.43 0.38 -0.22 0 -43.42 0.32 -0.22 0 -43.41 0.29 -0.22 0 -43.42 0.24 -0.22 0 -43.43 0.17 -0.22 0 -43.42 0.11 -0.22 0 -43.41 0.09 -0.24 0 -43.4 0.02zm2789.57 -109.44l2.54 -0.22 2.55 -0.24 0.03 0 2.57 -0.26 2.6 -0.31 2.6 -0.3 0.02 0 2.63 -0.35 0.02 0 2.6 -0.37 0.02 0 2.64 -0.4 0.02 0 2.62 -0.43 0.05 0 2.62 -0.44 0.04 0 2.62 -0.48 0.05 0 2.62 -0.5 0.04 0 2.62 -0.55 0.05 0 2.62 -0.57 0.04 0 2.62 -0.59 0.05 0 2.62 -0.63 0.04 0 2.6 -0.66 0.05 0 2.57 -0.67 0.07 0 2.58 -0.72 0.04 0 2.56 -0.75 0.06 0 2.54 -0.78 0.04 0 2.53 -0.81 0.05 0 2.51 -0.85 0.07 0 2.46 -0.88c26.92,-9.54 49.74,-24.77 57.65,-47.81l0.02 0 0.68 -2.19 0.02 0 0.59 -2.23 0.02 0 0.51 -2.27 0.02 0 0.39 -2.34 0.02 0 0.33 -2.36 0.22 -2.42 0.02 0 0.11 -2.47 0.02 0 0.02 -2.51 -0.02 2.51 -0.02 0 -0.11 2.47 -0.02 0 -0.22 2.42 -0.33 2.36 -0.02 0 -0.39 2.34 -0.02 0 -0.51 2.27 -0.02 0 -0.59 2.23 -0.02 0 -0.68 2.19 -0.02 0c-7.84,23.04 -30.67,38.27 -57.65,47.81l-2.46 0.88 -0.07 0 -2.51 0.85 -0.05 0 -2.53 0.81 -0.04 0 -2.54 0.78 -0.06 0 -2.56 0.75 -0.04 0 -2.58 0.72 -0.07 0 -2.57 0.67 -0.05 0 -2.6 0.66 -0.04 0 -2.62 0.63 -0.05 0 -2.62 0.59 -0.04 0 -2.62 0.57 -0.05 0 -2.62 0.55 -0.04 0 -2.62 0.5 -0.05 0 -2.62 0.48 -0.04 0 -2.62 0.44 -0.05 0 -2.62 0.43 -0.02 0 -2.64 0.4 -0.02 0 -2.6 0.37 -0.02 0 -2.63 0.35 -0.02 0 -2.6 0.3 -2.6 0.31 -2.57 0.26 -0.03 0 -2.55 0.24 -2.54 0.22zm123.53 -79.36l-0.06 -2.53 -0.02 -0.05 -0.18 -2.42 0 -0.09 -0.26 -2.32 -0.02 -0.15 -0.35 -2.23 -0.02 -0.19 -0.44 -2.12 -0.04 -0.24 -0.53 -2.01 -0.06 -0.29 -0.57 -1.94 -0.09 -0.31 -0.65 -1.85 -0.81 -2.1 -0.16 -0.39 -0.74 -1.69 -0.2 -0.41 -0.8 -1.6 -0.77 -1.42 -0.28 -0.54 -0.29 -0.48 -0.87 -1.44 -0.31 -0.51 -0.91 -1.35 -1.27 -1.81 -0.02 -0.03 -0.42 -0.56 -0.96 -1.2c-3.3,-4.09 -7.14,-7.8 -11.47,-11.17l-0.87 -0.67 -1.03 -0.75 -0.91 -0.67 -1.01 -0.7c-1.96,-1.36 -4.04,-2.65 -6.16,-3.87l-1.2 -0.7 -0.94 -0.5c-2.18,-1.2 -4.41,-2.32 -6.71,-3.39l-1.48 -0.67 -0.83 -0.38 -1.57 -0.67 -0.79 -0.33 -1.64 -0.68 -0.76 -0.28 -1.71 -0.68 -0.72 -0.26 -1.77 -0.66 -0.7 -0.24 -1.85 -0.65 -0.64 -0.2 -1.92 -0.63 -0.61 -0.18 -1.99 -0.63 -0.54 -0.15 -2.08 -0.61 -0.5 -0.16 -2.14 -0.59 -0.46 -0.11 -2.23 -0.59 -0.39 -0.08 -2.3 -0.57 -0.35 -0.09 -2.36 -0.55 -0.3 -0.06 -2.43 -0.53 -0.26 -0.04 -2.47 -0.5 -0.22 -0.05 -2.53 -0.48 -0.17 -0.02 -2.6 -0.46 -0.11 -0.02 -2.67 -0.43 -0.04 0 -2.73 -0.42 -2.73 -0.39 -0.07 0 -2.68 -0.35 -0.09 0 -2.65 -0.33 -0.15 0 -2.58 -0.28 -0.21 -0.03 -2.52 -0.24 -0.26 -0.02 -2.47 -0.22 -0.3 -0.02 -2.41 -0.17 -0.37 -0.03 -5.52 -0.32 -2.21 -0.11 -0.52 0 -2.71 -0.11 -2.1 -0.07 -0.61 0 -2.03 -0.04 -3.32 0 5.35 0.04 0.61 0 2.1 0.07 2.71 0.11 0.52 0 2.21 0.11 5.52 0.32 0.37 0.03 2.41 0.17 0.3 0.02 2.47 0.22 0.26 0.02 2.52 0.24 0.21 0.03 2.58 0.28 0.15 0 2.65 0.33 0.09 0 2.68 0.35 0.07 0 2.73 0.39 2.73 0.42 0.04 0 2.67 0.43 0.11 0.02 2.6 0.46 0.17 0.02 2.53 0.48 0.22 0.05 2.47 0.5 0.26 0.04 2.43 0.53 0.3 0.06 2.36 0.55 0.35 0.09 2.3 0.57 0.39 0.08 2.23 0.59 0.46 0.11 2.14 0.59 0.5 0.16 2.08 0.61 0.54 0.15 1.99 0.63 0.61 0.18 1.92 0.63 0.64 0.2 1.85 0.65 0.7 0.24 1.77 0.66 0.72 0.26 1.71 0.68 0.76 0.28 1.64 0.68 0.79 0.33 1.57 0.67 0.83 0.38 1.48 0.67c2.3,1.07 4.53,2.21 6.71,3.39l0.94 0.5 1.2 0.7c2.14,1.22 4.2,2.51 6.16,3.87l1.01 0.7 0.91 0.67 1.03 0.75 0.87 0.67c4.33,3.37 8.2,7.08 11.47,11.17l0.96 1.2 0.42 0.56 0.02 0.03 1.27 1.81 0.91 1.35 0.31 0.51 0.87 1.44 0.29 0.48 0.28 0.54 0.77 1.42 0.8 1.6 0.2 0.41 0.74 1.69 0.16 0.39 0.81 2.1 0.65 1.85 0.09 0.31 0.57 1.94 0.06 0.29 0.53 2.01 0.04 0.24 0.44 2.12 0.02 0.19 0.35 2.23 0.02 0.15 0.26 2.32 0 0.09 0.18 2.42 0.02 0.05 0.06 2.53zm-129.77 -73.07l-0.22 0 -0.22 0 -0.2 0 -0.22 0 -0.21 0 -0.2 0 -0.22 0 -0.2 0 -0.21 0 -0.2 0 -0.2 0 -0.22 0 -0.19 0 -0.2 0 -0.22 0 -0.19 0 0.19 0 0.22 0 0.2 0 0.19 0 0.22 0 0.2 0 0.2 0 0.21 0 0.2 0 0.22 0 0.2 0 0.21 0 0.22 0 0.2 0 0.22 0 0.22 0zm-3973.11 73.37l-0.33 0 -0.32 0 -0.35 0 -0.33 0 -0.35 0 -0.35 0 -0.35 0 -0.35 -0.02 -0.02 0 -0.35 0 -0.37 0 -0.37 0 -0.37 0 -0.38 -0.02 -0.02 0 -0.37 0 -0.39 0 -0.4 0 -0.39 -0.02 -0.39 0 -0.02 0 -0.4 0 -0.39 -0.02 -0.02 0 -0.4 0 -0.02 0 -0.39 -0.02 -0.02 0 -0.42 0 -0.41 0 -0.02 0 -0.42 -0.03 -0.02 0 -0.42 0 -0.02 0 -0.41 -0.02 -0.03 0 -0.41 0 -0.02 0 -0.42 -0.02 -0.02 0 -0.44 0 -0.02 0 -0.43 -0.02 -0.03 0 -0.43 0 -0.03 0 -0.43 -0.02 -0.02 0 -0.44 0 -0.02 0 -0.44 -0.03 -0.04 0 -0.44 -0.02 -0.02 0 -0.46 0 -0.02 0 -0.46 -0.02 -0.02 0 -0.46 0 -0.02 0 -0.46 -0.02 -0.02 0 -0.46 -0.02 -0.05 0 -0.46 0 -0.02 0 -0.48 -0.02 -0.02 0 -0.48 -0.03 -0.02 0 -0.48 0 -0.02 0 -0.48 -0.02 -0.05 0 -0.48 -0.02 -0.02 0 -0.48 0 -0.05 0 -0.48 -0.02 -0.02 0 -0.5 -0.02 -0.02 0 -0.5 -0.03 -0.03 0 -0.5 0 -0.02 0 -0.52 -0.02 -0.03 0 -0.5 -0.02 -0.02 0 -0.53 -0.02 -0.02 0 -0.52 0 -0.02 0 -0.53 -0.02 -0.02 0 -0.52 -0.02 -0.03 0 -0.52 -0.03 -0.02 0 -0.55 -0.02 -0.54 0 -0.03 0 -0.54 -0.02 -0.57 -0.02 -0.57 -0.02 0.57 0.02 0.57 0.02 0.54 0.02 0.03 0 0.54 0 0.55 0.02 0.02 0 0.52 0.03 0.03 0 0.52 0.02 0.02 0 0.53 0.02 0.02 0 0.52 0 0.02 0 0.53 0.02 0.02 0 0.5 0.02 0.03 0 0.52 0.02 0.02 0 0.5 0 0.03 0 0.5 0.03 0.02 0 0.5 0.02 0.02 0 0.48 0.02 0.05 0 0.48 0 0.02 0 0.48 0.02 0.05 0 0.48 0.02 0.02 0 0.48 0 0.02 0 0.48 0.03 0.02 0 0.48 0.02 0.02 0 0.46 0 0.05 0 0.46 0.02 0.02 0 0.46 0.02 0.02 0 0.46 0 0.02 0 0.46 0.02 0.02 0 0.46 0 0.02 0 0.44 0.02 0.04 0 0.44 0.03 0.02 0 0.44 0 0.02 0 0.43 0.02 0.03 0 0.43 0 0.03 0 0.43 0.02 0.02 0 0.44 0 0.02 0 0.42 0.02 0.02 0 0.41 0 0.03 0 0.41 0.02 0.02 0 0.42 0 0.02 0 0.42 0.03 0.02 0 0.41 0 0.42 0 0.02 0 0.39 0.02 0.02 0 0.4 0 0.02 0 0.39 0.02 0.4 0 0.02 0 0.39 0 0.39 0.02 0.4 0 0.39 0 0.37 0 0.02 0 0.38 0.02 0.37 0 0.37 0 0.37 0 0.35 0 0.02 0 0.35 0.02 0.35 0 0.35 0 0.35 0 0.33 0 0.35 0 0.32 0 0.33 0 0 0zm-29.12 -0.69l0 0z"/>
    <g style="clip-path:url(#id0)">
     <image x="1776.77" y="6765.59" width="4486.56" height="409.97" xlink:href="11_Images\11_ImgID1.png"/>
    </g>
    <path class="fil35" d="M5690.38 6326.03c23.03,47.62 41.31,97.64 54.18,148.95 26.8,107.04 27.74,228.58 -36,318.58 -53.87,76.07 -144.63,116.91 -234.11,142.95 -105.51,30.83 -222.94,45.16 -322.75,-1 -103.87,-48.17 -170.36,-154.11 -205.36,-263.16 -32.53,-101.49 -41.85,-215.87 4.09,-311.96 46.39,-97.32 145.17,-163.38 250.22,-187.86 105.03,-24.6 215.85,-11.73 319.72,17.1 40.45,11.16 81.39,25.43 112.67,53.41 25.21,22.57 42.47,52.54 57.34,82.99z"/>
    <path class="fil36" d="M5476.37 6497.64c7.47,15.27 13.26,31.3 17.41,47.79 8.57,34.28 8.87,73.2 -11.55,102.02 -17.26,24.35 -46.31,37.46 -74.97,45.85 -33.84,9.87 -71.45,14.41 -103.44,-0.37 -33.29,-15.43 -54.54,-49.42 -65.79,-84.32 -10.33,-32.51 -13.35,-69.12 1.31,-99.94 14.85,-31.22 46.46,-52.34 80.13,-60.18 33.77,-7.87 69.13,-3.72 102.49,5.55 12.95,3.53 26.06,8.08 36.06,17.01 8.11,7.25 13.66,16.89 18.35,26.59z"/>
    <path class="fil37" d="M2353.58 6533.64c748.9,8.78 1496.94,-3.87 2245.59,-19.66 19.2,-255.23 106.05,-500.44 375.98,-581.9 341.87,-103.1 636.4,-39.29 919.83,212.55 31.28,27.81 -3.02,92.86 -39.45,71.74 -234.13,-135.18 -420.68,-220.48 -686.86,-179.78 -303.63,46.31 -390.01,297.61 -389.09,573.02 0.15,54.48 -45.54,90.85 -94.63,93.01 -777.94,34.3 -1557.75,37.69 -2336.15,30.37 -124.84,-1.16 -119.84,-200.82 4.78,-199.35z"/>
    <path class="fil35" d="M2581.84 6393.53c23.11,47.62 41.39,97.64 54.26,148.95 26.74,106.98 27.74,228.58 -36,318.58 -53.87,76.06 -144.63,116.83 -234.11,142.95 -105.57,30.82 -222.94,45.18 -322.75,-1.07 -103.94,-48.08 -170.45,-154.05 -205.36,-263.16 -32.59,-101.42 -41.92,-215.78 4,-311.87 46.55,-97.41 145.2,-163.38 250.23,-187.97 105.02,-24.49 215.84,-11.62 319.89,17.19 40.36,11.18 81.3,25.43 112.49,53.32 25.3,22.59 42.56,52.65 57.35,83.08z"/>
    <path class="fil36" d="M2341.48 6551.66c7.25,14.87 12.96,30.6 17.04,46.64 8.39,33.5 8.63,71.65 -11.25,99.87 -16.88,23.81 -45.33,36.52 -73.37,44.76 -33.05,9.63 -69.91,14.11 -101.1,-0.37 -32.61,-15.03 -53.34,-48.26 -64.35,-82.47 -10.18,-31.76 -13.11,-67.58 1.31,-97.64 14.48,-30.52 45.39,-51.25 78.37,-58.87 32.9,-7.71 67.59,-3.69 100.18,5.31 12.63,3.56 25.43,8.01 35.3,16.73 7.93,7.08 13.24,16.49 17.87,26.04z"/>
    <path class="fil37" d="M4700.81 3092.79c100.35,27.07 200.44,54.96 301.26,81 94.63,24.42 207.37,36 299.77,71.52 54.7,-26.43 140.7,-6.77 146.33,65.27 45.16,577.65 67.13,1154.48 65.34,1731.37 -0.83,263.4 -8.24,526.32 -21.5,788.86 -12.25,241.84 13.5,444.73 -68.59,742.58 -16.16,58.72 -121.36,40.92 -122.89,0 -8.11,-203.52 2.84,-388.24 9.94,-583.29 11.31,-312.48 15.24,-625.73 15.7,-938.91 0.79,-560.09 -23.72,-1121.65 -65.95,-1682.5l-9.26 0.61c-58.32,-0.46 -118.68,-9.09 -176.76,-16.1 -136.79,-16.49 -274.19,-46.25 -406.35,-84.39 -125.7,-36.37 -96.58,-210.93 32.96,-176.02z"/>
    <path class="fil38" d="M2987.33 5162.62c27.22,-33.14 68.05,-104.36 71.13,-142.19 2.16,-26.74 -9.39,-52.47 -20.8,-76.74 -89.84,-192.06 -179.78,-384.09 -269.71,-576.12 -9.33,-19.97 261.3,-78.91 286.05,-81.68 105.27,-11.64 211,-4.87 316.11,-20.12 8.79,-1.31 18.18,-2.62 26.44,0.85 14.63,6.16 19.33,24.18 22.26,39.83 39.99,217.24 79.92,434.48 119.92,651.72 12.87,70.21 25.89,140.94 24.42,212.31 -1.09,54.57 -8.93,124.29 -40.45,170.93 -30.3,44.46 -98.87,55.86 -148.59,75.52 -127.15,50.24 -254.53,99.87 -381.29,150.96 -256.54,103.26 -511.31,212.16 -756.15,341.3 -94.08,49.63 -62.19,139.96 -41.22,230.26 4.15,17.89 9.02,36.46 5.25,54.48 -3.78,18.05 -19.27,35.15 -37.62,33.69 -16.03,-1.4 -27.5,-15.49 -36.92,-28.51 -71.89,-100.11 -134.14,-207 -185.78,-318.88 -3.08,-6.71 -6.25,-13.96 -4.94,-21.28l8.41 -15.34c25.49,-30.42 62.04,-51.15 101.09,-58.49l-2.77 -3.91c-9.33,-13.81 40.54,-47.95 47.71,-53.65 146.64,-117.44 316.17,-211 476.32,-308.25 96.24,-58.48 192.82,-116.28 289.37,-174.17 36.98,-22.1 97.4,-44.38 126.37,-76.21l5.39 -6.31z"/>
    <path class="fil39" d="M2212.1 6581.56c-13.72,5.4 -20.51,15.95 -21.65,27.05 -2.93,5.39 -4.33,12.49 -3.17,20.97 4.55,35.45 53.72,41.68 70.58,11.64 16.43,-29.21 -11.16,-73.22 -45.76,-59.66z"/>
    <path class="fil39" d="M5334.12 6537.11c-5.17,11.77 -2.77,22.72 8.02,30.34l3.08 2.25 0.07 0c7.09,8.02 18.5,12.02 29.35,7.54 48.41,-19.88 -17.65,-92.38 -40.52,-40.13z"/>
    <path class="fil35" d="M3548.58 6590.8c147.74,0.16 295.38,0.4 443.03,0.64 160.29,0.21 320.59,0.37 480.79,-1.1 26.52,-0.3 53.87,-0.76 77.92,-11.94 23.97,-11.1 43.76,-35.98 40.22,-62.26 -1.01,-7.62 -4.24,-15.34 -10.4,-19.97 -8.08,-6 -19.18,-5.39 -29.29,-4.54 -348.31,29.6 -698.17,28.66 -1047.51,29.29 -176.24,0.37 -352.54,1.07 -528.72,6.23 -36.28,1.09 -214.38,-14.94 -229.65,25.82 -20.49,54.78 178.1,37 207.15,37 198.83,0.31 397.57,0.53 596.46,0.83z"/>
    <path class="fil38" d="M3383.29 5323.28c-36.92,-331.27 -109.51,-652.86 -156.98,-982.6 -7.4,-51.25 -14.79,-102.43 -22.34,-153.59 54.56,1.7 109.11,3.84 163.68,7.16 102.49,-19.5 205.6,-36.06 309.25,-51.09 35.76,-5.09 117.98,544.51 115.97,603.32 -17.87,523.02 -66.12,1046.5 -34.45,1568.91 6.49,106.12 101.97,114.29 192.82,132.4 18.11,3.62 36.98,6.86 51.86,17.71 14.79,10.79 24.05,32.07 15.09,48.17 -7.77,14.02 -25.42,18.72 -41.22,21.89 -120.75,24.27 -243.82,36.92 -367.05,37.83 -7.32,0 -15.25,-0.06 -21.34,-4.23l-10.55 -14.03c-17.19,-35.76 -21.12,-77.59 -11.64,-116.12l-4.79 0.83c-98.56,-349.32 -137.31,-711.5 -173.53,-1071.54 -1.55,-15.03 -3.17,-29.99 -4.78,-45.02z"/>
    <path class="fil40" d="M3366.25 2106.47c-54.55,-30.34 -104.88,-72.5 -177.07,-74.81 -89.33,-2.87 -149.75,56.25 -185.81,108.74 -292.15,425.46 -421.29,1816.58 -335.99,2278.26 370.83,3.08 932.69,-75.06 1303.59,-76.76 21.03,-359.1 -16.04,-1545.1 -49.39,-1903.83 -9.42,-100.94 -23.9,-207.52 -114.91,-290.14 -142.79,41.4 -322.11,24.51 -440.42,-41.46z"/>
    <path class="fil41" d="M3334.05 1447.91c10.4,-38.84 23.35,-77.22 41.46,-113.13 63.11,-125.37 247.67,-286.97 394.86,-193.35 34.21,21.8 60.11,54.26 84.08,86.92 24.73,33.53 48.23,68.22 66.27,105.75 34.06,70.82 49.63,155.42 37.6,233.65 -11.25,72.74 -49.09,143.64 -84.54,207.12 -47.01,84.24 -107.95,169.78 -199.5,200.14 -121.83,40.55 -260.48,-37.53 -319.89,-151.33 -59.42,-113.84 -53.41,-251.7 -20.34,-375.77z"/>
    <path class="fil42" d="M2899.26 1586.93c41,-83.45 82,-166.83 122.98,-250.3 61.58,-125.23 126.55,-254.77 233.67,-340.38 199.97,-160.05 500.28,-114.9 694.39,47.16 55.42,46.23 105.58,102.5 131.09,171.77 48.93,133.1 -1.31,283.52 -59.79,413.97 -58.5,130.54 -127.31,266.11 -115.36,408.6 -37.07,-7.4 -63.13,-44.32 -71.15,-82.86 -7.93,-38.53 -1.53,-78.74 4.64,-117.82 17.41,-109.12 33.44,-220.48 18.04,-329.44 -15.34,-109.05 -66.82,-217.09 -157.22,-272.95 -222.85,176.92 -378.76,443.95 -426.53,730.7 -65.66,-31.13 -139.35,-44.3 -211.69,-37.92 -30.06,2.62 -60.43,8.56 -89.78,2.47 -62.04,-12.87 -120.61,-77.05 -177.71,-47.47 11.1,-104.66 58.11,-201.43 104.42,-295.53z"/>
    <path class="fil41" d="M3393.01 2706.19c10.46,-10.18 23.11,-18.5 37.13,-22.35 56.25,-15.18 103.41,41.92 133.71,91.62 102.17,168 204.51,337.3 287.43,515.09 15.88,-8.78 35,-11.95 53.26,-14.72 208.46,-31.74 382.14,-53.02 612.65,-78.38 7.77,-0.85 16.34,-2.69 25.03,-4.85 52.56,-19.03 107.98,-50.09 139.96,-76.67 9.24,-7.72 18.32,-16.04 29.36,-20.82 11.09,-4.76 24.81,-5.55 34.6,1.55 9.7,7.08 12.56,23.35 3.47,31.37 26.65,-8.11 54.17,-16.19 81.92,-13.72 27.65,2.53 56.09,18.26 65.27,44.54 12.17,35.45 -14.27,72.74 -44.32,95.24 -67.29,50.4 -178.87,82.77 -267.79,83.62 -42.78,18.26 -91.4,30.52 -120.37,39.3 -131.39,39.76 -262.7,79.53 -394.03,119.29 -62.1,18.81 -125.45,37.77 -190.26,36.61 -35.37,-0.7 -69.12,-8.8 -101.4,-22.82 -197.83,-86.01 -336.39,-394.25 -399.12,-564.79 -29.21,-79.45 -47.08,-180.09 13.5,-239.11z"/>
    <path class="fil40" d="M3521.08 2532.94c88.54,146.66 177.01,293.22 265.48,439.88 27.65,45.85 56.18,92.56 97.49,126.53 41.37,33.92 98.93,53.1 149.48,35.38 24.05,-8.47 53.8,-23.65 71.76,-5.55 8.54,8.63 10.16,21.81 11.25,33.91 13.26,144.87 26.49,289.74 39.75,434.7 -152.88,-17.56 -305.77,-35.15 -458.66,-52.71 -21.5,-2.47 -44.39,-5.46 -60.97,-19.33 -12.56,-10.64 -19.79,-26.06 -26.65,-41 -102.58,-224.41 -205.14,-448.73 -307.72,-673.14 -33.05,-72.44 -63.96,-164.77 -12.02,-225.19 53.02,-61.65 150.2,-42.75 230.81,-53.48z"/>
    <path class="fil37" d="M4682.18 6759.73c-4.79,6.85 -9.79,13.87 -16.8,18.56 -8.48,5.55 -18.81,7.26 -28.75,8.81 -182.49,28.11 -365.13,56.25 -549.3,67.74 -117.98,7.31 -236.2,7.77 -354.34,8.32 -58.1,0.22 -118.13,0.06 -171.45,-23.13 -41.09,-17.87 -75.21,-48.32 -113.14,-72.29 -82.37,-52.01 -180.17,-72.43 -275.56,-91.85 -47.1,-9.64 -94.11,-19.18 -141.12,-28.75 273.89,-34.67 551.16,-3.93 826.97,6.79 143.49,5.62 287.21,5.77 430.77,0.53 72.43,-2.62 144.87,-6.62 217.15,-12.02 64.97,-4.85 142.43,-25.51 206.85,-18.5 81.46,8.96 -6.62,100.88 -31.28,135.79z"/>
   </g>
  </g>
 </g>
</svg>
