<?xml version="1.0" encoding="UTF-8"?>
<!DOCTYPE svg PUBLIC "-//W3C//DTD SVG 1.1//EN" "http://www.w3.org/Graphics/SVG/1.1/DTD/svg11.dtd">
<!-- Creator: CorelDRAW 2017 -->
<svg xmlns="http://www.w3.org/2000/svg" xml:space="preserve" width="80mm" height="80mm" version="1.1" style="shape-rendering:geometricPrecision; text-rendering:geometricPrecision; image-rendering:optimizeQuality; fill-rule:evenodd; clip-rule:evenodd"
viewBox="0 0 8000 8000"
 xmlns:xlink="http://www.w3.org/1999/xlink">
 <defs>
  <style type="text/css">
   <![CDATA[
    .str0 {stroke:#FEFEFE;stroke-width:141.11;stroke-linejoin:round;stroke-miterlimit:22.9256}
    .fil0 {fill:none}
    .fil31 {fill:#333333;fill-rule:nonzero}
    .fil35 {fill:#443B36;fill-rule:nonzero}
    .fil37 {fill:#4D4D4D;fill-rule:nonzero}
    .fil33 {fill:#5E625E;fill-rule:nonzero}
    .fil38 {fill:#AA4A4D;fill-rule:nonzero}
    .fil40 {fill:#BD7274;fill-rule:nonzero}
    .fil36 {fill:#EBEFEB;fill-rule:nonzero}
    .fil32 {fill:#EEF2EE;fill-rule:nonzero}
    .fil34 {fill:#FFE0D6;fill-rule:nonzero}
    .fil39 {fill:white;fill-rule:nonzero}
    .fil27 {fill:url(#id1)}
    .fil25 {fill:url(#id2)}
    .fil26 {fill:url(#id3)}
    .fil11 {fill:url(#id4)}
    .fil13 {fill:url(#id5)}
    .fil15 {fill:url(#id6)}
    .fil5 {fill:url(#id7)}
    .fil7 {fill:url(#id8)}
    .fil20 {fill:url(#id9)}
    .fil18 {fill:url(#id10)}
    .fil21 {fill:url(#id11)}
    .fil16 {fill:url(#id12)}
    .fil9 {fill:url(#id13)}
    .fil3 {fill:url(#id14)}
    .fil19 {fill:url(#id15)}
    .fil22 {fill:url(#id16)}
    .fil12 {fill:url(#id17)}
    .fil17 {fill:url(#id18)}
    .fil28 {fill:url(#id19)}
    .fil30 {fill:url(#id20)}
    .fil8 {fill:url(#id21)}
    .fil10 {fill:url(#id22)}
    .fil24 {fill:url(#id23)}
    .fil29 {fill:url(#id24)}
    .fil6 {fill:url(#id25)}
    .fil2 {fill:url(#id26)}
    .fil14 {fill:url(#id27)}
    .fil23 {fill:url(#id28)}
    .fil4 {fill:url(#id29)}
    .fil1 {fill:url(#id30)}
   ]]>
  </style>
    <clipPath id="id0">
     <path d="M4978.5 7161.15c-214.35,0 -428.7,-12.48 -642.15,-24.97 -178.77,-10.58 -357.54,-21.04 -536.31,-31.5 -11.57,-0.6 -23.13,-1.31 -34.69,-2.02 -26.68,-1.55 -53.37,-3.21 -80.05,-4.76 -116.51,-6.78 -232.13,-13.79 -347.76,-21.76 -120.07,-8.2 -240.14,-17.35 -360.21,-28.41 -4.44,-0.36 -8.89,-0.83 -13.34,-1.19 -3.55,-0.36 -8,-0.71 -11.56,-1.07 -109.4,-9.39 -228.58,-10.34 -333.53,-41.37 -8.89,-2.86 -17.78,-5.95 -24.9,-9.28 -28.46,-12.84 -40.91,-28.77 -41.8,-45.18l0 -2.25c0.89,-30.8 42.69,-62.9 95.17,-79.66 100.5,-31.51 206.34,-35.19 310.4,-35.19 10.67,0 21.34,0 32.02,0.12 338.86,1.66 677.72,17.71 1016.59,33.64 490.95,23.19 981.9,46.37 1472.85,69.55 22.24,1.07 47.14,4.28 64.93,14.63 10.67,6.06 18.68,14.62 23.12,26.39 7.12,20.33 -1.77,42.56 -13.34,60.4 -58.7,88.57 -178.77,108.19 -284.61,115.08 -96.94,6.3 -193.89,8.8 -290.83,8.8l0 0z"/>
    </clipPath>
  <linearGradient id="id1" gradientUnits="objectBoundingBox" x1="1.2822%" y1="97.9284%" x2="46.3613%" y2="97.9284%">
   <stop offset="0" style="stop-opacity:1; stop-color:black"/>
   <stop offset="1" style="stop-opacity:1; stop-color:black"/>
  </linearGradient>
  <linearGradient id="id2" gradientUnits="objectBoundingBox" xlink:href="#id1" x1="1.2822%" y1="97.9284%" x2="46.3613%" y2="97.9284%">
  </linearGradient>
  <linearGradient id="id3" gradientUnits="userSpaceOnUse" xlink:href="#id1" x1="2642.84" y1="4142.36" x2="2642.85" y2="4142.36">
  </linearGradient>
  <linearGradient id="id4" gradientUnits="userSpaceOnUse" xlink:href="#id1" x1="4177" y1="7126.78" x2="4177.06" y2="7126.78">
  </linearGradient>
  <linearGradient id="id5" gradientUnits="userSpaceOnUse" xlink:href="#id1" x1="4193.74" y1="7127.76" x2="4193.81" y2="7127.76">
  </linearGradient>
  <linearGradient id="id6" gradientUnits="objectBoundingBox" xlink:href="#id1" x1="1.2822%" y1="97.9284%" x2="46.3613%" y2="97.9284%">
  </linearGradient>
  <linearGradient id="id7" gradientUnits="userSpaceOnUse" xlink:href="#id1" x1="3816.8" y1="7105.69" x2="3816.96" y2="7105.69">
  </linearGradient>
  <linearGradient id="id8" gradientUnits="userSpaceOnUse" xlink:href="#id1" x1="3908.98" y1="7111.08" x2="3909.09" y2="7111.08">
  </linearGradient>
  <linearGradient id="id9" gradientUnits="userSpaceOnUse" xlink:href="#id1" x1="4285.78" y1="7133.21" x2="4285.91" y2="7133.21">
  </linearGradient>
  <linearGradient id="id10" gradientUnits="userSpaceOnUse" xlink:href="#id1" x1="4260.68" y1="7131.72" x2="4260.8" y2="7131.72">
  </linearGradient>
  <linearGradient id="id11" gradientUnits="userSpaceOnUse" xlink:href="#id1" x1="4286.17" y1="7133.67" x2="4289.82" y2="7133.67">
  </linearGradient>
  <linearGradient id="id12" gradientUnits="objectBoundingBox" xlink:href="#id1" x1="1.2822%" y1="97.9284%" x2="46.3613%" y2="97.9284%">
  </linearGradient>
  <linearGradient id="id13" gradientUnits="userSpaceOnUse" xlink:href="#id1" x1="3917.36" y1="7111.57" x2="3917.46" y2="7111.57">
  </linearGradient>
  <linearGradient id="id14" gradientUnits="userSpaceOnUse" xlink:href="#id1" x1="3808.42" y1="7105.2" x2="3808.59" y2="7105.2">
  </linearGradient>
  <linearGradient id="id15" gradientUnits="userSpaceOnUse" xlink:href="#id1" x1="4277.41" y1="7132.71" x2="4277.54" y2="7132.71">
  </linearGradient>
  <linearGradient id="id16" gradientUnits="userSpaceOnUse" xlink:href="#id1" x1="4294.15" y1="7133.7" x2="4294.29" y2="7133.7">
  </linearGradient>
  <linearGradient id="id17" gradientUnits="userSpaceOnUse" xlink:href="#id1" x1="4185.37" y1="7127.27" x2="4185.43" y2="7127.27">
  </linearGradient>
  <linearGradient id="id18" gradientUnits="objectBoundingBox" xlink:href="#id1" x1="1.2822%" y1="97.9284%" x2="46.3613%" y2="97.9284%">
  </linearGradient>
  <linearGradient id="id19" gradientUnits="userSpaceOnUse" xlink:href="#id1" x1="2642.2" y1="4149.8" x2="2642.22" y2="4149.8">
  </linearGradient>
  <linearGradient id="id20" gradientUnits="userSpaceOnUse" x1="2552.29" y1="6996.9" x2="5565.13" y2="6996.9">
   <stop offset="0" style="stop-opacity:1; stop-color:#C7C7C7"/>
   <stop offset="1" style="stop-opacity:1; stop-color:#C7C7C7"/>
  </linearGradient>
  <linearGradient id="id21" gradientUnits="userSpaceOnUse" xlink:href="#id1" x1="3909.31" y1="7111.54" x2="3912.99" y2="7111.54">
  </linearGradient>
  <linearGradient id="id22" gradientUnits="userSpaceOnUse" xlink:href="#id1" x1="3920.91" y1="7126.47" x2="4037.85" y2="7126.47">
  </linearGradient>
  <linearGradient id="id23" gradientUnits="objectBoundingBox" xlink:href="#id1" x1="1.2822%" y1="97.9284%" x2="46.3613%" y2="97.9284%">
  </linearGradient>
  <linearGradient id="id24" gradientUnits="userSpaceOnUse" xlink:href="#id1" x1="2422.77" y1="7050.87" x2="3882.2" y2="7050.87">
  </linearGradient>
  <linearGradient id="id25" gradientUnits="userSpaceOnUse" xlink:href="#id1" x1="3818.33" y1="7110.95" x2="3859.72" y2="7110.95">
  </linearGradient>
  <linearGradient id="id26" gradientUnits="objectBoundingBox" xlink:href="#id1" x1="1.2822%" y1="97.9284%" x2="46.3613%" y2="97.9284%">
  </linearGradient>
  <linearGradient id="id27" gradientUnits="userSpaceOnUse" xlink:href="#id1" x1="4194.32" y1="7129.7" x2="4209.34" y2="7129.7">
  </linearGradient>
  <linearGradient id="id28" gradientUnits="userSpaceOnUse" xlink:href="#id1" x1="4294.88" y1="7135.61" x2="4309.82" y2="7135.61">
  </linearGradient>
  <linearGradient id="id29" gradientUnits="userSpaceOnUse" xlink:href="#id1" x1="3808.88" y1="7105.65" x2="3812.5" y2="7105.65">
  </linearGradient>
  <linearGradient id="id30" gradientUnits="objectBoundingBox" xlink:href="#id1" x1="1.2822%" y1="97.9284%" x2="46.3613%" y2="97.9284%">
  </linearGradient>
 </defs>
 <g id="Layer_x0020_1">
  <metadata id="CorelCorpID_0Corel-Layer"/>
  <g id="_2495126978864">
   <polyline class="fil0 str0" points="2858.36,7038.69 2858.34,7038.69 2853.07,7038.33 2853.04,7038.33 2847.77,7037.96 2847.73,7037.96 2842.47,7037.59 2842.43,7037.59 2837.17,7037.21 2837.12,7037.21 2821.24,7036.03 2821.18,7036.03 2815.93,7035.62 2815.87,7035.62 2794.67,7033.86 2794.61,7033.86 "/>
   <path class="fil1 str0" d="M2952.18 7045.49c-22.1,-1.91 -44.65,-3.49 -67.42,-5.02 22.76,1.54 45.31,3.11 67.42,5.02z"/>
   <polyline class="fil0 str0" points="2994.21,7049.27 2993.79,7049.24 2988.59,7048.76 2988.16,7048.73 2982.96,7048.25 2982.53,7048.22 2977.33,7047.73 2976.91,7047.7 2976.9,7047.7 "/>
   <path class="fil0 str0" d="M4396.13 7139.66l0.28 0.02 9.75 0.56 0.26 0.02 9.77 0.56 0.24 0.02 9.79 0.56 0.23 0.01 9.8 0.56 0.22 0.02 9.81 0.55 0.21 0.02 9.82 0.55 0.19 0.01 9.84 0.56 0.18 0.01 9.85 0.55 0.18 0 9.85 0.55 0.17 0.01 9.86 0.55 0.16 0 9.87 0.55 0.16 0 9.88 0.54 0.14 0 19.92 1.07 0.14 0c147.11,7.76 294.34,13.67 441.48,13.67 39.43,0 78.85,-0.43 118.25,-1.34"/>
   <polygon class="fil2 str0" points="3808.42,7105.17 3800.41,7104.71 "/>
   <polygon class="fil3 str0" points="3808.78,7105.2 3808.42,7105.17 "/>
   <polygon class="fil4 str0" points="3816.8,7105.66 3808.78,7105.2 "/>
   <polygon class="fil5 str0" points="3817.15,7105.69 3816.8,7105.66 "/>
   <polygon class="fil6 str0" points="3908.98,7111.06 3817.15,7105.69 "/>
   <polygon class="fil7 str0" points="3909.21,7111.08 3908.98,7111.06 "/>
   <polygon class="fil8 str0" points="3917.36,7111.55 3909.21,7111.08 "/>
   <polygon class="fil9 str0" points="3917.58,7111.57 3917.36,7111.55 "/>
   <polygon class="fil10 str0" points="4177,7126.79 3917.58,7111.57 "/>
   <polygon class="fil11 str0" points="4177.13,7126.79 4177,7126.79 "/>
   <polygon class="fil1 str0" points="4185.37,7127.28 4177.13,7126.79 "/>
   <polygon class="fil12 str0" points="4185.51,7127.28 4185.37,7127.28 "/>
   <polygon class="fil1 str0" points="4193.74,7127.77 4185.51,7127.28 "/>
   <polygon class="fil13 str0" points="4193.89,7127.77 4193.74,7127.77 "/>
   <polygon class="fil14 str0" points="4227.21,7129.74 4193.89,7127.77 "/>
   <polygon class="fil15 str0" points="4227.41,7129.75 4227.21,7129.74 "/>
   <polygon class="fil16 str0" points="4235.57,7130.23 4227.41,7129.75 "/>
   <polygon class="fil15 str0" points="4235.79,7130.24 4235.57,7130.23 "/>
   <polygon class="fil16 str0" points="4243.94,7130.72 4235.79,7130.24 "/>
   <polygon class="fil17 str0" points="4244.17,7130.73 4243.94,7130.72 "/>
   <polygon class="fil2 str0" points="4252.31,7131.22 4244.17,7130.73 "/>
   <polygon class="fil17 str0" points="4252.55,7131.23 4252.31,7131.22 "/>
   <polygon class="fil2 str0" points="4260.68,7131.71 4252.55,7131.23 "/>
   <polygon class="fil18 str0" points="4260.93,7131.72 4260.68,7131.71 "/>
   <polygon class="fil16 str0" points="4269.04,7132.2 4260.93,7131.72 "/>
   <polygon class="fil17 str0" points="4269.31,7132.22 4269.04,7132.2 "/>
   <polygon class="fil16 str0" points="4277.41,7132.69 4269.31,7132.22 "/>
   <polygon class="fil19 str0" points="4277.69,7132.71 4277.41,7132.69 "/>
   <polygon class="fil16 str0" points="4285.78,7133.19 4277.69,7132.71 "/>
   <polygon class="fil20 str0" points="4286.07,7133.21 4285.78,7133.19 "/>
   <polygon class="fil21 str0" points="4294.15,7133.68 4286.07,7133.21 "/>
   <polygon class="fil22 str0" points="4294.45,7133.7 4294.15,7133.68 "/>
   <polygon class="fil23 str0" points="4327.61,7135.65 4294.45,7133.7 "/>
   <path class="fil0 str0" d="M5096.43 7159.84c-39.32,0.89 -78.61,1.31 -117.93,1.31l0 0"/>
   <path class="fil0 str0" d="M3800.41 7104.71l-0.37 -0.03c-11.57,-0.6 -23.13,-1.31 -34.69,-2.02 -26.68,-1.55 -53.37,-3.21 -80.05,-4.76 -47.27,-2.75 -94.41,-5.53 -141.45,-8.41 47.01,2.89 94.05,5.68 141.07,8.45 -47.02,-2.77 -94.05,-5.56 -141.07,-8.45l-0.17 -0.02 -5.26 -0.31 -0.17 -0.02 -5.26 -0.31 -0.17 -0.02 -5.25 -0.32 -0.19 -0.02 -5.24 -0.31 -0.19 -0.02 -5.23 -0.32 -0.2 -0.02 -5.23 -0.32 -0.2 -0.01 -5.22 -0.32 -0.21 -0.02 -5.22 -0.32 -0.21 -0.02 -5.22 -0.32 -0.21 -0.02 -5.21 -0.32 -0.22 -0.02 -5.21 -0.32 -0.21 -0.02 -5.21 -0.32 -0.22 -0.02 -5.21 -0.33 -0.22 -0.02 -5.2 -0.32 -0.22 -0.02 -10.64 -0.67 -0.21 -0.02 -5.21 -0.33 -0.22 -0.02 -32.33 -2.08 -0.21 -0.02c-27.06,-1.75 -54.13,-3.54 -81.18,-5.41 -58.22,-3.99 -116.43,-8.21 -174.61,-12.74"/>
   <path class="fil0 str0" d="M4396.13 7139.66c-19.93,-1.15 -39.87,-2.29 -59.78,-3.48l-8.38 -0.5 -0.36 -0.03 0.36 0.03"/>
   <path class="fil0 str0" d="M2582.83 6900.39c-18.51,14.43 -30.16,30.9 -30.63,47l0 2.25c0.89,16.41 13.34,32.34 41.8,45.18 5.57,2.61 12.18,5.06 19.08,7.37 -7.15,-2.32 -13.6,-4.79 -19.33,-7.38 5.96,2.69 12.67,5.25 20.16,7.66l0.08 0.03 0.43 0.14 0.32 0.1 0.12 0.04 0.29 0.1 0.15 0.04 3.6 1.18c32.8,9.72 66.98,16.46 101.83,21.45l0.13 0.01c24.34,3.49 49.01,6.13 73.75,8.3l0.08 0 21.18 1.76 0.04 0 5.27 0.41 0.04 0 15.9 1.18 0.02 0 5.29 0.38 0.02 0 5.28 0.37 0.02 0 5.29 0.37 5.3 0.36 5.28 0.36 0.01 0 5.28 0.36 0.01 0 5.26 0.35 0.03 0 5.24 0.36 0.03 0 5.23 0.35 0.05 0c22.82,1.53 45.45,3.09 67.67,5 3.56,0.36 8.01,0.71 11.56,1.07 4.31,0.35 8.61,0.8 12.91,1.16l0.01 0 0.42 0.03 5.2 0.49 0.43 0.03 5.2 0.48 0.43 0.03 5.2 0.48 0.42 0.03 5.21 0.48 0.42 0.03 5.22 0.48 0.41 0.03 5.22 0.47 0.41 0.03 10.85 0.97 0.41 0.03 5.23 0.47 0.39 0.03 5.24 0.46 0.39 0.03 5.24 0.46 0.39 0.03 5.24 0.46 0.39 0.03 28.14 2.4 5.28 0.45 0.35 0.02 5.28 0.45 0.35 0.02 5.29 0.45 0.34 0.02 10.93 0.91 0.32 0.02 5.32 0.44 0.31 0.02 5.32 0.44 0.31 0.02 39.15 3.14 0.25 0.01 5.39 0.43 0.24 0.01 5.39 0.43 0.23 0.01c58.16,4.52 116.32,8.72 174.48,12.69 27.1,1.86 54.2,3.68 81.31,5.46 -27.04,-1.76 -54.08,-3.58 -81.12,-5.41 -103.31,-7.04 -206.6,-14.84 -309.75,-23.9l-0.39 -0.03"/>
   <path class="fil0 str0" d="M4130.57 6872.16l-124.19 -5.86c-112.1,-5.27 -224.2,-10.55 -336.3,-15.32"/>
   <path class="fil0 str0" d="M5147.93 7158.35l16.75 -0.61 0.13 -0.01 4.41 -0.17 0.14 -0.01 4.41 -0.17 0.13 -0.01 4.41 -0.18 0.14 -0.01 4.4 -0.18 0.14 -0.01 4.4 -0.19 0.14 -0.01 4.41 -0.2 0.14 0 4.4 -0.21 0.14 0 4.4 -0.21 0.15 0 4.39 -0.22 0.15 0c21.21,-1.02 42.41,-2.22 63.62,-3.6 105.84,-6.89 225.91,-26.51 284.61,-115.08 11.57,-17.84 20.46,-40.07 13.34,-60.4 -3.52,-9.33 -9.28,-16.64 -16.83,-22.29"/>
   <path class="fil0 str0" d="M4978.5 7161.15c-147.37,0 -294.73,-5.9 -441.8,-13.64 147.17,7.77 294.46,13.67 441.65,13.67 51.7,0.04 103.38,-0.72 155.06,-2.35"/>
   <path class="fil24 str0" d="M2983.23 1463.94c33.82,33.89 86.3,20.11 130.02,6.46 72.5,-22.75 149.01,-28.44 221.35,-48.57 -13.33,21.25 -25.89,43.17 -38.38,65 -12.61,21.95 -25.4,44.33 -32.29,69.3 -15.26,54.81 1.73,119.01 41.09,155.66 -14.71,-31.97 -18.76,-69.98 -11.14,-104.99 13.72,35.26 45.01,56.89 68.64,84.77 53.87,63.53 67.78,160.32 122.69,222.69 -17.76,-33.6 -33.36,-68.62 -46.7,-104.7 15.86,25.17 32.57,49.53 46.51,76.58 31.12,60.53 50.07,136.54 97.18,175.66 54.93,45.58 128.78,25.34 194.03,1.54 85.13,-31.07 177.13,-73.01 226.52,-170.8 22.14,-43.84 33.28,-94.77 44.11,-144.71 24.05,-111.01 51.53,-210.61 63.1,-309.92l4.36 4.25c27.43,26.81 60.64,46.08 95.99,55.67 -39.09,-37.62 -59.76,-92.19 -72.52,-149.15 8.73,0.91 16.23,-1.88 20.43,-13.65 8.25,-23.12 -7.25,-63.84 -13.4,-86.03 -11.44,-41.9 -22.95,-83.77 -34.44,-125.66 -19.12,-69.93 -40.29,-143.48 -89.05,-192.07 -24.61,-24.6 -54.81,-41.07 -85.74,-53.99 -149.45,-62.19 -318.14,-43.36 -468.4,16.47 -30.32,12.07 -60.88,26.27 -84.63,50.63 -48.15,49.32 -58.85,129.83 -55.35,202.89 2.53,53.26 10.83,106.7 11.39,159.78 -52.22,-7.88 -124.74,4.48 -158.37,10.64 -65.2,11.87 -128.61,37.02 -185.62,74.66 -10.51,6.96 -21.58,15.31 -25.34,28.42 -4.43,15.38 3.26,32.34 13.96,43.17z"/>
   <line class="fil0 str0" x1="2642.29" y1="4148.76" x2="2642.29" y2= "4148.68" />
   <line class="fil0 str0" x1="2642.33" y1="4148.23" x2="2642.31" y2= "4148.43" />
   <polyline class="fil0 str0" points="2642.48,4146.46 2642.46,4146.66 2642.45,4146.86 2642.43,4147.05 "/>
   <line class="fil0 str0" x1="2642.6" y1="4145.09" x2="2642.58" y2= "4145.29" />
   <line class="fil0 str0" x1="2642.64" y1="4144.57" x2="2642.63" y2= "4144.7" />
   <line class="fil0 str0" x1="2642.88" y1="4141.97" x2="2642.86" y2= "4142.16" />
   <polygon class="fil25 str0" points="2642.89,4141.96 2642.89,4141.77 2642.88,4141.97 "/>
   <polygon class="fil26 str0" points="2642.84,4142.36 2642.86,4142.24 2642.86,4142.16 "/>
   <polygon class="fil27 str0" points="2642.72,4143.72 2642.73,4143.64 2642.74,4143.53 2642.76,4143.36 2642.75,4143.33 2642.74,4143.53 "/>
   <polygon class="fil25 str0" points="2642.7,4143.92 2642.71,4143.92 2642.72,4143.72 "/>
   <polygon class="fil27 str0" points="2642.68,4144.19 2642.68,4144.11 2642.67,4144.31 2642.65,4144.5 2642.64,4144.57 "/>
   <polygon class="fil25 str0" points="2642.61,4144.9 2642.63,4144.75 2642.63,4144.7 "/>
   <polygon class="fil25 str0" points="2642.61,4145.03 2642.61,4144.9 2642.6,4145.09 "/>
   <polygon class="fil25 str0" points="2642.56,4145.48 2642.58,4145.31 2642.58,4145.29 "/>
   <polyline class="fil0 str0" points="2642.48,4146.46 2642.48,4146.44 2642.51,4146.16 2642.51,4146.14 "/>
   <polyline class="fil0 str0" points="2642.43,4147.05 2642.44,4147 2642.46,4146.72 2642.46,4146.66 2642.48,4146.44 2642.5,4146.27 2642.51,4146.14 2642.51,4146.07 2642.53,4145.88 2642.55,4145.62 2642.56,4145.59 2642.56,4145.48 2642.55,4145.62 2642.55,4145.68 2642.53,4145.88 "/>
   <polyline class="fil0 str0" points="2642.29,4148.68 2642.3,4148.63 2642.31,4148.43 2642.32,4148.4 2642.33,4148.23 2642.34,4148.12 2642.35,4148.04 2642.36,4147.84 2642.37,4147.71 2642.39,4147.56 2642.41,4147.28 2642.41,4147.25 2642.4,4147.45 2642.38,4147.64 2642.37,4147.71 2642.36,4147.84 2642.34,4148.12 "/>
   <polygon class="fil25 str0" points="2642.26,4149.02 2642.27,4148.97 2642.28,4148.82 "/>
   <polygon class="fil28 str0" points="2642.22,4149.61 2642.22,4149.53 2642.24,4149.28 2642.25,4149.25 2642.25,4149.22 2642.24,4149.28 2642.23,4149.42 2642.22,4149.53 2642.2,4149.81 "/>
   <path class="fil24 str0" d="M3439.65 6545.76l104.35 5.87c31.43,1.77 62.92,3.5 94.3,7 17.33,1.92 68.32,-1.04 58.66,22.95 -2.47,6.07 -8.13,11.56 -15.3,16.46 72.13,-0.65 144.26,-0.98 216.3,0.27 22.92,0.39 45.85,0.95 68.77,1.62 -1.14,-3.42 -1.89,-7.02 -2.18,-10.79 -0.79,-10.72 2.57,-20.96 8.53,-29.81 -11.94,-1.15 -23.61,-3.82 -33.42,-10.84 -14.4,-10.39 -22.02,-33.82 -10.71,-47.91 8.58,-10.61 23.23,-11.6 36.51,-11.26l-0.52 -0.37c-10.83,-7.81 -21.1,-17.52 -24.87,-30.25 -2.87,-9.65 -1.65,-19.99 -0.41,-30.02 4.55,-36.9 9.15,-73.86 13.7,-110.75 0.92,-7.76 2.09,-16.01 7.27,-21.9 5.04,-5.79 12.9,-8.24 20.47,-9.85 9.78,-2.12 19.56,-3.39 29.34,-3.94 -3.65,-17.39 -2.09,-35.65 -0.49,-53.43 38.61,-438.63 52.33,-715.51 91.02,-1154.14 4.36,-49.46 -36.47,-109.92 -49.39,-157.46 -6.12,-22.72 -27.5,-46.23 -51.1,-68.64 -49.14,220.43 -120.24,395.22 -182.3,611.59 -59.15,206.15 -199.02,567.17 -292.8,755.8 -6.42,12.89 -15.66,26.64 -26.92,40.13 -0.28,7.57 -2.7,15.25 -5,22.59 -15.13,47.84 -25.4,97.18 -30.82,147.06 -2.27,21.47 3.1,46.98 -0.45,68.96 7.38,15.47 -1.52,41.87 -15.54,48.75 -2.23,1.08 -4.58,1.81 -7,2.31z"/>
   <path class="fil29 str0" d="M4682.59 3792.96c10.77,-0.07 22.14,0.06 31.43,5.41 11.07,6.27 17.28,18.7 27.67,26.01 14.52,10.22 34.33,8.68 50.68,15.62 28.1,11.99 40.17,48.29 31.92,77.74 -8.25,29.46 -32.22,52.23 -58.54,67.73 -17.03,10.02 -36.05,17.76 -55.79,17.59 -18.27,-0.27 -35.74,-7.2 -52.65,-14.16 -50.29,-20.48 -100.68,-40.95 -150.97,-61.44 -8.85,-3.6 -17.87,-7.33 -25.86,-12.38 -16.45,9.32 -35.49,14.08 -53.8,13.55 -41.94,-1.29 -80.75,-23.5 -117.95,-45.2l-512.92 -299.66c-0.57,33.22 -5.75,65.49 -18.62,95.64 4.21,5.39 3.65,13.83 -1.41,18.98 22.52,29.7 40.79,63.18 50.16,103.8l2.46 8.17 0.01 0.01c5.07,3.13 6.06,8.88 4,13.24l23.08 76.4c195.53,174.16 469.67,382.98 600.59,554.16 86.05,112.48 173.2,239 179.21,387.03 2.41,57.88 -7.98,115.32 -18.37,172.08 -76.71,420.07 -188.63,720.43 -265.32,1140.49 -11.32,62.17 -27.31,130.46 -57.43,182.64 104.1,8.57 209.94,-5.23 313.7,9.99 51.71,7.53 163.76,55.96 186.3,110.82 41.72,-54.83 94,-101.45 154.11,-135.18 133.21,-74.84 302.84,-83.28 440.79,-17.54 29.64,14.09 72.26,38.57 78.47,74.62 1.15,6.77 -0.24,16.43 -3.21,26.87 23.21,18.42 44.48,39.29 63.23,62.43 100.14,123.43 121.11,307.32 46.38,447.6 -7.09,13.33 -14.95,26.19 -23.49,38.56 -57.62,83.43 -146.54,144.41 -243.42,175.91 -51.48,16.69 -105.05,25.52 -159.1,27.86 -4.84,0.21 -9.67,0.38 -14.52,0.48 -54.04,1.19 -108.42,-3.98 -161.52,-14.18 -3.96,-0.76 -7.91,-1.54 -11.86,-2.36 -99.83,-20.65 -207.08,-69.31 -240.78,-165.61 -8.3,-23.67 -11.43,-48.55 -11.67,-73.69 -34.77,2.81 -72.6,-1.88 -107.08,-2.22 -40.36,-0.42 -80.7,-0.86 -121.17,-1.22 -44.89,-0.44 -89.8,-0.93 -134.81,-1.36 -59.29,-0.61 -119.13,-1.29 -176.88,-15.01 -12.49,-2.98 -24.91,-6.65 -37.07,-11.02 -44,-15.83 -84.65,-41.02 -113.37,-77.54 -36.03,-45.99 -52.94,-108.79 -101.65,-141.02 -66.55,-44.09 -165.69,-1.85 -197.86,71.21 -18.17,41.33 -20.9,91.08 -47.61,126.17 -2.59,3.4 -5.4,6.66 -8.47,9.76 -28.86,29.08 -72.7,35.79 -113.36,40.22l-11.34 1.21c-102.72,10.83 -205.93,16.52 -309.21,17.18 -47.34,0.26 -95.41,-0.71 -142.49,-6.36 -61.98,44.3 -142.06,64.89 -219.33,70.45 -44.03,3.19 -88.61,2.34 -131.67,-7.15 -55.91,-12.24 -107.55,-39.16 -151.38,-75.9 -42,-35.2 -76.83,-79.41 -101.39,-128.4 -26.94,-53.78 -42.09,-112.71 -46.83,-172.76 -4.47,-1.45 -8.83,-3.28 -13,-5.59 -24.43,-13.55 -37.83,-41.94 -40,-69.8 -2.07,-27.88 5.36,-55.55 14.04,-82.12 31.85,-98.58 83.21,-194.9 166.73,-256.27 48.28,-35.49 105.16,-57.69 162.97,-73.57 51,-13.95 103.58,-23.36 156.4,-22.87 135.7,1.22 266.81,74.24 345.68,183.93l18.23 -64.37c2.16,-7.5 4.37,-15.26 9.47,-21.22 2.69,-3.16 5.93,-5.56 9.54,-7.39 13.15,-177.87 97.29,-467.83 109.89,-545.94 35.69,-220.79 174.91,-434.02 165.94,-658.2 -1.83,-46.79 -6.45,-95.87 -30.37,-134.19 -19.56,-31.19 -49.64,-51.55 -78.79,-71.04 -95.32,-63.53 -294.22,-136.91 -389.55,-200.44 -102.04,-68.02 -209.29,-142.13 -262.81,-261.01l-0.11 -0.25c-10.04,1.17 -20.83,2.11 -32.55,2.83 -27.42,1.67 -56.69,-4.12 -77.12,-26.13 -25.72,-27.86 -30.22,-71.4 -28.35,-114.58 -11.12,-8.3 -10.34,-27.98 2.46,-33.7l0.03 -0.01 0.53 -5.29c3.5,-34.85 5.63,-67.56 6.76,-98.76 -19.72,-6.4 -19.49,-38.03 0.89,-42.06 1.35,-180.86 -28.91,-314.59 -7.41,-525.49 4.24,-41.75 8.93,-85.06 27.69,-120.54l2.14 -3.57c0.5,-30.35 1.78,-60.72 3.85,-91.04l-35.65 -13.95c-50.61,-19.8 -105.47,-43.41 -132.11,-95.62 -21.95,-43.23 -19.18,-97.98 -3.12,-144.42 25.14,-72.66 205.39,-331.55 363.25,-497.2 44.14,-106.37 92.93,-210.57 143.46,-313.15 56.03,-113.89 133.4,-240.16 249.33,-246.74 70.59,-3.99 135.79,39.3 194.09,84.14 102.04,78.47 198.9,166.37 287.9,262.86 103.07,111.68 77.25,146.37 43.17,295.64 -45.19,198.01 -60.17,404.79 -44.26,608.44 66.63,85.42 157.64,150.51 245.06,211.01 147.68,102.21 295.39,204.43 443.07,306.59 31.37,21.75 65.65,50.71 82.95,85.19 3.79,-0.07 7.8,-0.08 12.07,-0.08 51.9,0.12 103.74,-0.17 155.59,-0.3z"/>
   <path class="fil30" d="M4978.35 7161.18c-214.14,0 -428.48,-12.49 -642.37,-25.04 -178.49,-10.51 -357.03,-20.97 -535.57,-31.43 178.54,10.46 357.08,20.92 535.57,31.43 213.84,12.55 428.11,25.04 642.2,25.04 97.05,0 194.03,-2.53 290.96,-8.86 105.9,-6.89 225.77,-26.45 284.38,-115.01 11.75,-17.84 20.54,-40.17 13.48,-60.39 -4.13,-11.87 -12.36,-20.36 -22.89,-26.45 10.53,6.09 18.83,14.58 22.94,26.5 7.01,20.17 -1.73,42.5 -13.53,60.34 -58.54,88.56 -178.41,108.12 -284.38,115.01 -96.87,6.33 -193.79,8.91 -290.79,8.86zm-1293.43 -63.24c-115.76,-6.81 -231.5,-13.82 -347.19,-21.75 -120.37,-8.2 -240.71,-17.42 -360.83,-28.49 120.12,11.07 240.41,20.24 360.77,28.49 115.75,7.93 231.49,14.94 347.25,21.75zm-732.74 -52.45c-108.87,-9.42 -228.43,-10.39 -332.86,-41.34 -9.66,-2.88 -18.2,-6.01 -25.57,-9.34 7.37,3.33 15.86,6.46 25.57,9.34 104.43,30.95 223.94,31.92 332.86,41.34zm-399.94 -95.89c0,-0.8 0,-1.53 0,-2.27l0 2.27z"/>
   <g style="clip-path:url(#id0)">
    <image x="2495.28" y="6785.46" width="3137.82" height="419.44" xlink:href="12_Images\12_ImgID1.png"/>
   </g>
   <path class="fil31" d="M3204.39 6337.23c-46,-74.79 -112.84,-137.28 -192.55,-173.92 -79.78,-36.66 -172.33,-46.57 -256.9,-23.14 -47.98,13.36 -92.56,36.79 -134.94,63.04 -43.6,27.01 -85.91,57.76 -116.54,98.91 -30.88,41.51 -48.4,91.57 -58.81,142.18 -22.68,109.73 -13.33,227.62 36.79,327.69 50.19,100.12 143.3,180.33 252.77,204.3 43.06,9.49 87.64,10.34 131.67,7.15 103.46,-7.44 211.95,-41.82 275.3,-123.99 20.41,-26.52 35.23,-56.9 49.88,-87.03 70.29,-144.35 102.51,-290.23 13.33,-435.19z"/>
   <path class="fil32" d="M2480.51 6605.01c-20.24,-0.49 -41.19,-1.54 -58.9,-11.37 -24.43,-13.55 -37.83,-41.94 -40,-69.8 -2.07,-27.88 5.36,-55.55 14.04,-82.12 31.85,-98.58 83.21,-194.9 166.73,-256.27 48.28,-35.49 105.16,-57.69 162.97,-73.57 51,-13.95 103.58,-23.36 156.4,-22.87 178.54,1.6 349.16,127.49 403.27,297.68 4.31,13.58 7.94,27.66 7.74,41.94 -0.54,31.36 -20.29,59.83 -45.25,78.71 -46.93,35.55 -96.69,36.48 -152.29,44.9 -68.39,10.28 -136.78,20.24 -205.35,28.66 -135.73,16.66 -272.52,27.61 -409.36,24.11z"/>
   <path class="fil32" d="M4344.52 6898.19c-59.29,-0.61 -119.13,-1.29 -176.88,-15.01 -57.69,-13.77 -113.78,-41.95 -150.44,-88.56 -36.03,-45.99 -52.94,-108.79 -101.65,-141.02 -66.55,-44.09 -165.69,-1.85 -197.86,71.21 -19.93,45.33 -21.28,100.8 -56.08,135.93 -28.86,29.08 -72.7,35.79 -113.36,40.22 -106.46,11.63 -213.47,17.71 -320.55,18.39 -99.07,0.54 -201.36,-4.25 -291.02,-46.25 -37.83,-17.66 -74.06,-43.3 -92.26,-80.82 -17.27,-35.3 -16.42,-76.38 -15.25,-115.67 0.99,-31.31 1.97,-62.62 2.89,-93.99l3.87 -14.82c4.31,-5.1 11.95,-5.54 18.64,-5.47 60.39,0.61 120.36,10.09 180.33,17.22 285.98,33.9 575.16,13.78 863.06,18.76 253.62,4.36 507.82,28.35 760.64,7.01 42.75,-3.62 90.66,-6.95 123.33,20.85 40.46,34.31 35.96,98.59 16.59,147.98 -11.87,30.44 -32.16,56.2 -44.52,86.03 -8.86,21.59 -9.42,38.2 -35.86,41.7 -37.57,4.92 -79.64,-0.74 -117.64,-1.11 -40.36,-0.42 -80.7,-0.86 -121.17,-1.22 -44.89,-0.44 -89.8,-0.93 -134.81,-1.36z"/>
   <path class="fil33" d="M4000.48 4848.57c11.07,-38.42 -44.23,-143.79 -51.79,-183.26 -6.94,-36.3 -28.79,-66.42 -50.18,-94.72 -174.98,-231.31 -368.09,-445.34 -576.46,-638.77 -43.18,-40.02 -87.71,-79.7 -139.19,-104.48 -117.34,-56.52 -264.76,-22.09 -352.28,82.34 -87.57,104.38 -109.17,271.53 -51.6,399.46 53.52,118.88 160.77,192.99 262.81,261.01 95.33,63.53 294.23,136.91 389.55,200.44 29.15,19.49 59.23,39.85 78.79,71.04 23.92,38.32 28.54,87.4 30.37,134.19 8.97,224.18 -130.25,437.41 -165.94,658.2 -17.03,105.6 -164.88,598.47 -91.19,678 74.96,80.87 205.03,-21.83 242.01,-96.06 93.78,-188.63 233.65,-549.65 292.8,-755.8 62.06,-216.37 133.16,-391.16 182.3,-611.59z"/>
   <path class="fil33" d="M4456.08 4454.17c86.05,112.48 173.2,239 179.21,387.03 2.41,57.88 -7.98,115.32 -18.37,172.08 -76.71,420.07 -188.63,720.43 -265.32,1140.49 -19.01,104.38 -51.17,226.01 -141.29,259.73 -41.31,15.5 -26.13,-34.21 -69.24,-41.95 -53.02,-9.53 -116.55,-29.15 -130.2,-87.39 -4.18,-17.96 -2.58,-36.91 -0.92,-55.35 38.61,-438.63 52.33,-715.51 91.02,-1154.14 4.36,-49.46 -36.47,-109.92 -49.39,-157.46 -12.53,-46.55 -89.17,-96.43 -117.52,-133.27 -121.77,-158.31 -214.83,-286.61 -371.04,-400.81 -76.32,-55.79 -156.66,-106.28 -223.76,-175.47 -66.96,-69.18 -75.77,-152.02 -80.74,-254.06 -6.52,-134.19 77.31,-261.87 187.45,-314.77 233.47,-112.18 137.15,-12.85 288.39,145.94 181.06,189.99 560.28,458.31 721.72,669.4z"/>
   <path class="fil34" d="M4046.86 1747.83c-10.83,49.94 -21.97,100.87 -44.11,144.71 -49.39,97.79 -141.39,139.73 -226.52,170.8 -65.25,23.8 -139.1,44.04 -194.03,-1.54 -47.11,-39.12 -66.06,-115.13 -97.18,-175.66 -23.67,-45.93 -55.35,-84.13 -77.25,-131.67 -49.25,-106.7 -43.23,-245.14 -23.55,-371.84 24.91,-160.32 77.74,-330.44 186.73,-414.77 57.25,-44.33 123.92,-59.78 188.69,-63.65 60.88,-3.69 122.94,2.53 177.05,34.87 67.05,40.04 117.05,118.08 146.45,206.71 70.65,212.43 10.63,385.49 -36.28,602.04z"/>
   <path class="fil35" d="M4127.42 1292.41c11.56,75.64 30.99,155.47 82.89,205.42 -35.35,-9.59 -68.56,-28.86 -95.99,-55.67 -6.83,-6.64 -13.84,-14.14 -22.76,-16.11 -14.33,-3.26 -27.92,8.68 -36.53,21.97 -8.61,13.21 -14.76,28.9 -26.27,39.05 -20.97,-30.14 -42,-60.34 -63.04,-90.48 -4.48,-6.52 -9.59,-13.41 -16.72,-15.38 -7.64,-2.09 -15.45,2.04 -22.38,6.11 -47.86,27.73 -94.41,58.22 -139.49,91.26 -7.39,-26.27 -8.05,-54.86 -1.97,-81.48 -25.59,2.33 -46.37,23.16 -65.08,42.97 -31.9,33.77 -63.77,67.54 -95.69,101.31 -9.54,-37.03 -19.01,-74.06 -28.54,-111.07 -79.08,71.7 -136.35,173.11 -160.46,283.89 -20.29,-21.85 -35.04,-50 -42.31,-80.51 15.13,98.76 46.56,194.35 92.13,280.57 -54.91,-62.37 -68.82,-159.16 -122.69,-222.69 -23.63,-27.88 -54.92,-49.51 -68.64,-84.77 -7.62,35.01 -3.57,73.02 11.14,104.99 -39.36,-36.65 -56.35,-100.85 -41.09,-155.66 6.89,-24.97 19.68,-47.35 32.29,-69.3 27.8,-48.59 55.96,-97.61 92.13,-138.71 27.74,-31.48 60.03,-58.05 85.24,-92.06 39.67,-53.38 60.58,-123.07 105.17,-171.34 31.17,-33.82 71.52,-54.55 111.12,-74.42 44.6,-22.39 90.36,-44.83 139.07,-49.52 47.47,-4.6 94.41,8.13 138.74,26.21 35.42,14.45 85.81,31.55 108.56,68.27 14.94,24.18 16.6,60.27 23.92,88.12 12.99,48.84 19.49,98.9 27.25,149.03z"/>
   <path class="fil36" d="M3866.09 1192.84c2.4,-15.93 13.79,-28.73 26.88,-35.42 13.04,-6.77 27.74,-8.37 42.14,-9.17 47.83,-2.83 96.13,1.65 142.92,13.28l12.55 5.79 6.08 10.63c7.08,18.03 20.66,55.67 14.7,75.65 -7.93,26.57 -31.24,12.24 -52.89,9.73 -51.35,-5.98 -103.32,-4.55 -154.67,0.97 -9.17,1.05 -19.81,1.54 -26.09,-6.08 -4.72,-5.72 -5.23,-14.21 -6.32,-21.9 -2.17,-14.52 -7.52,-28.97 -5.3,-43.48zm-882.86 271.1c33.82,33.89 86.3,20.11 130.02,6.46 76.64,-24.05 157.76,-29.02 233.7,-52.16 10.46,6.16 24.74,4.5 36.97,1.9 84.99,-17.59 170.1,-35.23 253.82,-59.27 37.33,-10.71 74.48,-22.77 112.55,-29.9 60.88,-11.37 123.07,-10.02 184.87,-8.61 56.34,1.24 113.23,2.58 168.58,15.86 19.13,4.55 45.09,23.14 54.48,-3.19 8.25,-23.12 -7.25,-63.84 -13.4,-86.03 -11.44,-41.9 -22.95,-83.77 -34.44,-125.66 -19.12,-69.93 -40.29,-143.48 -89.05,-192.07 -24.61,-24.6 -54.81,-41.07 -85.74,-53.99 -149.45,-62.19 -318.14,-43.36 -468.4,16.47 -30.32,12.07 -60.88,26.27 -84.63,50.63 -48.15,49.32 -58.85,129.83 -55.35,202.89 2.53,53.26 10.83,106.7 11.39,159.78 -52.22,-7.88 -124.74,4.48 -158.37,10.64 -65.2,11.87 -128.61,37.02 -185.62,74.66 -10.51,6.96 -21.58,15.31 -25.34,28.42 -4.43,15.38 3.26,32.34 13.96,43.17z"/>
   <path class="fil37" d="M4215.37 6324.74c-78,-17.64 -156.15,-55.52 -234.27,-38.56 -7.57,1.61 -15.43,4.06 -20.47,9.85 -5.18,5.89 -6.35,14.14 -7.27,21.9 -4.55,36.89 -9.15,73.85 -13.7,110.75 -1.24,10.03 -2.46,20.37 0.41,30.02 3.77,12.73 14.04,22.44 24.87,30.25 54.35,39.37 126.08,43.8 193.4,46.74 154.74,6.71 309.61,13.48 464.42,20.24 39.1,1.73 80.12,3.02 115.37,-13.96 164.26,-79.22 -52.04,-184.19 -130.26,-195.57 -130.07,-19.08 -263.42,7.44 -392.5,-21.66z"/>
   <path class="fil36" d="M3967.88 6489.39c-13.89,-0.49 -29.83,-0.07 -38.93,11.19 -11.31,14.09 -3.69,37.52 10.71,47.91 14.45,10.34 32.96,11.26 50.36,11.75 232.24,6.76 464.52,3.75 696.82,0.68 16.67,-0.25 33.76,-0.49 49.57,-6.47 15.74,-5.89 30.26,-18.64 34.45,-35.84 -47.74,-10.22 -101.48,-5.23 -150.07,-6.89 -52.65,-1.8 -105.3,-3.64 -157.95,-5.42 -106.28,-3.63 -212.55,-7.25 -318.88,-10.88 -58.68,-2.04 -117.41,-4.06 -176.08,-6.03z"/>
   <path class="fil37" d="M3493.46 6278.68c3.38,-10.77 7.01,-22.26 3.75,-33.08 -3.82,-12.43 -15.74,-20.37 -27.18,-26.64 -53.09,-29.08 -113.6,-44.58 -174.18,-44.53 -14.7,0 -31.19,1.73 -40.72,12.92 -5.1,5.96 -7.31,13.72 -9.47,21.22 -22.14,78.22 -44.4,156.52 -66.55,234.76 -6.69,23.31 -12.36,51.17 3.46,69.61 10.07,11.75 26.13,15.93 41.31,19 48.84,9.91 98.85,14.58 148.66,13.78 23.87,-0.3 48.95,-2.34 68.57,-15.87 34.32,-23.73 17.85,-69.25 21.53,-104.11 5.42,-49.88 15.69,-99.22 30.82,-147.06z"/>
   <path class="fil36" d="M3193.81 6477.22l-14.82 1.46c-4.98,3.58 -5.52,10.59 -5.59,16.67 -0.13,11.02 0.24,23.01 7,31.68 8.25,10.58 23.07,12.72 36.42,13.96 69.74,6.52 139.91,8.54 209.9,5.96 6.84,-0.24 13.85,-0.55 19.93,-3.5 15.57,-7.64 24.84,-39.37 12.48,-53.45 -14.57,-16.48 -52.09,-4.19 -71.02,-3.19 -64.84,3.5 -130.09,0.29 -194.3,-9.59z"/>
   <path class="fil38" d="M2506.91 2996.56c-16.06,46.44 -18.83,101.19 3.12,144.42 26.64,52.21 81.5,75.82 132.11,95.62 38.2,14.96 76.33,29.83 114.45,44.79 23.5,9.22 47.86,18.57 72.7,16.28 40.78,-3.67 75.16,-38.98 92.56,-80.43 17.41,-41.51 20.73,-88.5 21.65,-134.38 2.53,-119.51 279.9,-705.19 132.6,-726.65 -128.59,-18.76 -530.7,529.11 -569.19,640.35z"/>
   <path class="fil38" d="M3825.94 3802.19c-10.03,-43.48 -30.27,-78.79 -54.99,-110.03l3.58 -6.76c39.17,-84.08 15.86,-185.62 -1.8,-278.43 -51.66,-271.29 -45.94,-556.15 15.38,-824.86 34.08,-149.27 59.9,-183.96 -43.17,-295.64 -89,-96.49 -185.86,-184.39 -287.9,-262.86 -58.3,-44.84 -123.5,-88.13 -194.09,-84.14 -115.93,6.58 -193.3,132.85 -249.33,246.74 -124.6,252.96 -238.69,515.71 -298.29,796.82 -24.79,117.1 -39.42,238.02 -41.39,358.56l-2.14 3.57c-18.76,35.48 -23.45,78.79 -27.69,120.54 -26.69,261.77 26.38,404.63 -0.24,666.31 -5.55,54.01 -8.37,117.3 25.33,153.58 20.43,22.01 49.7,27.8 77.12,26.13 136.35,-8.35 149.64,-46.86 270.8,-122.82l197.18 -98.83c76.56,-51.29 135.49,-137.03 215.56,-179.76 85.24,-45.52 172.09,-31.56 261.58,-17.66 54.11,8.42 109.22,16.86 165.49,12.12l-30.99 -102.58z"/>
   <path class="fil39" d="M2640.85 4171.01c-11.12,-8.3 -10.34,-27.98 2.46,-33.7 -1.05,11 -1.97,22.32 -2.46,33.7zm1191.54 -347.36l-3.99 -13.29c5.1,3.14 6.08,8.93 3.99,13.29z"/>
   <path class="fil40" d="M2686.67 4175.44c-11.49,0 -23.12,-0.24 -34.8,-0.73 -4.5,-0.19 -8.12,-1.55 -11.02,-3.7 0.49,-11.38 1.41,-22.7 2.46,-33.7 2.21,-0.99 4.86,-1.55 7.81,-1.55 0.24,0 0.49,0 0.75,0 9.88,0.31 19.86,0.44 29.81,0.44 112.99,0 228,-19.25 328.68,-72.34 99.26,-52.26 177.68,-135.47 273.62,-192.99 101.72,-60.87 224.54,-96.98 345.76,-96.98 67.29,0 134.01,11.14 196.44,35.36 0.8,0.31 1.54,0.68 2.22,1.11l3.99 13.29c-1.61,3.26 -4.92,5.78 -9.47,5.78 -0.73,0 -1.48,-0.06 -2.21,-0.19 -60.59,-9.83 -120.24,-16.47 -179.78,-16.47 -55.11,0 -110.21,5.72 -165.86,20.05 -114.58,29.44 -205.54,91.02 -297.49,162.91 -149.02,116.48 -303.76,179.71 -490.91,179.71z"/>
   <path class="fil39" d="M2650.63 4033.25c-19.73,-6.4 -19.49,-38.07 0.93,-42.07 -0.13,13.71 -0.44,27.74 -0.93,42.07zm1125.12 -334.83c-1.54,-2.14 -3.19,-4.17 -4.8,-6.26l3.58 -6.76c0.9,-1.97 1.77,-4.01 2.63,-6.03 4.25,5.4 3.69,13.89 -1.41,19.05z"/>
   <path class="fil40" d="M2672.53 4034.66c-5.16,0 -10.34,-0.07 -15.5,-0.24 -2.34,-0.12 -4.43,-0.51 -6.4,-1.17 0.49,-14.33 0.8,-28.36 0.93,-42.07 1.34,-0.31 2.89,-0.43 4.48,-0.43 0.31,0 0.68,0 0.99,0 5.4,0.19 10.88,0.31 16.23,0.31 198.78,0 384.52,-139.36 555.3,-223.37 148.9,-73.26 319.26,-93.99 484.51,-93.99 17.84,0 35.62,0.24 53.26,0.68 4.99,0.12 8.61,2.09 10.83,4.99 -0.86,2.02 -1.73,4.06 -2.63,6.03l-3.58 6.76c1.61,2.09 3.26,4.12 4.8,6.26 -2.22,2.29 -5.41,3.94 -9.42,4.31 -109.22,10.82 -218.32,13.23 -326.13,35.93 -104.69,22.07 -196.44,66.42 -288.46,119.68 -137.69,79.76 -314.88,176.32 -479.21,176.32z"/>
   <path class="fil38" d="M3324.69 3147c5.23,42.69 11.82,86.05 29.7,124.18 34.14,72.75 103.02,114.94 168.1,152.89 262.06,153.14 524.1,306.22 786.24,459.36 37.2,21.7 76.01,43.91 117.95,45.2 41.95,1.22 87.71,-25.28 97.54,-71.04 13.6,-63.21 -42.92,-115.25 -92.24,-149.44 -147.68,-102.16 -295.39,-204.38 -443.07,-306.59 -125.58,-86.91 -258.61,-183.28 -316.06,-335.81 -66.35,-176.25 -15.06,-386.41 -78.59,-563.97 -76.88,-214.89 -283.96,-184.75 -306.53,43.67 -18.27,185.42 14.4,418.21 36.96,601.55z"/>
   <path class="fil31" d="M4780.13 6557.95l33.96 -2.58c-246.07,-9.39 -492.15,-18.88 -738.21,-28.27 -24.11,-0.93 -49.07,-1.73 -71.48,7.3 -22.38,8.98 -41.63,30.63 -39.85,54.74 2.22,29.03 31.56,47.42 58.37,58.93 102.96,44.21 216.61,57.69 328.68,60.32 64.38,1.55 128.83,-0.37 193.16,-4.6 43.38,-2.83 87.15,-6.89 128.68,-19.88 41.56,-12.97 81.12,-35.67 107.62,-70.1 6.59,-8.61 12.55,-18.39 13.47,-29.15 1.05,-10.82 -4.25,-22.82 -14.4,-26.71z"/>
   <path class="fil31" d="M3538.72 6643.81c-185.3,30.51 -375.78,13.6 -559.48,-25.27 -22.75,-4.8 -45.94,-10.15 -65.69,-22.44 -19.74,-12.31 -35.79,-33.04 -36.35,-56.28l3.57 -15.08c6.28,-9.03 19.32,-9.34 30.27,-8.71 211,11.85 422.01,23.72 632.96,35.6 31.43,1.77 62.92,3.5 94.3,7 17.33,1.92 68.32,-1.04 58.66,22.95 -8.05,19.8 -50.07,33.52 -67.59,39.97 -29.22,10.9 -59.9,17.23 -90.65,22.26z"/>
   <path class="fil31" d="M4711.93 6838.1c12.97,-106.28 41.95,-210.64 85.74,-308.37 32.46,-72.51 62.97,-144.21 141.58,-155.4l48.2 -23.63c66.74,-28.1 55.23,-22.09 112.38,-33.45 155.91,-30.95 327.68,27.67 427.73,151.17 100.14,123.43 121.11,307.32 46.38,447.6 -54.92,103.26 -155.67,178.3 -266.91,214.47 -111.33,36.09 -232.43,35.48 -347,11.8 -99.83,-20.65 -207.08,-69.31 -240.78,-165.61 -15.44,-44.04 -12.98,-92.26 -7.32,-138.58z"/>
   <path class="fil32" d="M5431.99 6463.19c-6.81,4.67 -15.62,4.67 -23.86,4.49 -46.62,-1.04 -93.29,-2.09 -139.86,-3.08 -37.01,-0.86 -74.35,-1.66 -110.7,5.35 -112.97,21.65 -201.48,117.83 -239.73,226.32 -9.1,26.03 -15.99,53.14 -30.32,76.71 -19.51,32.22 -53.76,56.21 -91.33,59.59 -37.52,3.45 -77.18,-15.5 -94.96,-48.78 -15.82,-29.57 -13.46,-65.38 -7.57,-98.33 26.57,-150.5 121.36,-288.63 254.62,-363.42 133.21,-74.84 302.84,-83.28 440.79,-17.54 29.64,14.09 72.26,38.57 78.47,74.62 3.63,21.46 -18.08,71.95 -35.55,84.07z"/>
   <path class="fil37" d="M5273.99 6702.06c-26.5,-90.71 -147.54,-86.16 -188.32,-4.11 -11.87,23.85 -7.49,52.94 3.33,77.3 9.91,22.21 25.16,42.43 45.57,55.71 20.37,13.29 46.06,19.13 69.69,13.24 16.59,-4.19 31.43,-13.78 44.45,-24.99 14.16,-12.04 26.89,-26.81 32.17,-44.64 6.95,-23.61 0.07,-48.83 -6.89,-72.51z"/>
   <path class="fil32" d="M5206.77 6694.13c-10.15,-2.83 -20.59,3.62 -31.17,3.45l-7.64 5.84c-6.45,2.88 -12.12,8.23 -13.82,15.06l0.48 13.85c1.49,7.98 3.44,16.23 8.42,22.62 9.73,12.56 29.71,14.14 42.87,5.29 13.17,-8.91 19.32,-26.01 17.52,-41.76 -1.16,-10.39 -6.64,-21.46 -16.66,-24.35z"/>
   <path class="fil34" d="M4682.59 3792.96c10.77,-0.07 22.14,0.06 31.43,5.41 11.07,6.27 17.28,18.7 27.67,26.01 14.52,10.22 34.33,8.68 50.68,15.62 28.1,11.99 40.17,48.29 31.92,77.74 -8.25,29.46 -32.22,52.23 -58.54,67.73 -17.03,10.02 -36.05,17.76 -55.79,17.59 -18.27,-0.27 -35.74,-7.2 -52.65,-14.16 -50.29,-20.48 -100.68,-40.95 -150.97,-61.44 -14.04,-5.71 -28.49,-11.75 -38.64,-22.87 -14.5,-15.93 -17.52,-39.85 -13.04,-60.95 10.53,-48.78 28.42,-50.43 72.34,-50.38 51.9,0.12 103.74,-0.17 155.59,-0.3z"/>
  </g>
 </g>
</svg>
