<?xml version="1.0" encoding="UTF-8"?>
<!DOCTYPE svg PUBLIC "-//W3C//DTD SVG 1.1//EN" "http://www.w3.org/Graphics/SVG/1.1/DTD/svg11.dtd">
<!-- Creator: CorelDRAW 2017 -->
<svg xmlns="http://www.w3.org/2000/svg" xml:space="preserve" width="80mm" height="80mm" version="1.1" style="shape-rendering:geometricPrecision; text-rendering:geometricPrecision; image-rendering:optimizeQuality; fill-rule:evenodd; clip-rule:evenodd"
viewBox="0 0 8000 8000"
 xmlns:xlink="http://www.w3.org/1999/xlink">
 <defs>
  <style type="text/css">
   <![CDATA[
    .str0 {stroke:#FEFEFE;stroke-width:168.05;stroke-miterlimit:22.9256}
    .fil9 {fill:#EBECEC;fill-rule:nonzero}
    .fil0 {fill:#FECC09;fill-rule:nonzero}
    .fil3 {fill:#1F375A;fill-rule:nonzero}
    .fil6 {fill:#333333;fill-rule:nonzero}
    .fil13 {fill:#434244;fill-rule:nonzero}
    .fil12 {fill:#484849;fill-rule:nonzero}
    .fil10 {fill:#4A4A4A;fill-rule:nonzero}
    .fil7 {fill:#4D4D4D;fill-rule:nonzero}
    .fil16 {fill:#505151;fill-rule:nonzero}
    .fil17 {fill:#6C6D6E;fill-rule:nonzero}
    .fil11 {fill:#707070;fill-rule:nonzero}
    .fil18 {fill:#707172;fill-rule:nonzero}
    .fil4 {fill:#736357;fill-rule:nonzero}
    .fil14 {fill:#98B99D;fill-rule:nonzero}
    .fil1 {fill:#A58C41;fill-rule:nonzero}
    .fil15 {fill:#AA6A64;fill-rule:nonzero}
    .fil2 {fill:#E8DBCE;fill-rule:nonzero}
    .fil5 {fill:#F0E5D4;fill-rule:nonzero}
    .fil8 {fill:#F0F0F0;fill-rule:nonzero}
   ]]>
  </style>
     <clipPath id="id0">
      <path d="M3422.26 7499.99c-48.77,0 -95.9,-5.42 -128.96,-26.87 -80.19,-51.3 -0.54,-119.59 63.94,-124.94 289.88,-23.78 580.3,-27.08 871.26,-30.23 83.44,-0.87 167.42,-1.83 250.86,-1.97l28.72 0c131.66,0.22 262.78,2.56 393.9,10.46 28.18,1.62 56.9,3.96 81.28,17.79 21.13,11.64 36.84,34.11 36.84,57.02l0 0.14c0,4.25 -0.54,8.49 -1.62,12.67 -9.76,34.18 -51.48,45.96 -86.69,50.79 -111.62,15.3 -224.86,17.28 -338.1,19.33 -124.62,2.19 -248.7,4.39 -373.32,6.14 -177.72,2.64 -355.44,4.47 -533.16,4.47 -41.72,0 -83.44,-0.07 -125.16,-0.29 -0.54,0 -1.08,0 -2.17,0 0,0 0,0 0,0l0 0c-18.96,0 -41.18,1.39 -64.47,2.7 -23.84,1.39 -48.77,2.79 -73.15,2.79l0 0z"/>
     </clipPath>
 </defs>
 <g id="Layer_x0020_1">
  <metadata id="CorelCorpID_0Corel-Layer"/>
  <g id="_2495068557312">
   <path class="fil0 str0" d="M3626.54 4679.9c23.57,-66.67 47.1,-166.32 72.12,-268.45 -1.75,-2.23 -3.39,-4.52 -4.93,-6.88 -25.89,-0.97 -51.78,-1.47 -77.71,-1.38 -78.15,0.32 -157.66,5.86 -233.44,-13.95 30.01,-139.12 32.27,-282.61 38.06,-424.91 14.11,-343.24 49.65,-685.16 85.25,-1026.76 14.34,-138.12 24.21,-278.49 38.26,-417.25 -54.59,-28.71 -105.82,-68.02 -139.08,-98.33 -106.15,-96.62 -212.42,-193.25 -318.58,-289.8 -97.01,-88.29 -195.58,-178.42 -261.35,-291.88 -77.97,-134.43 -81.1,-256.6 -27.94,-395.29 15.4,-40.43 134.65,-500.22 138.15,-499.28l20.5 5.46c2.25,-39.24 5.3,-78.63 11.21,-117.13 -27.96,0.93 -55.61,7.24 -83.09,25.49 -40.92,27.25 -62.94,65.74 -92.51,103.07 -28.25,35.87 -88.09,52.98 -132.6,55.56 -44.75,2.58 -91.14,-10.63 -124.59,-40.42 -33.55,-29.78 -52.38,-76.82 -43.84,-120.88 4.42,-23.14 15.83,-44.36 27.62,-64.8 17.98,-31.14 35.12,-56.37 45.59,-90.28 5.71,-18.67 14.54,-36.63 26.86,-51.73l-8.25 -11.95 -2.05 -5.18 3.78 -6.61c11.76,-12.01 26.67,-21.25 42.95,-26.49l3.77 -0.66 4.77 3.74c2.6,3.5 5.08,7.11 7.39,10.8 34.68,-11.8 72.67,-8.07 109.51,-12.36 49.6,-5.81 88.43,-30.15 129.87,-56.1l-4.36 -6.3 -2.06 -5.23 3.81 -6.66c11.78,-11.97 26.69,-21.18 42.92,-26.52l3.81 -0.56 4.8 3.66c2.91,3.96 5.63,8.06 8.19,12.25 16.72,-6.07 34.12,-9.72 51.74,-8.98 42.35,1.63 69.06,29.93 101.37,54.39 47.66,36.12 97.72,75.44 117.41,131.93 7.74,21.97 10.25,45.78 7.42,68.94 -2.24,18.59 -8.34,37.19 -20.89,51.05 -14.33,15.63 -35.41,23.27 -56.16,27.38 -15.32,2.99 -30.47,3.89 -45.51,3.6 -5.81,11.42 -11.76,22.78 -16.83,34.25 -13.67,30.95 -21.04,65.02 -21.65,99.43l8.11 2.15c15.53,4.09 -52.71,422.57 -56.48,456.38 -14.1,127.8 -6.15,182.51 83.41,283.68 72.32,81.69 162.52,147.71 262.88,190.63 35.56,15.22 72.17,27.57 107.69,42.89 70.06,30.14 140.28,75.57 198.13,132.25 19.38,-25.32 41.99,-45.41 68.23,-56.85 98.25,-42.83 151.9,53.67 225.61,99.16 19.59,-48.7 74.53,-84.79 127.8,-65.62 59.51,21.41 107.92,50.59 147.73,85.54l10.84 -2.2c22.34,-35.12 62.7,-55.55 101.36,-55.76l4.33 -4.62c91.21,-96.69 177.31,5.28 214.17,100.04 64.23,-84.74 157.76,-151.92 250.97,-192.03 35.56,-15.31 72.22,-27.71 107.68,-42.89 100.36,-42.93 190.65,-108.92 262.91,-190.63 89.58,-101.18 97.53,-155.94 83.43,-283.68 -3.81,-33.81 -71.99,-452.27 -56.44,-456.46l8.07 -2.13c-0.6,-34.41 -8.01,-68.43 -21.68,-99.49 -17.71,-39.99 -46.46,-78.83 -40.85,-123.2 5.72,-0.29 11.56,-0.49 17.18,-0.81 5.02,7.49 10.08,14.98 15.13,22.45 -4.03,-22.22 -4.62,-45.16 -1.62,-67.76 2.86,-21.98 13.39,-47.89 34.85,-51.14 21.28,-3.28 37,17.83 46.17,37.15 37.1,78.53 46.11,167.7 51.26,256.14l20.48 -5.45c3.53,-0.92 122.76,458.86 138.18,499.26 53.09,138.69 49.99,260.89 -27.99,395.28 -65.73,113.47 -164.34,203.65 -261.33,291.83 -106.23,96.63 -212.43,193.24 -318.65,289.88 -34.6,31.52 -88.78,72.93 -145.83,101.86 -15.89,8.02 -32,15.07 -47.98,20.67 60.34,274.21 91.79,556.27 122.72,836.2 7.38,66.46 14.75,132.93 22.02,199.43l69.89 631.5 0 0.02 1.56 14.15c10.22,16.29 14.63,36.56 12.18,54.89 -0.81,5.97 -2.19,11.8 -4.16,17.38l0.01 0.14c0.05,0.4 -0.16,0.86 -0.56,1.34 -3.77,10 -9.47,19.17 -17.26,26.93 32.49,824.79 -16.25,1836.59 -249.59,2628.39 -20.85,70.87 -45.56,144.31 -98.88,195.46 -17.81,17.12 -39.81,30.76 -63.35,39.58 29.36,1.92 58.65,5.3 87.68,10.13 55.09,40.98 115.51,74.93 179.14,100.69 18.56,7.46 38.01,14.75 51.64,29.28 13.71,14.54 19.17,39 6.47,54.3 -11.2,13.48 -30.89,14.85 -48.36,15.08 -133.49,1.42 -267.12,-9.96 -398.46,-33.87 -7.86,-1.44 -16.21,-3.14 -21.95,-8.83 -4.53,-4.49 -6.66,-10.85 -8.26,-17.02 -13.49,-49.91 -4.88,-105.29 23.11,-148.77 5,-0.4 9.99,-0.76 14.99,-1.08 -8.39,-3.87 -16.39,-8.77 -23.83,-14.8 111.48,-723.24 146.07,-1221.07 12.07,-1940.46 -16.02,-85.8 -18.77,-232.72 -51.57,-249.68 -26.33,-13.65 -85.47,-10.85 -120.4,1.19 -158.32,701.57 -289.41,1282.7 -447.68,1984.29 -12.04,53.34 -30.49,114.56 -81.43,134.55 -182.57,71.51 -172.08,-119.89 -178.07,-233.99 -8.83,-164.82 -16.08,-329.75 -18.65,-494.78 -5.2,-327.32 7.17,-656.41 63,-979.61 30.5,-176.61 58.77,-587.43 118.52,-756.55zm839.76 -3020.1c14.63,-5.85 27.89,-14.28 36.65,-27.12 10.01,-14.73 12.67,-33.2 13.82,-51.01 2.06,-31.02 0.54,-62.29 -4.46,-93.01 13.39,-27.46 18.18,-61.6 20.68,-92.7 9.39,-119.19 5.54,-258.65 -89.23,-331.5 -50.19,-38.63 -113.34,-47.39 -174.78,-50.24 -67.06,-3.16 -130.02,-18.98 -198.08,-8.2 -35.25,5.63 -69.75,15.74 -105.28,18.67 -35.57,2.89 -73.56,-2.42 -101.65,-24.44 -12.1,-9.45 -23.5,-22.48 -38.9,-23.02 -21.43,-0.78 -34.88,22.51 -42.34,42.65 -38.28,103.15 -53.26,218.91 -37.82,328.21 7.54,53.28 33.91,107.08 61.16,159.72 -0.53,23.61 1.11,47.34 3.94,70.69 4.48,37.01 3.2,95.7 47.3,104.87l3.41 0.67c21.95,108.4 70.4,209.18 155.29,279.73 31,38.98 71.44,76.52 118.9,86.34 52.96,10.98 111.92,-2.87 150.58,-40.81 9.83,-9.62 20.53,-21.35 26.91,-33.81 7.67,-6.63 15.02,-13.61 21.99,-20.83 77.73,-80.5 115.49,-183.79 131.91,-294.86zm-723.15 5563.9c-72.46,-1.52 -145.04,5.97 -215.67,22.08 -52.6,44.27 -110.85,81.77 -172.83,111.3 -18.04,8.61 -37.04,17.02 -49.78,32.36 -12.76,15.3 -16.82,40.04 -3.14,54.61 11.92,12.69 31.66,12.96 49.13,12.1 133.31,-6.61 266.01,-26.01 395.77,-57.73 7.68,-1.92 16.01,-4.15 21.29,-10.09 4.29,-4.8 6.03,-11.28 7.32,-17.55 10.39,-50.65 -1.58,-105.37 -32.09,-147.08z"/>
   <g>
    <g style="clip-path:url(#id0)">
     <image x="3161.1" y="7286.26" width="1911.56" height="258.22" xlink:href="2.svg_Images\2.svg_ImgID1.png"/>
    </g>
    <path class="fil1" d="M3626.54 4679.9c52.07,-147.29 103.93,-455.35 172.18,-595.91 55.03,-113.34 140.38,175.85 210.83,71.34 52.12,-77.42 112.18,-151.31 188.59,-204.89 76.54,-53.57 171.47,-85.3 263.89,-72.04 134.79,19.4 241.64,131.45 293.46,257.47 51.76,125.96 119.53,94.46 124.91,230.52 32.48,824.82 -16.24,1836.61 -249.58,2628.4 -20.87,70.87 -45.58,144.31 -98.85,195.48 -53.28,51.17 -143.85,71.21 -201.21,24.66 111.47,-723.21 146.06,-1221.07 12.04,-1940.43 -16.02,-85.81 -18.75,-232.74 -51.54,-249.68 -26.35,-13.68 -85.47,-10.88 -120.39,1.16 -158.34,701.59 -289.43,1282.71 -447.7,1984.3 -12.02,53.34 -30.49,114.56 -81.43,134.55 -182.58,71.51 -172.06,-119.88 -178.07,-233.98 -8.83,-164.81 -16.07,-329.74 -18.63,-494.78 -5.2,-327.34 7.17,-656.43 62.98,-979.62 30.48,-176.6 58.75,-587.43 118.52,-756.55z"/>
    <path class="fil2" d="M5186.47 816.7c-4.04,-22.21 -4.62,-45.16 -1.64,-67.78 2.87,-21.96 13.38,-47.85 34.88,-51.11 21.26,-3.28 36.98,17.82 46.15,37.15 42.23,89.39 48.08,192.61 53.23,292.87 -33.65,9.59 -68.48,13.61 -102.94,11.92 2.8,-41.78 -4.56,-83.84 -21.15,-121.47 -17.7,-40.01 -46.45,-78.86 -40.84,-123.21 5.72,-0.28 11.51,-0.51 17.18,-0.81 5.01,7.48 10.1,14.95 15.13,22.44z"/>
    <path class="fil3" d="M4721.95 2563.73c-96.28,48.67 -200.85,61.64 -234.15,-68.52 -57.84,-226.04 133.38,-420 323.25,-501.67 35.52,-15.3 72.2,-27.69 107.67,-42.88 100.36,-42.94 190.63,-108.95 262.9,-190.63 89.56,-101.18 97.51,-155.93 83.42,-283.69 -3.8,-33.84 -71.98,-452.3 -56.43,-456.46 42.95,-11.39 85.99,-22.79 128.99,-34.23 3.51,-0.93 122.75,458.84 138.17,499.27 53.11,138.69 50.01,260.86 -27.99,395.28 -65.71,113.45 -164.33,203.61 -261.31,291.83 -106.22,96.63 -212.42,193.24 -318.64,289.87 -34.64,31.5 -88.8,72.92 -145.88,101.83z"/>
    <path class="fil4" d="M4339.59 7230.81c72.2,-5.83 145.16,-2.73 216.67,9.13 55.1,41 115.51,74.95 179.14,100.72 18.56,7.47 38.02,14.72 51.63,29.26 13.73,14.54 19.16,39.03 6.5,54.34 -11.23,13.43 -30.91,14.83 -48.38,15.07 -133.49,1.4 -267.1,-9.99 -398.44,-33.89 -7.89,-1.45 -16.23,-3.16 -21.96,-8.82 -4.51,-4.49 -6.66,-10.87 -8.3,-17.06 -13.43,-49.9 -4.85,-105.28 23.14,-148.75z"/>
    <path class="fil4" d="M3743.16 7223.69c-72.45,-1.52 -145.07,5.96 -215.7,22.09 -52.58,44.29 -110.82,81.78 -172.81,111.29 -18.05,8.6 -37.05,17.01 -49.78,32.36 -12.79,15.32 -16.83,40.08 -3.15,54.63 11.93,12.67 31.67,12.97 49.14,12.09 133.31,-6.61 266.04,-26 395.74,-57.71 7.72,-1.94 16.02,-4.16 21.33,-10.12 4.26,-4.79 6.01,-11.28 7.31,-17.52 10.4,-50.66 -1.59,-105.39 -32.08,-147.11z"/>
    <path class="fil5" d="M4177.23 2033.27c60.18,-0.53 115.39,-35.34 157.16,-78.63 155.68,-161.19 151.08,-413.75 135.71,-637.27 -1.57,-23.73 -3.63,-48.67 -17.13,-68.29 -20.68,-30.21 -61.1,-38.16 -97.5,-42.36 -155.39,0 -308.69,7.07 -465.27,14.6 -13.15,0.65 -27.23,1.64 -37.63,9.76 -11.03,8.71 -15.18,23.43 -17.52,37.27 -10.98,64.26 9.94,131.51 9.06,197.24 -0.99,67.35 1.76,135.18 13.43,201.67 22.79,129.34 82.14,249.64 194.55,323.18 37.45,24.48 80.39,43.17 125.14,42.83z"/>
    <path class="fil6" d="M4285.48 2009.32c-38.67,37.91 -97.62,51.75 -150.6,40.77 -53.06,-10.98 -97.34,-56.6 -129.47,-100.19 41.88,3.98 93.65,41.65 134.14,53.11 74.72,21.08 146.99,2.39 176.09,-61.46 10.03,23.95 -11.58,49.6 -30.16,67.77z"/>
    <path class="fil7" d="M4443.75 1064.46c94.76,72.85 98.62,212.31 89.21,331.49 -4.15,52.05 -14.79,112.7 -61.34,136.18 2.15,-53.16 -32.61,-99.96 -65.68,-141.68 -22.6,-28.63 -46.27,-58.07 -78.74,-74.67 -98.04,-50.18 -204.71,29.75 -303.32,36.4 -65.62,4.44 -88.87,-25.35 -112.23,48.72 -18.93,60 -25.31,126.72 -25.71,189.36 -0.06,8 -0.11,16.41 -4.32,23.2 -4.16,6.77 -14.21,10.51 -20.34,5.36l-5.13 -8.46c-34.18,-83.66 -98.68,-173.7 -111.24,-262.27 -15.43,-109.3 -0.48,-225.04 37.8,-328.21 7.48,-20.15 20.91,-43.46 42.36,-42.64 15.41,0.53 26.81,13.54 38.9,23.02 28.1,22.02 66.07,27.34 101.66,24.42 35.51,-2.93 70.04,-13.03 105.28,-18.64 68.06,-10.8 131.02,5.03 198.09,8.18 61.41,2.86 124.57,11.62 174.75,50.24z"/>
    <path class="fil3" d="M4345.89 2085.55c94,-99.71 182.63,11.76 217.44,108.78 140.57,391.78 187.54,811.37 233.41,1226.28 7.35,66.49 14.72,132.96 22.02,199.45 26.47,239.3 52.93,478.71 79.46,718.06 1.57,14.08 -272.3,72.44 -295.57,78.24 -143.02,35.75 -292.1,37.02 -438.21,27.34 -182.98,-12.11 -365.07,-41.14 -548.42,-40.49 -78.16,0.29 -157.67,5.84 -233.45,-13.96 30.04,-139.11 32.26,-282.59 38.09,-424.91 14.09,-343.29 49.61,-685.16 85.25,-1026.75 19.86,-191.64 31.14,-387.64 56.95,-577.63 14.15,-103.87 61.23,-285.56 165.34,-330.95 110.53,-48.14 164.63,79.92 254.31,113.46 102.59,38.37 228.32,45.02 321.9,-19.58 17.36,-11.97 30.09,-25.12 41.48,-37.34z"/>
    <path class="fil8" d="M4885.35 4258.9l3.28 -7.35c-15.95,-27.81 -40.6,-79.11 -65.89,-139.11 -19.16,-298.12 -49.2,-596.96 -101.32,-890.46 -64.2,-362.05 -202.72,-697.91 -285.32,-1053.93 -24.31,-104.76 -149.33,-95.4 -195.89,-22.14l-10.87 2.22c-39.78,-34.99 -88.22,-64.16 -147.68,-85.58 -66.38,-23.85 -135.32,37.97 -135.32,103.1 0.07,69.41 -1.04,138.99 -2.68,208.63 -115.73,566.87 -185.2,1142.43 -206.99,1720.69l0.06 1.98c-6.49,29.68 -12.96,59.37 -19.69,88.98 -14.55,44.82 -30.09,95.82 -31.84,135.37l-2.8 11.69c-12.39,50.64 16.18,94.53 63.51,111.82 362.09,132.32 749.13,110.94 1096.22,-54.52l13.03 -7.59 9.05 -3.8c5.43,-4.14 10.81,-8.35 16.19,-12.51 12.49,-12.43 19.63,-28.5 21.96,-45.79 2.8,-20.98 -3.39,-44.51 -17.01,-61.7z"/>
    <path class="fil2" d="M3086.44 776.79c4.02,-22.19 4.62,-45.16 1.68,-67.77 -2.84,-21.96 -13.36,-47.84 -34.92,-51.12 -21.27,-3.26 -36.98,17.89 -46.16,37.16 -42.18,89.38 -48.09,192.62 -53.15,292.92 33.51,9.53 68.46,13.57 102.87,11.86 -2.75,-41.76 4.55,-83.83 21.15,-121.39 17.7,-40.09 46.45,-78.92 40.88,-123.27 -5.77,-0.3 -11.5,-0.53 -17.22,-0.81 -5.03,7.46 -10.05,14.95 -15.13,22.42z"/>
    <path class="fil3" d="M3551.01 2523.84c96.16,48.67 200.73,61.69 234.1,-68.53 57.89,-226.03 -133.38,-419.99 -323.25,-501.67 -35.52,-15.31 -72.15,-27.69 -107.67,-42.89 -100.38,-42.94 -190.58,-108.95 -262.9,-190.63 -89.56,-101.18 -97.51,-155.91 -83.43,-283.69 3.8,-33.82 72.03,-452.3 56.5,-456.39 -43.01,-11.45 -86.06,-22.84 -129.01,-34.29 -3.49,-0.94 -122.74,458.85 -138.16,499.27 -53.16,138.7 -50.01,260.85 27.92,395.28 65.8,113.46 164.35,203.6 261.39,291.88 106.15,96.57 212.42,193.2 318.58,289.83 34.64,31.55 88.79,72.91 145.93,101.83z"/>
    <path class="fil9" d="M4251.95 1677.18c63.09,1.71 127.13,4.69 188.64,-9.57 23.78,-5.5 48.62,-14.79 62.35,-34.94 10.03,-14.72 12.67,-33.19 13.84,-51.01 4.37,-66.07 -7.53,-133.24 -34.48,-193.77 -5.13,-11.51 -11.16,-23.25 -21.31,-30.67 -10.23,-7.49 -23.25,-9.64 -35.87,-10.93 -116.2,-11.69 -237.38,7 -354.16,10.17 -64.26,1.75 -121.23,18.58 -184.97,10.05 -10.45,-1.41 -21.61,-2.7 -31.43,1.39 -12.73,5.26 -20.43,18.28 -26.11,30.9 -25.06,56.5 -25.76,119.37 -18.45,179.72 4.48,36.97 3.21,95.68 47.31,104.86 57.48,11.92 135.48,-6.13 194.72,-7.19 66.65,-1.16 133.26,-0.88 199.92,0.99z"/>
    <path class="fil10" d="M4246.28 1667.01c59.19,1.59 119.12,4.46 176.79,-8.92 22.32,-5.2 45.57,-13.91 58.47,-32.77 9.41,-13.85 11.88,-31.16 12.92,-47.86 4.21,-61.92 -7.01,-124.84 -32.24,-181.57 -4.81,-10.82 -10.47,-21.85 -19.99,-28.8 -9.57,-7.01 -21.8,-9 -33.59,-10.22 -109.02,-10.93 -222.54,6.59 -331.95,9.52 -60.23,1.62 -113.64,17.41 -173.41,9.41 -9.87,-1.29 -20.2,-2.47 -29.44,1.27 -11.98,4.97 -19.21,17.18 -24.48,29.03 -23.53,52.95 -24.24,111.89 -17.29,168.44 4.21,34.65 2.98,89.68 44.28,98.27 53.93,11.16 127.07,-5.73 182.52,-6.72 62.51,-1.11 125.01,-0.81 187.41,0.92z"/>
    <path class="fil11" d="M3949.04 1384.21c-26.53,1.51 -56.51,4.79 -72.8,25.82 -12.39,16.11 -12.92,38.02 -12.97,58.31 -0.11,35.5 -0.23,71.03 -0.41,106.5 0,16 0.11,32.82 7.83,46.85 8.6,15.76 25.65,25.47 43.17,29.38 17.53,3.92 35.69,2.81 53.63,1.64 29.69,-1.88 59.3,-3.75 89.04,-5.6 22.84,-1.41 49.37,-5.09 60.7,-24.96 8.29,-14.42 5.61,-33.7 15.55,-47.03 10.15,-13.73 29.33,-16.06 46.32,-17.34 7.65,15.83 3.04,35.23 9.7,51.47 5.67,13.73 18.75,23.25 32.82,27.92 14.15,4.67 29.17,5.14 44.01,5.32 42.87,0.58 85.7,-0.76 128.41,-3.98 20.91,-1.57 44.63,-5.26 56.32,-22.72 6.54,-9.88 7.7,-22.2 8.76,-34.01 4.85,-56.42 9.64,-114.15 -4.51,-169 -2.74,-10.77 -6.54,-21.75 -14.42,-29.51 -12.04,-11.74 -30.5,-13.15 -47.26,-13.78 -149.28,-5.5 -295.39,6.18 -443.89,14.72z"/>
    <path class="fil12" d="M2582.25 638.16l-2.04 -5.2 3.75 -6.61c11.79,-12.04 26.69,-21.26 42.99,-26.51l3.74 -0.65 4.79 3.75c4.15,5.59 8,11.51 11.39,17.57l0.65 2.86 -2.17 1.87c-13.38,6.89 -26.35,14.49 -38.79,22.91l-13.84 5.13 -10.47 -15.12z"/>
    <path class="fil12" d="M2877.87 538.96l-2.05 -5.2 3.81 -6.67c11.79,-11.97 26.69,-21.2 42.94,-26.51l3.79 -0.58 4.79 3.67c4.15,5.62 7.95,11.51 11.39,17.64l0.65 2.86 -2.17 1.88c-13.43,6.83 -26.4,14.49 -38.85,22.9l-13.85 5.13 -10.45 -15.12z"/>
    <path class="fil13" d="M2612.64 629.17c-24.48,17.52 -40.31,44.28 -49.02,72.62 -10.45,33.93 -27.57,59.17 -45.57,90.32 -11.8,20.43 -23.19,41.65 -27.63,64.78 -8.53,44.05 10.29,91.08 43.82,120.88 33.47,29.79 79.86,42.99 124.6,40.42 44.52,-2.57 104.35,-19.69 132.62,-55.56 29.56,-37.33 51.59,-75.83 92.49,-103.06 50.13,-33.3 100.77,-26.87 152.7,-20.5 33.95,4.21 68.37,8.41 103.59,1.53 20.75,-4.09 41.83,-11.76 56.14,-27.35 12.57,-13.86 18.65,-32.49 20.92,-51.07 2.81,-23.13 0.29,-46.96 -7.42,-68.92 -19.69,-56.51 -69.76,-95.82 -117.43,-131.92 -32.3,-24.48 -59.01,-52.77 -101.35,-54.41 -38.09,-1.57 -75.2,17.31 -106.62,36.93 -42.31,26.47 -81.63,51.59 -132.1,57.49 -47.91,5.61 -97.74,-2.39 -139.74,27.82z"/>
    <path class="fil14" d="M2975.55 609.76c-12.44,0.59 -26.63,11.62 -26.7,23.73 -0.12,12.97 13.03,24.18 26,22.77 25.31,-2.73 33.24,-38.02 6.89,-45.79l-6.19 -0.71z"/>
    <path class="fil15" d="M3057.57 586.28c-12.73,-0.58 -26.74,9.35 -26.81,22.37 -0.12,13.03 12.97,24.24 25.93,22.85 22.28,-2.4 30.09,-31.84 9.48,-42.89l-8.6 -2.33z"/>
    <path class="fil16" d="M2621.52 737.06c-19.98,11.16 -34.53,32.42 -36.52,55.68 -1.99,23.31 9.36,47.79 29.03,59.99 11.87,7.37 26,10.12 39.85,10.24 8.41,0.05 16.89,-0.83 25,-3.1 25.72,-7.3 46.8,-30.39 50.2,-57.5 7.47,-60.57 -61.41,-91.18 -107.56,-65.31z"/>
    <path class="fil17" d="M2652.72 866.53c-0.65,-1.23 -1.23,-2.4 -1.83,-3.63 1,0.07 1.99,0.07 2.99,0.07 0.29,0 0.53,0 0.76,0 4.27,0 8.59,-0.23 12.85,-0.76 -4.9,1.39 -9.87,2.86 -14.77,4.32zm37.27 -10.93c0.82,-0.41 1.63,-0.81 2.45,-1.28 0.05,0.17 0.05,0.35 0.12,0.52 -0.88,0.23 -1.75,0.53 -2.57,0.76zm-93.71 -11.44c-1.92,-6.38 -3.86,-12.81 -5.78,-19.16 2.86,6.47 6.71,12.5 11.44,17.63 -1.87,0.53 -3.79,1 -5.66,1.53zm22.44 -105.46c-0.07,-0.35 -0.18,-0.76 -0.23,-1.11 1.62,-0.46 3.26,-0.99 4.83,-1.52 -0.58,0.29 -1.22,0.64 -1.8,0.99 -0.93,0.53 -1.88,1.06 -2.8,1.64z"/>
    <path class="fil18" d="M2654.64 862.97c-0.23,0 -0.47,0 -0.76,0 -1,0 -1.99,0 -2.99,-0.07 -4.72,-9.64 -8.57,-19.62 -11.62,-29.91 -12.44,3.22 -24.88,6.43 -37.33,9.64 -4.73,-5.13 -8.58,-11.16 -11.44,-17.63 -1.11,-3.63 -2.17,-7.26 -3.28,-10.93l-0.28 -5.39 3.91 -3.26c13.54,-7.14 27.75,-10.23 42.36,-13.84 -6.73,-16.83 -11.05,-35 -14.49,-52.88 0.92,-0.58 1.87,-1.11 2.8,-1.64 0.58,-0.35 1.22,-0.7 1.8,-0.99 7.83,-2.62 15.02,-5.49 21.56,-5.49 5.78,0 11.1,2.22 15.95,8.81l9.06 37c14.26,-4.09 28.52,-8.25 42.76,-12.39l10 0.52 2.15 5.26c1.46,7.65 2.87,15.37 4.33,23.02l-0.47 8.41 -10.17 5.25c-12.04,2.46 -24.01,4.97 -36.05,7.42 4.51,13.15 7.9,26.72 10,40.44 -0.82,0.47 -1.63,0.87 -2.45,1.28 -7.55,2.22 -15.02,4.39 -22.5,6.61 -4.26,0.53 -8.58,0.76 -12.85,0.76z"/>
    <path class="fil17" d="M2844.22 774.87c-4.39,-6.78 -7.53,-14.44 -9.36,-22.33 15.67,-7.18 31.97,-12.78 48.74,-16.71 2.73,7.03 5.09,14.2 6.83,21.5 -8.42,4.62 -17,9.29 -26.24,11.99 -6.65,1.92 -13.54,2.86 -19.97,5.55z"/>
    <path class="fil17" d="M2915.85 754.07c-4.39,-6.84 -7.61,-14.43 -9.34,-22.38 15.58,-7.18 31.94,-12.8 48.65,-16.71 2.8,7.01 5.08,14.2 6.89,21.5 -8.53,4.62 -16.99,9.36 -26.28,12.04 -6.66,1.92 -13.61,2.86 -19.92,5.55z"/>
    <path class="fil17" d="M2774.75 795.14c-4.37,-6.84 -7.58,-14.43 -9.34,-22.38 15.6,-7.18 31.96,-12.8 48.72,-16.71 2.75,7.01 5.02,14.2 6.84,21.5 -8.48,4.62 -17.01,9.29 -26.23,12.04 -6.66,1.92 -13.61,2.8 -19.99,5.55z"/>
   </g>
  </g>
 </g>
</svg>
