<?xml version="1.0" encoding="UTF-8"?>
<!DOCTYPE svg PUBLIC "-//W3C//DTD SVG 1.1//EN" "http://www.w3.org/Graphics/SVG/1.1/DTD/svg11.dtd">
<!-- Creator: CorelDRAW 2017 -->
<svg xmlns="http://www.w3.org/2000/svg" xml:space="preserve" width="80mm" height="80mm" version="1.1" style="shape-rendering:geometricPrecision; text-rendering:geometricPrecision; image-rendering:optimizeQuality; fill-rule:evenodd; clip-rule:evenodd"
viewBox="0 0 8000 8000"
 xmlns:xlink="http://www.w3.org/1999/xlink">
 <defs>
  <style type="text/css">
   <![CDATA[
    .str0 {stroke:#FEFEFE;stroke-width:141.11;stroke-miterlimit:22.9256}
    .fil7 {fill:#4D4D4D;fill-rule:nonzero}
    .fil6 {fill:#662E2A;fill-rule:nonzero}
    .fil10 {fill:#6B6883;fill-rule:nonzero}
    .fil4 {fill:#736357;fill-rule:nonzero}
    .fil13 {fill:#8A7660;fill-rule:nonzero}
    .fil2 {fill:#91A1AB;fill-rule:nonzero}
    .fil8 {fill:#97A8B2;fill-rule:nonzero}
    .fil11 {fill:#E2E6E2;fill-rule:nonzero}
    .fil3 {fill:#E8DBCE;fill-rule:nonzero}
    .fil5 {fill:#EBD9CC;fill-rule:nonzero}
    .fil9 {fill:#EBEFEB;fill-rule:nonzero}
    .fil12 {fill:#EDD082;fill-rule:nonzero}
    .fil1 {fill:url(#id1)}
    .fil0 {fill:url(#id2)}
   ]]>
  </style>
     <clipPath id="id0">
      <path d="M5197.09 7168.8l-4.71 0c-4.18,0 -6.79,0 -8.88,0 -204.38,-3.88 -408.23,-7.61 -612.08,-11.42 -101.93,-1.9 -203.86,-3.8 -305.78,-5.63 -0.52,0 -1.57,0 -2.09,0 -12.55,0 -30.32,1.83 -49.66,3.8l0 0c-1.57,0.15 -2.61,0.3 -4.18,0.44 -1.05,0.07 -1.57,0.15 -2.61,0.22 -1.57,0.22 -3.66,0.37 -5.23,0.51 -0.52,0.08 -1.57,0.15 -2.09,0.22 -0.52,0.08 -1.57,0.08 -2.09,0.15 -2.09,0.22 -3.66,0.29 -5.75,0.44 -13.07,1.17 -26.66,1.9 -39.73,1.9 -38.15,0 -73.17,-6.59 -86.24,-31.99 -3.66,-7.61 -5.75,-14.78 -5.75,-21.52l0 -2.63c2.61,-74.08 213.78,-93.33 291.14,-100.07 9.93,-0.95 17.77,-1.53 22.48,-2.12l0 0c5.22,-0.58 9.93,-1.1 15.16,-1.68 3.65,-0.44 7.31,-0.88 10.97,-1.25 6.8,-0.8 13.59,-1.53 20.91,-2.27 0,0 0,-0.07 0,-0.07 1.57,-0.15 2.61,-0.22 3.66,-0.36 0.52,-0.08 1.57,-0.22 2.61,-0.22 0.53,-0.08 1.05,-0.15 2.09,-0.3 1.05,-0.14 2.62,-0.29 3.66,-0.36 0.52,-0.08 1.05,-0.15 1.57,-0.22 1.57,-0.08 3.14,-0.3 4.18,-0.44 1.05,-0.08 2.09,-0.15 2.62,-0.22 1.04,-0.15 2.09,-0.29 3.13,-0.37 0.52,0 1.05,-0.07 1.05,-0.07 33.45,-3.44 66.38,-6.66 99.31,-9.59 0,0 0.52,0 0.52,-0.07 15.68,-1.39 31.36,-2.71 47.05,-4.03 0.52,-0.07 1.56,-0.15 2.09,-0.15 1.56,-0.07 2.61,-0.22 3.65,-0.29 3.66,-0.29 6.8,-0.51 9.94,-0.8 1.04,-0.08 1.56,-0.15 2.09,-0.15 173.01,-13.69 347.07,-20.57 521.13,-20.57 43.9,0 87.81,0.44 132.24,1.32 124.4,2.49 248.8,9.22 373.21,17.57 23,1.61 45.99,3.14 68.99,4.75 2.62,0.3 5.75,0.37 8.89,0.37 6.79,0 14.63,-0.37 23,-0.73 7.84,-0.29 16.72,-0.59 25.09,-0.59 27.18,0 53.84,3.08 66.9,18.45l0 0c12.55,14.49 18.3,27.67 18.3,39.75 -0.53,16.25 -10.46,30.45 -28.75,42.89 -1.05,0.73 -2.09,1.39 -3.14,2.12 -118.13,76.13 -528.97,85.14 -618.87,85.28l0 0z"/>
     </clipPath>
  <linearGradient id="id1" gradientUnits="userSpaceOnUse" x1="4059.92" y1="7093.73" x2="5847.92" y2="7042.86">
   <stop offset="0" style="stop-opacity:1; stop-color:#CCCCCC"/>
   <stop offset="1" style="stop-opacity:1; stop-color:#CCCCCC"/>
  </linearGradient>
  <linearGradient id="id2" gradientUnits="userSpaceOnUse" xlink:href="#id1" x1="4059.93" y1="7093.74" x2="5847.93" y2="7042.86">
  </linearGradient>
 </defs>
 <g id="Layer_x0020_1">
  <metadata id="CorelCorpID_0Corel-Layer"/>
  <g id="_2495126402512">
   <path class="fil0 str0" d="M5194.63 7168.82c-0.82,0 -1.63,0 -2.38,0l4.89 0c-0.89,0 -1.71,0 -2.51,0zm674.88 -5871.33c-5.76,-32.73 -13.04,-66.38 -32.91,-92.96 -20.87,-27.97 -53.02,-44.76 -84.06,-60.63 -23.43,-11.95 -47.06,-24.05 -72.51,-30.7 -25.71,-6.77 -52.54,-7.83 -79.1,-6.89 -54.92,1.88 -109.5,12.22 -161.35,30.52 -37.67,13.29 -73.9,30.71 -112.63,40.37 -9.1,2.31 -18.37,3.87 -27.72,5.07 -31.32,-13.28 -62.67,-26.51 -94.9,-36.29 -36.78,-11.16 -77.52,-17.6 -112.75,-2.45 -26.71,11.48 -47.02,34.04 -63.38,58.12 -27.95,41.24 -47,91.26 -39.55,140.53 7.28,48.45 39.67,90.51 79.92,118.53 20.1,14.02 42.04,24.88 64.91,33.7l-0.47 4.91c-9.47,91.77 -16.36,183.64 -19.56,275.86 -1.81,52.4 -1.88,107.62 22.12,153.25 22.26,42.18 88.82,90.83 152.13,121.03 35.16,16.74 69.4,27.85 94.4,28.96 29.41,1.32 57.11,-13.34 83.31,-27.64 33.58,-18.33 68.43,-37.93 96.84,-63.9 4.96,-0.62 9.99,-2.4 14.41,-4.6 24.89,-12.42 43.07,-34.86 60.37,-56.61 52.46,-66 105.99,-133.82 132.25,-213.87 13.98,-42.5 19.88,-87.26 33.97,-129.69 8.66,-25.81 20.26,-50.71 30.72,-75.83 6.03,-3.96 10.84,-9.59 14.98,-15.49 37.62,-54.85 31.97,-127.81 20.56,-193.3zm-909.13 -122.86c4.34,10.9 8.6,23.31 3.52,33.84 -9.24,18.78 -36.59,14.1 -56.9,19.61 9.93,58.71 9.35,119.04 5.87,178.47 -3.5,58.79 -9.97,118.46 -36.28,173.01 -26.26,54.45 -75.23,103.92 -141.35,123.34 -42.03,12.35 -87.82,11.47 -130.76,0.98 16.95,24.58 38.99,46.6 61.73,65.85 30.63,25.93 63.95,49.64 92.73,77.33 12.79,7.94 24.5,17.16 34.03,28.4 20.24,23.88 28.7,54.53 34.65,84.51 4.62,23.09 8.08,46.25 10.52,69.45 63.66,33.39 129.84,61.55 199.21,79.97 12.79,3.39 25.71,6.44 38.71,9.11 16.11,-14.56 33.07,-27.06 49.61,-33.31 42.75,-16.16 110.7,1.27 155.01,7.22 20.48,2.73 44.24,9.56 69.1,18.96 10.1,-3.02 20.11,-6.39 30.01,-10.13 72.76,-27.45 139.14,-74.02 216.06,-85.18 6.7,-0.94 13.79,-1.56 20.06,1.07 7.46,3.12 12.35,10.41 16.61,17.35 15.98,26.09 30.01,53.42 41.86,81.74 -47.92,33.73 -97.85,64.58 -149.41,92.42l3.06 2.42c57.53,46 97.03,117.09 92.45,189.92 -2.31,36.23 -15.04,70.97 -27.58,105.06 -103.3,280.36 -181.71,548.09 -303.74,814.98 -2.58,14.61 -5.72,29.14 -9.67,43.57 -22,79.03 -66.56,150.99 -82.67,231.41 -17.81,89.02 21.37,255.87 -38.86,323.75 -13.63,15.38 -32.23,21.62 -53.42,22.59 0.11,132.54 -13.62,268.62 -56.65,393.67 -59.37,173.01 -130.76,319.61 -177.52,496.51 -18.73,71.14 -71.82,135.39 -74.47,208.91 -10.59,294.97 -66.11,602.99 -52.96,897.85 10.6,236.24 28.46,329.26 3.76,564.31 8.59,-0.75 17.18,-2.01 25.84,-2.56l7.69 1.12 3.84 7.91c5.95,30.33 8.21,61.3 6.77,92.12 -21.63,7.36 -49,13.24 -79.18,17.93 2.36,52.93 3.25,105.89 2.63,158.9l0.5 -0.05c7.29,-0.89 14.87,-1.64 22.02,0.5 17.55,5.33 25.19,25.56 29.33,43.44 11.12,47.13 15.34,95.42 17.22,143.88 0.85,22.04 1.23,44.1 1.54,66.12l0.11 7.94 -2.45 15.35 -14.11 10.71c-18.74,7.96 -118.16,2.39 -138.39,5.09 -54.78,7.33 -109.58,14.67 -164.41,21.32 -59.31,7.14 -202.59,21.11 -251.81,-24.02l-0.79 -0.75c-12.79,-12.12 -19.16,-27.71 -20.34,-43.89 -2.68,-36.81 21.55,-76.6 58.25,-85.18 42,-9.84 138.84,-1.74 178.2,-19.42 30.22,-13.54 52.84,-42.62 58.74,-75.16 3.07,-17.35 2.87,-37.86 16.66,-48.82 6.52,-5.14 14.98,-6.97 23.08,-8.6 7.33,-1.46 17.98,-2.52 30.58,-3.29l-10.84 -61.83c-3.69,-21.25 -7.53,-42.56 -11.23,-63.88 -1.17,-7 -2.98,-15.3 -2.18,-22.72 -29.18,1.23 -55.97,1.87 -77.79,2.17l-12.22 -3.26 -3.58 -8.97c-2.57,-15.85 -3.57,-31.89 -5.77,-47.88 -1.24,-9.72 -12.9,-36.85 -8.39,-45.06 3.38,-6.35 17.98,-7.16 29.96,-7.59 -4.46,-20.31 -7.21,-41.26 -9.65,-61.87 -91.96,-783.77 -156.21,-1426.19 -206.23,-2213.72 -8.95,-140.52 -17.48,-281.25 -17.55,-422.14 0,-26.39 -1.46,-54.23 -0.93,-81.33 -19.79,43.08 -36.83,78.38 -49.78,101.76 -9.08,16.42 -19.55,33.65 -37.17,41.98 -13.1,6.2 -27.59,6.46 -42.16,3.96 -10.48,78.38 -23.06,156.51 -37.87,234.29 -20.82,109.7 -45.95,218.71 -75.23,326.77 -8.14,29.91 -16.74,60.04 -32.46,87.37 -19.12,33.22 -48.01,60.87 -76.48,88 -227.46,216.77 -455.85,432.76 -685.07,647.94 -11.52,10.84 -23.83,22.07 -39.78,26.27 -1.78,0.46 -3.6,0.79 -5.45,1 -26.9,34.31 -91.74,106.05 -112.87,131.38 -5.33,6.45 -10.84,12.92 -13.95,20.69 -3.14,7.78 -19.99,23.13 -15.3,30.02 4.32,6.45 8.18,8.28 15.3,11.46 33.79,15.09 64.13,38.02 87.83,66.43 4.45,-1.21 8.93,-2.26 13.47,-3.05 31.46,-5.51 68.3,4.64 83.49,32.73 7.71,14.29 8.93,31.33 6.77,47.39 -3.84,28.27 -17.5,54.53 -34.93,77.02 -9.23,11.98 -19.92,23.19 -33.11,30.6 -25.58,14.28 -57.97,11.78 -84.91,0.05 -26.86,-11.65 -49.34,-31.47 -70.59,-51.7 -57.71,-54.91 -127.25,-128.45 -174.22,-192.82 -5.59,-7.77 -35.42,-44.24 -37.91,-53.52 -7.3,-27.08 21.96,-63.82 47.01,-41.68 7.21,6.37 17.09,16.47 28.1,28.25 11.54,-15.07 24.93,-28.74 38.05,-42.55 15.07,-15.85 29.8,-32.09 44.19,-48.64 12.79,-14.72 25.36,-29.7 37.51,-44.95 4.81,-5.94 44.61,-47.71 62.38,-67.29 -3.52,-5.26 -5.89,-10.92 -5.74,-17.07 0.2,-7.09 3.79,-13.66 7.39,-19.99 70.47,-123.29 161.35,-237 268.73,-336.17 76.58,-70.64 126.91,-136.76 180.11,-223.2 29.1,-47.38 76.28,-92.46 90.26,-145.18 5.85,-21.96 11.18,-43.96 16.04,-65.98 -17.05,17.74 -34.24,35.36 -51.4,52.96 -15.79,16.17 -32.09,32.78 -52.77,41.98 -17.87,7.96 -37.79,9.85 -57.3,10.79 -205.97,9.59 -402.53,-78.16 -589.97,-164.11 -41.57,-19.04 -84.84,-39.48 -112.45,-75.95 -3,-3.97 -5.36,-8.09 -7.16,-12.32 -54.45,-16.91 -124.99,-71.72 -175.67,-96.37 -15.96,-7.78 -33.42,-15.62 -50.89,-12.23 -23.29,4.45 -38.16,27.08 -48.59,48.46 -10.09,20.68 -18.66,42.18 -29.85,62.29 -6,10.77 -12.84,21.22 -20.85,30.58 3.69,9.86 6.04,20.05 6.01,30.67 -0.03,17.98 -7.07,35.29 -16.58,50.51 -11.37,18.37 -27.04,34.86 -47.13,42.63 -16.28,6.39 -34.23,6.64 -51.71,6.77 -19.9,0.19 -40.23,0.32 -59.27,-5.64 -13.08,-4.01 -25.2,-10.9 -36.25,-19.06 -42.59,-31.47 -69.28,-87.31 -56.48,-138.64 4.21,-17.11 12.49,-32.98 21.37,-48.21 39.48,-67.52 93.02,-126.06 151.99,-177.52 30.79,-26.88 88.02,-89 124.25,-107.99 16.17,-8.46 33.6,-15.8 51.92,-15.87 12.52,-0.05 43.4,7.02 41.54,24.08 -0.74,6.98 -30.87,44.19 -42.17,57.56 7.4,0.69 14.72,2.56 21.93,4.63 74.48,21.55 141.08,63.73 206.52,105.36 15.64,9.95 50.75,24.78 73.42,36.47 23.77,-12.37 45.69,-8.33 80.02,1.7 84.75,24.82 169.47,49.59 254.12,74.41 37.7,11.01 76.88,22.17 115.74,16.29 50.14,-7.59 92.62,-43.25 120.16,-85.87 27.56,-42.63 42.29,-92.02 56.45,-140.79 33.45,-115.66 64.93,-231.89 94.42,-348.61 -11.65,-7.29 -22.3,-15.74 -31.33,-25.91 -53.67,-60.8 53.52,-523.88 82.8,-597.73 34.59,-87.33 106.78,-220.29 168.04,-309.01 -19.92,-18.98 -31.12,-46.89 -29.59,-74.4 0.32,-6.22 1.31,-12.47 3.84,-18.18l9.96 -14.1c18.61,-18.94 48.32,-26.14 73.53,-17.81 8.83,2.88 18.3,7.47 26.81,3.82l12.22 -7.46c7.47,-2.63 15.5,1.88 22.02,6.52l4.36 3.15c35.88,-23.89 73.8,-46.37 107.4,-71.8 -0.94,-2.9 -1.75,-5.84 -2.45,-8.76 -7.89,-33.46 -12.28,-62.99 13.48,-88.26 24.31,-23.81 58.97,-37.54 93.07,-35.41 5.07,0.31 10.23,1.02 15.14,2.35 34.33,-47.42 64.31,-97.5 90.43,-149.47 -49.44,18.48 -104.61,26.66 -157.34,30.8 -49.9,3.94 -101.3,5.38 -148.54,-11.11 -47.27,-16.36 -90.02,-54.16 -99.04,-103.36 -2.65,-14.3 -2.33,-29.45 3.69,-42.69 5.01,-11.04 13.6,-19.92 22.12,-28.57 47.71,-48.21 98.85,-95.59 127.88,-156.89 29.01,-61.37 30.08,-141.79 -17.18,-190.44 -20.19,-20.68 -47.83,-34.66 -61.99,-59.86 -16.67,-29.76 -9.47,-68.39 9.15,-96.96 18.69,-28.64 46.89,-49.39 74.59,-69.26 46.26,-33.3 93.08,-66.2 134.2,-105.63 24.69,-23.63 49.02,-56.54 38.86,-89.19 -3.45,-10.97 -10.52,-20.49 -13.97,-31.4 -7.46,-23.51 2.95,-49.34 18.55,-68.26 15.67,-19 36.18,-33.23 53.91,-50.39 96.34,-93.21 100.35,-262.52 213.05,-335.23 68.2,-43.99 156.45,-38.11 236.56,-25.07 200.76,32.78 297.3,151.81 369.31,333.97zm768.92 756.8c8.27,-4.44 17.93,-8.39 27.01,-5.83 7.59,2.21 13.34,8.6 20.88,10.86 16.49,4.94 32.41,-11.03 49.57,-10.73 20.88,0.44 33.03,23.2 40.69,42.62 5.2,13.36 10.52,27.97 6.52,41.76 -5.46,18.74 -25.46,28.44 -43.44,35.98 -36.73,15.3 -74.27,30.58 -113.97,34.09 -11.78,1.07 -24.43,0.82 -34.39,-5.58 -73.35,-46.88 -4.84,-115.27 47.13,-143.17zm-819.29 399.11c-27.65,-9.42 -55.28,-18.85 -82.91,-28.33 -10.68,67.63 -25.89,135.08 -42.53,201.96 14.24,-8.01 28.31,-16.39 42.25,-24.83l5.88 -3.56c5.21,-10.3 10.46,-20.59 15.74,-30.86 19.66,-38.32 39.75,-76.85 61.57,-114.38zm287.08 4838.26l-4.71 0c-4.18,0 -6.79,0 -8.88,0 -204.38,-3.88 -408.23,-7.61 -612.08,-11.42 -101.93,-1.9 -203.86,-3.8 -305.78,-5.63 -0.52,0 -1.57,0 -2.09,0 -12.54,0 -30.3,1.83 -49.63,3.8l-0.03 0 -0.23 0.03 -0.06 0 -1.92 0.21 0 0.01 -0.12 0 -0.01 0.01 -0.12 0.01 -0.01 0 -0.11 0.01 -0.03 0 -0.1 0.01 -0.03 0 -0.09 0.02 -0.04 0 -0.09 0.01 -0.04 0 -0.09 0.01 -1.09 0.11c-1.05,0.07 -1.57,0.15 -2.61,0.22l-0.03 0.01m-5.05 0.49l-0.15 0.01c-0.52,0.08 -1.57,0.15 -2.09,0.22l-1.25 0.09 -0.09 0 -0.05 0.01 -0.09 0 -0.06 0.01 -0.08 0 -0.06 0.01 -0.07 0 -0.08 0.01 -0.04 0 -0.11 0.01 -0.01 0 -0.1 0.01 -0.04 0.01 -0.06 0 -0.09 0.01c-1.99,0.2 -3.53,0.27 -5.56,0.42l-3.01 0.27 3.11 -0.26 -3.11 0.26 -0.06 0 -0.56 0.05 -0.06 0 -0.56 0.05 -0.06 0 -0.57 0.05 -0.04 0 -0.58 0.05 -0.04 0 -0.59 0.04 -0.03 0.01 -0.59 0.04 -0.03 0 -0.6 0.05 -0.02 0 -0.6 0.04 -0.02 0.01 -0.61 0.04 -0.01 0 -0.61 0.04 -0.01 0.01 -0.62 0.03 0 0.01 -0.63 0.04 -0.62 0.04 0 0.01c-9.52,0.67 -19.17,1.02 -28.6,1.02l-2.01 -0.01m-15.84 -0.53c-26.86,-1.75 -50.4,-8.06 -63.34,-23.76l0 -0.01 0 0.01c12.8,15.73 36.41,22.04 63.38,23.76l0.23 0.01 -0.27 -0.01zm-65.04 -25.99c-1.24,-1.72 -2.35,-3.53 -3.35,-5.46l-1.13 -2.47 -0.01 -0.01 -0.15 -0.34 -0.01 -0.01 -0.15 -0.34 0 -0.01 -0.15 -0.35 -0.15 -0.35m-0.28 -0.7c-2.38,-5.93 -3.72,-11.59 -3.72,-16.94l0 -2.63c1.41,-39.95 63.48,-63.94 132.49,-78.64m590.65 -57.87c115.75,-6.1 231.81,-9.16 347.87,-9.16 43.9,0 87.81,0.44 132.24,1.32 124.4,2.49 248.8,9.22 373.21,17.57 23,1.61 45.99,3.14 68.99,4.75 2.62,0.3 5.75,0.37 8.89,0.37 6.79,0 14.63,-0.37 23,-0.73 7.84,-0.29 16.72,-0.59 25.09,-0.59 27.18,0 53.84,3.08 66.9,18.45l0 0c12.55,14.49 18.3,27.67 18.3,39.75 -0.09,2.8 -0.46,5.52 -1.1,8.2l-0.01 0 -0.17 0.72 0 0.01 -0.19 0.72 -0.01 0 -0.2 0.72 -0.01 0 -0.21 0.72 -0.01 0 -0.22 0.72 -0.01 0 -0.24 0.71 -0.01 0 -0.25 0.71 -0.01 0c-0.63,1.65 -1.35,3.28 -2.2,4.89 0.85,-1.6 1.57,-3.24 2.2,-4.89 -0.62,1.66 -1.35,3.28 -2.2,4.89l-0.01 0 -0.36 0.69 -0.01 0 -0.38 0.68 -0.4 0.69 -0.4 0.67 -0.01 0.01 -0.41 0.67 -0.01 0 -0.43 0.67 -0.01 0.01c-4.86,7.39 -12.06,14.24 -21.47,20.68 -1.05,0.73 -2.09,1.39 -3.14,2.12 -118.13,76.13 -528.97,85.14 -618.87,85.28l0 0m-1046.95 -9.38l-1.5 -0.01 -0.28 -0.01 -1.49 -0.01 -0.29 -0.01 -1.48 -0.03 -0.28 -0.01 -1.49 -0.04 -0.28 -0.01 -1.47 -0.04 -0.28 -0.01 -1.47 -0.06 -0.28 -0.01 -1.46 -0.07 -0.28 -0.01 -1.46 -0.08 -0.27 -0.01 -1.45 -0.1m-0.27 -0.01c-26.93,-1.71 -50.54,-8.02 -63.34,-23.76m0 -0.01l-0.8 -1.01 0.8 1.01zm-0.8 -1.01l-0.01 -0.01 0.01 0.01zm-0.01 -0.01l-0.77 -1.03 0.77 1.03zm-0.77 -1.03l-0.01 -0.02 0.01 0.02zm-0.01 -0.02l-0.11 -0.15 0.11 0.15zm-5.49 -10.19c-2.86,-6.95 -4.13,-13.47 -3.91,-19.6l0 2.7c0.17,5.46 1.47,11.18 4.04,17.25l0.01 0m133.42 33.9l0.09 -0.01 0.06 0 0.04 -0.01 0.1 -0.01 0.01 0 0.11 -0.01 0.04 0 0.08 -0.01 0.07 0 0.06 -0.01 0.08 0 0.06 -0.01 0.09 0 0.05 -0.01 0.09 0m3.29 -0.29l0.2 -0.03 -0.2 0.03zm8.98 -0.86l0.09 -0.01 0.04 0 0.09 -0.01 0.04 0 0.09 -0.02 0.03 0 0.1 -0.01 0.03 0 0.11 -0.01 0.01 0 0.12 -0.01 0.01 -0.01 0.12 0 0 -0.01 1.92 -0.21 0.06 0 0.23 -0.03 0.03 0m1626.65 -94.83l0.01 -0.01 0.43 -0.67 0.01 0 0.41 -0.67 0.01 -0.01 0.4 -0.67 0.4 -0.69 0.38 -0.68 0.01 0 0.36 -0.69 0.01 0m2.2 -4.89l0.01 0 0.25 -0.71 0.01 0 0.24 -0.71 0.01 0 0.22 -0.72 0.01 0 0.21 -0.72 0.01 0 0.2 -0.72 0.01 0 0.19 -0.72 0 -0.01 0.17 -0.72 0.01 0"/>
   <g>
    <path class="fil1" d="M5194.63 7168.82c-0.82,0 -1.63,0 -2.38,0l4.89 0c-0.89,0 -1.71,0 -2.51,0zm-1042.71 -9.4c-38.11,0 -73.08,-6.57 -85.87,-31.96 -4.39,-8.66 -6.27,-16.74 -6.02,-24.2l0 2.7c0.19,6.71 2.13,13.86 6.02,21.5 12.79,25.39 47.76,31.96 85.94,31.96 13.22,0 26.82,-0.74 40.05,-1.88 -13.23,1.14 -26.83,1.88 -40.12,1.88zm45.58 -2.31c0.81,-0.07 1.56,-0.12 2.31,-0.19 -0.75,0.07 -1.5,0.12 -2.31,0.19zm4.32 -0.37c1.75,-0.2 3.51,-0.32 5.25,-0.52 -1.74,0.2 -3.5,0.32 -5.25,0.52zm7.9 -0.77c1.37,-0.12 2.81,-0.24 4.2,-0.42 -1.39,0.18 -2.83,0.3 -4.2,0.42zm1609.28 -74.58c18.17,-12.41 28.57,-26.64 28.71,-42.88 -0.14,16.24 -10.54,30.47 -28.71,42.88zm-1429.95 -81.99c3.63,-0.44 7.32,-0.87 11.04,-1.26 -3.72,0.39 -7.41,0.82 -11.04,1.26zm31.59 -3.51c0.13,0 0.31,-0.06 0.43,-0.06 -0.12,0 -0.3,0.06 -0.43,0.06zm3.82 -0.43c0.82,-0.07 1.69,-0.2 2.51,-0.25 -0.82,0.05 -1.69,0.18 -2.51,0.25zm4.64 -0.52c1.25,-0.12 2.51,-0.24 3.77,-0.37 -1.26,0.13 -2.52,0.25 -3.77,0.37zm5.46 -0.55c1.36,-0.12 2.82,-0.32 4.19,-0.44 -1.37,0.12 -2.83,0.32 -4.19,0.44zm6.82 -0.69c1.07,-0.12 2.2,-0.25 3.27,-0.37 -1.07,0.12 -2.2,0.25 -3.27,0.37zm4.14 -0.44c33.15,-3.45 66.33,-6.65 99.48,-9.6 -33.15,2.95 -66.33,6.15 -99.48,9.6zm99.54 -9.65c15.74,-1.39 31.46,-2.7 47.2,-4.02 -15.74,1.32 -31.46,2.63 -47.2,4.02zm49.51 -4.19c1.19,-0.08 2.39,-0.2 3.58,-0.27 -1.19,0.07 -2.39,0.19 -3.58,0.27zm13.67 -1.07c0.57,-0.07 1.14,-0.13 1.7,-0.13 -0.56,0 -1.13,0.06 -1.7,0.13z"/>
    <g style="clip-path:url(#id0)">
     <image x="4034.08" y="6928.63" width="1844.08" height="258.25" xlink:href="3.svg_Images\3.svg_ImgID1.png"/>
    </g>
    <path class="fil2" d="M4474.61 2559.31c66.06,7.22 133.82,10.22 198,-6.89 55.17,-14.66 105.36,-43.5 154.21,-73.08 120.02,-72.53 236.36,-151.01 351.82,-230.54 33.53,-23.08 69.46,-47.14 110.07,-48.84 39.36,-1.57 77.1,18.74 105.05,46.46 27.89,27.75 47.7,62.49 66.95,96.84 21.12,37.54 42.87,79.97 32.16,121.65 -9.1,35.43 -39.5,60.87 -69.46,81.75 -215.31,149.68 -485.28,188.98 -738.33,257.87 -28.07,7.71 -56.84,15.85 -85.87,13.22 -19.49,-1.76 -38.29,-8.39 -56.78,-14.98 -152.75,-54.6 -303.82,-113.77 -452.94,-177.38 -5.76,-2.52 -11.96,-5.28 -15.55,-10.53 -13.34,-19.87 21.25,-83.94 36.55,-99.36 24.2,-24.26 57.73,-10.97 87.13,-4.57 91.38,19.94 183.78,39.3 276.99,48.38z"/>
    <path class="fil3" d="M2882.6 5396.14c-16.9,17.8 -34.27,35.35 -47.51,55.98 -4.41,6.9 -8.39,14.48 -8.49,22.69 -0.2,13.35 9.77,24.38 19.1,33.85 45.52,46.5 107.87,106.43 156.14,150.05 13.15,11.92 26.94,23.83 43.75,29.58 22.79,7.84 32.03,8.9 54.19,-0.67 11.64,-5.03 19.1,-12.99 25.9,-23.7 4.34,-6.9 6.42,-15.11 6.99,-23.26 1.76,-26.01 -11.66,-50.84 -27.99,-71.2 -24.16,-30.28 -55.75,-54.67 -91.13,-70.47 -7.12,-3.18 -10.98,-5.01 -15.3,-11.46 -4.69,-6.89 12.16,-22.24 15.3,-30.02 3.11,-7.77 8.62,-14.24 13.95,-20.69 23.06,-27.64 98.18,-110.57 119.24,-139.78 3.61,-5.01 7.36,-10.78 6.17,-16.86l-8.73 -11.78c-13.06,-11.4 -43,-36.3 -57.67,-45.7 -9.86,-6.32 -28.77,-20.36 -40.48,-11.97l-11.25 15.22c-5.52,7.59 -64.56,69.28 -70.48,76.6 -12.15,15.25 -24.72,30.23 -37.51,44.95 -14.39,16.55 -29.12,32.79 -44.19,48.64z"/>
    <path class="fil4" d="M3979.61 4454.86c-8.14,29.91 -16.74,60.04 -32.46,87.37 -19.12,33.22 -48.01,60.87 -76.48,88 -227.46,216.77 -455.85,432.76 -685.07,647.94 -11.52,10.84 -23.83,22.07 -39.78,26.27 -34.4,8.97 -83.32,-31.03 -107.13,-55.23 -8.77,-8.9 -18.05,-19.04 -17.75,-31.02 0.2,-7.09 3.79,-13.66 7.39,-19.99 70.47,-123.29 161.35,-237 268.73,-336.17 76.58,-70.64 126.91,-136.76 180.11,-223.2 29.1,-47.38 76.28,-92.46 90.26,-145.18 69.26,-259.93 66.11,-524.13 65.05,-791.52 -0.13,-21.13 0.07,-42.63 7.28,-62.76 8.83,-24.82 28.01,-45.75 50.2,-62.29 107.56,-80.24 334.98,-59.56 405.55,59.66 34.35,58.05 11.6,140.35 4.26,201.52 -11.72,97.03 -26.63,193.69 -44.93,289.83 -20.82,109.7 -45.95,218.71 -75.23,326.77z"/>
    <path class="fil3" d="M2536.75 4184.65c-15.96,-7.78 -33.42,-15.62 -50.89,-12.23 -23.29,4.45 -38.16,27.08 -48.59,48.46 -10.09,20.68 -18.66,42.18 -29.85,62.29 -11.21,20.13 -25.41,39.13 -44.51,52.03 -19.1,12.91 -43.59,19.06 -65.67,12.54 -22.1,-6.47 -40.35,-27.27 -40.17,-50.26 0.19,-16.94 9.41,-32.29 18.42,-46.59 39.68,-63.24 79.33,-126.55 122.67,-187.29 16.77,-23.44 37.67,-48.58 66.36,-50.71 10.65,-0.75 21.18,1.83 31.47,4.78 74.48,21.55 141.08,63.73 206.52,105.36 19.1,12.15 67.27,31.59 86.31,43.69l10.11 9.03 2.58 10.76c1.6,24.65 -14.29,72.09 -28.91,92.02 -15.24,20.81 -37.08,9.4 -58.7,2.95 -54.64,-16.36 -126.01,-71.96 -177.15,-96.83z"/>
    <path class="fil4" d="M3979.49 3828.79c-70.45,123.12 -125.55,255.06 -205.28,372.4 -69.33,102.11 -155.95,191.06 -242.14,279.44 -15.79,16.17 -32.09,32.78 -52.77,41.98 -17.87,7.96 -37.79,9.85 -57.3,10.79 -205.97,9.59 -402.53,-78.16 -589.97,-164.11 -41.57,-19.04 -84.84,-39.48 -112.45,-75.95 -27.59,-36.48 -1.63,-85.5 32.14,-116.28 35.08,-31.91 58.76,-29.15 104.23,-15.86 84.75,24.82 169.47,49.59 254.12,74.41 37.7,11.01 76.88,22.17 115.74,16.29 50.14,-7.59 92.62,-43.25 120.16,-85.87 27.56,-42.63 42.29,-92.02 56.45,-140.79 64.83,-224.15 122.26,-450.42 172.15,-678.33 9.28,-42.5 23.56,-91.52 64.06,-107.25 18.55,-7.14 39.1,-5.65 58.91,-3.64 147.74,15.3 293.05,53.34 429.31,112.51 35.61,15.42 84.49,37.99 101.17,75.92 20.88,47.32 -29.53,85.11 -57.6,122.35 -68.27,90.7 -134.52,183.35 -190.93,281.99z"/>
    <path class="fil5" d="M4559.86 6793.62l1.24 3.27 3.39 0.99c22.07,0.37 113.08,8.58 135.2,7.84l10.86 -3.33 3.62 -14.23c0.89,-59.61 -0.12,-119.15 -3,-178.64 -18.68,2.26 -106.38,-3.12 -124.93,0.5 -13.09,2.65 -36.03,2.9 -46.57,13.04 -9.1,8.85 -5.45,23.88 -3.52,35.41 3.7,21.32 7.54,42.63 11.23,63.88 4.2,23.75 8.34,47.51 12.48,71.27z"/>
    <path class="fil5" d="M5287.7 2049.46c35.16,16.74 69.4,27.85 94.4,28.96 29.41,1.32 57.11,-13.34 83.31,-27.64 53.84,-29.39 110.95,-62.05 139.52,-118.96 16.81,-33.3 21.94,-71.59 26.08,-109 10.59,-94.33 16.86,-189.18 18.8,-284.08 1.07,-48.77 0.2,-100.35 -23.76,-141.79 -40.29,-69.7 -128.1,-84.06 -204.77,-91.32 -75.71,-7.14 -155.9,-13.29 -224.09,22.94 -71.32,37.98 -56.66,97.28 -64.18,170.75 -9.47,91.77 -16.36,183.64 -19.56,275.86 -1.81,52.4 -1.88,107.62 22.12,153.25 22.26,42.18 88.82,90.83 152.13,121.03z"/>
    <path class="fil6" d="M4250.96 6939.47c42,-9.84 138.84,-1.74 178.2,-19.42 30.22,-13.54 52.84,-42.62 58.74,-75.16 3.07,-17.35 2.87,-37.86 16.66,-48.82 6.52,-5.14 14.98,-6.97 23.08,-8.6 35.84,-7.14 150.8,-4.37 187.15,-8.51 7.29,-0.89 14.87,-1.64 22.02,0.5 17.55,5.33 25.19,25.56 29.33,43.44 16.79,71.14 17.86,144.91 18.87,217.94l-2.45 15.35 -14.11 10.71c-18.74,7.96 -118.16,2.39 -138.39,5.09 -54.78,7.33 -109.58,14.67 -164.41,21.32 -59.31,7.14 -202.59,21.11 -251.81,-24.02 -43.05,-39.49 -16.04,-117.4 37.12,-129.82z"/>
    <path class="fil7" d="M5094.46 3840.27c-12.65,-38.73 -125.48,-59.54 -155.33,-87.31 -136.83,-127.5 -455.5,-237.95 -639.72,-156.46 -92.64,41 -76.66,143.79 -76.66,230.93 0.07,140.89 8.6,281.62 17.55,422.14 50.02,787.53 114.27,1429.95 206.23,2213.72 2.44,20.61 5.19,41.56 9.65,61.87 -11.98,0.43 -26.58,1.24 -29.96,7.59 -4.51,8.21 7.15,35.34 8.39,45.06 2.2,15.99 3.2,32.03 5.77,47.88l3.58 8.97 12.22 3.26c86.87,-1.19 252.36,-7.72 334.66,-35.74 1.44,-30.82 -0.82,-61.79 -6.77,-92.12l-3.84 -7.91 -7.69 -1.12c-8.66,0.55 -17.25,1.81 -25.84,2.56 24.7,-235.05 6.84,-328.07 -3.76,-564.31 -13.15,-294.86 42.37,-602.88 52.96,-897.85 2.65,-73.52 55.74,-137.77 74.47,-208.91 46.76,-176.9 118.15,-323.5 177.52,-496.51 44.19,-128.42 57.48,-268.45 56.61,-404.36 -0.2,-30.77 -0.52,-62.11 -10.04,-91.38z"/>
    <path class="fil8" d="M5528.03 2211.06c-57.55,-46.14 -173.63,-108.81 -247.35,-118.65 -44.31,-5.95 -112.26,-23.38 -155.01,-7.22 -38.68,14.61 -79.67,63.38 -106.62,92.84 -72.01,78.48 -122.6,173.31 -170.61,266.89 -24.82,48.26 -48.77,96.84 -72.9,145.42 -33.15,43.38 -61.55,126.56 -82.25,164.6 -68.31,125.69 -136.63,251.36 -204.95,377.1 -39.05,71.82 -78.36,144.03 -129.01,208.28 -59.47,75.48 -138.45,150 -137.58,246.08 0.82,98.62 89.69,176.28 182.97,208.42 93.27,32.16 243.89,42.57 339.85,65.51 66.76,15.92 131,42.8 199.07,51.58 68.09,8.78 168.82,59.17 214.32,7.84 60.23,-67.88 21.05,-234.73 38.86,-323.75 16.11,-80.42 60.67,-152.38 82.67,-231.41 3.95,-14.43 7.09,-28.96 9.67,-43.57 122.03,-266.89 200.44,-534.62 303.74,-814.98 12.54,-34.09 25.27,-68.83 27.58,-105.06 4.58,-72.83 -34.92,-143.92 -92.45,-189.92z"/>
    <path class="fil3" d="M4394.44 1534.85c32.03,54.28 75.33,105.37 135.07,139.34 59.68,33.99 137.65,48.72 205.73,28.71 66.12,-19.42 115.09,-68.89 141.35,-123.34 26.31,-54.55 32.78,-114.22 36.28,-173.01 5.2,-88.89 3.96,-179.78 -29.34,-264.26 -33.2,-84.51 -102.73,-162.67 -201.13,-195.82 -402.73,-135.64 -392.01,412.12 -287.96,588.38z"/>
    <path class="fil9" d="M4827.62 1959.97c-5.95,-29.98 -14.41,-60.63 -34.65,-84.51 -19.44,-22.94 -47.95,-37.42 -76.22,-49.94 -74.59,-33.05 -153.94,-56.86 -235.25,-70.6l-117.71 -3.44c-56.54,22.56 -72.21,88.77 -83.05,145.23 -42.63,221.96 -128.07,441.84 -284.96,613.4 -70.82,77.47 -193.74,119.35 -256.73,202.4 -65.01,85.69 -151.76,242.07 -190.74,340.48 -29.28,73.85 -136.47,536.93 -82.8,597.73 26.6,29.96 67.31,45.13 106.24,59.05 83.61,29.95 167.18,59.93 250.79,89.88 77.72,27.83 155.44,55.72 233.17,83.55 25.57,9.15 54.78,18.18 79.16,6.64 17.62,-8.33 28.09,-25.56 37.17,-41.98 76.59,-138.34 296.24,-692.13 382.61,-825.32 41.61,-64.25 90.71,-124.5 125.87,-191.95 38.23,-73.08 59.09,-152.87 79.79,-231.85 54.71,-209.54 109.76,-426.73 67.31,-638.77z"/>
    <path class="fil10" d="M2362.5 4150.11c-9.03,12.4 -18,25.37 -21.37,40.3 -6.06,27.02 7.21,54.22 21.42,77.98 14.11,23.68 30.1,48.38 30.03,76.03 -0.03,17.98 -7.07,35.29 -16.58,50.51 -11.37,18.37 -27.04,34.86 -47.13,42.63 -16.28,6.39 -34.23,6.64 -51.71,6.77 -19.9,0.19 -40.23,0.32 -59.27,-5.64 -13.08,-4.01 -25.2,-10.9 -36.25,-19.06 -42.59,-31.47 -69.28,-87.31 -56.48,-138.64 4.21,-17.11 12.49,-32.98 21.37,-48.21 39.48,-67.52 93.02,-126.06 151.99,-177.52 30.79,-26.88 88.02,-89 124.25,-107.99 16.17,-8.46 33.6,-15.8 51.92,-15.87 12.52,-0.05 43.4,7.02 41.54,24.08 -0.85,8.03 -40.62,56.09 -45.83,61.8 -7.64,8.4 -15.19,16.8 -22.6,25.39 -30.04,34.47 -58.52,70.39 -85.3,107.44z"/>
    <path class="fil10" d="M2769.44 5452.12c2.49,9.28 32.32,45.75 37.91,53.52 46.97,64.37 116.51,137.91 174.22,192.82 21.25,20.23 43.73,40.05 70.59,51.7 26.94,11.73 59.33,14.23 84.91,-0.05 13.19,-7.41 23.88,-18.62 33.11,-30.6 17.43,-22.49 31.09,-48.75 34.93,-77.02 2.16,-16.06 0.94,-33.1 -6.77,-47.39 -15.19,-28.09 -52.03,-38.24 -83.49,-32.73 -29.2,5.08 -56.27,20.88 -85.88,21.82 -40.15,1.19 -75.97,-25.14 -103.09,-54.8 -23.25,-25.37 -83.56,-96.08 -109.43,-118.95 -25.05,-22.14 -54.31,14.6 -47.01,41.68z"/>
    <path class="fil2" d="M4586.17 2732.57c32.11,-1.76 64.64,-3.77 95.09,-13.99 42.7,-14.28 78.36,-43.69 112.95,-72.45 127.19,-105.94 254.42,-211.92 381.61,-317.8 30.84,-25.62 62.11,-51.58 98.54,-68.25 36.42,-16.61 79.29,-23.13 116.64,-8.65 30.28,11.66 53.98,35.73 73.47,61.67 33.21,44.19 57.23,99.98 46.2,154.14 -12.92,63.31 -68.76,107.44 -121.48,144.79 -165.86,117.46 -338.8,224.84 -517.56,321.49 -25.57,13.86 -51.58,27.58 -79.8,35.11 -32.58,8.71 -66.87,8.78 -100.65,8.64 -81.88,-0.38 -163.98,-1.44 -244.72,-14.61 -75.9,-12.4 -149.75,-35.29 -225.78,-46.69 -110.88,-16.67 -233.29,-11.46 -322.36,-79.73 -4.83,-3.69 -9.72,-7.9 -11.85,-13.61 -2.75,-7.39 -0.25,-15.6 2.38,-23.06 9.4,-26.88 27.45,-105.56 59.36,-110.75 18.62,-3.07 51.83,13.72 70.58,18.11 25.81,6.02 51.84,11.03 77.98,15.23 102.86,16.48 207.41,19.75 311.45,17.75 59.42,-1.14 118.73,-4.02 177.95,-7.34z"/>
    <path class="fil5" d="M3863.59 2750.69c-3.26,9.7 -5.89,20.36 -13.35,27.51 -13.36,12.84 -35.04,8.65 -52.91,3.64 -28.45,-8.03 -58.03,-16.74 -79.85,-36.8 -20.63,-18.99 -32.28,-47.44 -30.72,-75.46 0.32,-6.22 1.31,-12.47 3.84,-18.18l9.96 -14.1c18.61,-18.94 48.32,-26.14 73.53,-17.81 8.83,2.88 18.3,7.47 26.81,3.82l12.22 -7.46c7.47,-2.63 15.5,1.88 22.02,6.52 17.66,12.72 50.39,36.05 55.84,58.55 5.71,23.13 -20.13,48.13 -27.39,69.77z"/>
    <path class="fil5" d="M3944.45 2544.96c3.76,15.74 10.71,32.03 24.69,40.19 12.73,7.44 29.02,6.39 42.56,0.49 13.54,-5.89 24.64,-16.16 34.86,-26.82 21,-22 39.73,-47.59 46.76,-77.17 3.88,-16.61 3.26,-36.1 -8.9,-48.06 -8.6,-8.53 -21.25,-11.55 -33.42,-12.3 -34.1,-2.13 -68.76,11.6 -93.07,35.41 -25.76,25.27 -21.37,54.8 -13.48,88.26z"/>
    <path class="fil11" d="M4478.37 1866.38c89.07,-4.58 169.24,49.01 244.77,96.39 98.28,61.62 202.08,116.85 314.21,146.62 112.2,29.78 233.93,32.84 342.44,-8.15 72.76,-27.45 139.14,-74.02 216.06,-85.18 6.7,-0.94 13.79,-1.56 20.06,1.07 7.46,3.12 12.35,10.41 16.61,17.35 15.98,26.09 30.01,53.42 41.86,81.74 -160.14,112.7 -342.62,193.44 -533.73,236.06 -37.59,8.41 -76.15,15.35 -114.46,11.16 -28.69,-3.2 -56.41,-12.6 -83.79,-21.87 -87.44,-29.78 -174.82,-59.56 -261.88,-90.26 -64.7,-22.82 -129.64,-46.32 -189.12,-80.49 -32.27,-18.55 -62.74,-40.18 -91.01,-64.5 -26.83,-23.13 -52.65,-50.58 -60.98,-85.05 -17.38,-72.16 72.95,-151.51 138.96,-154.89z"/>
    <path class="fil3" d="M5729.3 1931.43c8.27,-4.44 17.93,-8.39 27.01,-5.83 7.59,2.21 13.34,8.6 20.88,10.86 16.49,4.94 32.41,-11.03 49.57,-10.73 20.88,0.44 33.03,23.2 40.69,42.62 5.2,13.36 10.52,27.97 6.52,41.76 -5.46,18.74 -25.46,28.44 -43.44,35.98 -36.73,15.3 -74.27,30.58 -113.97,34.09 -11.78,1.07 -24.43,0.82 -34.39,-5.58 -73.35,-46.88 -4.84,-115.27 47.13,-143.17z"/>
    <path class="fil12" d="M4960.38 1174.63c4.34,10.9 8.6,23.31 3.52,33.84 -9.35,19 -37.24,13.99 -57.61,19.81 -14.16,4.07 -26.13,14.54 -40.74,16.49 -28.96,3.82 -50.21,-26.4 -60.67,-53.66 -10.47,-27.27 -21.06,-59.41 -48.58,-69.38 26.51,32.84 42.05,74.34 43.81,116.52 -38.36,17.29 -87.75,33.16 -118.72,4.64 -27.13,-24.95 -27.65,-75.41 -61.99,-88.7 1.44,42.18 6.46,84.24 14.97,125.62 -36.65,4.27 -73.32,8.46 -110,12.72 -7.58,0.87 -15.67,2.01 -21.5,6.9 -9.08,7.58 -9.47,21.18 -8.7,33.03 3.13,47.26 13.79,94.03 31.34,138.02 1.37,-19.42 -25.34,-32.34 -42,-22.25 -16.74,10.02 -20.56,34.42 -11.85,51.9 8.72,17.43 26.83,28.52 45.45,34.35 14.9,4.71 31.77,7.14 42.67,18.42 15.8,16.24 12.18,42.26 13.17,64.82 2.75,61.18 46.52,112.45 93.26,152.01 46.72,39.55 99.74,73.96 133.28,125.17 20.24,30.97 27.2,81.54 -6.15,97.65 -30.09,14.48 -62.81,-13.41 -83.06,-39.99 -25.5,-33.46 -48.58,-69.14 -78.66,-98.53 -30.15,-29.4 -69.06,-52.54 -111.19,-53.16 -55.92,-0.81 -106.06,38.61 -134.89,86.57 -28.9,47.95 -40.68,103.87 -54.04,158.2 -13.34,54.35 -29.46,109.95 -64.74,153.39 -62.37,76.46 -169.19,98.22 -267.53,105.94 -49.9,3.94 -101.3,5.38 -148.54,-11.11 -47.27,-16.36 -90.02,-54.16 -99.04,-103.36 -2.65,-14.3 -2.33,-29.45 3.69,-42.69 5.01,-11.04 13.6,-19.92 22.12,-28.57 47.71,-48.21 98.85,-95.59 127.88,-156.89 29.01,-61.37 30.08,-141.79 -17.18,-190.44 -20.19,-20.68 -47.83,-34.66 -61.99,-59.86 -16.67,-29.76 -9.47,-68.39 9.15,-96.96 18.69,-28.64 46.89,-49.39 74.59,-69.26 46.26,-33.3 93.08,-66.2 134.2,-105.63 24.69,-23.63 49.02,-56.54 38.86,-89.19 -3.45,-10.97 -10.52,-20.49 -13.97,-31.4 -7.46,-23.51 2.95,-49.34 18.55,-68.26 15.67,-19 36.18,-33.23 53.91,-50.39 96.34,-93.21 100.35,-262.52 213.05,-335.23 68.2,-43.99 156.45,-38.11 236.56,-25.07 200.76,32.78 297.3,151.81 369.31,333.97z"/>
    <path class="fil13" d="M5869.51 1297.49c-5.76,-32.73 -13.04,-66.38 -32.91,-92.96 -20.87,-27.97 -53.02,-44.76 -84.06,-60.63 -23.43,-11.95 -47.06,-24.05 -72.51,-30.7 -25.71,-6.77 -52.54,-7.83 -79.1,-6.89 -54.92,1.88 -109.5,12.22 -161.35,30.52 -37.67,13.29 -73.9,30.71 -112.63,40.37 -9.1,2.31 -18.37,3.87 -27.72,5.07 -31.32,-13.28 -62.67,-26.51 -94.9,-36.29 -36.78,-11.16 -77.52,-17.6 -112.75,-2.45 -26.71,11.48 -47.02,34.04 -63.38,58.12 -27.95,41.24 -47,91.26 -39.55,140.53 7.28,48.45 39.67,90.51 79.92,118.53 40.19,28.02 87.7,43.49 135.34,55.02 37.04,8.9 74.52,15.62 112.33,20.13 68.31,8.14 137.5,9.08 206.09,2.69 11.46,-1.12 28.96,-7.27 36.79,4.26 6.9,10.16 -0.76,27.33 -3.2,37.55 -8.03,33.79 -13.41,68.13 -16.11,102.8 -2.26,29.33 -1.76,61.42 16.36,84.61 2.31,-17.23 5.01,-35.34 15.55,-49.25 10.52,-13.93 31.59,-21.5 45.88,-11.48 10.16,7.14 13.78,20.63 13.73,33.1 -0.25,39.11 -28.39,71.45 -49.22,104.62 -20.48,32.78 -34.79,69.44 -41.8,107.49 -1.94,10.72 -2.69,23.64 5.7,30.65 8.28,7.02 20.95,4.2 30.65,-0.62 24.89,-12.42 43.07,-34.86 60.37,-56.61 52.46,-66 105.99,-133.82 132.25,-213.87 13.98,-42.5 19.88,-87.26 33.97,-129.69 8.66,-25.81 20.26,-50.71 30.72,-75.83 6.03,-3.96 10.84,-9.59 14.98,-15.49 37.62,-54.85 31.97,-127.81 20.56,-193.3z"/>
   </g>
  </g>
 </g>
</svg>
