<?xml version="1.0" encoding="UTF-8"?>
<!DOCTYPE svg PUBLIC "-//W3C//DTD SVG 1.1//EN" "http://www.w3.org/Graphics/SVG/1.1/DTD/svg11.dtd">
<!-- Creator: CorelDRAW 2017 -->
<svg xmlns="http://www.w3.org/2000/svg" xml:space="preserve" width="80mm" height="80mm" version="1.1" style="shape-rendering:geometricPrecision; text-rendering:geometricPrecision; image-rendering:optimizeQuality; fill-rule:evenodd; clip-rule:evenodd"
viewBox="0 0 8000 8000"
 xmlns:xlink="http://www.w3.org/1999/xlink">
 <defs>
  <style type="text/css">
   <![CDATA[
    .str0 {stroke:#FEFEFE;stroke-width:141.11;stroke-linejoin:round;stroke-miterlimit:22.9256}
    .fil7 {fill:#333333;fill-rule:nonzero}
    .fil20 {fill:#3D3D3D;fill-rule:nonzero}
    .fil19 {fill:#4D4D4D;fill-rule:nonzero}
    .fil4 {fill:#537082;fill-rule:nonzero}
    .fil14 {fill:#5E625E;fill-rule:nonzero}
    .fil23 {fill:#63564B;fill-rule:nonzero}
    .fil22 {fill:#736357;fill-rule:nonzero}
    .fil10 {fill:#8C6239;fill-rule:nonzero}
    .fil3 {fill:#97A8B2;fill-rule:nonzero}
    .fil18 {fill:#999999;fill-rule:nonzero}
    .fil9 {fill:#AA4A4D;fill-rule:nonzero}
    .fil13 {fill:#AA6A64;fill-rule:nonzero}
    .fil8 {fill:#BC6269;fill-rule:nonzero}
    .fil5 {fill:#C1C1C1;fill-rule:nonzero}
    .fil21 {fill:#D7C68E;fill-rule:nonzero}
    .fil25 {fill:#E3E3E3;fill-rule:nonzero}
    .fil17 {fill:#E8E8E8;fill-rule:nonzero}
    .fil16 {fill:#EADDD0;fill-rule:nonzero}
    .fil15 {fill:#EBEFEB;fill-rule:nonzero}
    .fil24 {fill:#EDD5BE;fill-rule:nonzero}
    .fil6 {fill:#EFEFEF;fill-rule:nonzero}
    .fil2 {fill:#F9E9DE;fill-rule:nonzero}
    .fil12 {fill:white;fill-rule:nonzero}
    .fil1 {fill:url(#id2)}
    .fil0 {fill:url(#id3)}
    .fil11 {fill:url(#id4)}
   ]]>
  </style>
     <clipPath id="id0">
      <path d="M5288.27 6743.29l-7.49 0c-50.52,0 -101.66,-0.74 -152.18,-2.4 -78.58,-2.73 -157.17,-8.53 -234.51,-15.49 -39.29,-3.48 -114.13,2.48 -150.93,-10.69 -132.22,-47.71 -8.73,-145.71 73.6,-168.9 110.39,-30.57 228.27,-37.69 347.39,-37.69 46.15,0 92.31,1.08 138.46,2.32 262.58,6.54 525.15,14.99 787.1,25.02 179,6.79 359.25,14.74 530.76,55.58 48.65,11.43 105.41,35.87 101.66,73.89 -3.74,42.58 -76.09,54.75 -132.22,55.75 -358.62,6.62 -717.24,13.25 -1075.87,19.88 -75.46,1.32 -150.93,2.73 -225.77,2.73l0 0z"/>
     </clipPath>
     <clipPath id="id1">
      <path d="M2307.6 6829.67l-4.31 0c-49.94,0 -99.89,-0.63 -149.83,-2.34 -78.3,-2.61 -155.38,-8.46 -232.45,-15.38 -38.84,-3.51 -112.83,2.51 -149.21,-10.62 -131.33,-47.67 -9.25,-145.72 73.37,-168.93 107.29,-30.23 222.59,-37.6 338.5,-37.78l11.1 0c43.78,0 87.56,1.08 130.72,2.16 260.19,6.47 520.38,14.75 779.96,24.64 176.96,6.75 355.77,14.58 525.94,55.33 47.48,11.42 103.59,35.8 99.89,73.94 -3.7,42.55 -75.23,54.69 -130.1,55.77 -37.61,0.72 -73.99,1.44 -110.98,2.16 -16.65,0.27 -33.3,0.54 -50.56,0.9 -301.51,5.75 -603.01,11.51 -904.52,17.27 -75.84,1.44 -151.68,2.88 -227.52,2.88l0 0z"/>
     </clipPath>
  <linearGradient id="id2" gradientUnits="userSpaceOnUse" x1="4689.03" y1="6592.55" x2="6717.34" y2="6692.67">
   <stop offset="0" style="stop-opacity:1; stop-color:black"/>
   <stop offset="1" style="stop-opacity:1; stop-color:black"/>
  </linearGradient>
  <linearGradient id="id3" gradientUnits="userSpaceOnUse" xlink:href="#id2" x1="4689.04" y1="6592.54" x2="6717.35" y2="6692.66">
  </linearGradient>
  <linearGradient id="id4" gradientUnits="userSpaceOnUse" xlink:href="#id2" x1="1718.24" y1="6679.22" x2="3726.73" y2="6778.36">
  </linearGradient>
 </defs>
 <g id="Layer_x0020_1">
  <metadata id="CorelCorpID_0Corel-Layer"/>
  <g id="_2495095751856">
   <path class="fil0 str0" d="M5305.73 6743.25l0.1 0 21.09 -0.09 0 -0.01 3.52 -0.01 0.01 -0.01 3.51 -0.01 0.02 -0.01 3.5 -0.02 0.03 0 3.49 -0.02 0.04 -0.01 3.48 -0.02 0.05 -0.01 3.47 -0.02 0.06 -0.01 3.46 -0.02 0.07 -0.01 3.45 -0.02 0.08 -0.01 3.45 -0.03 0.08 0 3.44 -0.03 0.09 -0.01 3.44 -0.03 0.09 -0.01 3.43 -0.03 0.1 0 3.43 -0.04 0.1 0 3.42 -0.04 0.11 0 3.42 -0.04 0.11 0 3.42 -0.04 0.11 -0.01 3.42 -0.03 0.11 -0.01 3.41 -0.04 0.12 -0.01 3.41 -0.03 0.13 -0.01 3.4 -0.04 0.13 -0.01 3.4 -0.04 0.13 -0.01 3.4 -0.04 0.13 -0.01 3.4 -0.04 0.13 -0.01 3.4 -0.04 0.13 -0.01 3.41 -0.04 0.12 -0.01 3.41 -0.04 0.12 -0.01 3.41 -0.05 0.12 0 3.41 -0.05 0.12 -0.01 3.42 -0.05 0.11 0 3.42 -0.05 0.11 -0.01 3.42 -0.05 0.11 -0.01 3.43 -0.04 0.1 -0.01 3.43 -0.05 0.1 -0.01 3.44 -0.05 0.09 -0.01 3.44 -0.05 0.09 -0.01 3.45 -0.05 0.09 -0.01 3.44 -0.05 0.09 -0.01 3.45 -0.05 0.08 -0.01 3.45 -0.05 0.08 -0.01 3.46 -0.05 0.07 -0.01 45.91 -0.79 336.21 -6.22 0.01 -0.01 -0.01 0.01m0.01 -0.01l16.8 -0.3 -16.8 0.3zm-3448 -5354.53c-30.63,24.77 -71.31,33.49 -106.46,51.33 -35.65,17.82 -68.79,52.42 -62.77,91.54 7.53,48.35 71.3,76.72 70.3,125.68 -0.5,17.23 -9.53,33.24 -11.04,50.36 -2.97,37.83 32.73,67.37 70.82,73.87 -4.08,5.12 -7.73,10.55 -10.57,16.52 -9.04,18.73 -7.53,40.48 -9.04,61.16 -1.51,20.7 -7.03,43.44 -24.1,54.89 -4.52,3.01 -10.55,5.88 -11.56,11.3l3.02 8.84c9.54,13.71 29.12,14.76 45.69,13.81 20.6,-1.21 41.18,-3.38 61.27,-6.54 6.8,-1.03 13.7,-2.26 20.42,-3.97 -2.89,16.25 -7.66,32 -15.4,46.96 107.96,41.22 213.91,87.03 317.86,137.19 119.78,-129.45 210.01,-285.94 262.72,-454.15 0.74,1.75 1.52,3.48 2.4,5.18 8.04,15.47 23.61,27.07 40.18,30.79 0.5,-16.27 0.5,-32.5 0.5,-48.71l3.02 -10.21 14.05 -4.31c4.03,-2.56 5.02,-7.93 5.02,-12.6 0.81,-16.49 1.61,-33.44 -1.66,-49.49 4.51,-1.43 8.93,-3.14 13.22,-5.2 26.11,-12.29 46.69,-41.47 39.16,-69.04 -11.55,-38.96 -65.28,-46.35 -89.38,-79.09 -13.05,-18.08 -15.57,-41.73 -24.11,-62.27 -16.06,-37.11 -51.71,-61.31 -85.36,-83.5 -69.29,-45.55 -142.1,-92.45 -224.95,-99.02 -73.32,-5.88 -149.65,21.85 -207.89,65.53 -52.23,38.96 -33.15,101.43 -85.36,143.15zm542.4 2274.34l6.43 -7.15c-17.26,-12.34 -37.8,-31.76 -60.41,-55.95 -2.13,-58.23 -3.42,-116.48 -3.9,-174.74 126.54,30.23 256.16,51.38 382.67,74.77l12.05 -0.46 7.53 -10.03 1.97 -4.71c23.83,13.22 49.36,23.24 75.71,29.92 -10.46,33.61 -20.8,67.32 -29.96,101.63 -20.6,79.18 108.46,93.84 151.13,99.56 8.04,1.06 16.57,1.77 24.1,-2.6 12.06,-6.78 18.59,-23.46 23.61,-38.52 36.16,-108.56 59.25,-209.85 92.9,-330.36 5.52,-20.04 14.06,-41.37 5.52,-57.19 -6.54,-11.14 -31.64,-20.24 -42.18,-24.45 -25.11,-9.8 -50.71,-17.03 -77.33,-21.69 -22.6,-4.03 -49.21,-4.77 -68.29,15.35 -16.57,17.33 -22.1,44.6 -27.12,69.55 -4.4,21.37 -9.5,42.42 -15.05,63.26 -21.26,-0.8 -42.49,-4.19 -62.78,-10.12l-4.54 -1.31c1.89,-5.97 2.55,-11.59 1.02,-16.33 -9.53,-29.82 -90.38,-62.71 -116.49,-76.17 -96.42,-49.16 -194.33,-94.2 -294.76,-134.88 -13.67,-5.54 -27.94,-11.51 -40.54,-19.31 -2.47,-135.42 -8.7,-270.64 -17.04,-405.9 3.38,-28.89 6.2,-57.83 8.36,-86.82 6.04,-84.31 6.54,-170.33 -21.59,-251.52 -4.1,-11.86 -8.9,-23.61 -14.36,-35.18 -3.12,-36.47 -6.37,-72.93 -9.74,-109.39 -3.51,-40.37 -120.52,-82.15 -149.64,-88.52 -17.56,-3.72 -34.64,-8.84 -51.71,-14.62 -16.07,-5.53 -32.14,-11.65 -47.71,-17.78 -79.84,-30.53 -159.18,-61.11 -239.02,-91.64 -12.06,-4.57 -24.61,-9.14 -36.65,-6.58 -10.05,2.01 -18.08,8.09 -25.61,14.21 -70.78,57.15 -117.02,131.32 -150.47,212.51 -12.48,7.62 -24.59,15.66 -36.28,24.1 -44.89,32.4 -84.72,72.01 -100.58,119.27 -6.26,18.57 -8.46,40.27 -5.16,61.18 -24.61,-13.56 -52.49,-23.2 -80.25,-31.5 -56.04,-16.73 -114.84,-29.28 -174.1,-26.78 -114.98,4.93 -219.19,67.5 -284.76,148.39 -46.61,57.49 -75.77,123.48 -95.71,190.91 -21.42,72.29 -2.95,85.23 63.94,111.24 -24.88,31.24 -18.11,129.08 -18.2,160.27 -0.05,25.26 0.86,50.62 -2.46,75.62 -9.04,68 -48.81,127.8 -91.64,181.37 16.73,6.48 33.4,12.96 50.12,19.45l4.99 -11.6 -42.15 160.88c-19.33,73.66 -38.82,148.24 -40.73,224.66 -1.85,76.38 15.58,156.06 62.52,214.26 76.48,94.76 208.94,110.63 326.7,102.74 75.85,-5.12 156.12,-19.98 219.06,-61.85 -6.85,45.42 -8.34,89.31 -0.93,120 30.73,127.04 19.43,354.35 53.72,518.06l-10.25 2015.64c-6.52,17.39 -21.51,33.07 -31.43,48.51 -3.3,5.11 -7.07,10.41 -9.5,15.87 -2.1,4.74 -3.2,9.59 -2.1,14.56 2.82,12.95 22.95,31.03 31.29,42.39l10.45 11.34c5.46,4.02 12.55,5.98 19.48,7.59 26.27,6.08 54.24,7.99 81.35,6.42 14.8,-0.85 46.15,-13.11 23.94,-29.92 78.76,0.83 155.65,27.94 232.83,35.9 38.61,3.98 77.3,3.17 116.32,-8.13 11.04,-3.12 21.09,-9.49 25.11,-18.59 2,-5.32 2.5,-11.09 2,-16.77 -0.21,-3.18 -0.52,-6.38 -1.12,-9.52 25.55,4.9 51.99,5.98 77.96,3.9 15.06,-1.25 45.69,-14.22 23.09,-30.53 118.01,-1.45 234,56.24 349.99,19.69 10.98,-3.36 20.47,-9.92 24.03,-19.02l0.07 -0.17c2.51,-5.35 2.52,-11.12 2.01,-16.72l0 -0.05c-1,-7.43 -2.01,-14.96 -6.52,-21.44 -12.06,-18.23 -52.72,-9.79 -74.32,-11.4 -27.11,-2.1 -54.23,-5.92 -81.34,-10.44 -16.58,-2.82 -158.18,-33.3 -162.7,-24.26 7.04,-13.65 -8.54,-27.91 -12.55,-45.39l-1.15 -0.31c5.1,-214.14 63.71,-424.72 111.62,-635.15 115.49,-506.82 214.41,-1300.9 205.88,-1817.15l0 0.04c5.01,-76.78 9.04,-153.5 19.58,-226.76 1.44,-9.45 2.6,-19.21 1.69,-28.63 26.65,23.37 53.59,46.48 80.66,69.3 20.08,16.92 40.68,34.1 65.77,41.77 25.11,7.65 55.74,3.47 72.31,-16.91 18.08,-21.85 14.07,-55.4 -1.49,-78.9 -15.57,-23.44 -40.19,-39.15 -64.28,-54.23 16.07,6.24 33.13,-13.95 29.12,-30.77 -4.01,-16.87 -20.58,-27.77 -37.15,-32.9 -16.07,-5.12 -34.15,-6.27 -50.22,-12.65 -14.06,-5.77 -35.65,-8.64 -47.71,-18.22l-6.93 -5.5zm-1516.27 -649.47c6.14,-47.34 17.61,-124.99 6.82,-160.22l4.08 1.56c9.51,3.64 19.09,7.14 28.74,10.5 -3.37,10.13 -6.16,20.57 -8.86,30.82l-30.78 117.34zm616.28 -511.85c3.52,4.67 6.76,9.5 9.74,14.45 4.41,-19.22 8.85,-38.62 13.46,-58.08 -8.21,14.35 -15.31,29.37 -23.2,43.63zm49.03 4052.55l1.29 0.38c3.52,17.58 18.53,32.18 11,45.69 1.61,-3.19 20.59,-0.94 45.07,3.43 37.53,6.69 88,18.32 108.72,22.9l7.9 1.69c27.11,5.13 53.73,9.6 81.34,12.3 10.23,1.02 25.19,-0.21 39.2,0.37 -8.71,-9.63 -21.46,-21.83 -26.24,-32 -0.4,-0.83 -0.74,-1.67 -1.02,-2.48l-0.38 -1.23c-2.52,-10.65 5.01,-21 10.53,-30.73 9.52,-15.62 23.94,-31.6 29.92,-49.09l-34.43 -1300.02c-34.64,233.89 -81.35,466.43 -141.1,696.52 -54.68,209.23 -119.93,418.35 -131.8,632.27zm1597.04 -3209.31c-7.53,-24.55 -15.55,-51.43 -8.52,-74.37 9.04,-26.72 35.14,-38.22 59.75,-45.14 28.63,-7.98 57.75,-13.41 87.37,-16.17 12.56,-1.21 42.18,-4.63 53.73,2.35 17.07,9.99 19.59,32.79 24.1,53.18 6.52,27.88 13.07,54.63 19.52,80.66 9.16,0.52 18.26,1 27.18,1.04 31.63,0.16 63.27,-6.08 92.4,-17.38l-0.5 -2.5c174.73,-56.04 340.94,-131.47 513.19,-195.29 85.86,-32.03 147.62,-89.74 179.76,-163.79 66.29,-154.37 182.28,-485.82 206.38,-643.51 12.59,-83.91 54.79,-122.97 99.69,-125.81 13.44,-47.44 39.18,-91.46 86.12,-85.53 27.08,-2.56 58.09,14.08 88.86,21.29 59.26,13.95 120.52,22.13 181.78,13.85 24.59,-3.32 49.73,-9.12 74.88,-14.93 -0.27,-3.85 -0.41,-7.7 -0.56,-11.53 -0.94,-23.84 -1.33,-47.83 -0.97,-71.83 -80.75,58.75 -191.79,43.51 -276.21,-66.51 -63.78,-82.8 -82.36,-196.03 -73.32,-303.64 2.82,-31.61 6.23,-66.9 11.79,-102.59 -1.59,-4.58 -3.31,-9.18 -4.76,-13.86 -9.04,-49.4 -5.02,-104.75 8.03,-152.14 20.6,-76.64 68.3,-135.24 124.53,-183.49l12.56 -5.23c162.19,-62.66 352.5,-12 471.01,112.79 72.31,76.58 107.95,149.39 85.37,262.82l-2.01 10.8c7.03,31.47 3,76.07 3.51,118.95 3.52,194.98 30.12,403.17 157.18,559.68 47.69,58.6 111.46,119.47 101.92,194.34 -4.01,28.62 -18.57,54.53 -27.11,82.24 -8.03,27.73 -8.03,61.42 13.05,81.31 15.08,14.2 37.17,17.92 53.73,29.97 27.12,19.09 35.15,55.75 32.64,88.58 -6.02,78.69 -67.78,149.84 -145.11,166.87 -70.05,15.52 -148.01,-15.05 -190.54,-72.69 1.12,14.13 2.11,28.28 3.01,42.44 1.86,0.78 3.44,2.37 4.24,4.94 97.59,313.36 144.78,658.02 26.32,972.15 1.01,4.81 1.94,9.61 2.81,14.36 24.1,130.04 35.15,262.56 32.64,394.82 -0.51,21.16 -1.01,42.99 -10.54,62.02 -13.44,27.44 -41.52,43.92 -69.82,55.77 -32.21,405.04 -70,897.13 -88.86,1094.09 -7.53,78.49 -15.06,157.63 -6.03,235.9 7.53,63.69 25.61,125.49 43.69,186.95 57.75,194.38 74.81,251.37 132.56,445.71 -7.43,3.62 -15.06,6.86 -22.81,9.71 10.19,26.61 20.67,53.22 30.85,79.82 20.17,8.41 37.43,23.77 49.71,41.98 8.65,12.86 15.11,27 19.89,41.76l0.01 0.04c37.07,1.35 74.12,2.74 111.16,4.14l33.29 1.3 -33.57 -1.29 -110.87 -4.14c4.36,13.48 7.29,27.45 9.21,41.44 0.42,2.76 0.83,5.59 1,8.4 0.24,3.97 -0.03,7.91 -1.5,11.59 -0.34,0.86 -0.73,1.69 -1.17,2.49 4.11,4.11 6.99,9.21 7.7,14.99 1.5,11.4 -5.53,22.74 -15.07,29.28 -9.54,6.57 -21.08,9.23 -32.14,11.24 -49.21,8.64 -99.92,7.43 -149.63,6.22 -17.58,-0.46 -37.66,-2.11 -48.21,-16.11 -6.21,-8.18 -10.03,-20.35 -5.65,-28.04 -5.4,-7.48 -7.4,-16.94 -5.39,-28.76 1.42,-9.42 3.2,-18.66 5.45,-27.74 2.76,-11.19 6.23,-22.14 10.61,-32.82 3.3,-8.05 7.12,-15.95 11.55,-23.7 4.89,-9.13 10.9,-18.01 18.25,-25.59l-10.72 -48.57c-2.66,-11.29 -10.85,-30.03 -8.5,-43.21 -10.14,-0.96 -20.21,-2.52 -30.16,-4.7 -89.39,-244.9 -101.93,-292.89 -197.85,-502.84 -61.76,-136.34 -107.95,-293.96 -119.51,-443.29 -6.52,-84.51 -40.67,-628.03 -41.68,-712.8 -0.6,-76.85 -13.02,-176 -29.12,-283.51 -51.08,654.9 -139.38,1486.04 -150.14,1948.06l-4.98 0.01c2.36,30.66 2.82,61.49 1.73,92.21l4.76 0.07c5.02,0.06 11.05,0.26 15.06,3.42 4.03,3.37 6.03,9.14 7.03,14.46 1.1,5.02 2.08,10.06 2.93,15.11 2.66,15.81 4.1,31.8 4.1,47.82 0,9.9 -0.61,20.48 -4.73,29.13l3.74 9.07c0,8.09 -5.03,15.52 -12.06,20.09 -6.53,4.57 -14.56,6.63 -22.6,8.28 -34.65,7.29 -70.31,7.79 -105.95,8.19 -39.17,0.51 -78.84,1.01 -118.01,1.46l-4.29 0.06c-53.3,0.68 -106.59,1.15 -159.4,-4.63 -10.55,-1.21 -22.09,-2.91 -30.13,-10.05 -7.01,-5.93 -10.55,-19.19 -4.92,-27.26 -4.83,-6.01 -7.5,-12.96 -8.58,-20.3 -2.62,-17.81 4.1,-37.97 11.99,-52.86 22.1,-41.03 67.29,-48.11 109.47,-47.65 15.3,0.15 30.42,0.93 45.46,2.34 2.51,-2.25 7.27,-2.13 16.3,0.22l3.52 1.91 0.02 0.1 9.02 1.25c11.88,1.72 23.77,3.83 35.65,5.53 0.14,-1.98 0.3,-3.93 0.5,-5.89 7.03,2.07 15.57,-2.6 23.6,0.1l2.52 1.41 0.5 2.67 0.11 4.51c8.16,0.41 16.32,0.33 24.48,-0.5 3.19,-0.32 6.35,-0.75 9.5,-1.25 1.25,-3.94 3.48,-6.95 7.09,-8.44 6.76,-2.74 11.5,-0.48 14.81,4.46 2.41,-0.43 4.84,-0.83 7.28,-1.19 6,-0.87 12,-1.46 18,-1.84 -4.82,-28.4 -8.13,-56.94 -12.98,-85.33l-0.86 -6.47 -15.72 0.04c-1,-199.96 -44.18,-266.39 -82.34,-462.68 -85.02,-435.62 -173.24,-1620.11 -175.04,-2128.24 -11.5,-14.02 -20.34,-29.94 -25.32,-47.65 -10.55,-37.05 -2.51,-76.52 5.52,-114.12 41.4,-192.87 87.88,-384.88 130.21,-577.59 -14.03,21.81 -27.88,42.46 -41.33,61.68 -22.59,32.24 -48.2,64.63 -84.86,86.57 -37.67,22.6 -82.86,31.64 -126.03,40.07 -222.96,43.44 -375.11,119.96 -596.55,164.06 -39.98,13.88 -80.47,27.23 -121.52,36.81 11.89,49.43 22.74,98.22 31.64,149.58 2.5,15.71 4.51,33.44 -3.52,45.04 -5.52,7.38 -14.06,10.6 -22.6,13.3 -44.68,14.57 -180.26,61.07 -199.85,-18.93 -24.1,-98.67 -36.65,-197.39 -67.8,-295.45zm-1383.14 3493.61l-4.31 0c-49.94,0 -99.89,-0.63 -149.83,-2.34 -78.3,-2.61 -155.38,-8.46 -232.45,-15.38 -38.84,-3.51 -112.83,2.51 -149.21,-10.62 -131.33,-47.67 -9.25,-145.72 73.37,-168.93 14.04,-3.96 28.22,-7.52 42.52,-10.73m263.37 -26.8c10.86,-0.15 21.73,-0.23 32.61,-0.25l11.1 0 -4.93 -0.01c-2,0 -4.01,0 -6.02,0l11.05 0 4 0.01 0.1 0 4.01 0.01 0.08 0 1.97 0.01 0.08 0 1.97 0.01 0.07 0 1.98 0.01 0.07 0 1.99 0.01 0.06 0 1.99 0.01 0.06 0 1.99 0.01 0.05 0.01 2 0.01 0.05 0 2 0.02 0.05 0 2 0.01 0.04 0.01 2.01 0.01 0.04 0.01 2.01 0.01 0.04 0.01 2.02 0.02 0.02 0 2.03 0.02 0.02 0 2.03 0.02 0.02 0 2.03 0.03 0.01 0 2.03 0.02 0.02 0 2.03 0.03 0.01 0 2.04 0.03 0.01 0 2.04 0.03 2.05 0.03 2.04 0.03 0.01 0 2.04 0.03 0.01 0 2.03 0.03 0.01 0.01 2.05 0.03 1.44 0.03m17.04 0.31l5.99 0.12 0.06 0.01 48.71 1.14 12.19 0.31 -12.12 -0.29 -48.44 -1.16c16.33,0.33 32.63,0.71 48.87,1.14l35.04 0.89m543.43 16.44l6.27 0.22 0.02 0.01 48.7 1.71 0.07 0.01 24.28 0.86 0.1 0.01 24.25 0.88 0.14 0.01 12.03 0.43 0.16 0.01 12.02 0.44 0.17 0.01 12 0.44 0.2 0.01 11.97 0.44 0.22 0.01 11.95 0.45 0.24 0.01 11.93 0.45 0.26 0.01 11.91 0.45 0.29 0.01 11.88 0.45 0.31 0.01 7.99 0.31 0.3 0.01 8 0.31 0.29 0.01 8.01 0.31 0.28 0.01 8.02 0.32 0.27 0.01 8.03 0.32 0.27 0.01 8.04 0.32 0.26 0.02 8.05 0.33 0.24 0.01c85.8,3.57 171.75,8.21 256.7,17.54l8.13 0.9 0.09 0.02c13.66,1.55 27.3,3.21 40.91,5.03l0.09 0.02 8.09 1.09 0.08 0.02 8.09 1.12 0.08 0.02 8.08 1.16 0.09 0.02 8.07 1.19 0.08 0.02 8.06 1.23 0.08 0.02 8.06 1.27 0.08 0.02 8.04 1.31 0.08 0.02 8.04 1.34 0.08 0.02 8.02 1.38 0.09 0.02 8.01 1.43 0.09 0.02 8 1.46 0.08 0.02 7.99 1.51 0.09 0.02 7.98 1.55 0.09 0.01 7.96 1.6 0.09 0.02 0.95 0.19c7.7,1.57 15.38,3.19 23.05,4.89 -7.67,-1.7 -15.35,-3.32 -23.05,-4.89 7.7,1.57 15.38,3.19 23.05,4.89m0.1 0.02c7.98,1.77 15.95,3.6 23.89,5.5l6.73 1.69 -6.62 -1.68c-7.98,-1.91 -15.98,-3.74 -24,-5.51zm55.57 14.86c19.48,6.96 37.93,16.08 50.73,27.43l0.02 0.01 1.44 1.31 0.01 0 1.39 1.34 0.01 0 1.35 1.35 0 0.01c9.24,9.58 14.46,20.63 13.26,33.13 -0.69,7.97 -3.76,14.87 -8.66,20.83 4.94,-5.97 8.06,-12.88 8.81,-20.85 1.15,-12.49 -4.13,-23.52 -13.41,-33.11 9.28,9.58 14.57,20.59 13.41,33.11 -0.75,7.97 -3.87,14.88 -8.81,20.85l-0.02 0.02 -0.18 0.22c-13.96,16.77 -42.43,26.06 -72.87,30.73l-0.12 0.01 -5.29 0.77 -0.14 0.01c-4.47,0.61 -8.99,1.11 -13.48,1.54l-0.17 0.01 -5.27 0.46 -0.19 0.01 -5.22 0.38 -0.21 0.01c-2.62,0.17 -5.23,0.32 -7.82,0.43l-0.25 0.01 -2.39 0.1 -0.27 0.01 -2.36 0.09 -0.28 0 -2.33 0.07 -0.29 0 -2.29 0.06 -0.31 0 -1.45 0.03 -0.27 0 -1.49 0.04 -0.23 0 -1.53 0.03 -0.19 0 -3.32 0.07 -0.12 0 -1.64 0.03 -0.09 0 -3.41 0.07 -0.03 0 -1.72 0.03 -0.01 0 -1.72 0.03 1.57 -0.03 0.16 0 1.58 -0.03 0.17 0 3.3 -0.07 0.2 0 1.54 -0.03 0.22 0 3.26 -0.07 0.25 0 1.49 -0.03 0.27 0 1.47 -0.04 0.29 0 1.45 -0.03 0.31 0 2.29 -0.06 0.29 0 2.33 -0.07 0.28 0 2.36 -0.09 0.27 -0.01 2.39 -0.1 0.25 -0.01 7.82 -0.43 0.21 -0.01 5.22 -0.38 0.19 -0.01 5.27 -0.46 0.17 -0.01m-72.96 2.48l-67.36 1.32c-16.65,0.27 -33.3,0.54 -50.56,0.9l-42.34 0.81 42.37 -0.8 -42.37 0.8 -0.06 0 -14.06 0.27 -0.07 0 -14.06 0.27 -0.08 0 -14.05 0.27 -0.08 0 -14.04 0.27 -0.09 0 -14.04 0.27 -0.1 0 -14.03 0.27 -0.1 0 -14.03 0.26 -0.1 0.01 -14.03 0.26 -0.11 0.01 -14.02 0.26 -0.11 0.01 -14.02 0.26 -0.11 0.01 -14.02 0.26 -0.11 0 -14.02 0.27 -0.12 0 -14.01 0.27 -0.12 0 -14.01 0.27 -0.12 0 -14.02 0.27 -0.12 0 -14.01 0.27 -0.12 0 -14.02 0.26 -0.11 0.01 -14.02 0.26 -0.12 0.01 -14.02 0.26 -0.11 0.01 -14.02 0.26 -0.11 0.01 -14.03 0.26 -0.11 0.01 -14.03 0.26 -0.1 0.01 -14.04 0.26 -0.09 0.01 -14.04 0.26 -0.09 0.01 -14.05 0.26 -0.09 0.01 -14.05 0.26 -0.08 0.01 -14.06 0.26 -0.07 0.01 -14.07 0.26 -0.07 0.01 -14.07 0.26 -0.06 0.01 -14.08 0.26 -0.05 0.01 -14.09 0.26 -0.05 0.01 -423.99 8.1c-75.84,1.44 -151.68,2.88 -227.52,2.88l0 0m651.51 -10.98l0.05 -0.01 14.09 -0.26 0.05 -0.01 14.08 -0.26 0.06 -0.01 14.07 -0.26 0.07 -0.01 14.07 -0.26 0.07 -0.01 14.06 -0.26 0.08 -0.01 14.05 -0.26 0.09 -0.01 14.05 -0.26 0.09 -0.01 14.04 -0.26 0.09 -0.01 14.04 -0.26 0.1 -0.01 14.03 -0.26 0.11 -0.01 14.03 -0.26 0.11 -0.01 14.02 -0.26 0.11 -0.01 14.02 -0.26 0.12 -0.01 14.02 -0.26 0.11 -0.01 14.02 -0.26 0.12 0 14.01 -0.27 0.12 0 14.02 -0.27 0.12 0 14.01 -0.27 0.12 0 14.01 -0.27 0.12 0 14.02 -0.27 0.11 0 14.02 -0.26 0.11 -0.01 14.02 -0.26 0.11 -0.01 14.02 -0.26 0.11 -0.01 14.03 -0.26 0.1 -0.01 14.03 -0.26 0.1 0 14.03 -0.27 0.1 0 14.04 -0.27 0.09 0 14.04 -0.27 0.08 0 14.05 -0.27 0.08 0 14.06 -0.27 0.07 0 14.06 -0.27 0.06 0m246.7 -7.05l0.14 -0.01 5.29 -0.77 0.12 -0.01m72.87 -30.73l0.18 -0.22 0.02 -0.02m-4.6 -53.96l0 -0.01 -1.35 -1.35 -0.01 0 -1.39 -1.34 -0.01 0 -1.44 -1.31 -0.02 -0.01m-50.73 -27.43l-0.02 0 0.02 0zm-0.02 0l-2.23 -0.79 2.23 0.79zm-2.23 -0.79l-0.02 0 0.02 0zm-0.02 0l-2.24 -0.77 2.24 0.77zm-2.24 -0.77l-0.01 0 0.01 0zm-0.01 0l-2.26 -0.76 2.26 0.76zm-2.26 -0.76l-2.27 -0.73 2.27 0.73zm-2.27 -0.73l-2.26 -0.72 2.26 0.72zm-2.26 -0.72l-0.02 0 0.02 0zm-0.02 0l-2.25 -0.69 2.25 0.69zm-2.25 -0.69l-0.02 -0.01 0.02 0.01zm-0.02 -0.01l-2.25 -0.67 2.25 0.67zm-2.25 -0.67l-0.03 -0.01 0.03 0.01zm-0.03 -0.01l-2.23 -0.65 2.23 0.65zm-2.23 -0.65l-0.05 -0.01 0.05 0.01zm-0.05 -0.01l-2.21 -0.63 2.21 0.63zm-2.21 -0.63l-0.06 -0.01 0.06 0.01zm-0.06 -0.01l-2.2 -0.61 2.2 0.61zm-2.2 -0.61l-0.06 -0.01 0.06 0.01zm-0.06 -0.01l-2.19 -0.59 2.19 0.59zm-2.19 -0.59l-0.07 -0.01 0.07 0.01zm-53.84 -12.11l-0.95 -0.19 -0.09 -0.02 -7.96 -1.6 -0.09 -0.01 -7.98 -1.55 -0.09 -0.02 -7.99 -1.51 -0.08 -0.02 -8 -1.46 -0.09 -0.02 -8.01 -1.43 -0.09 -0.02 -8.02 -1.38 -0.08 -0.02 -8.04 -1.34 -0.08 -0.02 -8.04 -1.31 -0.08 -0.02 -8.06 -1.27 -0.08 -0.02 -8.06 -1.23 -0.08 -0.02 -8.07 -1.19 -0.09 -0.02 -8.08 -1.16 -0.08 -0.02 -8.09 -1.12 -0.08 -0.02 -8.09 -1.09 -0.09 -0.02m-40.91 -5.03l-0.09 -0.02 -8.13 -0.9m-256.7 -17.54l-0.24 -0.01 -8.05 -0.33 -0.26 -0.02 -8.04 -0.32 -0.27 -0.01 -8.03 -0.32 -0.27 -0.01 -8.02 -0.32 -0.28 -0.01 -8.01 -0.31 -0.29 -0.01 -8 -0.31 -0.3 -0.01 -7.99 -0.31 -0.31 -0.01 -11.88 -0.45 -0.29 -0.01 -11.91 -0.45 -0.26 -0.01 -11.93 -0.45 -0.24 -0.01 -11.95 -0.45 -0.22 -0.01 -11.97 -0.44 -0.2 -0.01 -12 -0.44 -0.17 -0.01 -12.02 -0.44 -0.16 -0.01 -12.03 -0.43 -0.14 -0.01 -24.25 -0.88 -0.1 -0.01 -24.28 -0.86 -0.07 -0.01 -48.7 -1.71 -0.02 -0.01m-640.08 -18.82l-0.04 -0.01 -2 -0.03 -0.04 -0.01 -2 -0.03 -0.04 -0.01 -2.01 -0.03 -0.03 -0.01 -2.01 -0.03 -0.04 -0.01 -2.01 -0.03 -0.03 0 -2.01 -0.03 -0.03 -0.01 -2.02 -0.03 -0.02 0 -2.02 -0.04 -0.02 0 -2.03 -0.03 -0.02 0 -2.03 -0.03m20.45 0.37l0.08 0m1336.84 75.76c8.02,1.77 16.02,3.61 24,5.51l6.62 1.68m-54.47 128.35l-0.02 0.01 -1.71 0.02 -0.03 0.01 -1.69 0.03 -0.06 0.01 -1.67 0.02 -0.07 0.01 -1.65 0.02 -0.09 0.01 -1.64 0.03 -0.11 0.01 -1.62 0.02 -0.12 0.01 -1.6 0.02 -0.13 0.01 -1.6 0.03 -0.14 0.01 -1.59 0.02 -0.15 0.01 -5.04 0.09 -0.16 0.01 -5.02 0.09 -0.18 0.01m1584.08 -5265.56c3,-25.3 8.09,-49.35 16.3,-66.97 -6.72,21.6 -12.03,44.2 -16.3,66.97zm620.1 831.73c11.93,46.23 16.14,94.67 18.02,143.84 -7.07,-37.82 -13.1,-75.77 -16.17,-114.13 -0.78,-9.88 -1.36,-19.79 -1.85,-29.71zm76.93 607.49c42.43,225.19 79.23,450.43 44.85,673.65 -2.83,-22.79 -6.84,-45.55 -10.45,-68.19 -31.58,-199.69 -26.53,-403.3 -34.4,-605.46zm28.39 3753.07l0.02 -0.01 -0.02 0.01zm0.02 -0.01l16.79 -0.3 -16.79 0.3zm16.79 -0.3l0.03 -0.01 -0.03 0.01zm0.03 -0.01l16.78 -0.3 -16.78 0.3zm16.78 -0.3l0.03 -0.01 -0.03 0.01zm0.03 -0.01l16.79 -0.3 -16.79 0.3zm16.79 -0.3l0.03 -0.01 -0.03 0.01zm0.03 -0.01l16.78 -0.3 -16.78 0.3zm16.78 -0.3l0.04 -0.01 -0.04 0.01zm0.04 -0.01l16.77 -0.3 -16.77 0.3zm16.77 -0.3l0.04 -0.01 -0.04 0.01zm0.04 -0.01l16.77 -0.3 -16.77 0.3zm16.77 -0.3l0.05 -0.01 -0.05 0.01zm0.05 -0.01l16.76 -0.3 -16.76 0.3zm16.76 -0.3l0.06 -0.01 -0.06 0.01zm0.06 -0.01l16.75 -0.3 -16.75 0.3zm16.75 -0.3l0.07 -0.01 -0.07 0.01zm0.07 -0.01l16.74 -0.3 -16.74 0.3zm16.74 -0.3l0.08 -0.01 -0.08 0.01zm0.08 -0.01l16.73 -0.3 -16.73 0.3zm16.73 -0.3l0.08 -0.01 -0.08 0.01zm0.08 -0.01l16.73 -0.3 -16.73 0.3zm16.73 -0.3l0.09 -0.01 -0.09 0.01zm0.09 -0.01l16.72 -0.3 -16.72 0.3zm16.72 -0.3l0.1 -0.01 -0.1 0.01zm0.1 -0.01l6.74 -0.12 514.28 -9.5c17.49,-0.3 36.61,-1.71 54.73,-4.78l0.06 -0.02 -0.06 0.02c-18.06,3.08 -37.09,4.49 -54.52,4.8l-514.49 9.48 -6.74 0.12zm6.74 -0.12l514.49 -9.48c17.43,-0.3 36.46,-1.72 54.52,-4.8m0.06 -0.02l2.64 -0.45 -2.64 0.45zm2.64 -0.45l0.07 -0.02 -0.07 0.02zm0.07 -0.02l2.62 -0.48 -2.62 0.48zm2.62 -0.48l0.07 -0.02 -0.07 0.02zm0.07 -0.02l2.6 -0.51 -2.6 0.51zm2.6 -0.51l0.07 -0.02 -0.07 0.02zm0.07 -0.02l2.57 -0.53 -2.57 0.53zm2.57 -0.53l0.09 -0.02 -0.09 0.02zm0.09 -0.02l2.54 -0.56 -2.54 0.56zm2.54 -0.56l0.09 -0.02 -0.09 0.02zm0.09 -0.02l2.51 -0.59 -2.51 0.59zm2.51 -0.59l0.09 -0.02 -0.09 0.02zm0.09 -0.02l2.48 -0.61 -2.48 0.61zm2.48 -0.61l0.1 -0.02 -0.1 0.02zm0.1 -0.02l2.45 -0.65 -2.45 0.65zm2.45 -0.65l0.1 -0.02 -0.1 0.02zm0.1 -0.02l2.41 -0.67c24.24,-6.82 43.91,-17.72 51.12,-34.52l0.02 -0.03 -0.02 0.03m0.02 -0.03l0.69 -1.73 -0.69 1.73zm0.69 -1.73l0.01 -0.03 -0.01 0.03zm0.01 -0.03l0.61 -1.77 -0.61 1.77zm0.61 -1.77l0 -0.03c0.74,-2.42 1.25,-4.97 1.48,-7.63 0.17,-1.78 0.24,-3.52 0.15,-5.23l-0.01 -0.03 0.01 0.03c0.1,1.73 0.07,3.48 -0.1,5.26 -0.25,2.65 -0.77,5.18 -1.53,7.6l0 0.03zm0 -0.03c0.75,-2.41 1.28,-4.95 1.53,-7.6 0.17,-1.79 0.2,-3.53 0.1,-5.26m-0.01 -0.03l-0.12 -1.69 0.12 1.69zm-0.12 -1.69l-0.01 -0.02 0.01 0.02zm-0.01 -0.02l-0.21 -1.67 0.21 1.67zm-0.21 -1.67l0 -0.02c-2.41,-16.27 -16.12,-29.74 -34.77,-40.51l0 -0.01 -1.94 -1.1 -0.01 -0.01 -1.96 -1.07 -0.02 -0.01 -4.01 -2.1 -0.04 -0.01c-17.71,-8.96 -38.56,-15.76 -57.93,-20.41 -99.43,-23.62 -201.84,-36.21 -305.08,-43.98l-7.96 -0.6 -0.39 -0.02 -7.98 -0.58 -0.39 -0.02 -7.97 -0.56 -0.39 -0.02 -7.98 -0.54 -0.39 -0.02 -7.99 -0.52 -0.39 -0.02 -7.98 -0.5 -0.4 -0.02 -7.97 -0.49 -0.41 -0.02 -7.97 -0.47 -0.41 -0.02 -7.97 -0.45 -0.41 -0.02 -7.97 -0.44 -0.42 -0.02 -16.34 -0.86 -0.44 -0.02 -7.94 -0.4 -0.46 -0.02c-38.96,-1.93 -77.92,-3.47 -116.76,-4.96 -37.23,-1.44 -74.45,-2.83 -111.67,-4.18m-224.77 -7.77l-8.25 -0.27 -0.2 0 -12.11 -0.4 -0.19 0 -12.12 -0.4 -0.18 0 -12.13 -0.39 -0.17 -0.01 -12.14 -0.39 -0.16 0 -12.15 -0.39 -0.15 0 -12.16 -0.39 -0.15 0 -12.17 -0.38 -0.13 0 -12.18 -0.38 -0.12 -0.01 -12.19 -0.38 -0.11 0 -12.2 -0.37 -0.11 -0.01 -12.2 -0.37 -0.1 0 -12.21 -0.37 -0.09 0 -12.22 -0.37 -0.09 0 -12.22 -0.37 -0.08 0 -12.23 -0.37 -0.08 0 -12.23 -0.36 -0.07 0 -12.24 -0.36 -0.07 0 -12.24 -0.36 -0.06 0 -12.25 -0.35 -0.06 0 -36.87 -1.05 -0.05 0c-57.43,-1.61 -114.87,-3.13 -172.31,-4.56l-17.31 -0.46 0 -0.01 0 0.01 17.33 0.42c57.43,1.45 114.86,2.98 172.29,4.6 -57.43,-1.62 -114.86,-3.15 -172.29,-4.6l-17.33 -0.42m1367.54 90.43c-10.62,-3.74 -21.56,-6.87 -32.09,-9.37 -45.63,-10.81 -91.84,-19.34 -138.47,-26.16 46.55,6.81 92.68,15.35 138.19,26.16 10.64,2.51 21.67,5.62 32.37,9.37zm-1367.54 -90.44l-2.16 -0.04 2.16 0.04zm-2.16 -0.04l0 -0.01 0 0.01zm0 -0.01l-2.16 -0.05 2.16 0.05zm-2.16 -0.05l-0.01 -0.01 0.01 0.01zm-0.01 -0.01l-2.16 -0.04 2.16 0.04zm-2.16 -0.04l-0.01 -0.01 0.01 0.01zm-0.01 -0.01l-2.15 -0.04 2.15 0.04zm-2.15 -0.04l-0.01 -0.01 0.01 0.01zm-0.01 -0.01l-2.15 -0.05 2.15 0.05zm-2.15 -0.05l-0.02 0 0.02 0zm-0.02 0l-2.15 -0.05 2.15 0.05zm-2.15 -0.05l-0.01 0 0.01 0zm-0.01 0l-2.15 -0.05 2.15 0.05zm-2.15 -0.05l-0.02 0c-15.81,-0.38 -31.63,-0.72 -47.44,-0.98m-462.83 61.86c-67.26,39.02 -119.98,106.96 -16.71,144.22 36.8,13.17 111.64,7.21 150.93,10.69 77.34,6.96 155.93,12.76 234.51,15.49 50.52,1.66 101.66,2.4 152.18,2.4l7.49 0 0 0 17.45 -0.03m-35.58 -233.65l0.02 0m1451.77 146.66l0 0.02m-53.73 54.38l-2.41 0.67"/>
   <g>
    <path class="fil1" d="M5285.56 6743.28c-1.51,0 -3.02,0 -4.53,0l7.04 0c75.32,0 150.63,-1.39 225.96,-2.76 358.52,-6.62 717.56,-13.19 1076.09,-19.82 55.74,-1.01 128.05,-13.16 132.06,-55.74 3.52,-38.07 -53.22,-62.46 -101.43,-73.92 -171.73,-40.82 -352.01,-48.75 -530.76,-55.59 -262.12,-10.04 -524.75,-18.43 -787.36,-25.05 -46.21,-1.16 -92.4,-2.26 -138.6,-2.26l0 0c46.2,0 92.39,1.1 138.6,2.26 262.61,6.62 525.24,15.01 787.86,25.05 178.25,6.84 359.02,14.77 530.76,55.59 47.71,11.46 104.45,35.85 100.93,73.92 -4.01,42.58 -76.32,54.73 -132.06,55.74 -358.53,6.63 -717.57,13.2 -1076.09,19.82 -76.32,1.37 -152.65,2.76 -228.47,2.76z"/>
    <g style="clip-path:url(#id0)">
     <image x="4573.52" y="6478.71" width="2200.38" height="292.25" xlink:href="5.svg_Images\5.svg_ImgID1.png"/>
    </g>
    <path class="fil2" d="M5786.7 6487.14l3.51 7.14 10.55 2.96c28.61,-0.25 56.74,-2.76 84.86,-7.38 12.04,-2 26.6,-6.77 29.12,-18.93 1,-5.68 -1.01,-11.46 -3.01,-16.82 -12.06,-31.69 -24.61,-63.37 -36.66,-95.06l-1.5 -3.16 -5.03 -1.36c-20.58,-0.34 -40.67,1.41 -60.25,5.28 -13.05,2.5 -36.16,4.11 -42.19,17.82 -6.02,13.01 4.03,35.26 7.03,48.01 4.53,20.48 9.04,40.97 13.57,61.5z"/>
    <path class="fil2" d="M5101.77 6487.05c26.62,1.66 53.73,3.27 80.85,4.86l7.53 -1.39 2.51 -8.24c1.5,-35.15 1.01,-70.45 -2.01,-105.51l-2.01 -7.53 -9.04 -4.27c-15.57,-3.45 -31.13,-6.87 -47.2,-6.97 -12.55,-0.06 -26.61,1.95 -37.66,8.54 -11.54,6.92 -9.54,11.54 -8.03,23.5 5.52,32.28 9.04,64.77 15.06,97.01z"/>
    <path class="fil3" d="M5734.47 6377.73c55.74,12.2 115.5,5.18 166.71,-19.73 -57.75,-194.34 -74.81,-251.33 -132.56,-445.71 -18.08,-61.46 -36.16,-123.26 -43.69,-186.95 -9.03,-78.27 -1.5,-157.41 6.03,-235.9 29.12,-304.19 103.43,-1312.4 132.56,-1616.55 2.52,-25.56 4.52,-51.87 -3.01,-76.28 -23.1,-69.99 -224.97,-82.04 -298.27,-88.02 -16.07,-1.31 -136.09,-2.21 -149.14,7.19 -15.06,10.69 -134.07,-11.05 -137.09,7.23 -35.14,238.42 97.42,740.21 99.42,995.79 1.01,84.77 35.16,628.29 41.68,712.8 11.56,149.33 57.75,306.95 119.51,443.29 95.92,209.95 108.46,257.94 197.85,502.84z"/>
    <path class="fil3" d="M5322.21 3751.68c-18.07,-14.76 -198.35,-28.07 -221.45,-28.67l-287.72 4.71c-6.52,463.93 85.87,1737.82 174.75,2193.21 38.16,196.29 81.34,262.72 82.34,462.68 42.19,-0.1 84.36,-0.16 126.04,-0.26 14.56,-625.41 171.24,-1927.22 185.3,-2552.63 1,-31.64 -34.66,-58.9 -59.26,-79.04z"/>
    <path class="fil2" d="M5165.54 2295.02c-40.67,-134.99 -194.32,-154.02 -220.44,20.12 -24.1,157.69 -140.09,489.14 -206.38,643.51 -32.14,74.05 -93.9,131.76 -179.76,163.79 -172.25,63.82 -338.46,139.25 -513.19,195.29l0.5 2.5c-29.13,11.3 -60.77,17.54 -92.4,17.38 -40.68,-0.2 -85.36,-9.54 -120,10.19 2,4.63 4.01,9.24 6.02,13.87 8.54,1.41 16.57,2.8 25.11,4.21 -20.09,4.43 -40.17,11.9 -57.75,21.99 -17.58,9.85 -35.16,27.07 -29.12,45.19 6.02,17.88 30.12,23.06 50.2,23.6 84.36,2.42 166.21,-23.24 246.06,-50.95 221.44,-44.1 373.59,-120.62 596.55,-164.06 43.17,-8.43 88.36,-17.47 126.03,-40.07 36.66,-21.94 62.27,-54.33 84.86,-86.57 149.64,-213.86 349.5,-603.62 283.71,-819.99z"/>
    <path class="fil2" d="M5503.48 2015.38c31.13,-32.9 55.24,-78.9 68.3,-136.34 24.09,-106.01 37.15,-217.48 11.04,-321.17 -29.62,-119.47 -134.57,-248.87 -267.14,-238.22 -155.17,12.51 -178.25,215.47 -190.31,350.85 -9.04,107.61 9.54,220.84 73.32,303.64 94.9,123.68 223.45,127.59 304.79,41.24z"/>
    <path class="fil4" d="M4881.33 6469.98c25.11,0.24 49.71,2.2 74.32,5.82 29.12,4.21 58.24,10.79 87.36,7.83 13.07,-1.3 25.62,-4.51 38.68,-6.42 20.08,-2.92 40.17,-2.62 60.25,-2.36 18.57,0.25 37.16,0.49 55.74,0.79 5.02,0.06 11.05,0.26 15.06,3.42 4.03,3.37 6.03,9.14 7.03,14.46 4.53,20.7 7.03,41.78 7.03,62.93 0,12.65 -0.99,26.4 -9.04,35.84 -6.02,6.69 -15.06,10.05 -23.6,12.31 -16.56,4.22 -33.65,5.17 -50.71,6.08 -87.88,4.77 -176.26,9.58 -264.13,4.21 -30.63,-1.9 -86.37,2.71 -108.96,-21.89 -19.09,-20.49 -10.05,-53.57 1.5,-75.37 22.1,-41.03 67.29,-48.11 109.47,-47.65z"/>
    <path class="fil5" d="M4922.51 6546.76c6.52,2.2 13.05,3 19.58,2.25l3.01 -1.06 1.01 -3.4c1.51,-22.3 2.01,-44.69 1,-67.04l-0.5 -3.06 -3.52 -1.91c-20.08,-5.22 -19.07,0.54 -19.07,19.03 0,18.42 -0.51,36.81 -1.51,55.19z"/>
    <path class="fil5" d="M4991.3 6535.95l2.01 5.33 5.02 0.65c5.53,-0.8 11.05,-1.65 16.57,-2.46l2.51 -1 1.01 -3.31c0.5,-18.48 0.5,-37.01 0,-55.54l-0.5 -2.67 -2.52 -1.41c-8.03,-2.7 -16.57,1.97 -23.6,-0.1 -2.01,19.85 -0.5,40.53 -0.5,60.51z"/>
    <path class="fil5" d="M5058.09 6532.24l0.99 2.72 2.52 0.59 12.56 -0.1 5.52 -1.6 1.51 -4.02c1,-11.85 2.5,-65.67 -21.59,-55.89 -16.59,6.83 -4.03,45.9 -1.51,58.3z"/>
    <path class="fil4" d="M5765.6 6499.8c6.53,-12.2 15.06,-23.94 26.12,-32.74 11.54,-9.18 25.61,-14.76 39.67,-19.03 18.08,-5.52 37.15,-9.18 55.73,-6.58 29.63,4.12 55.24,23.5 71.81,48.06 16.56,24.61 25.1,53.93 29.12,83.25 1.01,6.68 2.01,13.71 -0.5,19.99 -2.5,6.37 -8.04,11.14 -13.56,14.96 -18.08,12.21 -40.17,16.48 -61.77,19.28 -32.63,4.12 -64.77,5.63 -97.41,6.78 -15.56,0.55 -31.13,0.91 -45.69,-4.02 -23.11,-7.88 -35.15,-22.04 -31.13,-45.69 4.51,-29.77 12.55,-57.9 27.61,-84.26z"/>
    <path class="fil6" d="M5029.46 2463.69c-49.2,394.08 -153.15,778.91 -236.51,1167.23 -8.03,37.6 -16.07,77.07 -5.52,114.12 14.56,51.83 62.26,88.24 112.48,107.11 54.74,20.54 113.98,24.76 172.24,27.97 216.41,11.86 433.34,11.86 649.77,-0.04 29.62,-1.66 60.25,-3.71 86.87,-16.88 45.69,-22.55 70.8,-74.16 76.83,-124.83 5.52,-50.66 -4.53,-101.59 -12.55,-151.95 -48.21,-304.79 -11.06,-618.74 -64.78,-922.69 -15.08,-86.81 -37.66,-172.63 -44.7,-260.55 -4.01,-50.57 -2.5,-101.79 -13.05,-151.35 -10.55,-49.62 -35.65,-98.93 -79.34,-124.83 -79.34,-47.16 -178.27,-0.4 -269.65,11.94 -61.26,8.28 -122.52,0.1 -181.78,-13.85 -45.69,-10.7 -91.89,-42.23 -125.03,-0.75 -59.75,74.87 -53.73,248.15 -65.28,339.35z"/>
    <path class="fil7" d="M5024.44 2974.62c-57.25,0 -57.25,88.67 0,88.67 57.25,0 57.25,-88.67 0,-88.67z"/>
    <path class="fil7" d="M5144.96 2747.24c-56.75,0 -56.75,88.62 0,88.62 57.23,0 57.23,-88.62 0,-88.62z"/>
    <path class="fil7" d="M5248.89 3092.52c-56.73,0 -57.23,88.67 0,88.67 57.25,0 57.25,-88.67 0,-88.67z"/>
    <path class="fil7" d="M5324.22 2567.43c-56.74,0 -57.25,88.62 0,88.62 57.25,0 57.25,-88.62 0,-88.62z"/>
    <path class="fil7" d="M4954.65 3330.02c-57.25,0 -57.25,88.68 0,88.68 56.74,0 56.74,-88.68 0,-88.68z"/>
    <path class="fil7" d="M5437.71 2876.44c-57.25,0 -57.25,88.68 0,88.68 57.23,0 57.23,-88.68 0,-88.68z"/>
    <path class="fil7" d="M4911.46 3663.45c-56.75,0 -56.75,88.68 0,88.68 57.24,0 57.24,-88.68 0,-88.68z"/>
    <path class="fil7" d="M5161.03 3447.53c-57.25,0 -57.25,88.67 0,88.67 56.73,0 56.73,-88.67 0,-88.67z"/>
    <path class="fil7" d="M5360.37 3678.67c-57.25,0 -57.25,88.62 0,88.62 56.74,0 57.25,-88.62 0,-88.62z"/>
    <path class="fil7" d="M5437.71 3330.02c-57.25,0 -57.25,88.68 0,88.68 57.23,0 57.23,-88.68 0,-88.68z"/>
    <path class="fil7" d="M5786.7 3678.67c-57.25,0 -57.25,88.62 0,88.62 56.73,0 56.73,-88.62 0,-88.62z"/>
    <path class="fil7" d="M5786.7 3280.62c56.73,0 56.73,-88.68 0,-88.68 -57.25,0 -57.25,88.68 0,88.68z"/>
    <path class="fil7" d="M5161.03 2399.15c-57.25,0 -57.25,88.68 0,88.68 56.73,0 56.73,-88.68 0,-88.68z"/>
    <path class="fil7" d="M5360.37 2295.21c56.74,0 57.25,-88.67 0,-88.67 -57.25,0 -57.25,88.67 0,88.67z"/>
    <path class="fil7" d="M5628.51 2144.82c-57.23,0 -57.23,88.68 0,88.68 57.25,0 57.25,-88.68 0,-88.68z"/>
    <path class="fil7" d="M5743.51 2652.09c-56.74,0 -57.25,88.68 0,88.68 57.25,0 57.25,-88.68 0,-88.68z"/>
    <path class="fil8" d="M5285.05 3852.75c-62.76,-126.64 -91.9,-265.87 -125.03,-402.51 -35.15,-146.68 -67.29,-293.8 -86.87,-443.54 -18.58,-139.85 -27.62,-280.89 -28.12,-421.95 -0.51,-68.1 1.5,-136.14 5.53,-204.07 3,-52.83 -3.02,-289.84 106.44,-252.07 8.54,2.86 14.06,-10.2 6.03,-14.22 -90.38,-46.25 -121.01,62.01 -129.05,130.71 -23.6,191.06 -26.61,385.75 -13.06,577.67 12.56,179.76 41.18,357.31 80.85,533.07 38.66,173.19 73.31,354.76 153.16,514.59 10.03,20.14 40.17,2.42 30.12,-17.68z"/>
    <path class="fil8" d="M5838.41 2896.23c-3.01,-9.65 -17.07,-5.62 -15.06,4.11 61.26,321.98 127.04,644.6 5.52,961.76 -8.03,21.6 26.62,30.93 34.65,9.54 120.02,-315 72.82,-660.97 -25.11,-975.41z"/>
    <path class="fil9" d="M5707.36 3760.62c36.15,-3.62 75.32,-6.54 105.95,13.4 35.15,22.81 46.69,67.74 54.23,108.72 24.1,130.04 35.15,262.56 32.64,394.82 -0.51,21.16 -1.01,42.99 -10.54,62.02 -14.07,28.73 -44.2,45.45 -73.82,57.41 -125.03,50.5 -264.63,47.54 -399.21,43.88 -13.55,-0.36 -28.11,-0.95 -39.67,-7.89 -19.07,-11.14 -25.6,-34.84 -30.13,-56.23 -33.14,-151.3 -57.73,-304.51 -73.31,-458.61 -3.01,-25.16 -5.02,-51.03 1.51,-75.42 25.11,-91.44 346.98,-73.52 432.35,-82.1z"/>
    <path class="fil8" d="M5788.2 3881.89c-23.6,215.81 -358.02,274.02 -437.88,65.02 -2,-6.32 -12.04,-3.82 -10.03,2.86 78.33,240.23 445.39,166.61 472.51,-67.88 2.01,-15.83 -23.1,-15.83 -24.6,0z"/>
    <path class="fil8" d="M5592.87 4037c13.05,-8.94 15.06,-29.94 3.52,-41.08 -13.07,-12.7 -35.66,-7.03 -42.69,8.94l-1.51 6.33 1.01 12.7c5.52,15.81 25.61,22.5 39.67,13.11z"/>
    <path class="fil2" d="M5760.08 2918.92c-4.51,-111.03 -17.07,-221.6 -29.12,-332.07 -4.53,-39.15 -9.04,-78.58 -20.59,-116.19 -11.06,-34.4 -28.12,-67.08 -33.65,-102.74 -4.01,-25.9 -2.5,-54.03 -16.56,-76.18 -18.58,-28.77 -56.76,-36.89 -90.39,-39.71 -39.17,-3.22 -82.36,-1.31 -111.48,24.65 -42.18,37.71 -35.14,105.01 -21.59,160.09 13.05,52.43 28.62,104.29 39.67,157.22 21.09,100.43 25.6,203.77 46.2,304.29 17.07,83.61 15.06,165.31 20.58,250.47 9.54,136.74 -18.57,269.81 -44.18,404.48 -15.07,79.83 -31.14,161.24 -30.63,242.49 -14.56,47.25 -27.12,94.99 -40.68,142.51 -2.01,5.62 -2.51,13.21 2.52,16.01l11.04 1.96 6.52 10.75c4.03,21.14 -5.01,42.12 -11.04,62.66 -6.52,20.54 -9.04,44.99 4.52,61.56 8.03,9.85 20.59,14.97 33.14,17.78 21.09,4.87 45.19,3.47 63.77,-8.98 28.12,-19.45 34.64,-58.05 38.16,-92.35 6.53,-62.82 11.06,-125.83 15.07,-188.86 49.21,-225.05 98.42,-450.06 148.14,-675.07 7.53,-33.91 15.06,-67.9 18.57,-102.35 4.51,-40.62 3.52,-81.6 2.01,-122.42z"/>
    <path class="fil10" d="M6134.17 2666.09c-16.56,-12.05 -38.65,-15.77 -53.73,-29.97 -21.08,-19.89 -21.08,-53.58 -13.05,-81.31 8.54,-27.71 23.1,-53.62 27.11,-82.24 9.54,-74.87 -54.23,-135.74 -101.92,-194.34 -127.06,-156.51 -153.66,-364.7 -157.18,-559.68 -0.51,-42.88 3.52,-87.48 -3.51,-118.95l2.01 -10.8c22.58,-113.43 -13.06,-186.24 -85.37,-262.82 -118.51,-124.79 -308.82,-175.45 -471.01,-112.79l-12.56 5.23c-56.23,48.25 -103.93,106.85 -124.53,183.49 -13.05,47.39 -17.07,102.74 -8.03,152.14 2.01,6.48 4.52,12.8 6.52,19.13 3.02,-52.42 13.07,-108.46 39.17,-123.18 23.6,-13.35 143.62,27.12 179.78,24.61 60.75,-4.17 168.71,-45.65 201.35,27.62 16.07,36.96 -3.51,80.29 -18.07,115.75l-2.51 5.62c-9.04,21.83 -17.58,43.94 -19.09,51.27 -11.54,64.67 -20.08,123.32 -19.58,171.53 -23.6,85.51 -27.62,176.9 -24.1,266.08 0.5,13.05 0.99,26.46 6.52,38.32 21.09,45.55 87.38,34.39 136.59,45.59 50.21,11.5 88.87,53.03 112.99,98.77 67.28,127.69 39.65,282.16 56.23,425.47 4.52,38.36 12.56,77.07 31.63,110.72 38.68,68.79 125.03,107.21 201.87,90.19 77.33,-17.03 139.09,-88.18 145.11,-166.87 2.51,-32.83 -5.52,-69.49 -32.64,-88.58z"/>
    <path class="fil11" d="M2305.84 6829.66c-1,0 -1.51,0 -2.51,0l4.02 0c75.82,0 151.64,-1.46 227.47,-2.91 301.79,-5.73 603.58,-11.5 904.85,-17.22 -301.27,5.72 -603.06,11.49 -904.85,17.22 -76.32,1.45 -152.66,2.91 -228.98,2.91zm1184.56 -21.08c36.65,-0.72 73.31,-1.41 110.47,-2.12 55.23,-1.06 126.54,-13.26 130.56,-55.79 3.51,-38.12 -52.73,-62.51 -99.93,-73.91 -170.24,-40.73 -348.99,-48.56 -525.74,-55.33 -260.11,-9.89 -520.23,-18.14 -780.34,-24.67 -43.18,-1.1 -86.87,-2.11 -130.55,-2.15l-11.05 0c2.01,0 4.02,0 6.02,0 45.2,0 90.89,1 136.08,2.15 259.61,6.53 519.73,14.78 779.84,24.67 176.75,6.77 355.5,14.6 525.74,55.33 47.2,11.4 103.44,35.79 99.93,73.91 -4.02,42.53 -75.33,54.73 -130.56,55.79 -36.67,0.71 -73.82,1.4 -110.47,2.12z"/>
    <g style="clip-path:url(#id1)">
     <image x="1610.88" y="6549.01" width="2175.28" height="317.35" xlink:href="5.svg_Images\5.svg_ImgID2.png"/>
    </g>
    <path class="fil12" d="M5749.03 6640.86c10.55,14 30.63,15.65 48.21,16.11 49.71,1.21 100.42,2.42 149.63,-6.22 11.06,-2.01 22.6,-4.67 32.14,-11.24 9.54,-6.54 16.57,-17.88 15.07,-29.28 -1.5,-12.16 -12.55,-21.3 -24.61,-24.56 -11.54,-3.21 -24.09,-1.71 -36.65,0 -40.68,5.77 -80.85,13.75 -122.03,17.92 -18.07,1.81 -41.67,-1.9 -58.74,2.92 -15.57,4.31 -11.56,23.1 -3.02,34.35z"/>
    <path class="fil12" d="M4773.37 6618.05c8.04,7.14 19.58,8.84 30.13,10.05 54.23,5.93 108.96,5.27 163.69,4.57 39.17,-0.45 78.84,-0.95 118.01,-1.46 35.64,-0.4 71.3,-0.9 105.95,-8.19 8.04,-1.65 16.07,-3.71 22.6,-8.28 7.03,-4.57 12.06,-12 12.06,-20.09l-4.53 -10.98c-5.52,-5.03 -14.06,-4.13 -21.59,-2.97 -130.56,20.43 -263.63,22.24 -394.68,5.37 -9.55,-1.21 -27.63,-5.27 -35.16,3.02 -7.53,7.77 -4.01,22.59 3.52,28.96z"/>
    <path class="fil13" d="M3690.74 3336.06c-7.53,-24.55 -15.55,-51.43 -8.52,-74.37 9.04,-26.72 35.14,-38.22 59.75,-45.14 28.63,-7.98 57.75,-13.41 87.37,-16.17 12.56,-1.21 42.18,-4.63 53.73,2.35 17.07,9.99 19.59,32.79 24.1,53.18 28.63,122.42 57.75,223.06 77.34,336.19 2.5,15.71 4.51,33.44 -3.52,45.04 -5.52,7.38 -14.06,10.6 -22.6,13.3 -44.68,14.57 -180.26,61.07 -199.85,-18.93 -24.1,-98.67 -36.65,-197.39 -67.8,-295.45z"/>
    <path class="fil12" d="M3699.28 3309.84c-0.99,-9.54 -2.5,-19.83 1.51,-27.91 4.52,-9.34 14.57,-13.11 23.6,-15.97 38.66,-12 78.33,-19.59 118.52,-27.12 6.02,-1.21 22.09,-4.07 28.11,-1.56l15.57 7.54c11.05,12.04 9.54,29.88 15.56,45.73 5.52,14.27 5.52,29.58 9.55,44.2 4.51,15.91 7.53,32.08 11.04,48.15 5.01,23.86 11.05,47.5 17.57,70.96 5.02,16.92 9.04,33.99 14.56,50.66 2.52,7.78 4.03,16.37 2.52,24.01 -2.01,11.05 -10.05,16.01 -19.09,19.37 -18.57,6.44 -37.66,9.85 -56.73,13.17 -28.63,4.97 -56.74,9.93 -84.87,14.86 -10.05,1.81 -30.63,8.54 -38.16,-4.67 -4.53,-7.13 -4.53,-19.49 -6.02,-27.41 -2.52,-10.95 -5.02,-21.85 -7.54,-32.76 -10.04,-43.17 -22.1,-86.01 -31.63,-129.24 -5.52,-23.9 -10.55,-47.85 -14.07,-72.01z"/>
    <path class="fil14" d="M3811.76 3224.28l-10.03 1.2c-7.53,1.56 -15.08,3.07 -23.1,4.56l-10.05 4.79 3.51 2.56c7.03,2.15 45.19,-3.27 45.71,-10.05l-6.04 -3.06z"/>
    <polygon class="fil14" points="3764.56,3233.77 3759.54,3233.62 3757.53,3238.29 3758.54,3241.74 3765.06,3241.5 3765.06,3234.63 "/>
    <path class="fil15" d="M3857.97 3601.48c-3.02,3.73 -4.02,8.7 -4.02,13.61l1 7.03c2,5.62 7.03,9.99 12.55,11.8 6.02,1.81 12.06,1.27 17.58,-0.64l4.01 -2.17 2.51 -4.42c2.02,-6.28 2.02,-13.71 -1.49,-19.73 -6.54,-10.79 -23.6,-15.61 -32.14,-5.48z"/>
    <path class="fil16" d="M3560.69 3464.61c-24.6,-30.74 -63.77,-49.17 -102.94,-48.37 9.04,-9.18 18.59,-24.24 9.55,-33.54 -5.52,-5.82 -15.07,-4.92 -23.1,-3.97 -34.15,4.07 -69.81,1.16 -102.94,-8.52l-9.04 -2.62 0 -0.2c-201.35,-75.07 -396.19,-167.46 -581.98,-275.88 14.56,-66.33 11.54,-135.13 8.54,-203.01 -4.53,-97.77 -8.54,-195.49 -13.06,-293.2 -2.02,-37.51 -5.02,-78.55 -30.63,-105.66 -45.7,-47.76 -133.57,-16.32 -164.7,42.13 -30.63,58.4 -21.59,128.9 -12.06,194.24 25.11,170.92 50.22,341.85 75.33,512.77 3,19.59 6.52,40.68 20.58,54.49 11.55,10.95 27.12,15.32 42.18,19.33 203.37,53.99 406.24,108.01 609.6,162l0.51 -1.25c73.82,42.57 164.7,54.07 246.54,29.62 8.55,-2.61 17.58,-6.02 23.11,-13.41 5.02,-7.08 5.02,-16.37 4.51,-24.95z"/>
    <path class="fil17" d="M3289.03 3480.58l-7.53 10.03 -12.05 0.46c-209.4,-38.72 -427.32,-71.26 -625.67,-149.09 -16.07,-6.33 -32.64,-13.21 -44.69,-25.61 -14.05,-14.71 -20.09,-35.2 -26.11,-54.88 -64.78,-226.27 -126.04,-457.81 -118,-693.07 2.01,-49.21 8.03,-101.93 40.67,-138.98 35.65,-40.68 93.4,-52.22 146.62,-59.35 35.16,-4.63 74.32,-7.24 101.43,15.11 26.62,21.64 32.14,59.2 36.16,93.15 12.55,113.17 25.62,226.36 38.17,339.54 8.53,76.38 17.57,152.7 26.11,229.08 1.51,14.62 3.01,29.63 10.05,42.78 13.55,27.16 44.18,40.37 72.3,51.77 100.43,40.68 198.34,85.72 294.76,134.88 26.11,13.46 106.96,46.35 116.49,76.17 5.53,17.18 -17.58,45.81 -24.1,61.26 -11.04,24.46 -14.06,42.29 -24.61,66.75z"/>
    <path class="fil18" d="M2528.29 6630.31c22.6,16.31 -8.03,29.28 -23.09,30.53 -27.12,2.17 -54.75,0.9 -81.35,-4.57 -7.03,-1.41 -14.06,-3.26 -19.59,-7.09l-11.04 -11.14c-8.54,-11.15 -29.14,-28.73 -32.64,-41.62 -2.52,-10.65 5.01,-21 10.53,-30.73 12.56,-20.6 33.65,-41.84 32.64,-66.33 58.76,5.52 115,-11.76 163.21,1.75 4.01,17.48 19.59,31.74 12.55,45.39 4.52,-9.04 146.12,21.44 162.7,24.26 27.11,4.52 54.23,8.34 81.34,10.44 21.6,1.61 62.26,-6.83 74.32,11.4 4.51,6.48 5.52,14.01 6.52,21.44 0.51,5.62 0.51,11.4 -2.01,16.77 -3.51,9.19 -13.05,15.81 -24.1,19.19 -115.99,36.55 -231.98,-21.14 -349.99,-19.69z"/>
    <path class="fil19" d="M2902.38 3782.11c-8.03,-22.65 -32.14,-34.8 -54.23,-43.44 -148.13,-57.14 -309.82,-63.02 -468.5,-62.32 -82.34,0.36 -164.2,2.32 -246.54,5.88 -57.15,2.46 -173.14,3.71 -202.62,65.28 -33.24,69.44 -62.12,206.59 -45.34,276.08 30.73,127.04 19.43,354.35 53.72,518.06 -3.41,674.67 -6.87,1349.31 -10.29,2023.94 54.63,1.35 109.32,2.7 164,4.05 8.03,-222.39 76.17,-439.41 132.92,-656.54 59.75,-230.09 106.46,-462.63 141.1,-696.52 11.55,436.06 23.1,872.17 34.65,1308.23 54.73,0.1 109.47,0.15 164.2,0.25 1,-222.5 62.26,-441.04 111.98,-659.41 115.49,-506.82 214.41,-1300.9 205.88,-1817.15l0 0.04c5.01,-76.78 9.04,-153.5 19.58,-226.76 2.01,-13.21 3.51,-27.02 -0.51,-39.67z"/>
    <path class="fil18" d="M2052.1 6674.05c22.21,16.81 -9.14,29.07 -23.94,29.92 -27.11,1.57 -55.08,-0.34 -81.35,-6.42 -6.93,-1.61 -14.02,-3.57 -19.48,-7.59l-10.45 -11.34c-8.34,-11.36 -28.47,-29.44 -31.29,-42.39 -2.36,-10.69 5.43,-20.88 11.6,-30.43 13.06,-20.33 34.91,-41.07 34.65,-65.58 58.36,6.88 115.04,-9.13 163.15,5.53 3.52,17.58 18.53,32.18 11,45.69 4.51,-8.93 145.12,24.81 161.69,28.02 27.11,5.13 53.73,9.6 81.34,12.3 21.1,2.11 62.28,-5.36 73.82,13.17 4.01,6.52 5.02,14.1 5.52,21.53 0.5,5.68 0,11.45 -2,16.77 -4.02,9.1 -14.07,15.47 -25.11,18.59 -117.01,33.89 -230.99,-26.52 -349.15,-27.77z"/>
    <path class="fil16" d="M2641.77 1379.3c-54.73,41.88 -87.88,105.46 -118.49,167.37 -37.67,76.77 -74.83,156.61 -80.36,242.03 -4.01,63.13 9.04,130.61 -20.08,186.85 107.96,41.22 213.91,87.03 317.86,137.19 148.13,-160.09 251.07,-361.55 293.75,-575.36 1.5,-7.08 2.51,-14.66 0,-21.45 -2.51,-7.57 -9.54,-12.65 -16.57,-17.12 -92.4,-61.11 -199.35,-96.11 -304.8,-130.45 -11.05,-3.62 -22.6,-7.28 -34.65,-6.22 -13.56,1.19 -25.61,8.84 -36.66,17.16z"/>
    <path class="fil6" d="M2892.85 3644.01c-5.03,-111.57 -7.04,-223.24 -6.03,-334.92 2.51,-255.95 -11.04,-510.73 -29.63,-766.08 -7.53,-103.28 -16.07,-206.47 -25.61,-309.61 -3.51,-40.37 -120.52,-82.15 -149.64,-88.52 -17.56,-3.72 -34.64,-8.84 -51.71,-14.62 -16.07,-5.53 -32.14,-11.65 -47.71,-17.78 -79.84,-30.53 -159.18,-61.11 -239.02,-91.64 -12.06,-4.57 -24.61,-9.14 -36.65,-6.58 -10.05,2.01 -18.08,8.09 -25.61,14.21 -148.64,120.02 -189.11,315.1 -229.99,492.55 -91.68,398.71 -143.41,805.74 -154.75,1213.83 0,0 23.64,64.62 103.34,110.23 79.73,45.59 367.26,79.38 367.26,79.38l392.17 -42.47c0,0 139.6,-44.5 133.58,-237.98z"/>
    <path class="fil20" d="M3419.09 3317.07c5.02,-24.95 10.55,-52.22 27.12,-69.55 19.08,-20.12 45.69,-19.38 68.29,-15.35 26.62,4.66 52.22,11.89 77.33,21.69 10.54,4.21 35.64,13.31 42.18,24.45 8.54,15.82 0,37.15 -5.52,57.19 -33.65,120.51 -56.74,221.8 -92.9,330.36 -5.02,15.06 -11.55,31.74 -23.61,38.52 -7.53,4.37 -16.06,3.66 -24.1,2.6 -42.67,-5.72 -171.73,-20.38 -151.13,-99.56 26.1,-97.72 61.76,-190.53 82.34,-290.35z"/>
    <path class="fil12" d="M3437.66 3297.39c3.52,-9.09 7.55,-18.68 14.07,-24.2 8.04,-6.48 17.58,-5.72 26.12,-4.47 36.65,5.36 71.79,15.11 106.95,24.91 5.52,1.49 19.59,5.56 23.6,10.39l8.54 12.95c3.5,15.37 -6.03,30.58 -8.54,47.16 -2.01,14.86 -9.04,28.41 -12.55,43.18 -4.02,15.92 -9.04,31.59 -13.57,47.3 -6.52,23.25 -13.05,46.75 -18.08,70.4 -4.01,17.03 -9.03,33.8 -12.04,50.92 -1.51,7.98 -4.03,16.21 -9.04,22.35 -7.03,8.88 -15.07,10.13 -24.11,9.23 -17.56,-1.86 -34.64,-6.83 -51.71,-11.75 -24.61,-7.33 -49.72,-14.66 -74.32,-21.99 -9.03,-2.61 -28.12,-5.03 -28.62,-19.93 0,-8.04 5.52,-19.13 8.03,-26.88 3.02,-10.64 6.03,-21.33 9.04,-32.02 12.05,-42.59 22.09,-85.52 34.14,-128.01 6.54,-23.4 14.07,-46.7 22.09,-69.54z"/>
    <path class="fil14" d="M3566.72 3267.86l-8.54 -3.11c-6.53,-1.75 -13.55,-3.56 -20.08,-5.37l-10.55 0.04 1.51 3.52c4.51,4.97 37.66,15.91 41.18,10.15l-3.52 -5.23z"/>
    <polygon class="fil14" points="3524.53,3256.66 3521.02,3254.51 3517,3257.81 3516.51,3261.39 3521.53,3263.79 3524.53,3257.67 "/>
    <path class="fil15" d="M3430.13 3621.98l-9.53 10.34 -2.51 6.68c-1.01,5.82 1,11.74 5.01,15.71 3.52,3.98 8.54,6.03 14.07,6.54l4.01 -0.26 4.03 -2.82c5.01,-4.67 8.03,-11.44 8.03,-18.17 0,-12.2 -11.55,-23.6 -23.11,-18.02z"/>
    <path class="fil21" d="M2676.42 1737.43c-17.07,-18.28 -38.66,-38.01 -63.77,-34.69 -23.1,3.1 -39.17,25.85 -43.19,48.65 -4.51,22.85 -0.49,46.31 1.01,69.49 0,4.93 0,10.41 -3.51,14.02 -3.52,3.92 -9.55,4.17 -14.56,4.71 -20.6,2.11 -39.67,13.21 -51.73,29.78 -9.04,12.66 -14.06,28.13 -25.11,39.47 -14.56,15.42 -36.65,20.49 -57.74,23.7 -20.09,3.16 -40.67,5.33 -61.27,6.54 -16.57,0.95 -36.15,-0.1 -45.69,-13.81l-3.02 -8.84c1.01,-5.42 7.04,-8.29 11.56,-11.3 17.07,-11.45 22.59,-34.19 24.1,-54.89 1.51,-20.68 0,-42.43 9.04,-61.16 5.02,-10.54 12.55,-19.43 20.58,-27.82 58.76,-60.15 134.58,-100.57 214.92,-123.72 21.09,-6.17 99.94,-34.6 118.01,-17.87 17.07,15.51 -25.11,95.39 -29.63,117.74z"/>
    <path class="fil21" d="M2969.67 1618.67c10.54,6.13 20.59,13.87 26.61,24.36 4.02,6.53 6.04,13.96 9.54,20.74 8.04,15.47 23.61,27.07 40.18,30.79 0.5,-16.27 0.5,-32.5 0.5,-48.71l3.02 -10.21 14.05 -4.31c4.03,-2.56 5.02,-7.93 5.02,-12.6 1.01,-20.69 2.01,-42.09 -5.02,-61.56 -2.51,-7.09 -6.02,-14.12 -12.56,-18.29 -6.52,-4.26 -14.56,-4.91 -22.59,-5.11 -38.16,-0.85 -115.99,3.86 -145.11,33.59 -30.13,31.23 65.77,39.36 86.36,51.31z"/>
    <path class="fil22" d="M1965.75 3694.98c5.72,32.94 13.15,66.89 5.86,99.48 -5.22,22.95 -17.47,43.49 -32.13,61.27 -65.59,79.48 -172.84,102.98 -272.46,109.71 -117.76,7.89 -250.22,-7.98 -326.7,-102.74 -46.94,-58.2 -64.37,-137.88 -62.52,-214.26 1.91,-76.42 21.4,-151 40.73,-224.66 46.84,-178.82 93.74,-357.63 140.64,-536.45 7.49,-28.41 15.63,-58.14 35,-79.38 25.87,-28.37 65.79,-35.46 102.9,-39.83 68.14,-8.02 137.83,-12 204.81,3.78 55.64,13.05 141.01,49.6 167.07,108.96 29.33,66.68 7.54,183.99 3.07,255.24 -11.66,185.7 -38.06,373.8 -6.27,558.88z"/>
    <path class="fil22" d="M2075.66 2436.42c58.96,-89.99 141.3,-173.45 252.78,-218.58 111.47,-45.15 255.59,-44.89 352.5,19.03 94.9,62.86 126.54,169.87 139.6,269.69 22.59,180.83 3.01,364.06 -40.68,542.27 -18.58,76.88 -42.18,153.7 -84.85,223.8 -52.23,85.66 -131.07,158.18 -212.91,226.32 -158.68,132.26 -342.47,256.8 -563.81,295.06 -23.46,4.07 -49.07,7.98 -64.98,22.7 -30.23,28.07 -0.2,76.67 43.49,87.57 43.64,10.85 90.22,-3.87 131.2,-20.38 205.03,-82.92 372.24,-216.23 535.44,-347.38 57.24,-45.71 114.99,-92.61 150.64,-151.11 30.13,-48.65 42.69,-102.98 55.24,-156.46 46.19,-198.55 92.89,-397.7 107.95,-599.46 6.04,-84.31 6.54,-170.33 -21.59,-251.52 -28.11,-81.25 -88.36,-158.02 -178.75,-197.99 -53.73,-23.86 -116.01,-33.5 -177.27,-34.96 -147.12,-3.46 -294.76,40.32 -405.17,120.06 -44.89,32.4 -84.72,72.01 -100.58,119.27 -14.32,42.47 -7.33,101.33 37.81,129.54 16.67,-23.8 27.51,-52.42 43.94,-77.47z"/>
    <path class="fil23" d="M1449.64 2535.64c65.57,-80.89 169.78,-143.46 284.76,-148.39 59.26,-2.5 118.06,10.05 174.1,26.78 40.62,12.14 81.5,27.15 112.02,53.12 48.46,41.28 63.12,103.34 65.49,161.78 2.5,62.42 -6.38,125.15 -26.26,185.24 -7.75,23.4 -17.68,47.21 -37.52,64.64 -29.68,26.16 -75.32,32.93 -117.8,35.9 -158.53,10.94 -320.01,-13.21 -465.14,-68.7 -84.25,-32.24 -108.91,-39.97 -85.36,-119.46 19.94,-67.43 49.1,-133.42 95.71,-190.91z"/>
    <path class="fil23" d="M1696.84 3481.57c21.09,-4.21 46.3,-8.48 61.26,6.98 7.79,8.04 10.5,19.58 12.45,30.63 13.61,77.33 2.82,158.78 -30.47,229.89 -11,23.5 -24.61,46.19 -43.68,63.71 -38.48,35.46 -94.1,45.61 -146.43,44.65 -30.63,-0.55 -62.57,-4.92 -87.82,-22.24 -40.03,-27.42 -53.54,-80 -57.71,-128.35 -3.75,-43.64 -2.26,-87.72 4.27,-131.01 3.62,-23.8 8.13,-94.4 34.51,-103.44 13.55,-4.57 45.08,9.58 59.69,12 21.6,3.62 43.55,5.87 65.44,6.82 43.03,1.92 86.25,-1.3 128.49,-9.64z"/>
    <path class="fil23" d="M1395.9 3515.62l1.71 11.9 8.09 2.26c103.39,4.32 206.79,8.69 310.17,13.06 18.59,0.75 38.97,1.01 53.63,-10.45 17.98,-13.95 20.34,-42.08 9.14,-61.81 -11.25,-19.74 -32.99,-31.64 -55.19,-36.31 -22.19,-4.72 -45.19,-3.16 -67.83,-1.8 -61.72,3.55 -123.98,6.43 -185.8,4.82 -17.27,-0.41 -31.59,-4.37 -45.09,7.99 -16.27,14.86 -24.4,49.8 -28.83,70.34z"/>
    <path class="fil23" d="M1766.84 3080.26l9.85 1.45c5.01,2.72 6.68,9.04 7.67,14.68 5.18,29.82 5.28,60.51 0.4,90.38l-4.11 8.73 -7.43 1.41c-100.13,-2.31 -200.26,-5.07 -300.34,-8.29 -0.7,-21.85 1.21,-43.74 5.68,-65.07 11.5,-54.83 76.52,-38.32 119.61,-39.32 56.24,-1.31 112.43,-2.66 168.67,-3.97z"/>
    <path class="fil23" d="M1399.67 2998.06c-0.05,25.26 0.86,50.62 -2.46,75.62 -9.04,68 -48.81,127.8 -91.64,181.37 16.73,6.48 33.4,12.96 50.12,19.45 10.34,-24.02 20.68,-48.01 30.97,-72.07 10.25,-23.74 20.5,-47.7 26.92,-72.76 7.94,-31.13 9.79,-63.47 11.6,-95.56 2.17,-38.41 30.14,-178.36 2.01,-204.01 -35.76,16.77 -27.42,133.37 -27.52,167.96z"/>
    <path class="fil24" d="M2985.24 3862.45c20.08,16.92 40.68,34.1 65.77,41.77 25.11,7.65 55.74,3.47 72.31,-16.91 18.08,-21.85 14.07,-55.4 -1.49,-78.9 -15.57,-23.44 -40.19,-39.15 -64.28,-54.23 16.07,6.24 33.13,-13.95 29.12,-30.77 -4.01,-16.87 -20.58,-27.77 -37.15,-32.9 -16.07,-5.12 -34.15,-6.27 -50.22,-12.65 -14.06,-5.77 -35.65,-8.64 -47.71,-18.22 -52.72,-41.28 -72.81,-69.5 -142.6,-135.38 -19.58,-18.63 -36.15,-38.12 -54.74,-58 -12.55,-13.87 -24.1,-29.23 -38.16,-41.38 -21.59,-18.08 -57.75,-22.04 -78.33,-41.22 -16.57,-15.16 -31.64,-28.33 -55.74,-17.38 -37.66,17.38 -32.64,73.22 -14.06,102.28 30.13,47.81 84.86,89.14 125.03,128.66 45.19,44.14 91.39,87.53 138.09,130.06 50.22,46.05 101.93,91.13 154.16,135.17z"/>
    <path class="fil25" d="M2542.35 3151.97c-12.06,-12.91 -23.6,-26.02 -31.13,-42.03 -8.04,-18.08 -9.54,-38.76 -9.04,-59.06 2.51,-87.76 43.19,-171.47 82.86,-251.87 23.6,-48.55 47.69,-97.22 77.32,-142.81 20.09,-31.33 45.19,-74.87 51.72,-110.07 7.53,-40.57 14.56,-118.75 9.54,-133.41 -25.61,-76.58 -86.36,-143.62 -171.73,-144.12 -24.6,-0.14 -111.98,33.25 -129.05,50.71 -20.58,20.34 -55.74,79.8 -81.35,107.41 -8.02,8.84 -12.05,20.64 -16.07,31.89 -10.54,30.68 -21.59,61.42 -32.64,92.09 -12.55,36.15 -25.6,72.41 -34.64,109.47 -12.56,50.16 -18.08,101.68 -16.57,152.61 1.51,44.93 -14.06,111.92 -7.53,156.11 7.02,45.24 1,103.44 8.03,148.73 5.02,31.99 10.05,64.33 22.09,93.95 12.06,28.27 29.64,53.18 48.71,77.13 89.89,115.04 422.31,379.92 531.77,476.74l106.45 -118.45c-103.44,-73.92 -323.88,-401.17 -408.74,-495.02z"/>
    <path class="fil21" d="M2402.26 1379.8c-30.63,24.77 -71.31,33.49 -106.46,51.33 -35.65,17.82 -68.79,52.42 -62.77,91.54 7.53,48.35 71.3,76.72 70.3,125.68 -0.5,17.23 -9.53,33.24 -11.04,50.36 -3.52,44.8 47.2,77.99 91.89,75.03 45.19,-2.92 84.35,-29.74 122.51,-53.02 147.14,-89.19 317.36,-138.66 489.1,-143.67 28.62,-0.85 58.74,-0.71 84.36,-13.01 26.11,-12.29 46.69,-41.47 39.16,-69.04 -11.55,-38.96 -65.28,-46.35 -89.38,-79.09 -13.05,-18.08 -15.57,-41.73 -24.11,-62.27 -16.06,-37.11 -51.71,-61.31 -85.36,-83.5 -69.29,-45.55 -142.1,-92.45 -224.95,-99.02 -73.32,-5.88 -149.65,21.85 -207.89,65.53 -52.23,38.96 -33.15,101.43 -85.36,143.15z"/>
   </g>
  </g>
 </g>
</svg>
