<?xml version="1.0" encoding="UTF-8"?>
<!DOCTYPE svg PUBLIC "-//W3C//DTD SVG 1.1//EN" "http://www.w3.org/Graphics/SVG/1.1/DTD/svg11.dtd">
<!-- Creator: CorelDRAW 2017 -->
<svg xmlns="http://www.w3.org/2000/svg" xml:space="preserve" width="80mm" height="80mm" version="1.1" style="shape-rendering:geometricPrecision; text-rendering:geometricPrecision; image-rendering:optimizeQuality; fill-rule:evenodd; clip-rule:evenodd"
viewBox="0 0 8000 8000"
 xmlns:xlink="http://www.w3.org/1999/xlink">
 <defs>
  <style type="text/css">
   <![CDATA[
    .str0 {stroke:#FEFEFE;stroke-width:141.11;stroke-linejoin:bevel;stroke-miterlimit:22.9256}
    .fil8 {fill:#FEFEFE}
    .fil7 {fill:#9D9E9E}
    .fil6 {fill:#5B5B5B}
    .fil3 {fill:#8C6239;fill-rule:nonzero}
    .fil4 {fill:#C7B299;fill-rule:nonzero}
    .fil5 {fill:#EDD5BE;fill-rule:nonzero}
    .fil2 {fill:#EEF6F2;fill-rule:nonzero}
    .fil1 {fill:url(#id1)}
    .fil0 {fill:url(#id2)}
   ]]>
  </style>
     <clipPath id="id0">
      <path d="M2988.08 6722.81c-46.22,0 -91.62,-0.3 -137.84,-1.04 -0.82,-0.07 -0.82,-0.07 -1.65,-0.07 -1.65,0 -3.3,-0.07 -4.95,-0.07 0,0 0,0 0,-0.08 -2.48,0 -4.13,0 -5.78,0 -2.47,-0.07 -4.12,-0.15 -5.78,-0.15 0,0 -0.82,0 -0.82,0 -1.65,0 -2.48,0 -4.13,-0.07 -0.82,0 -1.65,-0.07 -2.47,-0.07 -1.65,0 -3.3,-0.08 -4.96,-0.08 0,0 -0.82,0 -0.82,0 -8.25,-0.22 -15.68,-0.37 -23.94,-0.59 -0.82,0 -0.82,0 -1.65,-0.07 -1.65,0 -4.12,-0.08 -5.77,-0.15 -53.65,-1.33 -106.48,-3.4 -159.3,-6.35 -14.03,-0.82 -31.36,-3.55 -44.57,-9.24 0,0 0,-0.15 0,-0.22 -9.08,-4.36 -15.68,-10.35 -16.51,-18.48l0 -1.62c0.83,-7.98 6.61,-17.81 21.46,-29.93l0 0c15.68,-12.93 36.32,-18.47 55.3,-27.12 13.21,-6.21 26.41,-14.26 39.62,-21.43 20.63,-11.45 42.92,-20.84 65.2,-28.52 138.66,-47 302.91,-30.52 445.7,-36.65 160.12,-6.8 319.42,-13.75 479.54,-18.4l0 0c115.55,-3.4 231.1,-5.47 346.65,-5.55l25.58 0c59.43,0 119.68,0.67 179.11,1.78 62.73,1.33 127.1,1.62 191.48,1.62 36.32,0 72.64,-0.14 108.13,-0.22 37.14,-0.07 73.45,-0.15 109.77,-0.15 75.11,0 150.22,0.45 222.85,2.29 423.41,10.72 575.28,33.63 575.28,58.01 0,31.63 -251.74,65.77 -496.05,80.1 -341.7,20.03 -605.81,28.23 -1061.42,53.58 -0.82,0.07 -0.82,0.07 -1.65,0.07 -9.08,0.44 -18.15,0.67 -26.41,0.67 -26.41,0 -52.82,-1.56 -79.23,-1.56l0 0c-3.3,0 -7.43,0 -11.56,0l0 0 0 0c-213.77,0 -428.36,6.88 -642.13,9.09 -42.09,0.37 -84.19,0.67 -126.28,0.67l0 0z"/>
     </clipPath>
  <linearGradient id="id1" gradientUnits="userSpaceOnUse" x1="2573.74" y1="6559.76" x2="5427.13" y2="6698.57">
   <stop offset="0" style="stop-opacity:1; stop-color:#CCCCCC"/>
   <stop offset="1" style="stop-opacity:1; stop-color:#CCCCCC"/>
  </linearGradient>
  <linearGradient id="id2" gradientUnits="userSpaceOnUse" xlink:href="#id1" x1="2573.72" y1="6559.77" x2="5427.13" y2="6698.58">
  </linearGradient>
 </defs>
 <g id="Layer_x0020_1">
  <metadata id="CorelCorpID_0Corel-Layer"/>
  <g id="_2495127303600">
   <path class="fil0 str0" d="M2996.01 6722.81l0.54 0 1.41 0 0.55 0 1.43 0 0.52 0 1.44 0 0.51 0 1.44 0 0.52 0 1.46 0 0.51 0 1.45 0 0.51 0 1.46 -0.01 0.5 0 1.48 0 0.46 0 1.5 0 0.46 0 1.51 0 0.45 0 1.15 -0.03 -21.26 0.04zm-270.01 -3340.31c-22.42,-14.82 -32.5,-48.44 -35.75,-77.29 -19.34,-171.83 32.22,-337.2 109.71,-494.37 22.18,-223.6 30.76,-446.07 5.84,-664.19 28.64,-20.46 62.48,-33.52 97.41,-37.91 -40.05,-162.31 -20.33,-338.42 -1.73,-449.68 13.56,-81.36 40.03,-161.71 87.13,-229.39 47.14,-67.72 116.27,-122 196.4,-141.32 37.69,-9.13 76.77,-10.47 115.53,-11.11 30.01,-0.51 66.01,3.2 83.86,24.91 37.38,-14.09 81.86,-1.61 113.3,23.85 33.63,27.23 55.03,66.46 73.7,105.43 29.5,61.6 54.44,125.7 68.61,192.51 21.96,103.71 17.37,212.25 -7.4,315.33 -8.79,36.56 -20.22,72.96 -39.65,105.15 -20.62,34.27 -49.36,62.43 -79.85,88.67 15.1,6.18 29.49,14.07 42.75,23.56 -9.42,82.5 -12.81,164.98 -11.85,247.47l90.78 0 0 91.82c21.21,-9.56 48.17,-8.36 64.56,7.91 15.09,15.02 17.8,38.11 19.63,59.33 20.06,228.92 40.12,457.89 60.2,686.81 8.59,97.7 13.63,206.96 -49.94,281.59 -13.66,16.01 -32.21,30.35 -52.56,32.62 31.5,270.67 61.32,426.69 50.97,737.04 -19.24,579.17 -91.03,1361.33 -110.31,1940.5 -0.06,2.05 -15.53,3.36 -42.3,4.07l3.07 7.24c35.35,85.32 53.74,177.97 54.09,270.63 0.05,12.58 -0.24,25.16 -0.85,37.72 -0.55,11.15 -1.37,22.29 -2.45,33.4 -17.79,27.34 -57.7,31.25 -86.62,17.05 -12.81,-6.31 -23.92,-15.22 -33.88,-25.55 -12.54,-12.99 -23.26,-28.22 -33.32,-43.33 -2.97,-4.45 -5.91,-8.91 -8.83,-13.41 -43.16,-66.49 -80.24,-137.95 -99.48,-215.25 -5.67,-22.7 -9.77,-45.85 -12.25,-69.16 -123.07,-1.84 -268.34,-5.22 -387.19,-8.12 -2.13,12.49 -4.74,24.88 -7.81,37.17 -20.55,82.47 -61.43,158.31 -108.32,228.68 -15.05,22.62 -31.63,45.51 -53.51,60.72 -4.35,3.02 -8.9,5.75 -13.7,8.1 -12.58,6.19 -27.23,8.95 -41.22,7.85 -18.23,-1.44 -35.34,-9.4 -45.4,-24.88 -11.06,-114.06 5.84,-230.86 48.76,-336.75 2.45,-122.28 -71.94,-1022.47 -76.25,-1094.27 -24.21,-400.93 -55.62,-820.31 -32.58,-1221.38 9.16,-160.2 59.55,-305.69 81.76,-469.23l6.94 -50.54zm722.61 -1264.8c32.14,-63.37 51.13,-131.85 60.11,-202.42 -7.28,11.25 -14.63,22.3 -21.89,33.1 -50.91,75.67 -115,151.49 -203.63,172.97 -108.51,26.37 -222.51,-42.84 -276.77,-141.13 10.33,52.31 22.88,123.81 16.78,184.88 130.36,24.72 266,21.8 395.04,-9.12l1.04 -38.56c9.77,-0.6 19.56,-0.5 29.32,0.28zm-429.02 4605.06l0.05 0 -0.05 0 -2.32 0.01 -1.15 0.03 -0.45 0 -1.51 0 -0.46 0 -1.5 0 -0.46 0 -1.48 0 -0.5 0 -1.46 0.01 -0.51 0 -1.45 0 -0.51 0 -1.46 0 -0.52 0 -1.44 0 -0.51 0 -1.44 0 -0.52 0 -1.43 0 -0.55 0 -1.41 0 -0.54 0m23.63 -0.05l0.39 0 -0.39 0zm0.39 0l1.53 -0.01 -1.53 0.01zm1.53 -0.01l0.05 0 -0.05 0zm0.05 0l0.39 0 -0.39 0zm0.39 0l1.54 0 -1.54 0zm1.54 0l0.04 0 -0.04 0zm0.04 0l0.38 0 23.09 -0.11 -1.57 0.02 -0.3 0 -1.66 0.02 -0.31 0 -1.66 0 -0.32 0 -1.64 0.03 -0.32 0 -1.63 0 -0.34 0 -1.6 0 -0.38 0 -1.59 0.02 -0.35 0 -1.6 0 -0.37 0 -1.59 0.02 -0.37 0 -1.59 0 -0.39 0 -1.58 0 -0.39 0 -1.54 0 -0.38 0zm23.87 -0.11l1.67 0 0.26 0 1.67 0 0.29 0 1.63 -0.03 -5.52 0.03zm5.85 -0.03l1.71 0 0.24 0 1.58 -0.02 -3.53 0.02zm3.92 -0.02l1.72 0 0.24 0 1.73 -0.01 0.23 0 1.71 -0.02 0.26 0 1.74 0 0.2 0 1.67 -0.03 -9.5 0.06zm9.8 -0.06l1.74 0 0.22 0 1.75 -0.02 0.22 0 1.6 -0.02 -5.53 0.04zm5.89 -0.04l1.76 0 0.17 0 1.7 -0.03 -3.63 0.03zm3.95 -0.03l1.76 0 0.15 0 1.79 -0.02m0.16 0l0.09 -0.01 -0.09 0.01 -3.86 0.02 1.76 0m2.19 -0.03l1.72 -0.01 5.83 -0.05 -1.77 0.04 -0.12 0 -1.84 0.01 -0.12 0 -1.83 0 -0.15 0 -1.72 0.01zm9.61 -0.07l0.08 0 1.88 0 0.09 0 1.88 -0.02 0.08 0 1.86 -0.03 0.09 0 1.88 0 0.08 0 1.9 -0.02 0.07 0 1.89 -0.02 0.07 0 1.9 -0.02m0.06 0l0.26 -0.01 -0.26 0.01 -13.81 0.11 0.08 0m13.99 -0.12l1.66 -0.02 -1.66 0.02zm1.66 -0.02l0.01 0 -0.01 0zm0.01 0l0.3 0 -0.3 0zm0.3 0l1.65 -0.02 -1.65 0.02zm1.65 -0.02l0.02 0 -0.02 0zm0.02 0l0.31 0 -0.31 0zm0.31 0l1.62 0 -1.62 0zm1.62 0l0.03 0 -0.03 0zm0.03 0l0.32 -0.01 3.23 -0.03 -1.6 0.03 -0.02 0 -1.61 0 -0.32 0.01zm3.55 -0.04l-1.6 0.03 -0.02 0 -1.61 0m-22.05 0.18l-1.77 0.04 -0.12 0 -1.84 0.01 -0.12 0 -1.83 0 -0.15 0m-5.99 0.04l-1.7 0.03 -0.17 0 -1.76 0m-0.36 0l-1.6 0.02 -0.22 0 -1.75 0.02 -0.22 0 -1.74 0m-0.3 0l-1.67 0.03 -0.2 0 -1.74 0 -0.26 0 -1.71 0.02 -0.23 0 -1.73 0.01 -0.24 0 -1.72 0m-0.39 0l-1.58 0.02 -0.24 0 -1.71 0m-0.33 0l-1.63 0.03 -0.29 0 -1.67 0 -0.26 0 -1.67 0m-0.4 0l-1.57 0.02 -0.3 0 -1.66 0.02 -0.31 0 -1.66 0 -0.32 0 -1.64 0.03 -0.32 0 -1.63 0 -0.34 0 -1.6 0 -0.38 0 -1.59 0.02 -0.35 0 -1.6 0 -0.37 0 -1.59 0.02 -0.37 0 -1.59 0 -0.39 0 -1.58 0 -0.39 0 -1.54 0m-46.07 0.06l-16.67 -0.03 1.03 0.02 0.45 0 1.68 0 0.51 0 1.68 0 0.49 0 1.66 0.01 0.5 0 1.65 0 0.52 0 1.64 0 0.53 0 1.62 0 0.53 0 1.64 0 0.54 0zm-16.67 -0.03l-7.62 -0.03 -0.07 0 0.07 0m-12.55 -0.04l-4.18 -0.03 -0.15 0 -0.38 0 0.38 0 0.15 0 1.64 0.03 0.37 0 1.78 0 0.39 0zm-4.72 -0.03l-6.47 -0.04 -1.83 0 -1.18 -0.01 0.86 0.01 0.32 0 1.83 0m-3.01 -0.01l-5.31 -0.04 -0.24 0 0.24 0m-4.65 -0.03l-4.03 -0.03 -0.15 0 0.15 0m-0.35 0c-13.53,-0.1 -27.07,-0.24 -40.66,-0.42l-0.15 -0.01 -21.45 -0.3c-0.83,-0.1 -0.83,-0.1 -1.66,-0.1 -1.66,0 -3.32,-0.05 -4.96,-0.05 0,0 0,0 0,-0.07 -2.48,0 -4.13,0 -5.78,0 -2.47,-0.09 -4.11,-0.16 -5.77,-0.16l-0.44 0 -0.02 0 0.02 0 0.17 0.02 0.03 0 0.17 0 -0.17 0 -0.03 0 -0.17 -0.02m-0.2 0l-0.19 0c-1.66,0 -2.49,0 -4.11,-0.08 -0.83,0 -1.66,-0.07 -2.49,-0.07 -1.66,0 -3.3,-0.07 -4.95,-0.07 0,0 -0.83,0 -0.83,0 -8.24,-0.23 -15.68,-0.37 -23.94,-0.6 -0.83,0 -0.83,0 -1.66,-0.07 -1.64,0 -4.11,-0.07 -5.75,-0.15 -53.66,-1.34 -106.48,-3.41 -159.31,-6.34 -14.02,-0.83 -31.36,-3.55 -44.56,-9.24 0,0 0,-0.15 0,-0.24 -8.67,-4.15 -15.06,-9.78 -16.36,-17.34l-0.05 -0.27 0 -0.04 -0.1 -0.82 0 -1.61c0.83,-7.99 6.6,-17.83 21.45,-29.93l0 0c15.68,-12.94 36.32,-18.48 55.3,-27.13 13.2,-6.19 26.41,-14.25 39.63,-21.43 18.8,-10.43 38.96,-19.16 59.25,-26.44m54.92 -15.95c127.33,-29.62 270.42,-17.36 396.72,-22.78 90.78,-3.85 181.29,-7.75 271.84,-11.26m165.95 -5.88l41.76 -1.27 0 0 5.36 -0.15 0.06 -0.01 5.16 -0.14 10.82 -0.31 0.27 -0.01 5.16 -0.14 0.25 -0.01 5.15 -0.14 0.27 -0.01 5.15 -0.14 0.26 -0.01 5.16 -0.13 0.26 -0.01 3.98 -0.1 1.19 -0.04 0.25 0 1.53 -0.03 3.63 -0.11 0.25 0 0.35 -0.01 3 -0.08 1.81 -0.06 1.37 -0.02 4.03 -0.1 0.27 -0.01 5.17 -0.12 0.25 -0.01 2.36 -0.06 2.79 -0.07 0.27 0 5.15 -0.12 0.26 -0.01 5.16 -0.12 0.26 -0.01 2.94 -0.06 0.54 -0.02 6.38 -0.15 -4.72 0.1 -1.66 0.05 1.66 -0.05 4.72 -0.1 14.66 -0.32 0.88 -0.02 1.68 -0.03 10.57 -0.22 0.26 -0.01 4.32 -0.08 22.49 -0.44 0.27 0 0.78 -0.02 1.05 -0.02 1.06 -0.01 1.05 -0.02 1.05 -0.02 0.42 -0.01 0.63 -0.01 1.06 -0.02 1.05 -0.01 1.05 -0.02 1.05 -0.02 0.58 -0.01 0.48 -0.01 1.05 -0.01 1.05 -0.02 1.06 -0.02 1.05 -0.01 -1.04 0.01 1.05 -0.02 0.72 -0.01 0.32 0 1.05 -0.02m-1275.94 168.75l-0.05 -0.31 0 0.04 0.05 0.27zm1164.18 -166.39l3.18 -0.08 -1.37 0.02 -1.81 0.06zm113.88 -2.4l1.04 -0.01m8.44 -0.14l40.93 -0.57 0.25 -0.01 0.67 0 -0.67 0 -0.25 0.01m47.74 -0.49l11.55 -0.1 0.29 -0.01m-0.29 0.01l21.94 -0.12m11.1 -0.05l32.5 -0.07 25.6 0 5.57 0 -5.48 -0.02 5.48 0.02m8.37 0.01l11.1 0.03 -2.6 -0.03 -2.48 0 -6.02 0zm14.12 0.04l32.05 0.17 1.45 0 0.38 0.01 2.4 0 0.33 0.02 5.25 0.04 0.02 0 0.99 0.01 1.79 0.01 4.23 0.04 4.15 0.04 0.04 0 6.54 0.06 1.24 0 0.58 0 1.38 0.03 2.96 0.04 1.06 0 0.19 0 0.07 0.01 1.19 0.01 4.31 0.05 0.11 0 0.16 0 2.54 0.02 1.74 0.03 -1.28 -0.03 -0.46 0 0.46 0 1.28 0.03 2.57 0.03 1.26 0 0.88 0.02 0.78 0.02 6.74 0.08 0.15 0 1.32 0.02 1.3 0.02 0.18 0 1.53 0.01 0.25 0.01 2.73 0.04 0.92 0 0.18 0.01 0.34 0 5.05 0.08 0.21 0 0.27 0 2.16 0.03 -0.14 -0.01 -2.02 -0.02 2.02 0.02 0.14 0.01 2.96 0.05 0.21 0 5.36 0.09 0.24 0 0.1 0 0.24 0 7.82 0.13 0.23 0 0.7 0.02 27.21 0.46c13.7,0.29 27.49,0.54 41.34,0.74l0.05 0 8.89 0.12 0.02 0 2.96 0.04 0.02 0 2.97 0.04 0.01 0 5.96 0.07 2.99 0.03 2.98 0.04 0.01 0 2.98 0.03 2.99 0.03 0.01 0 2.98 0.03 0.01 0 5.97 0.05 0.01 0 2.98 0.03 0.02 0 5.97 0.05 0.02 0 2.98 0.02 0.02 0 2.98 0.02 0.02 0 11.99 0.08 0.02 0 2.98 0.02 0.02 0 6 0.03 0.01 0 2.99 0.02 0.02 0 2.99 0.01 0.02 0 6 0.03 0.01 0 3 0.01 0.01 0 3 0.01 0.01 0 3 0.01 0.02 0 3 0.01 0.01 0 3 0.01 0.01 0 3 0.01 0.02 0 6.01 0.01 0.02 0 3 0.01 0.01 0 6.02 0.01 0.02 0 3 0 0.01 0 3 0.01 0.02 0 3 0 0.02 0 3 0 0.02 0 3 0.01 0.02 0 3 0 0.02 0 2.99 0 0.04 0 2.98 0 0.04 0 2.98 0 0.04 0 -0.04 0 -2.98 0 -0.04 0 -2.98 0 -0.04 0 -2.99 0 -0.02 0 -3 0 -0.02 0 -3 -0.01 -0.02 0 -3 0 -0.02 0 -3 0 -0.02 0 -3 -0.01 -0.01 0 -3 0 -0.02 0 -6.02 -0.01 -0.01 0 -3 -0.01 -0.02 0 -6.01 -0.01 -0.02 0 -3 -0.01 -0.01 0 -3 -0.01 -0.01 0 -3 -0.01 -0.02 0 -3 -0.01 -0.01 0 -3 -0.01 -0.01 0 -3 -0.01 -0.01 0 -6 -0.03 -0.02 0 -2.99 -0.01 -0.02 0 -2.99 -0.02 -0.01 0 -6 -0.03 -0.02 0 -2.98 -0.02 -0.02 0 -11.99 -0.08 -0.02 0 -2.98 -0.02 -0.02 0 -2.98 -0.02 -0.02 0 -5.97 -0.05 -0.02 0 -2.98 -0.03 -0.01 0 -5.97 -0.05 -0.01 0 -2.98 -0.03 -0.01 0 -2.99 -0.03 -2.98 -0.03 -0.01 0 -2.98 -0.04 -2.99 -0.03 -5.96 -0.07 -0.01 0 -2.97 -0.04 -0.02 0 -2.96 -0.04 -0.02 0 -8.89 -0.12 -0.05 0m-160.33 -2.28l4.56 0.03 -0.33 -0.02 -2.4 0 -0.38 -0.01 -1.45 0zm27.57 0.23l3.2 0.03 -1.38 -0.03 -0.58 0 -1.24 0zm20.1 0.22l2.92 0.04 -0.78 -0.02 -0.88 -0.02 -1.26 0zm398.63 2.45l82.07 -0.09 49.23 0.06c-16.38,-0.06 -32.8,-0.08 -49.24,-0.08 16.44,0 32.86,0.02 49.24,0.08m414 10.9c14.46,0.72 28.39,1.48 41.79,2.24 -13.41,-0.76 -27.33,-1.52 -41.79,-2.24zm42 2.25c13.4,0.77 26.29,1.55 38.66,2.36 -12.37,-0.81 -25.25,-1.59 -38.66,-2.36zm38.84 2.37c16.5,1.08 32.1,2.18 46.82,3.33 -14.72,-1.14 -30.32,-2.26 -46.82,-3.33zm246.7 35.65c4.96,2.97 7.34,5.98 7.34,9.06 0,31.63 -251.72,65.76 -496.03,80.1 -341.7,20.03 -605.81,28.23 -1061.41,53.59 -0.83,0.05 -0.83,0.05 -1.66,0.05 -3.39,0.18 -6.79,0.32 -10.13,0.42l0.04 0 0.37 -0.01 0.05 0 0.36 0 0.05 0 0.39 0 0.01 0 0.38 -0.04 0.05 0 0.39 -0.01 0.01 0 0.38 0 0.05 0 0.39 -0.02 0.01 0 0.37 -0.03 0.06 0 0.38 -0.02 0.02 0 0.39 0 0.04 0 0.38 -0.02 0.02 0 0.39 -0.01 0.02 0 0.4 0 0.02 0 0.39 -0.04 0.02 0 0.4 -0.02 0.02 0 0.41 -0.01 0 0 0.39 0 0.03 0 0.41 -0.04 0 0 0.39 -0.01 0.03 0 0.41 -0.02 0.39 -0.02 0.01 0 0.43 -0.03 0.4 -0.02 0 0 0.43 -0.01 -0.43 0.01 0 0 -0.4 0.02 -0.43 0.03 -0.01 0 -0.39 0.02 -0.41 0.02 -0.03 0 -0.39 0.01 0 0 -0.41 0.04 -0.03 0 -0.39 0 0 0 -0.41 0.01 -0.02 0 -0.4 0.02 -0.02 0 -0.39 0.04 -0.02 0 -0.4 0 -0.02 0 -0.39 0.01 -0.02 0 -0.38 0.02 -0.04 0 -0.39 0 -0.02 0 -0.38 0.02 -0.06 0 -0.37 0.03 -0.01 0 -0.39 0.02 -0.05 0 -0.38 0 -0.01 0 -0.39 0.01 -0.05 0 -0.38 0.04 -0.01 0 -0.39 0 -0.05 0 -0.36 0 -0.05 0 -0.37 0.01 -0.04 0m-0.03 0l-1.22 0.04 0.05 0 0.37 0 0.04 0 0.37 -0.02 0.05 0 0.34 -0.02zm-1.78 0.05l-0.68 0.02 0.04 0 0.35 0 0.07 0 0.22 -0.02zm-0.73 0.02l-0.79 0.02 0.07 0 0.33 0 0.07 0 0.32 -0.02zm-1.15 0.02l-0.9 0.02 0.07 0 0.36 -0.02 0.07 0 0.33 0m-0.97 0.03l-0.67 0.02 0.05 0 0.36 0 0.07 0 0.19 -0.02zm-1.87 0.04c-3.32,0.06 -6.55,0.1 -9.67,0.1 -7.85,0 -15.69,-0.14 -23.53,-0.33l-0.09 -0.01 -3.19 -0.08 -0.48 0 -0.07 0 -0.47 -0.02 -1.87 -0.05 -0.02 0 0.02 0m2.89 0.07l-1.02 -0.02 0.47 0.02 0.07 0 0.48 0zm-9.12 -0.26l-1.22 -0.03 1.17 0.03 0.05 0zm-2.43 -0.05l-1.1 -0.04 -0.12 -0.01 0.12 0.01 1.03 0.04 0.07 0zm-1.38 -0.05l-1.13 -0.05 -1.17 -0.02 1.17 0.02m-7.42 -0.2l-2.4 -0.06 -0.08 -0.01 -4.85 -0.12 -0.1 -0.01c-7.85,-0.2 -15.7,-0.33 -23.53,-0.33l0 0c-3.29,0 -7.44,0 -11.55,0l0 0 0 0c-103.55,0 -207.29,1.61 -311.03,3.53 103.75,-1.91 207.52,-3.5 311.3,-3.5 -103.78,0 -207.55,1.59 -311.3,3.5m-491.92 6.16l-1.64 0 1.64 0zm-1.64 0l-0.44 0 0.44 0zm-0.44 0l-0.07 0 0.07 0zm-0.07 0l-1.68 0 1.68 0zm-1.68 0l-0.4 0 0.4 0zm-0.4 0l-0.07 -0.01 0.07 0.01zm-0.07 -0.01l-1.68 -0.01 1.68 0.01zm-1.68 -0.01l-0.42 0 0.42 0zm-0.42 0l-0.05 0 0.05 0zm-0.05 0l-1.7 0 1.7 0zm-1.7 0l-0.4 0 0.4 0zm-0.4 0l-0.05 -0.01 0.05 0.01zm-0.05 -0.01l-1.71 -0.01 1.71 0.01zm-1.71 -0.01l-0.41 0 0.41 0zm-0.41 0l-0.03 0 0.03 0zm-0.03 0l-1.73 0 1.73 0zm-1.73 0l-0.39 0 -1.78 0 -0.37 0 -1.64 -0.03m-0.53 0l-0.01 0 0.01 0zm-15.04 -0.09l-0.06 0 0.06 0zm-0.06 0l-1.86 -0.01 1.86 0.01zm-1.86 -0.01l-0.23 0 0.23 0zm-0.23 0l-0.08 0 0.08 0zm-0.08 0l-1.88 -0.02 1.88 0.02zm-1.88 -0.02l-0.19 0 0.19 0zm-0.19 0l-0.08 0 0.08 0zm-0.08 0l-0.03 0 0.03 0zm-4.21 -0.03l-0.11 0 0.11 0zm-0.11 0l-0.09 0 0.09 0zm-40.9 -0.43l-0.09 0 -2.1 -0.05 -0.06 0 -2.09 -0.02 -0.06 0 -2.09 -0.05 -0.1 0 -2.08 -0.01 -0.05 0 -2.1 -0.05 -0.05 0 -2.12 -0.02 -0.07 0 -2.09 -0.05 -0.06 0 -2.11 -0.02 -0.02 0 -2.15 -0.02 -2.18 -0.05 2.18 0.05 2.15 0.02 0.02 0 2.11 0.02 0.06 0 2.09 0.05 0.07 0 2.12 0.02 0.05 0 2.1 0.05 0.05 0 2.08 0.01 0.1 0 2.09 0.05 0.06 0 2.09 0.02 0.06 0 2.1 0.05 0.09 0 0.15 0.01m55 0.52l0.86 0.01 0.32 0m33.19 0.14l1.03 0.02 0.45 0 1.68 0 0.51 0 1.68 0 0.49 0 1.66 0.01 0.5 0 1.65 0 0.52 0 1.64 0 0.53 0 1.62 0 0.53 0 1.64 0 0.54 0m778.86 -9.72l0 0zm-925.13 8.33l-0.18 0 0 0 0 0 0.18 0zm992.04 -7.14l-0.05 0 -1.17 -0.05 -0.06 0 -1.16 -0.02 -0.06 0m-3.6 -0.08l-0.04 0 0.04 0zm-0.04 0l-0.07 0 0.07 0zm-0.07 0l-1.13 -0.04 1.13 0.04zm-1.13 -0.04l-0.04 -0.01 0.04 0.01zm-0.04 -0.01l-0.05 0 0.05 0zm-0.05 0l-1.15 -0.02 1.15 0.02zm-1.15 -0.02l-0.02 0 0.02 0zm-0.02 0l-0.05 0 0.05 0zm-0.05 0l-1.17 -0.04 1.17 0.04zm-1.17 -0.04l-0.03 -0.01 0.03 0.01zm-0.03 -0.01l-0.04 0 0.04 0zm-0.04 0l-1.16 -0.02 1.16 0.02zm-1.16 -0.02l-0.02 -0.01 0.02 0.01zm-0.02 -0.01l-0.03 0 0.03 0zm-0.03 0l-1.19 -0.03 1.19 0.03zm-1.19 -0.03l-0.02 -0.01 0.02 0.01zm-2.45 -0.06l-0.07 0 -1.03 -0.04m-0.12 -0.01l-0.04 0 0.04 0zm-0.04 0l-0.03 0 0.03 0zm-0.03 0l-0.09 0 0.09 0zm-2.39 -0.07l-0.05 0 0.05 0zm-0.05 0l-0.01 0 0.01 0zm-0.01 0l-1.19 -0.03 1.19 0.03zm-1.19 -0.03l-0.04 0 0.04 0zm-0.04 0l-0.01 -0.01 0.01 0.01zm-0.01 -0.01l-1.19 -0.03 1.19 0.03zm-1.19 -0.03l-0.01 0 0.01 0zm-0.01 0l-0.04 -0.01 0.04 0.01zm-0.04 -0.01l-1.17 -0.02 1.17 0.02zm-1.17 -0.02l-0.01 0 0.01 0zm-0.01 0l-0.05 -0.01 0.05 0.01zm-0.05 -0.01l-1.17 -0.04 1.17 0.04zm-1.17 -0.04l-0.04 0 0.04 0zm-0.04 0l-0.03 0 0.03 0zm-0.03 0l-1.17 -0.02 1.17 0.02zm-1.17 -0.02l-0.02 0 0.02 0zm-0.02 0l-0.05 -0.01 0.05 0.01zm-0.05 -0.01l-1.16 0 -0.02 0 -1.2 -0.06m-0.1 -0.01l-1.12 0 -0.05 0 -1.17 -0.05 -0.05 0 -1.19 -0.02 -0.05 0 -1.17 -0.05m-0.15 -0.01l-1.1 -0.01 -0.03 0 -1.19 -0.01 -0.03 0 -1.2 -0.04 -0.02 0 -1.22 -0.03 0 0 -1.22 0 -0.03 0 -1.22 -0.05 0 0 -1.22 -0.02 0 0 -1.22 -0.02 -0.02 0 -1.22 -0.03 0 0 -1.22 0 -1.21 -0.02 -0.04 0 -1.22 -0.01 -1.22 -0.04 -0.01 0 -1.22 0 -1.22 0 -1.24 0 -1.22 -0.02 -1.25 0 -1.22 0 1.22 0 1.25 0 1.22 0.02 1.24 0 1.22 0 1.22 0 0.01 0 1.22 0.04 1.22 0.01 0.04 0 1.21 0.02 1.22 0 0 0 1.22 0.03 0.02 0 1.22 0.02 0 0 1.22 0.02 0 0 1.22 0.05 0.03 0 1.22 0 0 0 1.22 0.03 0.02 0 1.2 0.04 0.03 0 1.19 0.01 0.03 0 1.1 0.01 0.1 0.01m3.73 0.12l1.12 0 0.08 0.01m1.24 0.06l1.16 0m11.14 0.32l1.17 0.03 0.05 0m12.26 0.34l0.05 0 0.09 0.01m33.2 0.23l0.33 0 -0.33 0zm0.33 0l0.04 0 -0.04 0zm0.04 0l0.05 0 -0.05 0zm0.05 0l0.32 -0.01 -0.32 0.01zm0.32 -0.01l0.04 -0.01 -0.04 0.01zm0.04 -0.01l0.07 0 -0.07 0zm0.07 0l0.3 0 -0.3 0zm0.3 0l0.05 0 -0.05 0zm1.76 -0.05l0.32 0 -0.32 0zm0.32 0l0.04 0 -0.04 0zm3.34 -0.09l-0.34 0.02 -0.05 0 -0.37 0.02 -0.04 0 -0.37 0 -0.05 0m-0.56 0.01l-0.22 0.02 -0.07 0 -0.35 0 -0.04 0m-0.05 0l-0.32 0.02 -0.07 0 -0.33 0 -0.07 0m-1.19 0.02l-0.07 0m-0.14 0.01l-0.19 0.02 -0.07 0 -0.36 0 -0.05 0m-1274.52 -9.9l-0.44 -0.21 -0.05 0 -0.39 -0.2 -0.07 -0.02 -0.37 -0.2 -0.09 -0.04 -0.33 -0.18 -0.12 -0.04 -0.31 -0.15 -0.15 -0.08 -0.27 -0.15 -0.15 -0.11 -0.26 -0.11 -0.18 -0.12 -0.22 -0.1 -0.22 -0.12 -0.19 -0.11 -0.25 -0.13 -0.16 -0.1 -0.25 -0.15 -0.14 -0.07 -0.28 -0.17 -0.11 -0.07 -0.3 -0.2 -0.08 -0.04 -0.33 -0.2 -0.05 -0.05 -0.35 -0.2 -0.02 -0.04 -0.37 -0.23 0 0 -0.37 -0.24 -0.02 -0.02 -0.32 -0.24 -0.05 -0.03 -0.31 -0.22 -0.07 -0.05 -0.27 -0.2 -0.1 -0.07 -0.25 -0.19 -0.1 -0.06 -0.26 -0.21 -0.1 -0.08 -0.22 -0.17 -0.14 -0.12 -0.17 -0.15 -0.16 -0.12 -0.16 -0.14 -0.17 -0.15 -0.15 -0.13 -0.18 -0.16 -0.11 -0.1 -0.22 -0.18 -0.08 -0.11 -0.22 -0.2 -0.09 -0.08 -0.22 -0.22 -0.06 -0.07 -0.24 -0.21 -0.02 -0.05 -0.29 -0.28 0 0 -0.27 -0.27 -0.01 0 -0.24 -0.31 -0.05 -0.03 -0.2 -0.27 -0.26 -0.29 -0.03 -0.05 -0.21 -0.26 -0.08 -0.08 -0.15 -0.22 -0.07 -0.12 -0.15 -0.19 -0.09 -0.12 -0.13 -0.18 -0.1 -0.14 -0.11 -0.17 -0.11 -0.18 -0.09 -0.12 -0.13 -0.2 -0.24 -0.46 -0.15 -0.24 -0.04 -0.08 -0.15 -0.24 -0.03 -0.07 -0.16 -0.29 -0.01 -0.03 -0.14 -0.3 -0.02 -0.05 -0.28 -0.67 -0.02 -0.01 -0.14 -0.32 0 -0.05 -0.1 -0.31 -0.05 -0.07 -0.08 -0.27 -0.02 -0.1 -0.08 -0.25 -0.04 -0.11 -0.07 -0.25 -0.05 -0.12 -0.05 -0.23 -0.05 -0.14 -0.03 -0.22 -0.02 -0.17 -0.05 -0.2 -0.05 -0.17 -0.02 -0.17 -0.07 -0.22 0 -0.15 -0.03 -0.24 0 -0.14 0 0.14 0.03 0.24 0 0.15 0.07 0.22 0.02 0.17 0.05 0.17 0.05 0.2 0.02 0.17 0.03 0.22 0.05 0.14 0.05 0.23 0.05 0.12 0.07 0.25 0.04 0.11 0.08 0.25 0.02 0.1 0.08 0.27 0.05 0.07 0.1 0.31 0 0.05 0.14 0.32 0.02 0.01 0.28 0.67 0.02 0.05 0.14 0.3 0.01 0.03 0.16 0.29 0.03 0.07 0.15 0.24 0.04 0.08 0.15 0.24 0.24 0.46 0.13 0.2 0.09 0.12 0.11 0.18 0.11 0.17 0.1 0.14 0.13 0.18 0.09 0.12 0.15 0.19 0.07 0.12 0.15 0.22 0.08 0.08 0.21 0.26 0.03 0.05 0.26 0.29 0.2 0.27 0.05 0.03 0.24 0.31 0.01 0 0.27 0.27 0 0 0.29 0.28 0.02 0.05 0.24 0.21 0.06 0.07 0.22 0.22 0.09 0.08 0.22 0.2 0.08 0.11 0.22 0.18 0.11 0.1 0.18 0.16 0.15 0.13 0.17 0.15 0.16 0.14 0.16 0.12 0.17 0.15 0.14 0.12 0.22 0.17 0.1 0.08 0.26 0.21 0.1 0.06 0.25 0.19 0.1 0.07 0.27 0.2 0.07 0.05 0.31 0.22 0.05 0.03 0.32 0.24 0.02 0.02 0.37 0.24 0 0 0.37 0.23 0.02 0.04 0.35 0.2 0.05 0.05 0.33 0.2 0.08 0.04 0.3 0.2 0.11 0.07 0.28 0.17 0.14 0.07 0.25 0.15 0.16 0.1 0.25 0.13 0.19 0.11 0.22 0.12 0.22 0.1 0.18 0.12 0.26 0.11 0.15 0.11 0.27 0.15 0.15 0.08 0.31 0.15 0.12 0.04 0.33 0.18 0.09 0.04 0.37 0.2 0.07 0.02 0.39 0.2 0.05 0 0.44 0.21zm2849.22 -124.4c-0.04,-3.09 -2.43,-6.09 -7.41,-9.06 4.98,2.98 7.37,5.97 7.41,9.06zm-334.95 -49.33c14.46,0.72 28.39,1.48 41.79,2.24m0.21 0.01c13.4,0.77 26.29,1.55 38.66,2.36m0.18 0.01c16.5,1.08 32.1,2.19 46.82,3.33m-590.9 -18.93c-27.29,0 -54.67,0.04 -82.06,0.11 27.38,-0.07 54.75,-0.11 82.06,-0.11zm-109.43 0.17l-0.34 0 0.34 0zm-0.34 0l-1.36 0 1.36 0zm-1.36 0l-0.3 0 0.3 0zm-0.3 0l-1.39 0.01 1.39 -0.01zm-1.39 0.01l-0.28 0 0.28 0zm-0.28 0l-1.42 0 1.42 0zm-1.42 0l-0.25 0 0.25 0zm-0.25 0l-3.14 0.01 3.14 -0.01zm-3.14 0.01l-0.19 0 0.19 0zm-0.19 0l-3.2 0.01 3.2 -0.01zm-3.2 0.01l-0.14 0 0.14 0zm-0.14 0l-25.3 0.07 25.3 -0.07zm-25.3 0.07l-1.57 0 1.57 0zm-1.57 0l-13.69 0.04 13.69 -0.04zm-13.69 0.04l-1.52 0 1.52 0zm-1.52 0l-6.95 0.02 6.95 -0.02zm-6.95 0.02l-1.52 0 1.52 0zm-1.52 0l-1.87 0.01 1.87 -0.01zm-1.87 0.01l-1.52 0 1.52 0zm-1.52 0l-0.17 0 0.17 0zm-0.17 0l-1.53 0 1.53 0zm-1.53 0l-1.86 0.01 1.86 -0.01zm-1.86 0.01l-1.53 0 1.53 0zm-1.53 0l-0.16 0 0.16 0zm-0.16 0l-1.54 0 1.54 0zm-1.54 0l-1.85 0.01 1.85 -0.01zm-1.85 0.01l-1.55 0 1.55 0zm-1.55 0l-0.14 0 0.14 0zm-0.14 0l-1.56 0 1.56 0zm-1.56 0l-0.13 0 0.13 0zm-0.13 0l-1.57 0 1.57 0zm-1.57 0l-0.13 0.01 0.13 -0.01zm-0.13 0.01l-1.56 0 1.56 0zm-1.56 0l-0.13 0 0.13 0zm-0.13 0l-1.57 0 1.57 0zm-1.57 0l-0.12 0 0.12 0zm-0.12 0l-1.58 0 1.58 0zm-1.58 0l-0.11 0 0.11 0zm-0.11 0l-1.59 0 1.59 0zm-1.59 0l-0.1 0.01 0.1 -0.01zm-0.1 0.01l-1.6 0 1.6 0zm-1.6 0l-0.1 0 0.1 0zm-0.1 0l-1.61 0 1.61 0zm-1.61 0l-0.08 0 0.08 0zm-0.08 0l-1.62 0 1.62 0zm-1.62 0l-0.07 0 0.07 0zm-0.07 0l-1.63 0 1.63 0zm-1.63 0l-0.06 0 0.06 0zm-0.06 0l-1.64 0 1.64 0zm-1.64 0l-0.05 0 0.05 0zm-0.05 0l-1.65 0 1.65 0zm-1.65 0l-0.04 0.01 0.04 -0.01zm-0.04 0.01l-1.66 0 1.66 0zm-1.66 0l-0.03 0 0.03 0zm-0.03 0l-1.67 0 1.67 0zm-1.67 0l-0.02 0 0.02 0zm-0.02 0l-1.68 0 1.68 0zm-1.68 0l-0.01 0 0.01 0zm-0.01 0l-1.69 0 1.69 0zm-1.69 0l-0.01 0 0.01 0zm-0.01 0l-1.68 0 1.68 0zm-1.68 0l-0.02 0 0.02 0zm-0.02 0l-1.67 0 1.67 0zm-1.67 0l-0.03 0 0.03 0zm-0.03 0l-1.66 0 1.66 0zm-220.4 -2.1l-0.7 -0.02 -0.23 0m-7.82 -0.13l-0.24 0 -0.1 0 -0.24 0m-10.69 -0.17l-0.27 0 -0.21 0m-5.05 -0.08l-0.34 0 -0.18 -0.01 -0.92 0m-2.73 -0.04l-0.25 -0.01 -1.53 -0.01 -0.18 0 -1.3 -0.02 -1.32 -0.02 -0.15 0m-13.97 -0.18l-2.54 -0.02 -0.16 0 -0.11 0m-4.31 -0.05l-1.19 -0.01 -0.07 -0.01 -0.19 0 -1.06 0m-18.29 -0.2l-2.83 -0.01 2.83 0.01 1.39 0.03m-4.22 -0.04l-1.79 -0.01 -0.99 -0.01 -0.02 0m-41.86 -0.24l-0.02 0 0.02 0zm-0.02 0l-0.13 0 0.13 0zm-0.13 0l-1.97 0 1.97 0zm-1.97 0l-0.82 -0.01 0.82 0.01zm-0.82 -0.01l-0.08 0 0.08 0zm-11.18 -0.03l6.02 0 2.48 0 2.6 0.03m56.06 0.35l0.04 0m55.85 0.67l0.21 0m-137.11 -1.08l-1.14 0 -2.98 0 -3 0 -3.01 0 -3.01 0 3.01 0 3.01 0 3 0 2.98 0 1.14 0zm-13.14 0l-5.61 0 -5.62 0 -1.57 0 1.57 0 5.62 0 5.61 0zm-12.8 0l-15.27 0.02 -0.99 0 -4.64 0.01 -0.77 0 -10.58 0.06 10.58 -0.06 0.77 0 4.64 -0.01 0.99 0 15.27 -0.02zm-76.84 0.36l-0.92 0.01 -1.83 0.01 -0.92 0.01 -0.49 0 -0.43 0.01 -0.92 0.01 -0.91 0 -0.92 0.01 -0.92 0.01 -0.92 0.01 -0.39 0 -0.53 0 -0.91 0.01 -0.92 0.01 -0.92 0.01 -0.92 0.01 -0.92 0 -0.3 0 -0.61 0.01 -0.92 0.01 -0.92 0.01 -0.92 0.01 -0.92 0.01 -0.91 0.01 -0.22 0 -0.7 0 -0.92 0.01 -0.92 0.01 -0.92 0.01 -0.91 0.01 -0.92 0.01 -0.12 0 -0.8 0.01 -0.92 0.01 -0.92 0.01 -0.91 0.01 -0.92 0.01 -0.92 0.01 -0.03 0 -0.89 0.01 -0.92 0.01 -0.92 0.01 -0.91 0.01 -0.92 0.01 -0.85 0.01 -0.07 0 -0.92 0.01 -0.92 0.01 -0.92 0.02 -0.91 0.01 -0.92 0.01 -0.76 0 -0.16 0.01 -0.92 0.01 -0.92 0.01 -0.92 0.01 -1.83 0.03m-41.85 0.58l-1.05 0.02 -2.11 0.03 -1.05 0.02 -1.05 0.02 -1.06 0.01 -1.05 0.02 -0.19 0 -0.86 0.02m-1.06 0.01l-1.05 0.02 -1.05 0.02m-1.05 0.02l-0.34 0m-15.47 0.26l-0.78 0.02 -0.27 0m-22.49 0.44l-4.32 0.08 -0.26 0.01m-10.57 0.22l-1.68 0.03 -0.88 0.02m-21.04 0.47l-0.54 0.02 -2.94 0.06 -0.26 0.01m-5.16 0.12l-0.26 0.01 -5.15 0.12 -0.27 0 -2.79 0.07 -2.36 0.06 -0.25 0.01m-15.65 0.39l-0.35 0.01 -0.25 0 -3.63 0.11 -1.53 0.03 -0.25 0 -1.19 0.04m-36.73 1.01l-5.16 0.14 -0.06 0.01m16.04 -0.46l0.27 -0.01m5.16 -0.14l0.25 -0.01m5.15 -0.14l0.27 -0.01m5.15 -0.14l0.26 -0.01m5.16 -0.13l0.26 -0.01m21.39 -0.55l0.27 -0.01m216.1 -3.52l0.29 -0.01 10.41 -0.06 0.44 0 5.18 -0.02 0.22 -0.02 5.4 -0.01"/>
   <g>
    <path class="fil1" d="M2988.73 6722.81l-0.59 0 0.59 0 1.38 0 0.58 0 1.37 0 0.58 0 1.4 0 0.56 0 1.41 0 0.55 0 1.41 0 0.55 0 1.42 0 0.53 0 1.44 -0.02 0.52 0 1.44 0 0.52 0 1.45 0 0.5 0 1.48 0 0.48 0 1.47 -0.01 0.49 0 1.49 0 0.46 0 1.51 0 0.45 0 1.51 0 0.45 0 1.52 -0.02 0.44 0 1.51 0 0.44 0 1.54 -0.01 0.42 0 1.55 0 0.41 0 1.55 0 0.4 0 1.57 -0.02 0.39 0 1.58 0 0.38 0 1.58 -0.01 0.38 0 1.59 0 0.36 0 1.6 -0.02 0.36 0 1.61 -0.02 0.35 0 1.63 0 0.32 0 1.63 -0.01 0.33 0 1.64 0 0.32 0 1.66 -0.02 0.3 0 1.65 -0.01 0.3 0 1.68 0 0.28 0 1.67 -0.02 0.29 0 1.69 -0.01 0.26 0 1.71 0 0.25 0 1.71 -0.02 0.25 0 1.72 -0.01 0.23 0 1.73 -0.02 0.23 0 1.74 -0.02 0.23 0 1.74 0 0.22 0 1.74 -0.01 0.22 0 1.75 -0.02 0.21 0 1.75 -0.01 0.2 0 1.77 -0.02 0.19 0 1.78 -0.01 0.18 0 1.78 -0.02 0.17 0 1.8 0 0.16 0 1.82 -0.02 0.14 0 1.81 -0.01 0.15 0 1.83 -0.02 0.12 0 1.83 -0.01 0.13 0 1.85 -0.02 0.11 0 1.86 -0.01 0.09 0 1.87 -0.02 0.09 0 1.88 -0.02 0.08 0 1.88 -0.01 0.07 0 1.9 -0.02 0.08 0 1.89 -0.01 0.06 0 1.9 -0.02 0.06 0 1.91 -0.01 0.05 0 1.92 -0.03 0.04 0 1.92 -0.02 0.03 0 1.94 -0.02 0.02 0 1.94 -0.01 0.02 0 1.95 -0.02 -1.95 0.02 -0.02 0 -1.94 0.01 -0.02 0 -1.94 0.02 -0.03 0 -1.92 0.02 -0.04 0 -1.92 0.03 -0.05 0 -1.91 0.01 -0.06 0 -1.9 0.02 -0.06 0 -1.89 0.01 -0.08 0 -1.9 0.02 -0.07 0 -1.88 0.01 -0.08 0 -1.88 0.02 -0.09 0 -1.87 0.02 -0.09 0 -1.86 0.01 -0.11 0 -1.85 0.02 -0.13 0 -1.83 0.01 -0.12 0 -1.83 0.02 -0.15 0 -1.81 0.01 -0.14 0 -1.82 0.02 -0.16 0 -1.8 0 -0.17 0 -1.78 0.02 -0.18 0 -1.78 0.01 -0.19 0 -1.77 0.02 -0.2 0 -1.75 0.01 -0.21 0 -1.75 0.02 -0.22 0 -1.74 0.01 -0.22 0 -1.74 0 -0.23 0 -1.74 0.02 -0.23 0 -1.73 0.02 -0.23 0 -1.72 0.01 -0.25 0 -1.71 0.02 -0.25 0 -1.71 0 -0.26 0 -1.69 0.01 -0.29 0 -1.67 0.02 -0.28 0 -1.68 0 -0.3 0 -1.65 0.01 -0.3 0 -1.66 0.02 -0.32 0 -1.64 0 -0.33 0 -1.63 0.01 -0.32 0 -1.63 0 -0.35 0 -1.61 0.02 -0.36 0 -1.6 0.02 -0.36 0 -1.59 0 -0.38 0 -1.58 0.01 -0.38 0 -1.58 0 -0.39 0 -1.57 0.02 -0.4 0 -1.55 0 -0.41 0 -1.55 0 -0.42 0 -1.54 0.01 -0.44 0 -1.51 0 -0.44 0 -1.52 0.02 -0.45 0 -1.51 0 -0.45 0 -1.51 0 -0.46 0 -1.49 0 -0.49 0 -1.47 0.01 -0.48 0 -1.48 0 -0.5 0 -1.45 0 -0.52 0 -1.44 0 -0.52 0 -1.44 0.02 -0.53 0 -1.42 0 -0.55 0 -1.41 0 -0.55 0 -1.41 0 -0.56 0 -1.4 0 -0.58 0 -1.37 0 -0.58 0 -1.38 0zm-0.59 0l-1.57 0 -0.6 0 -1.58 0 -0.58 0 -1.58 0 -0.56 0 -1.61 0 -0.55 0 -1.61 0 -0.55 0 -1.63 -0.02 -0.53 0 -1.63 0 -0.52 0 -1.64 0 -0.52 0 -1.66 0 -0.5 0 -1.66 -0.01 -0.5 0 -1.67 0 -0.49 0 -1.68 0 -0.47 0 -1.69 -0.02 -0.47 0 -1.7 0 -0.46 0 -1.7 -0.01 -0.46 0 -1.72 0 -0.44 0 -1.72 -0.02 -0.44 0 -1.74 0 -0.4 0 -1.76 -0.01 -0.4 0 -1.76 0 -0.4 0 -1.77 -0.02 -0.4 0 -1.76 -0.02 -0.4 0 -1.78 0 -0.36 0 -1.8 -0.01 -0.36 0 -1.8 -0.02 -0.36 0 -1.82 -0.01 -0.34 0 -1.82 -0.02 -0.34 0 -1.83 0 -0.33 0 -1.84 -0.01 -0.31 0 -1.86 -0.02 -0.3 0 -1.86 -0.01 -0.3 0 -1.86 -0.02 -0.3 0 -1.88 -0.02 -0.28 0 -1.88 -0.01 -0.28 0 -1.9 -0.02 -0.26 0 -1.9 -0.03 -0.25 0 -1.91 -0.01 -0.25 0 -1.92 -0.02 -0.24 0 -1.92 -0.02 -0.24 0 -1.94 -0.03 -0.22 0 -1.94 -0.01 -0.22 0 -1.94 -0.02 -0.21 0 -1.97 -0.03 -0.19 0 -1.97 -0.02 -0.19 0 -1.98 -0.03 -0.18 0 -1.99 -0.01 -0.17 0 -1.99 -0.03 -0.15 0 -2.02 -0.02 -0.14 0 -2.02 -0.03 -0.14 0 -2.04 -0.02 -0.12 0 -2.04 -0.03 -0.13 0 -2.03 -0.03 -0.13 0 -2.05 -0.01 -0.09 0 -2.07 -0.04 -0.09 0 -2.08 -0.03 -0.08 0 -2.08 -0.03 -0.08 0 -2.08 -0.03 -0.08 0 -2.1 -0.03 -0.05 0 -2.11 -0.03 -0.05 0 -2.11 -0.03 -0.05 0 -2.13 -0.03 -0.03 0 -2.13 -0.04 -0.01 0 -2.17 -0.03 -2.16 -0.03 2.16 0.03 2.17 0.03 0.01 0 2.13 0.04 0.03 0 2.13 0.03 0.05 0 2.11 0.03 0.05 0 2.11 0.03 0.05 0 2.1 0.03 0.08 0 2.08 0.03 0.08 0 2.08 0.03 0.08 0 2.08 0.03 0.09 0 2.07 0.04 0.09 0 2.05 0.01 0.13 0 2.03 0.03 0.13 0 2.04 0.03 0.12 0 2.04 0.02 0.14 0 2.02 0.03 0.14 0 2.02 0.02 0.15 0 1.99 0.03 0.17 0 1.99 0.01 0.18 0 1.98 0.03 0.19 0 1.97 0.02 0.19 0 1.97 0.03 0.21 0 1.94 0.02 0.22 0 1.94 0.01 0.22 0 1.94 0.03 0.24 0 1.92 0.02 0.24 0 1.92 0.02 0.25 0 1.91 0.01 0.25 0 1.9 0.03 0.26 0 1.9 0.02 0.28 0 1.88 0.01 0.28 0 1.88 0.02 0.3 0 1.86 0.02 0.3 0 1.86 0.01 0.3 0 1.86 0.02 0.31 0 1.84 0.01 0.33 0 1.83 0 0.34 0 1.82 0.02 0.34 0 1.82 0.01 0.36 0 1.8 0.02 0.36 0 1.8 0.01 0.36 0 1.78 0 0.4 0 1.76 0.02 0.4 0 1.77 0.02 0.4 0 1.76 0 0.4 0 1.76 0.01 0.4 0 1.74 0 0.44 0 1.72 0.02 0.44 0 1.72 0 0.46 0 1.7 0.01 0.46 0 1.7 0 0.47 0 1.69 0.02 0.47 0 1.68 0 0.49 0 1.67 0 0.5 0 1.66 0.01 0.5 0 1.66 0 0.52 0 1.64 0 0.52 0 1.63 0 0.53 0 1.63 0.02 0.55 0 1.61 0 0.55 0 1.61 0 0.56 0 1.58 0 0.58 0 1.58 0 0.6 0 1.57 0zm125.87 -0.66c214.2,-2.22 428.43,-9.06 642.74,-9.06 -214.31,0 -428.54,6.84 -642.74,9.06zm642.74 -9.06l0 0zm-924.73 8.34l-0.18 0 -0.02 0 -0.17 -0.01 -0.02 0 -0.17 -0.02 -0.02 0 -0.17 -0.03 0.17 0.03 0.02 0 0.17 0.02 0.02 0 0.17 0.01 0.02 0 0.18 0zm1014.91 -6.86l-1.13 0 -0.09 0 -1.13 0 -0.11 0 -1.12 -0.01 -0.1 0 -1.13 0 -0.09 0 -1.14 -0.02 -0.1 0 -1.12 0 -0.1 0 -1.14 -0.01 -0.08 0 -1.14 -0.02 -0.1 0 -1.14 -0.01 -0.08 0 -1.14 -0.02 -0.09 0 -1.15 -0.01 -0.08 0 -1.14 -0.04 -0.08 0 -1.16 -0.01 -0.07 0 -1.15 -0.03 -0.07 0 -1.16 -0.02 -0.08 0 -1.16 -0.03 -0.06 0 -1.16 -0.03 -0.06 0 -1.18 -0.02 -0.06 0 -1.16 -0.03 -0.06 0 -1.18 -0.03 -0.06 0 -1.16 -0.03 -0.06 0 -1.17 -0.03 -0.07 0 -1.16 -0.03 -0.06 0 -1.17 -0.03 -0.07 0 -1.17 -0.04 -0.05 0 -1.17 -0.03 -0.05 0 -1.19 -0.03 -0.04 0 -1.18 -0.05 -0.05 0 -1.19 -0.03 -0.04 0 -1.18 -0.03 -0.04 0 -1.19 -0.03 -0.05 0 -1.17 -0.05 -0.05 0 -1.19 -0.03 -0.05 0 -1.17 -0.03 -0.05 0 -1.19 -0.03 -0.03 0 -1.21 -0.03 -0.03 0 -1.19 -0.05 -0.03 0 -1.2 -0.03 -0.04 0 -1.19 -0.03 -0.03 0 -1.2 -0.03 -0.03 0 -1.19 -0.03 -0.04 0 -1.2 -0.04 -0.03 0 -1.19 -0.03 -0.03 0 -1.21 -0.03 -0.03 0 -1.19 -0.03 -0.03 0 -1.21 -0.03 -0.03 0 -1.19 -0.02 -0.03 0 -1.21 -0.03 -0.01 0 -1.22 -0.03 -0.02 0 -1.2 -0.01 -0.02 0 -1.22 -0.04 -0.02 0 -1.2 -0.01 -0.02 0 -1.22 -0.03 -0.01 0 -1.21 -0.02 -0.02 0 -1.22 -0.01 -1.22 -0.02 -0.01 0 -1.22 -0.02 -1.23 -0.01 -0.01 0 -1.22 0 -1.22 -0.02 -1.24 0 -1.22 -0.01 -1.24 0 -1.22 0 1.22 0 1.24 0 1.22 0.01 1.24 0 1.22 0.02 1.22 0 0.01 0 1.23 0.01 1.22 0.02 0.01 0 1.22 0.02 1.22 0.01 0.02 0 1.21 0.02 0.01 0 1.22 0.03 0.02 0 1.2 0.01 0.02 0 1.22 0.04 0.02 0 1.2 0.01 0.02 0 1.22 0.03 0.01 0 1.21 0.03 0.03 0 1.19 0.02 0.03 0 1.21 0.03 0.03 0 1.19 0.03 0.03 0 1.21 0.03 0.03 0 1.19 0.03 0.03 0 1.2 0.04 0.04 0 1.19 0.03 0.03 0 1.2 0.03 0.03 0 1.19 0.03 0.04 0 1.2 0.03 0.03 0 1.19 0.05 0.03 0 1.21 0.03 0.03 0 1.19 0.03 0.05 0 1.17 0.03 0.05 0 1.19 0.03 0.05 0 1.17 0.05 0.05 0 1.19 0.03 0.04 0 1.18 0.03 0.04 0 1.19 0.03 0.05 0 1.18 0.05 0.04 0 1.19 0.03 0.05 0 1.17 0.03 0.05 0 1.17 0.04 0.07 0 1.17 0.03 0.06 0 1.16 0.03 0.07 0 1.17 0.03 0.06 0 1.16 0.03 0.06 0 1.18 0.03 0.06 0 1.16 0.03 0.06 0 1.18 0.02 0.06 0 1.16 0.03 0.06 0 1.16 0.03 0.08 0 1.16 0.02 0.07 0 1.15 0.03 0.07 0 1.16 0.01 0.08 0 1.14 0.04 0.08 0 1.15 0.01 0.09 0 1.14 0.02 0.08 0 1.14 0.01 0.1 0 1.14 0.02 0.08 0 1.14 0.01 0.1 0 1.12 0 0.1 0 1.14 0.02 0.09 0 1.13 0 0.1 0 1.12 0.01 0.11 0 1.13 0 0.09 0 1.13 0 0.11 0 -0.11 0zm0.11 0l0.31 0 0.1 0 0.31 0 0.11 0 0.31 0 0.1 0 0.31 0 0.11 0 0.31 0 0.1 0 0.31 0 0.09 0 0.33 0 0.1 0 0.31 0 0.09 0 0.33 -0.01 0.1 0 0.31 0 0.09 0 0.33 0 0.1 0 0.31 0 0.09 0 0.33 0 0.08 0 0.34 -0.02 0.08 0 0.33 0 0.08 0 0.34 0 0.08 0 0.33 0 0.08 0 0.34 -0.01 0.08 0 0.33 0 0.08 0 0.34 0 0.08 0 0.33 -0.02 0.08 0 0.34 0 0.07 0 0.36 0 0.06 0 0.34 -0.01 0.07 0 0.36 0 0.06 0 0.34 -0.02 0.07 0 0.36 0 0.06 0 0.34 0 0.07 0 0.36 -0.01 0.06 0 0.34 -0.02 0.07 0 0.36 0 0.06 0 0.34 -0.02 0.07 0 0.36 0 0.04 0 0.38 -0.01 0.05 0 0.36 0 0.04 0 0.38 -0.02 0.05 0 0.36 -0.01 0.04 0 0.38 0 0.05 0 0.36 -0.02 0.04 0 0.38 -0.01 0.04 0 0.36 -0.02 0.05 0 0.38 0 0.04 0 0.38 -0.02 0.03 0 0.38 -0.01 0.03 0 0.39 -0.02 0.03 0 0.38 -0.01 0.03 0 0.39 -0.02 0.03 0 0.38 -0.01 0.03 0 0.39 -0.02 0.03 0 0.38 -0.02 0.03 0 0.39 -0.01 0.03 0 0.39 -0.02 0.02 0 0.39 -0.01 0.02 0 0.4 -0.02 0.02 0 0.39 -0.01 0.01 0 0.41 -0.02 0.02 0 0.39 -0.01 0.01 0 0.41 -0.02 0.02 0 0.39 -0.03 0.01 0 0.41 -0.02 0.41 -0.01 0.01 0 0.41 -0.02 0.41 -0.03 0.01 0 0.41 -0.02 -0.41 0.02 -0.01 0 -0.41 0.03 -0.41 0.02 -0.01 0 -0.41 0.01 -0.41 0.02 -0.01 0 -0.39 0.03 -0.02 0 -0.41 0.02 -0.01 0 -0.39 0.01 -0.02 0 -0.41 0.02 -0.01 0 -0.39 0.01 -0.02 0 -0.4 0.02 -0.02 0 -0.39 0.01 -0.02 0 -0.39 0.02 -0.03 0 -0.39 0.01 -0.03 0 -0.38 0.02 -0.03 0 -0.39 0.02 -0.03 0 -0.38 0.01 -0.03 0 -0.39 0.02 -0.03 0 -0.38 0.01 -0.03 0 -0.39 0.02 -0.03 0 -0.38 0.01 -0.03 0 -0.38 0.02 -0.04 0 -0.38 0 -0.05 0 -0.36 0.02 -0.04 0 -0.38 0.01 -0.04 0 -0.36 0.02 -0.05 0 -0.38 0 -0.04 0 -0.36 0.01 -0.05 0 -0.38 0.02 -0.04 0 -0.36 0 -0.05 0 -0.38 0.01 -0.04 0 -0.36 0 -0.07 0 -0.34 0.02 -0.06 0 -0.36 0 -0.07 0 -0.34 0.02 -0.06 0 -0.36 0.01 -0.07 0 -0.34 0 -0.06 0 -0.36 0 -0.07 0 -0.34 0.02 -0.06 0 -0.36 0 -0.07 0 -0.34 0.01 -0.06 0 -0.36 0 -0.07 0 -0.34 0 -0.08 0 -0.33 0.02 -0.08 0 -0.34 0 -0.08 0 -0.33 0 -0.08 0 -0.34 0.01 -0.08 0 -0.33 0 -0.08 0 -0.34 0 -0.08 0 -0.33 0 -0.08 0 -0.34 0.02 -0.08 0 -0.33 0 -0.09 0 -0.31 0 -0.1 0 -0.33 0 -0.09 0 -0.31 0 -0.1 0 -0.33 0.01 -0.09 0 -0.31 0 -0.1 0 -0.33 0 -0.09 0 -0.31 0 -0.1 0 -0.31 0 -0.11 0 -0.31 0 -0.1 0 -0.31 0 -0.11 0 -0.31 0 -0.1 0 -0.31 0zm-1263.41 -9.98l-0.44 -0.21 -0.03 -0.01 -0.41 -0.19 -0.06 -0.03 -0.37 -0.19 -0.08 -0.05 -0.35 -0.17 -0.11 -0.05 -0.31 -0.15 -0.14 -0.08 -0.28 -0.14 -0.16 -0.1 -0.25 -0.12 -0.19 -0.11 -0.22 -0.13 -0.22 -0.11 -0.18 -0.11 -0.24 -0.12 -0.17 -0.11 -0.25 -0.14 -0.14 -0.08 -0.28 -0.17 -0.11 -0.06 -0.3 -0.19 -0.08 -0.05 -0.33 -0.2 -0.04 -0.03 -0.35 -0.22 -0.03 -0.03 -0.36 -0.24 -0.02 0 -0.36 -0.25 -0.01 -0.02 -0.35 -0.23 -0.03 -0.03 -0.31 -0.22 -0.06 -0.05 -0.29 -0.2 -0.09 -0.06 -0.25 -0.21 -0.11 -0.06 -0.23 -0.19 -0.13 -0.09 -0.2 -0.17 -0.14 -0.11 -0.18 -0.16 -0.17 -0.13 -0.15 -0.14 -0.18 -0.14 -0.14 -0.12 -0.19 -0.18 -0.11 -0.09 -0.2 -0.19 -0.09 -0.09 -0.22 -0.2 -0.08 -0.08 -0.24 -0.22 -0.04 -0.06 -0.25 -0.24 -0.03 -0.05 -0.27 -0.26 0 -0.02 -0.27 -0.28 -0.01 0 -0.25 -0.3 -0.03 -0.01 -0.22 -0.28 -0.25 -0.3 -0.05 -0.05 -0.19 -0.25 -0.08 -0.08 -0.15 -0.22 -0.08 -0.11 -0.14 -0.2 -0.1 -0.11 -0.12 -0.19 -0.11 -0.14 -0.11 -0.17 -0.11 -0.17 -0.09 -0.14 -0.13 -0.19 -0.25 -0.46 -0.14 -0.23 -0.05 -0.09 -0.14 -0.26 -0.03 -0.06 -0.16 -0.28 -0.01 -0.05 -0.14 -0.29 -0.02 -0.05 -0.28 -0.66 -0.02 -0.01 -0.12 -0.33 -0.02 -0.03 -0.11 -0.32 -0.03 -0.06 -0.09 -0.28 -0.03 -0.08 -0.08 -0.27 -0.03 -0.11 -0.07 -0.25 -0.04 -0.12 -0.05 -0.24 -0.05 -0.14 -0.04 -0.22 -0.03 -0.17 -0.04 -0.19 -0.04 -0.18 -0.03 -0.18 -0.05 -0.22 -0.02 -0.14 -0.03 -0.25 -0.01 -0.12 -0.04 -0.27 0 -0.11 -0.03 -0.3 0 -0.07 -0.03 -0.33 0 -0.05 0 0.05 0.03 0.33 0 0.07 0.03 0.3 0 0.11 0.04 0.27 0.01 0.12 0.03 0.25 0.02 0.14 0.05 0.22 0.03 0.18 0.04 0.18 0.04 0.19 0.03 0.17 0.04 0.22 0.05 0.14 0.05 0.24 0.04 0.12 0.07 0.25 0.03 0.11 0.08 0.27 0.03 0.08 0.09 0.28 0.03 0.06 0.11 0.32 0.02 0.03 0.12 0.33 0.02 0.01 0.28 0.66 0.02 0.05 0.14 0.29 0.01 0.05 0.16 0.28 0.03 0.06 0.14 0.26 0.05 0.09 0.14 0.23 0.25 0.46 0.13 0.19 0.09 0.14 0.11 0.17 0.11 0.17 0.11 0.14 0.12 0.19 0.1 0.11 0.14 0.2 0.08 0.11 0.15 0.22 0.08 0.08 0.19 0.25 0.05 0.05 0.25 0.3 0.22 0.28 0.03 0.01 0.25 0.3 0.01 0 0.27 0.28 0 0.02 0.27 0.26 0.03 0.05 0.25 0.24 0.04 0.06 0.24 0.22 0.08 0.08 0.22 0.2 0.09 0.09 0.2 0.19 0.11 0.09 0.19 0.18 0.14 0.12 0.18 0.14 0.15 0.14 0.17 0.13 0.18 0.16 0.14 0.11 0.2 0.17 0.13 0.09 0.23 0.19 0.11 0.06 0.25 0.21 0.09 0.06 0.29 0.2 0.06 0.05 0.31 0.22 0.03 0.03 0.35 0.23 0.01 0.02 0.36 0.25 0.02 0 0.36 0.24 0.03 0.03 0.35 0.22 0.04 0.03 0.33 0.2 0.08 0.05 0.3 0.19 0.11 0.06 0.28 0.17 0.14 0.08 0.25 0.14 0.17 0.11 0.24 0.12 0.18 0.11 0.22 0.11 0.22 0.13 0.19 0.11 0.25 0.12 0.16 0.1 0.28 0.14 0.14 0.08 0.31 0.15 0.11 0.05 0.35 0.17 0.08 0.05 0.37 0.19 0.06 0.03 0.41 0.19 0.03 0.01 0.44 0.21zm-16.44 -18.51l0 -1.6 0 1.6zm2865.66 -105.89c-0.24,-24.4 -151.71,-47.28 -574.94,-57.99 423.23,10.71 574.7,33.59 574.94,57.99zm-574.94 -57.99c-73.35,-1.88 -148.1,-2.31 -223.25,-2.31 75.15,0 149.9,0.43 223.25,2.31zm-223.25 -2.31c-36.42,0 -72.91,0.04 -109.42,0.15 36.51,-0.11 73,-0.15 109.42,-0.15zm-109.42 0.15c-36.19,0.11 -72.37,0.24 -108.41,0.24 36.04,0 72.22,-0.13 108.41,-0.24zm-108.41 0.24c-64.49,0 -128.62,-0.35 -191.75,-1.62 63.13,1.27 127.26,1.62 191.75,1.62zm-191.75 -1.62l-2.78 -0.04 -0.22 -0.02 -2.59 -0.05 -0.4 0 -2.38 -0.04 -0.63 -0.02 -2.17 -0.03 -0.82 -0.03 -1.97 -0.03 -1.03 -0.02 -1.76 -0.03 -1.24 -0.03 -1.56 -0.02 -1.44 -0.03 -1.35 -0.01 -1.64 -0.03 -1.16 -0.02 -1.85 -0.03 -0.94 -0.02 -2.05 -0.04 -0.73 0 -2.27 -0.05 -0.54 0 -2.45 -0.05 -0.33 0 -2.68 -0.05 -0.13 0 -2.78 -0.03 -0.08 -0.01 -2.73 -0.03 -0.28 -0.02 -2.5 -0.03 -0.5 0 -2.29 -0.03 -0.7 -0.02 -2.1 -0.03 -0.91 -0.01 -1.88 -0.02 -1.11 -0.02 -1.69 -0.03 -1.32 -0.01 -1.47 -0.02 -1.52 -0.01 -1.26 -0.02 -1.74 -0.03 -1.07 0 -1.92 -0.03 -0.86 -0.02 -2.15 -0.01 -0.66 -0.02 -2.33 -0.03 -0.45 0 -2.56 -0.03 -0.25 0 -2.74 -0.03 -0.04 0 -2.79 -0.03 -0.17 0 -2.63 -0.04 -0.36 0 -2.43 -0.03 -0.58 0 -2.22 -0.01 -0.77 -0.02 -2.02 -0.01 -0.99 0 -1.81 -0.04 -1.19 0 -1.6 -0.01 -1.39 -0.02 -1.39 -0.01 -4.61 -0.03 -0.98 -0.02 -2.02 0 -0.79 -0.01 -2.2 -0.02 -0.58 -0.02 -2.43 0 -0.38 -0.01 -2.61 -0.02 -0.17 0 -0.16 0 -27.79 -0.15 -1.88 0 -0.91 -0.02 -2.08 0 -3.51 -0.02 -2.49 0 -11.49 -0.03 -0.5 0 -7.87 -0.01 7.87 0.01 0.5 0 11.49 0.03 2.49 0 3.51 0.02 2.08 0 0.91 0.02 1.88 0 27.79 0.15 0.16 0 0.17 0 2.61 0.02 0.38 0.01 2.43 0 0.58 0.02 2.2 0.02 0.79 0.01 2.02 0 0.98 0.02 4.61 0.03 1.39 0.01 1.39 0.02 1.6 0.01 1.19 0 1.81 0.04 0.99 0 2.02 0.01 0.77 0.02 2.22 0.01 0.58 0 2.43 0.03 0.36 0 2.63 0.04 0.17 0 2.79 0.03 0.04 0 2.74 0.03 0.25 0 2.56 0.03 0.45 0 2.33 0.03 0.66 0.02 2.15 0.01 0.86 0.02 1.92 0.03 1.07 0 1.74 0.03 1.26 0.02 1.52 0.01 1.47 0.02 1.32 0.01 1.69 0.03 1.11 0.02 1.88 0.02 0.91 0.01 2.1 0.03 0.7 0.02 2.29 0.03 0.5 0 2.5 0.03 0.28 0.02 2.73 0.03 0.08 0.01 2.78 0.03 0.13 0 2.68 0.05 0.33 0 2.45 0.05 0.54 0 2.27 0.05 0.73 0 2.05 0.04 0.94 0.02 1.85 0.03 1.16 0.02 1.64 0.03 1.35 0.01 1.44 0.03 1.56 0.02 1.24 0.03 1.76 0.03 1.03 0.02 1.97 0.03 0.82 0.03 2.17 0.03 0.63 0.02 2.38 0.04 0.4 0 2.59 0.05 0.22 0.02 2.78 0.04zm-178.79 -1.81l-1.13 0 -2.99 0 -3.01 0 -2.99 0 -3 0 3 0 2.99 0 3.01 0 2.99 0 1.13 0zm-13.12 0l-5.62 0 -5.63 0 -1.58 0 1.58 0 5.63 0 5.62 0zm-12.83 0l-15.26 0.03 -0.99 0 -4.63 0.01 -0.79 0 -21.66 0.08 -0.02 0.02 -5.39 0.01 -0.23 0.02 -5.18 0.02 -0.43 0.01 -10.41 0.06 -0.83 0.02c-19.58,0.14 -39.17,0.31 -58.76,0.56l-3.02 0.05c-22.45,0.28 -44.92,0.63 -67.38,1.03l-0.02 0.02 -5.4 0.08 -0.2 0.01 -16.05 0.3 -0.82 0.03 -4.6 0.08 -1 0.03 -11.24 0.24 -4 0.07 -1.61 0.05 -14.64 0.31 -2.21 0.07 -3.2 0.06 -2.42 0.06 -3 0.07 -5.42 0.12 -2.8 0.08 -2.62 0.06 -3 0.08 -2.41 0.05 -3.21 0.09 -2.2 0.05 -3.41 0.09 -2 0.05 -3.62 0.09 -1.8 0.05 -3.82 0.11 -1.6 0.03 -4 0.11 -1.41 0.03 -4.22 0.13 -1.2 0.03 -4.42 0.12 -1 0.02 -4.6 0.14 -0.82 0.02 -4.8 0.14 -0.6 0.01 -5.02 0.14 -0.39 0.02 -5.22 0.14 -0.2 0.01 -5.42 0.16 5.42 -0.16 0.2 -0.01 5.22 -0.14 0.39 -0.02 5.02 -0.14 0.6 -0.01 4.8 -0.14 0.82 -0.02 4.6 -0.14 1 -0.02 4.42 -0.12 1.2 -0.03 4.22 -0.13 1.41 -0.03 4 -0.11 1.6 -0.03 3.82 -0.11 1.8 -0.05 3.62 -0.09 2 -0.05 3.41 -0.09 2.2 -0.05 3.21 -0.09 2.41 -0.05 3 -0.08 2.62 -0.06 2.8 -0.08 5.42 -0.12 3 -0.07 2.42 -0.06 3.2 -0.06 2.21 -0.07 14.64 -0.31 1.61 -0.05 4 -0.07 11.24 -0.24 1 -0.03 4.6 -0.08 0.82 -0.03 16.05 -0.3 0.2 -0.01 5.4 -0.08 0.02 -0.02c22.45,-0.4 44.91,-0.73 67.38,-1.03l3.02 -0.05c19.59,-0.23 39.18,-0.42 58.76,-0.56l0.83 -0.02 10.41 -0.06 0.43 -0.01 5.18 -0.02 0.23 -0.02 5.39 -0.01 0.02 -0.02 21.66 -0.08 0.79 0 4.63 -0.01 0.99 0 15.26 -0.03zm-346.62 5.57l0 0z"/>
    <g style="clip-path:url(#id0)">
     <image x="2542.38" y="6489.23" width="2911.88" height="260.7" xlink:href="6.svg_Images\6.svg_ImgID1.png"/>
    </g>
    <path class="fil2" d="M2953.24 3193.2c60.26,5.03 118.55,-13.81 176.93,-32.59 55.63,-17.95 111.35,-35.84 168.89,-33.13 59.51,2.86 134.05,21.59 167.13,-27.9 14.71,-22.03 14.34,-50.43 13.42,-76.88 -9.97,-291.63 -19.96,-583.27 -29.93,-874.84 -181.15,50.26 -377.48,44.29 -555.2,-16.89 1.02,329.5 2.05,659.03 3.07,988.55 0.14,22.2 1.51,47.51 18.69,61.64 10.13,8.4 23.81,10.93 37,12.04z"/>
    <path class="fil3" d="M3475.09 6542.96c-46.9,-70.3 -87.76,-146.14 -108.32,-228.66 -8.53,-34.18 -13.49,-69.36 -14.78,-104.6 -0.39,-10.27 -0.04,-21.61 6.74,-29.17 6.06,-6.73 15.64,-8.46 24.5,-9.83 55.5,-8.62 119.73,-14.58 160.35,25.08 15.97,15.58 25.88,36.45 34.53,57.27 44.43,107.15 62.06,225.91 50.8,341.74 -17.8,27.33 -57.71,31.25 -86.63,17.06 -28.91,-14.26 -49.14,-41.75 -67.19,-68.89z"/>
    <path class="fil3" d="M2851.22 6502.87c46.89,-70.36 87.75,-146.2 108.31,-228.67 8.53,-34.24 13.48,-69.37 14.78,-104.66 0.39,-10.21 0.05,-21.59 -6.73,-29.11 -6.11,-6.73 -15.71,-8.5 -24.55,-9.83 -55.46,-8.61 -119.74,-14.64 -160.31,25.02 -15.97,15.64 -25.93,36.51 -34.52,57.27 -44.45,107.22 -62.06,225.91 -50.81,341.78 17.76,27.36 57.65,31.27 86.63,17.02 28.92,-14.2 49.15,-41.71 67.2,-68.82z"/>
    <path class="fil4" d="M2719.08 3433.02c58.4,-429.54 134.74,-866.05 86.73,-1286.38 39.27,-28.06 88.35,-42.2 136.58,-39.16 8.08,299.92 16.23,599.84 24.31,899.8 86.58,0.17 173.13,0.39 259.65,0.56l3.52 9.77c55.02,-0.1 110.08,-0.21 165.12,-0.39 8.08,-299.91 16.15,-599.82 24.31,-899.8 48.16,-2.97 97.31,11.1 136.57,39.22 -48.86,427.73 64.04,855.23 107.3,1283.56 35.65,353.17 76.31,506.27 64.49,861.04 -19.24,579.16 -91.04,1361.32 -110.3,1940.49 -0.47,14.64 -783.61,-8.96 -873.05,-9.94 15.54,0.17 -69.79,-1031.1 -74.43,-1108.14 -24.22,-400.94 -55.62,-820.32 -32.58,-1221.38 9.18,-160.22 59.56,-305.71 81.78,-469.25z"/>
    <path class="fil5" d="M3003.81 1598.08c12.85,-35.86 28.01,-70.99 47.84,-103.46 69.27,-113.23 255.9,-251.04 387.25,-151.29 30.57,23.2 52.36,55.8 72.49,88.49 20.58,33.52 40.07,68 54.16,104.77 26.51,69.44 34.6,150.4 17.19,223.14 -16.28,67.72 -57.51,131.52 -95.9,188.63 -50.93,75.67 -115.01,151.5 -203.64,172.99 -118,28.67 -242.54,-55.73 -289.62,-167.63 -47.14,-111.9 -30.7,-241.36 10.23,-355.64z"/>
    <path class="fil3" d="M2935.9 2264.67c4.86,-7.28 13.78,-10.77 22.16,-13.2l0.33 -0.1c-107.38,-191.28 -81.17,-447.06 -56.9,-592.32 13.56,-81.36 40.04,-161.72 87.13,-229.39 47.14,-67.71 116.27,-122 196.41,-141.33 37.67,-9.11 76.77,-10.44 115.5,-11.1 30.03,-0.5 66.02,3.19 83.87,24.91 37.39,-14.09 81.87,-1.62 113.33,23.86 33.59,27.22 55.01,66.44 73.68,105.43 29.49,61.59 54.43,125.71 68.62,192.5 21.95,103.72 17.36,212.25 -7.41,315.32 -8.78,36.56 -20.21,72.96 -39.64,105.17 -27.76,46.11 -70.22,81.18 -111.87,115.37 -7.6,6.25 -15.64,12.7 -25.3,14.69 -9.69,1.98 -21.4,-2.15 -24.48,-11.54 -2.71,-8.29 1.94,-16.96 6.21,-24.52 91.47,-162.17 91.05,-361.34 55.02,-543.99 -15.44,-77.94 -38.38,-157.69 -90.68,-217.45 -4.86,-5.53 -10.68,-11.17 -17.9,-11.89 -10.19,16.3 -25.96,31.11 -40.83,43.04 -79.55,63.63 -159.12,127.2 -238.67,190.83 -45.92,36.66 -93.86,76.21 -113.67,131.56 -22,61.7 -4.35,129.41 5.08,194.31 8.37,57.38 59.44,235.46 2.11,319.58 8.5,-0.72 17.1,-0.94 25.61,-0.5 33.66,89.98 28.33,193.75 -14.42,279.82 6.61,-39.33 -27.87,-71.69 -49.94,-104.9 -27.12,-40.71 -37.47,-92.23 -28.14,-140.28l4.79 -13.88z"/>
    <rect class="fil6" x="2992.39" y="2404.08" width="642.39" height="350.16"/>
    <circle class="fil7" cx="3313.63" cy="2584.8" r="128.68"/>
    <circle class="fil8" cx="3313.63" cy="2584.8" r="96.85"/>
    <rect class="fil6" x="3057.62" y="2295.71" width="132.47" height="175.11"/>
    <rect class="fil8" x="3076.87" y="2320.08" width="93.87" height="67.74"/>
    <path class="fil5" d="M3699.35 2503.84c15.11,15.02 17.8,38.11 19.63,59.31 20.08,228.95 40.13,457.89 60.2,686.82 8.58,97.72 13.66,206.97 -49.94,281.59 -16.08,18.88 -38.95,35.4 -63.58,32.64 -87.41,-212.47 -105.04,-446.12 -121.72,-675.22 -8.23,-114.01 -15.21,-235.02 38.19,-336.1 11.62,-21.81 26.6,-43.02 48.29,-54.78 21.73,-11.82 51.4,-11.67 68.93,5.74z"/>
    <path class="fil5" d="M3026.35 2517.87c48.29,134.65 -3.66,282.46 -55.23,415.9 -48.91,126.76 -97.83,253.47 -146.75,380.18 -14.36,37.06 -40.3,81.46 -79.62,75.71 -35.82,-5.24 -50.44,-48.55 -54.48,-84.45 -31.5,-279.92 125.08,-542.72 275.55,-780.82 10.98,-17.29 31.36,-36.95 48.34,-25.57 6.38,4.24 9.63,11.82 12.19,19.05z"/>
   </g>
  </g>
 </g>
</svg>
