<?xml version="1.0" encoding="UTF-8"?>
<!DOCTYPE svg PUBLIC "-//W3C//DTD SVG 1.1//EN" "http://www.w3.org/Graphics/SVG/1.1/DTD/svg11.dtd">
<!-- Creator: CorelDRAW 2017 -->
<svg xmlns="http://www.w3.org/2000/svg" xml:space="preserve" width="80mm" height="80mm" version="1.1" style="shape-rendering:geometricPrecision; text-rendering:geometricPrecision; image-rendering:optimizeQuality; fill-rule:evenodd; clip-rule:evenodd"
viewBox="0 0 8000 8000"
 xmlns:xlink="http://www.w3.org/1999/xlink">
 <defs>
  <style type="text/css">
   <![CDATA[
    .str0 {stroke:#FEFEFE;stroke-width:141.11;stroke-linejoin:bevel;stroke-miterlimit:22.9256}
    .fil1 {fill:none;fill-rule:nonzero}
    .fil4 {fill:#333333;fill-rule:nonzero}
    .fil12 {fill:#4D4D4D;fill-rule:nonzero}
    .fil7 {fill:#534741;fill-rule:nonzero}
    .fil13 {fill:#662E2A;fill-rule:nonzero}
    .fil18 {fill:#736357;fill-rule:nonzero}
    .fil22 {fill:#8A8A8A;fill-rule:nonzero}
    .fil14 {fill:#AA4A4D;fill-rule:nonzero}
    .fil9 {fill:#ACB18F;fill-rule:nonzero}
    .fil16 {fill:#ADADAD;fill-rule:nonzero}
    .fil11 {fill:#B79A7D;fill-rule:nonzero}
    .fil19 {fill:#C6B697;fill-rule:nonzero}
    .fil20 {fill:#D5AFCB;fill-rule:nonzero}
    .fil8 {fill:#D9924E;fill-rule:nonzero}
    .fil10 {fill:#DD7A8F;fill-rule:nonzero}
    .fil6 {fill:#E2CBB7;fill-rule:nonzero}
    .fil3 {fill:#E5E5E5;fill-rule:nonzero}
    .fil17 {fill:#F2F2F2;fill-rule:nonzero}
    .fil21 {fill:#F7F7F7;fill-rule:nonzero}
    .fil15 {fill:#F9E9DE;fill-rule:nonzero}
    .fil0 {fill:#FF8FA0;fill-rule:nonzero}
    .fil2 {fill:white;fill-rule:nonzero}
    .fil5 {fill:url(#id1)}
   ]]>
  </style>
     <clipPath id="id0">
      <path d="M3248.69 6380.16c-217.07,0 -434.14,-1.85 -651.22,-6.76 -67.48,-1.54 -152.96,-12.74 -160.83,-51.02 -3.38,-12.81 4.49,-25.79 16.87,-36.83 50.61,-46.74 158.58,-58.11 253.06,-63.75 221.57,-12.89 445.4,-19.66 668.09,-19.66 40.49,0 80.98,0.24 121.47,0.64 11.25,0.16 21.37,0.16 31.5,0.16l0 0 0 0c87.73,0 172.08,-3.78 257.56,-7.65 84.36,-3.79 168.71,-7.58 255.32,-7.66l2.25 0c6.74,0 12.37,0.08 17.99,0.08 241.82,1.61 482.51,4.11 723.21,7.58 476.88,6.69 953.77,17.08 1429.53,31.11 33.74,0.96 73.11,4.11 87.73,21.35 23.62,25.63 -29.24,51.5 -75.36,62.7 -200.2,48.6 -419.52,56.18 -638.84,56.18 -60.74,0 -122.6,-0.57 -183.34,-1.05 -85.48,-0.65 -172.08,-0.97 -258.68,-0.97l0 0 0 0c-316.06,0 -632.11,3.95 -948.16,7.74 -316.05,3.95 -632.1,7.81 -948.15,7.81l0 0z"/>
     </clipPath>
  <linearGradient id="id1" gradientUnits="userSpaceOnUse" x1="2440.22" y1="6283.91" x2="6290.09" y2="6283.91">
   <stop offset="0" style="stop-opacity:1; stop-color:black"/>
   <stop offset="1" style="stop-opacity:1; stop-color:black"/>
  </linearGradient>
 </defs>
 <g id="Layer_x0020_1">
  <metadata id="CorelCorpID_0Corel-Layer"/>
  <g id="_2495102312656">
   <g>
    <path class="fil0" d="M2119.93 2528.03c3.61,7.83 7.3,16.9 3.7,24.78 -2.16,4.9 -6.78,8.21 -11.19,11.29 -30.54,21.46 -61.23,43.28 -92.1,65.02 6.42,24.15 9.52,49.22 15.69,73.49 5.85,22.48 14.89,41.55 28.04,60.47 1.36,1.94 2.42,3.79 3.22,5.56 4.36,-0.21 8.29,0.05 11.58,0.83 41.06,9.69 81.26,39.71 123.52,51.77 131.31,38.99 268.05,76.5 403.58,56.76 72.18,-10.53 141.24,-36.98 210.29,-62.26 -16.49,-8.38 -31.18,-19.71 -35.18,-37.1 -4.03,-17.53 4.67,-35.54 15.75,-49.71 11.09,-14.22 24.88,-26.36 33.72,-42.07 4.56,-7.98 7.68,-17.86 3.8,-26.18 -4.96,-10.61 -19.27,-14.37 -24.21,-25.03 -1.9,-4.11 -2.05,-8.36 -1.01,-12.5 -22.65,-16.39 -43.86,-34.92 -63.26,-55.31 -7.53,-7.92 -15.07,-16.62 -17.96,-27.47 -2.49,-9.65 -1.06,-19.93 0.38,-29.93 4.14,-27.99 9.23,-58.01 28.54,-78.18 20.03,-20.89 53.83,-25.6 77.99,-10.81 7.08,4.34 13.21,10.03 18.94,16.27l0.56 -0.61c17.67,-19.45 36.6,-44.47 28.35,-69.4 -4.72,-14.31 -18.26,-27.13 -14.65,-41.83 4.75,-19.31 32.51,-20.07 47.2,-33.52 24.45,-22.38 1.82,-63.44 9.32,-95.72 7.83,-33.86 47.83,-52.5 56.81,-86.07 2.45,-9.22 2.36,-19.12 5.87,-28.01 4.41,-11.08 13.78,-19.3 22.81,-27.03 33.04,-28.24 68.11,-57.48 110.75,-65.94 28.25,-5.58 57.45,-1.44 85.63,4.37 16.33,3.37 33.2,7.71 47.6,15.69 15.76,-6.46 32.89,-9.48 49.95,-10.65 53.69,-3.7 108.39,10.66 153.35,40.2 25.22,16.57 47.17,37.61 67.63,59.8 18.39,19.93 35.63,40.92 50.05,63.87 37.11,59.04 53.98,130.5 47.25,199.89 -1.44,14.42 -3.46,30.36 4.9,42.17 3.27,4.51 7.78,8.08 10.47,12.92 7.06,13.06 -2.12,29.11 -13.16,39.09 -11.04,9.95 -24.78,18.26 -30.06,32.14 -11.29,29.44 22.76,60.46 15.7,91.25 -8.06,35.07 -64.5,49.03 -60.37,84.77 2.98,26.07 39.52,44.86 30.55,69.54 -7.95,21.74 -40.57,17.57 -60.19,29.58 4.96,7.68 9.76,15.4 14.4,23.17 41.89,5.43 80.4,33.15 111.79,65.19 4.1,-2.76 8.1,-5.17 12,-7.25 1.64,-6 3.53,-11.9 5.6,-17.66 14.52,-40.38 37.23,-77.71 48.19,-119.21 14.3,-54.26 7.35,-111.85 -4.05,-166.8 -7.96,-38.27 -17.81,-79.33 -2.58,-115.35 10.98,-25.91 32.3,-43.61 57.54,-56.64l-0.77 -1.29c-17.88,-30.3 -36.08,-61.37 -42.6,-95.95 -4.81,-25.46 -3.04,-51.68 -0.91,-77.52 3.97,-48.79 9.5,-98.8 31.78,-142.41 23.35,-45.77 65.04,-81.83 113.68,-98.3 33.54,-11.41 91.61,-18.17 130.75,-1.89 8.2,-10.67 18.11,-19.95 29.14,-26.79 80.73,-50.1 193.65,-24.73 260.79,42.55 67.19,67.33 93.71,166.9 91.73,261.99 -0.19,9.33 -0.81,18.64 -1.48,27.91 27.95,-14.4 71.22,-9.9 94.03,2.59 39.39,21.56 63.75,62.58 82.96,103.12 17.52,37.01 32.51,75.45 47.97,113.58 3.57,-9 7.02,-18.06 10.42,-27.09 48.71,-129.62 71.89,-130.01 70.22,-324.14 -0.29,-33.7 -22.33,-139.47 -37.99,-169.29 -18.35,-35.01 -31.17,-65.32 -44.38,-94.52 -9.65,-10.32 -14.4,-32.8 -17.76,-41.97 -6.73,-18.49 -18.11,-35.26 -32.85,-48.32 -8.08,-7.11 -17.69,-14.12 -19.65,-24.7l-1.2 -10.98 -5.53 -10.24c-4.84,-6.48 -10.42,-12.49 -16.52,-17.86 -4.47,-3.84 -9.37,-7.64 -11.62,-13.07 -4.27,-10.7 -6.05,-39.48 1.3,-48.36 5.32,-6.48 39.23,-29.05 52.1,-26.71 8.79,1.63 17.87,-1.68 26.42,0.96 10.57,3.27 20.6,8.17 29.68,14.5 9.94,7.02 18.59,15.71 27,24.51 27.9,29.28 29.77,88.6 52.78,121.89l57.1 145.04c114.69,419.37 72.14,416.35 -6.1,657.46 -7.16,22.06 -19.07,51.28 -32.08,80.38 21.35,26.15 44.77,50.81 61.66,79.98 27.23,46.97 35.55,105.66 17.29,156.77 -18.2,51.09 -64.31,92.55 -117.95,100.32 -53.69,7.83 -112,-21.28 -133.85,-70.93 -2.85,-6.47 -5.07,-13.1 -6.78,-19.86 -8,7.37 -16.04,14.68 -24.06,21.97 -12.67,11.48 -25.79,23.24 -41.84,29.15 -14.3,5.24 -30,5.38 -44.99,2.83 -2.24,-0.38 -4.47,-0.82 -6.68,-1.33 49.89,395.59 10.15,797.17 34.72,1195.26 7.93,127.71 22.39,255.07 43.47,381.44 6.48,38.8 13.84,78.33 33.62,112.86 11.28,19.7 26.52,37.56 34.67,58.6 24.02,62.1 -23.2,132.46 -85.86,161.71 -41.74,19.44 -88.05,25.39 -134.96,26.62 0.93,225.95 -4.69,451.93 -16.96,677.71 -6.26,115.63 -14.24,231.18 -23.95,346.66l6.81 0.87c8.3,0.96 17,2.2 23.67,7.16 8.46,6.23 11.96,16.99 14.08,27.27 9.07,44.19 0.82,92.6 21.37,132.71 10.57,20.6 28.38,37.35 49.61,46.58 22.14,9.66 47.22,11.14 69.26,20.98 13.99,6.24 27.02,18 32.83,31.63 3.37,7.89 4.33,16.41 1.65,24.86 -8.74,27.51 -45.48,31.5 -74.4,30.3 -52.06,-2.16 -104.17,-4.37 -156.28,-6.53 -37.12,-1.58 -77.99,-4.66 -104.27,-30.97 -6.21,-6.21 -11.16,-13.3 -15.14,-20.96 -9.9,-19.06 -13.84,-41.7 -16.51,-63.38 -5.57,-45.3 -26.98,-148.6 1.4,-188.27 4.95,-6.9 12.13,-11.76 20.78,-15.07 -5.4,-342.52 -25.52,-684.93 -60.26,-1026.44l-221.6 -6.11c-5.02,13.2 -9.77,26.36 -14.13,39.46 -63.77,191.43 -119.03,384.41 -165.64,578.6l63.33 251.03c3.03,-0.61 6.06,-1.21 9.1,-1.77 20.89,70.55 41.78,141.1 62.62,211.66 7.6,25.54 15.28,51.34 27.95,74.73 7.31,13.3 16.09,25.75 24.26,38.57 21.38,33.51 38.26,69.86 50.06,107.79l1.37 4.5 1.3 4.41c2.6,9.03 4.95,18.4 3.89,27.76 -1.29,10.96 -7.16,20.9 -13.97,29.59 -31.12,39.76 -85.3,59.9 -134.76,50.19 -10,-1.97 -19.99,-5.19 -27.97,-11.53 -9.88,-7.87 -15.65,-19.69 -20.4,-31.41 -8.39,-20.7 -14.57,-42.1 -19.71,-63.85l-0.26 -1.08c-15.6,-66.66 -21.33,-136.46 -49.53,-198.73 -9.17,-20.28 -20.66,-39.49 -29.53,-59.85 -6.73,-15.28 -11.92,-31.12 -17.1,-46.97 -1.92,-5.84 -4.8,-12.67 -7.86,-19.89 -2.8,15.37 -5.56,30.74 -8.26,46.11 0.25,3.82 0.3,7.68 0.31,11.44 0.06,51.28 -0.38,102.58 -1.2,153.88 -0.38,22.57 -0.95,45.71 -9.08,66.8 -8.75,22.79 -26.58,40.98 -48.2,52.21 -21.22,11.02 -46.08,15.32 -69.56,10.66 -11.22,-2.24 -21.92,-6.18 -32.29,-11.01l-0.02 -0.01c-11.45,-5.34 -22.51,-11.75 -33.39,-18.18 -8.21,-4.86 -16.61,-9.9 -22.23,-17.54 -7.49,-10.03 -9.22,-23.29 -9.32,-35.87 -0.24,-35.49 10.23,-70.13 20.55,-104.08 15.86,-51.87 26.61,-110.37 48.85,-159.73 5.76,-12.78 15.2,-18.35 26.54,-19.54 20.55,-71.53 36.01,-143.83 48.65,-216.55 -60.38,-144.04 -113.86,-290.99 -160.16,-440.15 -13.49,-43.37 -26.32,-86.98 -34.91,-131.59 -10.96,-57.06 -14.74,-115.23 -18.16,-173.24 -5.12,-87.67 -9.5,-175.38 -13.34,-263.15 -16.88,-0.43 -33.81,1.02 -50.35,4.42 -18.49,3.79 -36.29,9.86 -53.81,16.85 -8.55,226.11 -29.8,450.8 -51.07,675.14 -17.1,181.07 -34.29,362.08 -51.39,543.09l-1.7 18.23c2.15,0.18 4.04,0.62 5.54,1.37 12.06,6 9.51,24.79 10.37,36.17 2.74,37.89 5,75.79 6.87,113.73 2.88,57.64 4.73,115.32 5.55,173.02 0.25,18.26 0.41,36.51 0.46,54.77 0.04,10.51 -0.1,21.61 -5.34,30.69 -9.36,16.23 -30.74,20.08 -49.32,21.95 -99.18,10.08 -198.97,13.35 -298.59,9.74 -16.09,-0.57 -33.29,-1.72 -46.11,-11.51 -20.12,-15.47 -20.94,-45.24 -17.39,-70.36 0.87,-6.33 1.9,-12.62 3.1,-18.89 2.44,-12.81 5.55,-25.49 9.29,-37.98 4.05,-13.45 9.33,-27.34 20.18,-36.17 18.68,-15.18 45.87,-9.99 69.79,-6.73 36.88,5.1 74.72,3.61 111.13,-4.37 9.23,-2.05 19.6,-5.47 23.44,-14.16l1.87 -11.43c1.69,-48.51 -3.07,-97.21 -14.03,-144.47 -5.66,-24.4 -12.82,-50.53 -3.59,-73.86 0.27,-0.66 9.01,-1.15 21.71,-1.52 -38.73,-344.23 -72.46,-689.45 -90.92,-1035.35 -5.11,-95.49 -9.31,-191.21 -11.94,-286.93 -66.3,-28.98 -151.01,10.99 -214.9,-24.25 -59.5,-32.85 -70.69,-116.47 -49.9,-181.17 20.84,-64.64 64.75,-119.2 92.55,-181.2 26.91,-59.91 36.91,-132.5 63.91,-194.54 -1.95,-4.8 -5.08,-9.09 -9.21,-12.22 -8.21,-6.29 -19.64,-8.07 -26.85,-15.52 -22.76,-23.29 11.92,-46.59 33.96,-41.69l1.95 0.42c-14.46,-39.54 -9.58,-83.15 -3.68,-124.57 27.91,-197.05 67.24,-393.2 117.97,-587.71l3.5 -13.34c-58.75,11.66 -119.69,13.64 -179.39,7.95 -101.82,-9.65 -200.61,-40.72 -295.18,-79.76 -71.8,-29.64 -142.02,-64.17 -205.31,-109.18 -70.32,-50.04 -131.03,-112.09 -191.3,-173.85 -3.32,-3.42 -6.82,-7.26 -7.16,-12.01l-0.02 -0.54c-8.21,-3.88 -15.26,-10.67 -20.54,-18.24 -7.73,-11.05 -12.48,-23.82 -18.58,-35.82 -11.39,-22.13 -27.35,-41.41 -42.99,-60.87 -22.82,15.09 -45.77,29.84 -68.86,44.05 -6.48,3.94 -13.07,7.97 -20.43,9.94 -15.03,4.09 -24.77,15.75 -37.26,6.44 -12.44,-9.37 -33.13,-44.95 -41.36,-58.16 -11.8,-19.02 -28.18,-44.95 -36.97,-65.51 -2.69,-6.44 -5.33,-13.3 -4.47,-20.22 1.1,-9.17 8.07,-16.47 14.65,-22.91 21.95,-21.18 51.24,-35.06 74.4,-54.89 33.27,-28.54 68.1,-48.81 105.08,-72.39 25.21,-16.09 50.48,-38.13 77.13,-51.72 18.06,-9.22 39.81,-25.65 59.7,-29.64 14.17,-2.83 21.32,7.45 28.52,17.97 25.12,36.45 49.04,74.77 67.49,114.93zm1226.66 152.96c-18.4,8.45 -38.04,14.02 -58.77,16.05 -30.55,3.02 -67.86,8.65 -97.98,3.27 -47.38,-8.46 -84.08,-39.56 -114.84,-78.67 -3.04,11.31 -7.64,22.4 -12.72,32.84 -9.99,20.68 -22.15,40.9 -28.45,62.79 16.73,-8.93 37.95,-12.93 65.36,-9.3 2.11,-7.81 7.31,-13.01 19.72,-13.43 24.44,-0.82 51.06,17.29 74.1,23.82 18.89,5.34 38.57,6.69 58.16,7.45 25.03,1.01 50.15,1.1 75.22,0.28 3.92,-0.13 8.09,-0.13 12.24,0.16 0.97,-8.58 2.3,-17.12 3.85,-25.56 1.22,-6.59 2.57,-13.17 4.11,-19.7zm267.46 2394.3c-0.69,-17.4 -1.13,-34.81 -1.56,-52.21 -1.15,-47.1 -2.29,-94.3 -1.81,-141.41l45.18 1.25c-17.22,63.59 -30.62,127.8 -41.81,192.37zm1871.74 -2387.76c18.9,8.95 45.33,-2.42 50.65,-22.96 8.55,12.01 27.38,12.98 39.77,4.94 12.34,-8.06 19.06,-22.57 22.09,-37.03 16.29,0.3 33.62,-1.05 46.73,-10.7 13.11,-9.71 19.07,-30.45 8.31,-42.65 14.35,1.35 29.19,-6.77 35.88,-19.65 6.57,-12.86 4.65,-29.62 -4.75,-40.62 18.05,-7.01 34.9,-21.28 37.98,-40.4 3.12,-19.07 -13.59,-40.77 -32.66,-37.27 27.47,-11.86 43.23,-45.62 34.83,-74.29 -2.26,-7.64 -11.58,-15.85 -16.76,-9.81 15.79,-11.81 27.17,-30.78 25.97,-50.42 -1.16,-19.69 -17.19,-38.57 -36.88,-39.33 15.56,-8.84 22.29,-30.5 14.36,-46.55 -7.88,-16.04 -29.16,-23.96 -45.63,-16.99 1.88,-12.4 3.7,-24.83 5.53,-37.22 0.62,-4.52 1.1,-9.67 -1.92,-13.03l-10.85 -3.46c-11,-0.24 -22.01,1.02 -32.63,3.77 -1.63,-1.74 -3.41,-3.36 -5.35,-4.82 0.13,-5 -1.09,-10.03 -3.39,-14.49 6.08,-22.41 -0.32,-48.14 -17,-64.51 -19.21,-18.88 -50.71,-23.88 -74.82,-11.87 3.89,5.33 13.4,1.59 15.12,-4.79 1.79,-6.4 -1.63,-13.02 -5.47,-18.41 -15.48,-21.68 -40.87,-35.14 -67.29,-38.09 8.43,-15.65 -4.01,-41.41 -21.46,-35.96 14.74,20.98 41.88,32.46 67.24,28.43 7.87,-1.3 16.38,-4.71 19.44,-12.05 3.08,-7.35 -4.07,-17.88 -11.42,-14.85 25.16,18.97 59.26,25.6 89.76,17.44 6.38,-8.89 0.91,-23.58 -9.75,-26.09 19.99,9.8 44.38,16.24 63.88,5.43 19.4,-10.81 23.33,-45.24 2.54,-53.21 17.05,1.68 34.11,-12.05 36.07,-29 1.97,-17.01 -11.48,-34.26 -28.39,-36.52 20.03,4.52 37.22,-21.32 29.89,-40.53 -7.45,-19.16 -30.4,-28.48 -50.92,-26.6 15.61,7.15 28.29,-19.79 17.29,-33 -10.95,-13.26 -30.59,-13.98 -47.79,-13.68 12.88,0.91 19.31,-17.73 12.49,-28.73 -6.77,-10.94 -20.22,-15.41 -32.57,-19.02 -10.47,-3.07 -21.36,-6.19 -32.17,-4.52 -10.75,1.64 -21.43,9.62 -22.43,20.47 -1.11,-16.86 -14.16,-32.27 -30.64,-36.12 -16.47,-3.84 -35.01,4.23 -43.41,18.92 0.51,-12.86 -14.52,-23.58 -26.43,-18.87 -11.95,4.66 -15.69,22.71 -6.63,31.79 -0.19,-12.54 -11.04,-23.92 -23.52,-24.74 -12.49,-0.81 -24.74,9.14 -26.51,21.53 -14.51,-15.28 -30.6,-31.41 -51.39,-34.45 -20.85,-2.96 -45.24,15.62 -39.14,35.8 10.79,-10.81 -4.77,-31.03 -19.8,-28.2 -14.98,2.83 -23.92,18.73 -26.7,33.76 0.57,-12.92 -10.52,-25.21 -23.44,-25.89 -12.87,-0.72 -25.25,10.33 -26.07,23.2 2.15,-18.49 -21.14,-34.34 -37.52,-25.54 -16.42,8.83 -15.99,37.07 0.68,45.37 -2.21,-19.78 -26.75,-34.23 -44.23,-24.73 -17.54,9.46 -17.06,40.45 1.53,47.74 -6.49,1.6 -12.87,3.22 -19.31,4.81 -3.6,14.99 0.91,31.69 11.62,42.84 -14.78,-9.9 -37.98,-2.16 -43.89,14.65 -5.87,16.76 7.35,37.32 25.06,38.9 -4.9,-5.82 -12.43,-9.37 -20.06,-9.41 1.24,25.25 23.71,47.64 48.93,48.74 -0.1,-5.13 -8.74,-5.71 -11.39,-1.34 -2.73,4.42 -1.04,10.13 1.26,14.69 4.84,9.75 12.58,18.64 22.91,22.05 10.28,3.41 23.24,-0.05 28.43,-9.56 10.62,9.85 25.93,14.36 40.2,11.82 10.43,18.1 36.46,24.98 54.41,14.4 2.27,4.4 4.81,8.66 7.59,12.75 -3.44,-0.49 -6.93,-0.72 -10.47,-0.65 -26.89,0.63 -53.79,27.53 -44.66,52.93 -41.79,-21.7 -99.99,21 -91.84,67.39 -27.42,-2.12 -57.19,3.88 -76.11,23.87 -18.93,19.88 -21.57,55.95 -0.39,73.48 -31.36,-0.86 -61.48,23.53 -67.2,54.37 -5.81,30.84 13.61,64.41 43.13,74.88 -26.03,18.2 -44.9,46.34 -51.87,77.37 8.42,11.86 19.65,21.7 32.53,28.48 -7.69,3.69 -11.72,13.55 -8.89,21.61 16.37,12.1 34.8,24.83 54.9,23.45 -9.81,90.13 2.48,183.28 49.12,260.25 83.81,138.36 216.13,162.38 310.41,88.81 29.79,-23.26 55.81,-56.29 75.28,-98.51zm150.06 281.78c101.54,222.66 203.07,445.31 304.6,667.97 10.08,22.13 20.41,45.63 17.87,69.84 -2.93,28.04 -22.54,51.09 -41.12,72.28 -22.62,25.66 -45.45,51.47 -68.77,76.87 10.78,49.3 20.56,98.75 29,148.37 11.25,66.37 20.13,133 26.57,199.81 0.72,7.33 1.29,15.16 -3.03,21.66 -5.18,7.73 -15.94,11.51 -25.93,14.74l-1.38 0.44 2.58 5.17c43.03,87.7 80.39,178.14 111.85,270.64 12.44,36.55 24.07,75.4 16.28,113.2 -15.65,76.18 -99.31,114.41 -172.42,141.01 -19.75,7.19 -39.65,14.41 -59.7,21.29 0.04,16.75 0.46,33.07 1.35,48.84 4.46,79.96 10.75,159.74 17.04,239.51 0,121.42 16.82,244.18 27.48,364.24 11.43,128.04 17.68,252.3 17.59,381.54 -0.06,98.59 -0.06,197.2 -0.11,295.81l-7.84 2.01 12.07 31.16c5.48,14.08 10.91,29.78 5.57,43.91 -2.46,6.42 -6.86,11.67 -12.05,16.25l-0.12 0.1c-4.22,3.72 -8.95,7.01 -13.57,10.16 -56.38,38.61 -112.81,77.23 -169.26,115.84 -19.87,13.59 -42.88,27.81 -66.31,22.48 -25.08,-5.67 -40.79,-36.75 -30.51,-60.33 4.96,-11.28 14.32,-19.87 23.16,-28.52 20.19,-19.83 38.58,-41.45 54.96,-64.51 12.94,-18.23 24.62,-37.35 34.91,-57.19 -3.41,-0.35 -6.83,-0.82 -10.24,-1.4 1.29,-48.75 -15.43,-97.54 -24.59,-144.38 -10.62,-54.36 -20.23,-109.16 -29.16,-164.1 -17.39,-107.73 -41.59,-212.29 -62.25,-318.92 -44.57,-230.76 -86.92,-337 -109.15,-522.25 -12.16,398.01 2.2,774.27 -47.6,1171.31l-6.19 0 -0.46 31.37 -0.51 34.24c-0.19,15.08 -1.01,31.65 -11.25,42.75 -8.49,9.16 -21.56,12.29 -33.8,14.97 -66.71,14.71 -133.51,29.4 -200.28,44.04 -23.54,5.19 -50.14,9.81 -69.92,-3.93 -21.18,-14.65 -24.07,-49.32 -5.72,-67.34 8.84,-8.64 20.75,-13.11 32.13,-17.82 32.48,-13.45 63.47,-30.51 92.23,-50.74l0.18 -0.12c12.15,-8.55 23.89,-17.66 35.19,-27.29l-14.45 0.01c-38.95,-444.89 -69.44,-921.34 -87.07,-1392.09 -7.85,-1.17 -15.66,-2.6 -23.44,-4.32 -68.78,-15.22 -133.51,-56 -168.49,-117.18 -34.86,-61.14 -35.63,-142.89 6.06,-199.65 14.69,-19.99 33.82,-36.36 48.32,-56.54 18.87,-26.36 28.23,-57.25 34.24,-88.75 2.61,-13.8 2.88,-25.17 3.79,-34.62 -6.55,-2.07 -13.09,-4.19 -19.59,-6.4 5.86,-143.41 11.71,-286.82 17.58,-430.24 1.62,-40.07 3.25,-80.15 5.18,-120.22 -18.26,1.61 -36.2,-7.92 -52.24,-17.47 -101.73,-60.32 -195.34,-134.09 -278.05,-218.62 -33.99,-34.73 -239.95,-242.53 -76.26,-238.41 30.98,0.76 34.96,-1.29 58.97,18.3 37.13,30.36 48.89,40.87 98.52,98.89 22.66,26.41 80.25,86.78 112.52,99.75 38.72,15.56 80.16,43.66 103.55,9.08 23.35,-34.58 44.86,-131.99 54.51,-172.61 23.11,-97.77 27.47,-183.43 82.22,-266.13 2.99,-10.64 6.05,-21.27 9.18,-31.89 6.58,-22.23 13.06,-93.17 36.16,-106.53 23.83,-13.77 70.08,10.47 99.37,14.8 85.11,12.54 173.05,-0.72 257.67,-9.08 12.68,-1.24 25.89,-2.35 37.9,1.16 18.45,5.46 28.86,19.74 35.66,35.52 15.41,-0.44 29.28,7.32 38.82,28.26zm43.23 -13.3l4.86 11.29 0 -0.06 -4.86 -11.23zm-363.37 -973.45l1.91 -2.2 -1.64 -0.86c-1.21,0.6 -2.41,1.24 -3.59,1.92 1.05,0.54 2.17,0.92 3.32,1.14zm-989.95 507.47c14.67,-49.69 28.88,-99.82 38.57,-150.55 18.77,30.3 50.27,60.17 64.54,79.86 43.98,60.64 69.23,131.5 81.72,205.64 -48.81,59.82 -84.79,105.84 -150.98,155l-12.15 9.03c-3.24,-3.19 -6.69,-6.22 -10.38,-9.07 -57.53,-44.43 -141.53,-25.94 -215.63,-19.93 -58.86,4.79 -123.02,-15.6 -177.17,-11.42 -7.73,-19.11 -17.87,-37.23 -30.18,-53.75 -34.81,-46.74 -85.67,-79.97 -117.85,-128.54 -27.67,-41.68 -39.53,-95.76 -22.73,-142.88 3.14,-8.79 7.41,-17.21 12.6,-25.04 7.23,5.83 15.39,9.52 24.43,9.03 13.21,40.97 33.39,80.71 52.69,117.55 37.22,70.93 85.88,143.22 161.18,170.49 100.24,36.27 217,-25.45 268.81,-118.58 15.23,-27.38 25.8,-56.59 32.53,-86.84zm-1077.42 3890.13c-216.95,0 -433.91,-1.85 -650.87,-6.76 -67.48,-1.54 -152.96,-12.74 -160.83,-51.02 -3.38,-12.81 4.49,-25.79 16.87,-36.83 50.61,-46.74 158.58,-58.11 253.06,-63.75l9.98 -0.58 531.79 158.94zm-118.6 -175.33c81.68,-1.78 163.38,-2.69 244.92,-2.69 27.33,0 54.67,0.11 82.01,0.3l-326.93 2.39zm326.91 -2.4c-27.38,-0.2 -54.75,-0.32 -82.13,-0.32l0 0c27.38,0 54.75,0.12 82.13,0.32l0 0zm101.87 0.36c57.63,-0.56 114.01,-2.58 170.45,-5l-170.45 5zm380.96 -13.58c33.42,-0.95 67.05,-1.55 101.03,-1.58l2.25 0 5.43 0.02 0.02 0 0.29 0 0.29 0 0.01 0 0.28 0 0.02 0 0.26 0 0.04 0 0.25 0 0.05 0 0.52 0.01 0.08 0 0.2 0 0.11 0 0.17 0 0.13 0 0.15 0 0.15 0 0.13 0 0.17 0 9.24 0.05 0.11 0 0.3 0 22.26 0.15 0.32 0 11.01 0.08 0.28 0 11.05 0.08 0.24 0 11.09 0.08 0.2 0 40.51 0.31 -218.64 0.8zm567.08 2.5l6.21 0.07 0.35 0.01 10.94 0.12 0.35 0.01 10.94 0.12 0.35 0.01 10.94 0.12 0.34 0.01 22.24 0.26 0.34 0.01 67.39 0.83 0.33 0.01c48.89,0.63 97.77,1.29 146.68,2 59.52,0.84 119.03,1.72 178.55,2.67 -59.6,-0.96 -119.2,-1.86 -178.81,-2.71 -48.81,-0.71 -97.61,-1.35 -146.42,-1.96 48.81,0.6 97.63,1.23 146.42,1.96 59.61,0.85 119.21,1.75 178.81,2.71l0.28 0.01 22.07 0.35 0.28 0.01 22.08 0.36 0.27 0.01 22.08 0.36 0.28 0.01 22.06 0.37 0.29 0 22.06 0.38 0.29 0 22.06 0.39 0.29 0 22.06 0.39 0.29 0 22.06 0.4 0.29 0 38.25 0.7 -673.29 -9.99zm870.41 13.82c84.92,1.74 169.84,3.59 254.73,5.56l-254.73 -5.56zm456.26 10.44l0.73 0.02 0.19 0 22.14 0.57 0.19 0 22.15 0.58 0.17 0 22.17 0.57 0.15 0.01 22.18 0.58 0.14 0 22.2 0.59 0.12 0 22.22 0.59 0.1 0.01 22.23 0.59 0.09 0.01 22.25 0.6 0.06 0.01 22.27 0.6 0.05 0.01c59.5,1.65 118.98,3.35 178.46,5.09 4.74,0.14 9.6,0.3 14.48,0.56 -4.86,-0.26 -9.69,-0.45 -14.39,-0.59 -59.52,-1.72 -119.03,-3.43 -178.55,-5.06 59.54,1.64 119.08,3.34 178.61,5.06 7.3,0.22 14.9,0.55 22.48,1.1l0.02 0 1.61 0.12 0.01 0 1.62 0.13 1.62 0.13 1.62 0.14 0 0.01 1.61 0.15 1.61 0.15 0 0.01 1.61 0.16 0 0.01 3.19 0.36 1.58 0.19 0 0.01 1.58 0.2 0 0.01 1.56 0.2 0.01 0.01 1.55 0.22 0.01 0.01 3.07 0.47 0.02 0.01 1.5 0.25 0.02 0.01 1.49 0.26 0.03 0.01 1.47 0.27 0.03 0.01 2.69 0.54 0.22 0.05 0.06 0.01 1.4 0.31 0.06 0.01 1.37 0.32 0.07 0.01 1.35 0.33c12.81,3.16 23.58,7.91 29.98,15.17 5.67,6.41 6.62,12.84 4.15,19.05 2.35,-6.2 1.22,-12.62 -4.69,-19.03 -5.93,-7 -15.96,-11.68 -28.04,-14.83 12.21,3.16 22.42,7.82 28.58,14.81 5.67,6.41 6.62,12.84 4.14,19.05l-0.2 0.48c-7.54,18.42 -45.55,34.86 -79.84,43.19 -81.34,19.74 -165.82,32.72 -252.18,41.16l-0.09 0 -19.87 1.87 -0.08 0 -9.93 0.88 -0.07 0 -19.98 1.64 -0.06 0 -20.05 1.49 -0.06 0 -10.02 0.7 -0.05 0 -10.04 0.66 -0.04 0 -10.06 0.63 -0.04 0 -10.08 0.59 -0.03 0 -10.1 0.56 -0.02 0.01 -10.11 0.53 -0.02 0 -10.13 0.5 -0.01 0 -10.15 0.47 0 0.01c-77.88,3.53 -156.6,4.5 -235.25,4.5l0 0c75.25,0 150.54,-0.9 225.08,-4.06 -74.62,3.16 -150.03,4.04 -225.4,4.04 -60.74,0 -122.6,-0.57 -183.34,-1.05 -85.48,-0.65 -172.08,-0.97 -258.68,-0.97l0 0 0 0c-162.89,0 -325.79,1.05 -488.68,2.59 163.01,-1.52 326.02,-2.56 489.02,-2.56l0 0c-163,0 -326.02,1.04 -489.04,2.56l-0.2 0 1177.13 -151.23zm-1532.69 155.14l-103.7 1.24 -88.85 1.11 -0.04 0 -14.78 0.18 -0.03 0 -14.79 0.18 -0.03 0 -14.8 0.18 -0.01 0 -14.81 0.18 -0.01 0 -14.81 0.18 -29.63 0.35 -0.02 0 -29.61 0.35 -0.04 0 325.96 -3.95zm-325.98 3.95c-133.32,1.56 -266.62,2.94 -399.94,3.88l-0.25 0 -29.38 0.2 -0.24 0 -44.21 0.27 -0.25 0 -29.38 0.16 -0.27 0 -29.36 0.14 -0.28 0 -44.16 0.18 -0.3 0 -14.52 0.05 -0.3 0 -29.33 0.09 -0.31 0 -14.5 0.03 -0.32 0 -14.5 0.03 -0.32 0 -14.49 0.03 -0.33 0 -14.49 0.01 -0.33 0 -14.48 0.02 -0.34 0 -14.48 0.01 -0.34 0 -14.47 0 -0.35 0 0.35 0 14.47 0 0.34 0 14.48 -0.01 0.34 0 14.48 -0.02 0.33 0 14.48 -0.01 0.34 0 14.48 -0.03 0.33 0 14.49 -0.03 0.33 0 14.49 -0.03 0.32 0 29.32 -0.09 0.31 0 14.51 -0.05 0.31 0 44.15 -0.18 0.29 0 29.35 -0.14 0.28 0 29.36 -0.16 0.27 0 44.19 -0.27 0.26 0 29.4 -0.2 0.23 0 399.94 -3.88zm-726.22 5.1l0 0zm726.22 -5.1l0.06 0 29.58 -0.35 0.05 0 29.6 -0.35 0.03 0 14.79 -0.18 0.02 0 -74.13 0.88zm133.39 -1.6l0.01 0 88.94 -1.09 103.64 -1.26 -103.6 1.26 -88.95 1.09 -0.04 0zm1792.96 -155.75l-22.11 -0.57 -0.22 0 -22.1 -0.58 -0.24 0 -22.09 -0.57 -0.24 0 -0.68 -0.02 67.68 1.74zm-721.06 -16.01l-38.25 -0.7 -0.3 0 -22.05 -0.4 -0.3 0 -22.05 -0.39 -0.29 0 -22.06 -0.39 -0.29 0 -22.06 -0.38 -0.29 0 -22.06 -0.37 150 2.63zm1126.06 65.08l-0.01 0 0.01 0zm-332.32 84.83c-6.61,0.65 -13.24,1.28 -19.87,1.87l19.87 -1.87z"/>
    <path id="1" class="fil1 str0" d="M2119.93 2528.03c3.61,7.83 7.3,16.9 3.7,24.78 -2.16,4.9 -6.78,8.21 -11.19,11.29 -30.54,21.46 -61.23,43.28 -92.1,65.02 6.42,24.15 9.52,49.22 15.69,73.49 5.85,22.48 14.89,41.55 28.04,60.47 1.36,1.94 2.42,3.79 3.22,5.56 4.36,-0.21 8.29,0.05 11.58,0.83 41.06,9.69 81.26,39.71 123.52,51.77 131.31,38.99 268.05,76.5 403.58,56.76 72.18,-10.53 141.24,-36.98 210.29,-62.26 -16.49,-8.38 -31.18,-19.71 -35.18,-37.1 -4.03,-17.53 4.67,-35.54 15.75,-49.71 11.09,-14.22 24.88,-26.36 33.72,-42.07 4.56,-7.98 7.68,-17.86 3.8,-26.18 -4.96,-10.61 -19.27,-14.37 -24.21,-25.03 -1.9,-4.11 -2.05,-8.36 -1.01,-12.5 -22.65,-16.39 -43.86,-34.92 -63.26,-55.31 -7.53,-7.92 -15.07,-16.62 -17.96,-27.47 -2.49,-9.65 -1.06,-19.93 0.38,-29.93 4.14,-27.99 9.23,-58.01 28.54,-78.18 20.03,-20.89 53.83,-25.6 77.99,-10.81 7.08,4.34 13.21,10.03 18.94,16.27l0.56 -0.61c17.67,-19.45 36.6,-44.47 28.35,-69.4 -4.72,-14.31 -18.26,-27.13 -14.65,-41.83 4.75,-19.31 32.51,-20.07 47.2,-33.52 24.45,-22.38 1.82,-63.44 9.32,-95.72 7.83,-33.86 47.83,-52.5 56.81,-86.07 2.45,-9.22 2.36,-19.12 5.87,-28.01 4.41,-11.08 13.78,-19.3 22.81,-27.03 33.04,-28.24 68.11,-57.48 110.75,-65.94 28.25,-5.58 57.45,-1.44 85.63,4.37 16.33,3.37 33.2,7.71 47.6,15.69 15.76,-6.46 32.89,-9.48 49.95,-10.65 53.69,-3.7 108.39,10.66 153.35,40.2 25.22,16.57 47.17,37.61 67.63,59.8 18.39,19.93 35.63,40.92 50.05,63.87 37.11,59.04 53.98,130.5 47.25,199.89 -1.44,14.42 -3.46,30.36 4.9,42.17 3.27,4.51 7.78,8.08 10.47,12.92 7.06,13.06 -2.12,29.11 -13.16,39.09 -11.04,9.95 -24.78,18.26 -30.06,32.14 -11.29,29.44 22.76,60.46 15.7,91.25 -8.06,35.07 -64.5,49.03 -60.37,84.77 2.98,26.07 39.52,44.86 30.55,69.54 -7.95,21.74 -40.57,17.57 -60.19,29.58 4.96,7.68 9.76,15.4 14.4,23.17 41.89,5.43 80.4,33.15 111.79,65.19 4.1,-2.76 8.1,-5.17 12,-7.25 1.64,-6 3.53,-11.9 5.6,-17.66 14.52,-40.38 37.23,-77.71 48.19,-119.21 14.3,-54.26 7.35,-111.85 -4.05,-166.8 -7.96,-38.27 -17.81,-79.33 -2.58,-115.35 10.98,-25.91 32.3,-43.61 57.54,-56.64l-0.77 -1.29c-17.88,-30.3 -36.08,-61.37 -42.6,-95.95 -4.81,-25.46 -3.04,-51.68 -0.91,-77.52 3.97,-48.79 9.5,-98.8 31.78,-142.41 23.35,-45.77 65.04,-81.83 113.68,-98.3 33.54,-11.41 91.61,-18.17 130.75,-1.89 8.2,-10.67 18.11,-19.95 29.14,-26.79 80.73,-50.1 193.65,-24.73 260.79,42.55 67.19,67.33 93.71,166.9 91.73,261.99 -0.19,9.33 -0.81,18.64 -1.48,27.91 27.95,-14.4 71.22,-9.9 94.03,2.59 39.39,21.56 63.75,62.58 82.96,103.12 17.52,37.01 32.51,75.45 47.97,113.58 3.57,-9 7.02,-18.06 10.42,-27.09 48.71,-129.62 71.89,-130.01 70.22,-324.14 -0.29,-33.7 -22.33,-139.47 -37.99,-169.29 -18.35,-35.01 -31.17,-65.32 -44.38,-94.52 -9.65,-10.32 -14.4,-32.8 -17.76,-41.97 -6.73,-18.49 -18.11,-35.26 -32.85,-48.32 -8.08,-7.11 -17.69,-14.12 -19.65,-24.7l-1.2 -10.98 -5.53 -10.24c-4.84,-6.48 -10.42,-12.49 -16.52,-17.86 -4.47,-3.84 -9.37,-7.64 -11.62,-13.07 -4.27,-10.7 -6.05,-39.48 1.3,-48.36 5.32,-6.48 39.23,-29.05 52.1,-26.71 8.79,1.63 17.87,-1.68 26.42,0.96 10.57,3.27 20.6,8.17 29.68,14.5 9.94,7.02 18.59,15.71 27,24.51 27.9,29.28 29.77,88.6 52.78,121.89l57.1 145.04c114.69,419.37 72.14,416.35 -6.1,657.46 -7.16,22.06 -19.07,51.28 -32.08,80.38 21.35,26.15 44.77,50.81 61.66,79.98 27.23,46.97 35.55,105.66 17.29,156.77 -18.2,51.09 -64.31,92.55 -117.95,100.32 -53.69,7.83 -112,-21.28 -133.85,-70.93 -2.85,-6.47 -5.07,-13.1 -6.78,-19.86 -8,7.37 -16.04,14.68 -24.06,21.97 -12.67,11.48 -25.79,23.24 -41.84,29.15 -14.3,5.24 -30,5.38 -44.99,2.83 -2.24,-0.38 -4.47,-0.82 -6.68,-1.33 49.89,395.59 10.15,797.17 34.72,1195.26 7.93,127.71 22.39,255.07 43.47,381.44 6.48,38.8 13.84,78.33 33.62,112.86 11.28,19.7 26.52,37.56 34.67,58.6 24.02,62.1 -23.2,132.46 -85.86,161.71 -41.74,19.44 -88.05,25.39 -134.96,26.62 0.93,225.95 -4.69,451.93 -16.96,677.71 -6.26,115.63 -14.24,231.18 -23.95,346.66l6.81 0.87c8.3,0.96 17,2.2 23.67,7.16 8.46,6.23 11.96,16.99 14.08,27.27 9.07,44.19 0.82,92.6 21.37,132.71 10.57,20.6 28.38,37.35 49.61,46.58 22.14,9.66 47.22,11.14 69.26,20.98 13.99,6.24 27.02,18 32.83,31.63 3.37,7.89 4.33,16.41 1.65,24.86 -8.74,27.51 -45.48,31.5 -74.4,30.3 -52.06,-2.16 -104.17,-4.37 -156.28,-6.53 -37.12,-1.58 -77.99,-4.66 -104.27,-30.97 -6.21,-6.21 -11.16,-13.3 -15.14,-20.96 -9.9,-19.06 -13.84,-41.7 -16.51,-63.38 -5.57,-45.3 -26.98,-148.6 1.4,-188.27 4.95,-6.9 12.13,-11.76 20.78,-15.07 -5.4,-342.52 -25.52,-684.93 -60.26,-1026.44l-221.6 -6.11c-5.02,13.2 -9.77,26.36 -14.13,39.46 -63.77,191.43 -119.03,384.41 -165.64,578.6l63.33 251.03c3.03,-0.61 6.06,-1.21 9.1,-1.77 20.89,70.55 41.78,141.1 62.62,211.66 7.6,25.54 15.28,51.34 27.95,74.73 7.31,13.3 16.09,25.75 24.26,38.57 21.38,33.51 38.26,69.86 50.06,107.79l1.37 4.5 1.3 4.41c2.6,9.03 4.95,18.4 3.89,27.76 -1.29,10.96 -7.16,20.9 -13.97,29.59 -31.12,39.76 -85.3,59.9 -134.76,50.19 -10,-1.97 -19.99,-5.19 -27.97,-11.53 -9.88,-7.87 -15.65,-19.69 -20.4,-31.41 -8.39,-20.7 -14.57,-42.1 -19.71,-63.85l-0.26 -1.08c-15.6,-66.66 -21.33,-136.46 -49.53,-198.73 -9.17,-20.28 -20.66,-39.49 -29.53,-59.85 -6.73,-15.28 -11.92,-31.12 -17.1,-46.97 -1.92,-5.84 -4.8,-12.67 -7.86,-19.89 -2.8,15.37 -5.56,30.74 -8.26,46.11 0.25,3.82 0.3,7.68 0.31,11.44 0.06,51.28 -0.38,102.58 -1.2,153.88 -0.38,22.57 -0.95,45.71 -9.08,66.8 -8.75,22.79 -26.58,40.98 -48.2,52.21 -21.22,11.02 -46.08,15.32 -69.56,10.66 -11.22,-2.24 -21.92,-6.18 -32.29,-11.01l-0.02 -0.01c-11.45,-5.34 -22.51,-11.75 -33.39,-18.18 -8.21,-4.86 -16.61,-9.9 -22.23,-17.54 -7.49,-10.03 -9.22,-23.29 -9.32,-35.87 -0.24,-35.49 10.23,-70.13 20.55,-104.08 15.86,-51.87 26.61,-110.37 48.85,-159.73 5.76,-12.78 15.2,-18.35 26.54,-19.54 20.55,-71.53 36.01,-143.83 48.65,-216.55 -60.38,-144.04 -113.86,-290.99 -160.16,-440.15 -13.49,-43.37 -26.32,-86.98 -34.91,-131.59 -10.96,-57.06 -14.74,-115.23 -18.16,-173.24 -5.12,-87.67 -9.5,-175.38 -13.34,-263.15 -16.88,-0.43 -33.81,1.02 -50.35,4.42 -18.49,3.79 -36.29,9.86 -53.81,16.85 -8.55,226.11 -29.8,450.8 -51.07,675.14 -17.1,181.07 -34.29,362.08 -51.39,543.09l-1.7 18.23c2.15,0.18 4.04,0.62 5.54,1.37 12.06,6 9.51,24.79 10.37,36.17 2.74,37.89 5,75.79 6.87,113.73 2.88,57.64 4.73,115.32 5.55,173.02 0.25,18.26 0.41,36.51 0.46,54.77 0.04,10.51 -0.1,21.61 -5.34,30.69 -9.36,16.23 -30.74,20.08 -49.32,21.95 -99.18,10.08 -198.97,13.35 -298.59,9.74 -16.09,-0.57 -33.29,-1.72 -46.11,-11.51 -20.12,-15.47 -20.94,-45.24 -17.39,-70.36 0.87,-6.33 1.9,-12.62 3.1,-18.89 2.44,-12.81 5.55,-25.49 9.29,-37.98 4.05,-13.45 9.33,-27.34 20.18,-36.17 18.68,-15.18 45.87,-9.99 69.79,-6.73 36.88,5.1 74.72,3.61 111.13,-4.37 9.23,-2.05 19.6,-5.47 23.44,-14.16l1.87 -11.43c1.69,-48.51 -3.07,-97.21 -14.03,-144.47 -5.66,-24.4 -12.82,-50.53 -3.59,-73.86 0.27,-0.66 9.01,-1.15 21.71,-1.52 -38.73,-344.23 -72.46,-689.45 -90.92,-1035.35 -5.11,-95.49 -9.31,-191.21 -11.94,-286.93 -66.3,-28.98 -151.01,10.99 -214.9,-24.25 -59.5,-32.85 -70.69,-116.47 -49.9,-181.17 20.84,-64.64 64.75,-119.2 92.55,-181.2 26.91,-59.91 36.91,-132.5 63.91,-194.54 -1.95,-4.8 -5.08,-9.09 -9.21,-12.22 -8.21,-6.29 -19.64,-8.07 -26.85,-15.52 -22.76,-23.29 11.92,-46.59 33.96,-41.69l1.95 0.42c-14.46,-39.54 -9.58,-83.15 -3.68,-124.57 27.91,-197.05 67.24,-393.2 117.97,-587.71l3.5 -13.34c-58.75,11.66 -119.69,13.64 -179.39,7.95 -101.82,-9.65 -200.61,-40.72 -295.18,-79.76 -71.8,-29.64 -142.02,-64.17 -205.31,-109.18 -70.32,-50.04 -131.03,-112.09 -191.3,-173.85 -3.32,-3.42 -6.82,-7.26 -7.16,-12.01l-0.02 -0.54c-8.21,-3.88 -15.26,-10.67 -20.54,-18.24 -7.73,-11.05 -12.48,-23.82 -18.58,-35.82 -11.39,-22.13 -27.35,-41.41 -42.99,-60.87 -22.82,15.09 -45.77,29.84 -68.86,44.05 -6.48,3.94 -13.07,7.97 -20.43,9.94 -15.03,4.09 -24.77,15.75 -37.26,6.44 -12.44,-9.37 -33.13,-44.95 -41.36,-58.16 -11.8,-19.02 -28.18,-44.95 -36.97,-65.51 -2.69,-6.44 -5.33,-13.3 -4.47,-20.22 1.1,-9.17 8.07,-16.47 14.65,-22.91 21.95,-21.18 51.24,-35.06 74.4,-54.89 33.27,-28.54 68.1,-48.81 105.08,-72.39 25.21,-16.09 50.48,-38.13 77.13,-51.72 18.06,-9.22 39.81,-25.65 59.7,-29.64 14.17,-2.83 21.32,7.45 28.52,17.97 25.12,36.45 49.04,74.77 67.49,114.93zm1226.66 152.96c-18.4,8.45 -38.04,14.02 -58.77,16.05 -30.55,3.02 -67.86,8.65 -97.98,3.27 -47.38,-8.46 -84.08,-39.56 -114.84,-78.67 -3.04,11.31 -7.64,22.4 -12.72,32.84 -9.99,20.68 -22.15,40.9 -28.45,62.79 16.73,-8.93 37.95,-12.93 65.36,-9.3 2.11,-7.81 7.31,-13.01 19.72,-13.43 24.44,-0.82 51.06,17.29 74.1,23.82 18.89,5.34 38.57,6.69 58.16,7.45 25.03,1.01 50.15,1.1 75.22,0.28 3.92,-0.13 8.09,-0.13 12.24,0.16 0.97,-8.58 2.3,-17.12 3.85,-25.56 1.22,-6.59 2.57,-13.17 4.11,-19.7zm267.46 2394.3c-0.69,-17.4 -1.13,-34.81 -1.56,-52.21 -1.15,-47.1 -2.29,-94.3 -1.81,-141.41l45.18 1.25c-17.22,63.59 -30.62,127.8 -41.81,192.37zm1871.74 -2387.76c18.9,8.95 45.33,-2.42 50.65,-22.96 8.55,12.01 27.38,12.98 39.77,4.94 12.34,-8.06 19.06,-22.57 22.09,-37.03 16.29,0.3 33.62,-1.05 46.73,-10.7 13.11,-9.71 19.07,-30.45 8.31,-42.65 14.35,1.35 29.19,-6.77 35.88,-19.65 6.57,-12.86 4.65,-29.62 -4.75,-40.62 18.05,-7.01 34.9,-21.28 37.98,-40.4 3.12,-19.07 -13.59,-40.77 -32.66,-37.27 27.47,-11.86 43.23,-45.62 34.83,-74.29 -2.26,-7.64 -11.58,-15.85 -16.76,-9.81 15.79,-11.81 27.17,-30.78 25.97,-50.42 -1.16,-19.69 -17.19,-38.57 -36.88,-39.33 15.56,-8.84 22.29,-30.5 14.36,-46.55 -7.88,-16.04 -29.16,-23.96 -45.63,-16.99 1.88,-12.4 3.7,-24.83 5.53,-37.22 0.62,-4.52 1.1,-9.67 -1.92,-13.03l-10.85 -3.46c-11,-0.24 -22.01,1.02 -32.63,3.77 -1.63,-1.74 -3.41,-3.36 -5.35,-4.82 0.13,-5 -1.09,-10.03 -3.39,-14.49 6.08,-22.41 -0.32,-48.14 -17,-64.51 -19.21,-18.88 -50.71,-23.88 -74.82,-11.87 3.89,5.33 13.4,1.59 15.12,-4.79 1.79,-6.4 -1.63,-13.02 -5.47,-18.41 -15.48,-21.68 -40.87,-35.14 -67.29,-38.09 8.43,-15.65 -4.01,-41.41 -21.46,-35.96 14.74,20.98 41.88,32.46 67.24,28.43 7.87,-1.3 16.38,-4.71 19.44,-12.05 3.08,-7.35 -4.07,-17.88 -11.42,-14.85 25.16,18.97 59.26,25.6 89.76,17.44 6.38,-8.89 0.91,-23.58 -9.75,-26.09 19.99,9.8 44.38,16.24 63.88,5.43 19.4,-10.81 23.33,-45.24 2.54,-53.21 17.05,1.68 34.11,-12.05 36.07,-29 1.97,-17.01 -11.48,-34.26 -28.39,-36.52 20.03,4.52 37.22,-21.32 29.89,-40.53 -7.45,-19.16 -30.4,-28.48 -50.92,-26.6 15.61,7.15 28.29,-19.79 17.29,-33 -10.95,-13.26 -30.59,-13.98 -47.79,-13.68 12.88,0.91 19.31,-17.73 12.49,-28.73 -6.77,-10.94 -20.22,-15.41 -32.57,-19.02 -10.47,-3.07 -21.36,-6.19 -32.17,-4.52 -10.75,1.64 -21.43,9.62 -22.43,20.47 -1.11,-16.86 -14.16,-32.27 -30.64,-36.12 -16.47,-3.84 -35.01,4.23 -43.41,18.92 0.51,-12.86 -14.52,-23.58 -26.43,-18.87 -11.95,4.66 -15.69,22.71 -6.63,31.79 -0.19,-12.54 -11.04,-23.92 -23.52,-24.74 -12.49,-0.81 -24.74,9.14 -26.51,21.53 -14.51,-15.28 -30.6,-31.41 -51.39,-34.45 -20.85,-2.96 -45.24,15.62 -39.14,35.8 10.79,-10.81 -4.77,-31.03 -19.8,-28.2 -14.98,2.83 -23.92,18.73 -26.7,33.76 0.57,-12.92 -10.52,-25.21 -23.44,-25.89 -12.87,-0.72 -25.25,10.33 -26.07,23.2 2.15,-18.49 -21.14,-34.34 -37.52,-25.54 -16.42,8.83 -15.99,37.07 0.68,45.37 -2.21,-19.78 -26.75,-34.23 -44.23,-24.73 -17.54,9.46 -17.06,40.45 1.53,47.74 -6.49,1.6 -12.87,3.22 -19.31,4.81 -3.6,14.99 0.91,31.69 11.62,42.84 -14.78,-9.9 -37.98,-2.16 -43.89,14.65 -5.87,16.76 7.35,37.32 25.06,38.9 -4.9,-5.82 -12.43,-9.37 -20.06,-9.41 1.24,25.25 23.71,47.64 48.93,48.74 -0.1,-5.13 -8.74,-5.71 -11.39,-1.34 -2.73,4.42 -1.04,10.13 1.26,14.69 4.84,9.75 12.58,18.64 22.91,22.05 10.28,3.41 23.24,-0.05 28.43,-9.56 10.62,9.85 25.93,14.36 40.2,11.82 10.43,18.1 36.46,24.98 54.41,14.4 2.27,4.4 4.81,8.66 7.59,12.75 -3.44,-0.49 -6.93,-0.72 -10.47,-0.65 -26.89,0.63 -53.79,27.53 -44.66,52.93 -41.79,-21.7 -99.99,21 -91.84,67.39 -27.42,-2.12 -57.19,3.88 -76.11,23.87 -18.93,19.88 -21.57,55.95 -0.39,73.48 -31.36,-0.86 -61.48,23.53 -67.2,54.37 -5.81,30.84 13.61,64.41 43.13,74.88 -26.03,18.2 -44.9,46.34 -51.87,77.37 8.42,11.86 19.65,21.7 32.53,28.48 -7.69,3.69 -11.72,13.55 -8.89,21.61 16.37,12.1 34.8,24.83 54.9,23.45 -9.81,90.13 2.48,183.28 49.12,260.25 83.81,138.36 216.13,162.38 310.41,88.81 29.79,-23.26 55.81,-56.29 75.28,-98.51zm150.06 281.78c101.54,222.66 203.07,445.31 304.6,667.97 10.08,22.13 20.41,45.63 17.87,69.84 -2.93,28.04 -22.54,51.09 -41.12,72.28 -22.62,25.66 -45.45,51.47 -68.77,76.87 10.78,49.3 20.56,98.75 29,148.37 11.25,66.37 20.13,133 26.57,199.81 0.72,7.33 1.29,15.16 -3.03,21.66 -5.18,7.73 -15.94,11.51 -25.93,14.74l-1.38 0.44 2.58 5.17c43.03,87.7 80.39,178.14 111.85,270.64 12.44,36.55 24.07,75.4 16.28,113.2 -15.65,76.18 -99.31,114.41 -172.42,141.01 -19.75,7.19 -39.65,14.41 -59.7,21.29 0.04,16.75 0.46,33.07 1.35,48.84 4.46,79.96 10.75,159.74 17.04,239.51 0,121.42 16.82,244.18 27.48,364.24 11.43,128.04 17.68,252.3 17.59,381.54 -0.06,98.59 -0.06,197.2 -0.11,295.81l-7.84 2.01 12.07 31.16c5.48,14.08 10.91,29.78 5.57,43.91 -2.46,6.42 -6.86,11.67 -12.05,16.25l-0.12 0.1c-4.22,3.72 -8.95,7.01 -13.57,10.16 -56.38,38.61 -112.81,77.23 -169.26,115.84 -19.87,13.59 -42.88,27.81 -66.31,22.48 -25.08,-5.67 -40.79,-36.75 -30.51,-60.33 4.96,-11.28 14.32,-19.87 23.16,-28.52 20.19,-19.83 38.58,-41.45 54.96,-64.51 12.94,-18.23 24.62,-37.35 34.91,-57.19 -3.41,-0.35 -6.83,-0.82 -10.24,-1.4 1.29,-48.75 -15.43,-97.54 -24.59,-144.38 -10.62,-54.36 -20.23,-109.16 -29.16,-164.1 -17.39,-107.73 -41.59,-212.29 -62.25,-318.92 -44.57,-230.76 -86.92,-337 -109.15,-522.25 -12.16,398.01 2.2,774.27 -47.6,1171.31l-6.19 0 -0.46 31.37 -0.51 34.24c-0.19,15.08 -1.01,31.65 -11.25,42.75 -8.49,9.16 -21.56,12.29 -33.8,14.97 -66.71,14.71 -133.51,29.4 -200.28,44.04 -23.54,5.19 -50.14,9.81 -69.92,-3.93 -21.18,-14.65 -24.07,-49.32 -5.72,-67.34 8.84,-8.64 20.75,-13.11 32.13,-17.82 32.48,-13.45 63.47,-30.51 92.23,-50.74l0.18 -0.12c12.15,-8.55 23.89,-17.66 35.19,-27.29l-14.45 0.01c-38.95,-444.89 -69.44,-921.34 -87.07,-1392.09 -7.85,-1.17 -15.66,-2.6 -23.44,-4.32 -68.78,-15.22 -133.51,-56 -168.49,-117.18 -34.86,-61.14 -35.63,-142.89 6.06,-199.65 14.69,-19.99 33.82,-36.36 48.32,-56.54 18.87,-26.36 28.23,-57.25 34.24,-88.75 2.61,-13.8 2.88,-25.17 3.79,-34.62 -6.55,-2.07 -13.09,-4.19 -19.59,-6.4 5.86,-143.41 11.71,-286.82 17.58,-430.24 1.62,-40.07 3.25,-80.15 5.18,-120.22 -18.26,1.61 -36.2,-7.92 -52.24,-17.47 -101.73,-60.32 -195.34,-134.09 -278.05,-218.62 -33.99,-34.73 -239.95,-242.53 -76.26,-238.41 30.98,0.76 34.96,-1.29 58.97,18.3 37.13,30.36 48.89,40.87 98.52,98.89 22.66,26.41 80.25,86.78 112.52,99.75 38.72,15.56 80.16,43.66 103.55,9.08 23.35,-34.58 44.86,-131.99 54.51,-172.61 23.11,-97.77 27.47,-183.43 82.22,-266.13 2.99,-10.64 6.05,-21.27 9.18,-31.89 6.58,-22.23 13.06,-93.17 36.16,-106.53 23.83,-13.77 70.08,10.47 99.37,14.8 85.11,12.54 173.05,-0.72 257.67,-9.08 12.68,-1.24 25.89,-2.35 37.9,1.16 18.45,5.46 28.86,19.74 35.66,35.52 15.41,-0.44 29.28,7.32 38.82,28.26zm43.23 -13.3l4.86 11.29 0 -0.06 -4.86 -11.23zm-363.37 -973.45l1.91 -2.2 -1.64 -0.86c-1.21,0.6 -2.41,1.24 -3.59,1.92 1.05,0.54 2.17,0.92 3.32,1.14zm-989.95 507.47c14.67,-49.69 28.88,-99.82 38.57,-150.55 18.77,30.3 50.27,60.17 64.54,79.86 43.98,60.64 69.23,131.5 81.72,205.64 -48.81,59.82 -84.79,105.84 -150.98,155l-12.15 9.03c-3.24,-3.19 -6.69,-6.22 -10.38,-9.07 -57.53,-44.43 -141.53,-25.94 -215.63,-19.93 -58.86,4.79 -123.02,-15.6 -177.17,-11.42 -7.73,-19.11 -17.87,-37.23 -30.18,-53.75 -34.81,-46.74 -85.67,-79.97 -117.85,-128.54 -27.67,-41.68 -39.53,-95.76 -22.73,-142.88 3.14,-8.79 7.41,-17.21 12.6,-25.04 7.23,5.83 15.39,9.52 24.43,9.03 13.21,40.97 33.39,80.71 52.69,117.55 37.22,70.93 85.88,143.22 161.18,170.49 100.24,36.27 217,-25.45 268.81,-118.58 15.23,-27.38 25.8,-56.59 32.53,-86.84zm-1077.42 3890.13c-216.95,0 -433.91,-1.85 -650.87,-6.76 -67.48,-1.54 -152.96,-12.74 -160.83,-51.02 -3.38,-12.81 4.49,-25.79 16.87,-36.83 50.61,-46.74 158.58,-58.11 253.06,-63.75l9.98 -0.58m413.19 -16.39c81.68,-1.78 163.38,-2.69 244.92,-2.69 27.33,0 54.67,0.11 82.01,0.3m-0.02 -0.01c-27.38,-0.2 -54.75,-0.32 -82.13,-0.32l0 0c27.38,0 54.75,0.12 82.13,0.32m101.87 0.36c57.63,-0.56 114.01,-2.58 170.45,-5m210.51 -8.58c33.42,-0.95 67.05,-1.55 101.03,-1.58l2.25 0 5.43 0.02 0.02 0 0.29 0 0.29 0 0.01 0 0.28 0 0.02 0 0.26 0 0.04 0 0.25 0 0.05 0 0.52 0.01 0.08 0 0.2 0 0.11 0 0.17 0 0.13 0 0.15 0 0.15 0 0.13 0 0.17 0 9.24 0.05 0.11 0 0.3 0 22.26 0.15 0.32 0 11.01 0.08 0.28 0 11.05 0.08 0.24 0 11.09 0.08 0.2 0 40.51 0.31m348.44 3.3l6.21 0.07 0.35 0.01 10.94 0.12 0.35 0.01 10.94 0.12 0.35 0.01 10.94 0.12 0.34 0.01 22.24 0.26 0.34 0.01 67.39 0.83 0.33 0.01c48.89,0.63 97.77,1.29 146.68,2 59.52,0.84 119.03,1.72 178.55,2.67 -59.6,-0.96 -119.2,-1.86 -178.81,-2.71 -48.81,-0.71 -97.61,-1.35 -146.42,-1.96 48.81,0.6 97.63,1.23 146.42,1.96 59.61,0.85 119.21,1.75 178.81,2.71l0.28 0.01 22.07 0.35 0.28 0.01 22.08 0.36 0.27 0.01 22.08 0.36 0.28 0.01 22.06 0.37 0.29 0 22.06 0.38 0.29 0 22.06 0.39 0.29 0 22.06 0.39 0.29 0 22.06 0.4 0.29 0 38.25 0.7m197.12 3.83c84.92,1.74 169.84,3.59 254.73,5.56m201.53 4.88l0.73 0.02 0.19 0 22.14 0.57 0.19 0 22.15 0.58 0.17 0 22.17 0.57 0.15 0.01 22.18 0.58 0.14 0 22.2 0.59 0.12 0 22.22 0.59 0.1 0.01 22.23 0.59 0.09 0.01 22.25 0.6 0.06 0.01 22.27 0.6 0.05 0.01c59.5,1.65 118.98,3.35 178.46,5.09 4.74,0.14 9.6,0.3 14.48,0.56 -4.86,-0.26 -9.69,-0.45 -14.39,-0.59 -59.52,-1.72 -119.03,-3.43 -178.55,-5.06 59.54,1.64 119.08,3.34 178.61,5.06 7.3,0.22 14.9,0.55 22.48,1.1l0.02 0 1.61 0.12 0.01 0 1.62 0.13 1.62 0.13 1.62 0.14 0 0.01 1.61 0.15 1.61 0.15 0 0.01 1.61 0.16 0 0.01 3.19 0.36 1.58 0.19 0 0.01 1.58 0.2 0 0.01 1.56 0.2 0.01 0.01 1.55 0.22 0.01 0.01 3.07 0.47 0.02 0.01 1.5 0.25 0.02 0.01 1.49 0.26 0.03 0.01 1.47 0.27 0.03 0.01 2.69 0.54 0.22 0.05 0.06 0.01 1.4 0.31 0.06 0.01 1.37 0.32 0.07 0.01 1.35 0.33c12.81,3.16 23.58,7.91 29.98,15.17 5.67,6.41 6.62,12.84 4.15,19.05 2.35,-6.2 1.22,-12.62 -4.69,-19.03 -5.93,-7 -15.96,-11.68 -28.04,-14.83 12.21,3.16 22.42,7.82 28.58,14.81 5.67,6.41 6.62,12.84 4.14,19.05l-0.2 0.48c-7.54,18.42 -45.55,34.86 -79.84,43.19 -81.34,19.74 -165.82,32.72 -252.18,41.16l-0.09 0 -19.87 1.87 -0.08 0 -9.93 0.88 -0.07 0 -19.98 1.64 -0.06 0 -20.05 1.49 -0.06 0 -10.02 0.7 -0.05 0 -10.04 0.66 -0.04 0 -10.06 0.63 -0.04 0 -10.08 0.59 -0.03 0 -10.1 0.56 -0.02 0.01 -10.11 0.53 -0.02 0 -10.13 0.5 -0.01 0 -10.15 0.47 0 0.01c-77.88,3.53 -156.6,4.5 -235.25,4.5l0 0c75.25,0 150.54,-0.9 225.08,-4.06 -74.62,3.16 -150.03,4.04 -225.4,4.04 -60.74,0 -122.6,-0.57 -183.34,-1.05 -85.48,-0.65 -172.08,-0.97 -258.68,-0.97l0 0 0 0c-162.89,0 -325.79,1.05 -488.68,2.59 163.01,-1.52 326.02,-2.56 489.02,-2.56l0 0c-163,0 -326.02,1.04 -489.04,2.56l-0.2 0m-355.56 3.91l-103.7 1.24 -88.85 1.11 -0.04 0 -14.78 0.18 -0.03 0 -14.79 0.18 -0.03 0 -14.8 0.18 -0.01 0 -14.81 0.18 -0.01 0 -14.81 0.18 -29.63 0.35 -0.02 0 -29.61 0.35 -0.04 0m-0.02 0c-133.32,1.56 -266.62,2.94 -399.94,3.88l-0.25 0 -29.38 0.2 -0.24 0 -44.21 0.27 -0.25 0 -29.38 0.16 -0.27 0 -29.36 0.14 -0.28 0 -44.16 0.18 -0.3 0 -14.52 0.05 -0.3 0 -29.33 0.09 -0.31 0 -14.5 0.03 -0.32 0 -14.5 0.03 -0.32 0 -14.49 0.03 -0.33 0 -14.49 0.01 -0.33 0 -14.48 0.02 -0.34 0 -14.48 0.01 -0.34 0 -14.47 0 -0.35 0 0.35 0 14.47 0 0.34 0 14.48 -0.01 0.34 0 14.48 -0.02 0.33 0 14.48 -0.01 0.34 0 14.48 -0.03 0.33 0 14.49 -0.03 0.33 0 14.49 -0.03 0.32 0 29.32 -0.09 0.31 0 14.51 -0.05 0.31 0 44.15 -0.18 0.29 0 29.35 -0.14 0.28 0 29.36 -0.16 0.27 0 44.19 -0.27 0.26 0 29.4 -0.2 0.23 0m-326.28 1.22l0 0zm726.22 -5.1l0.06 0 29.58 -0.35 0.05 0 29.6 -0.35 0.03 0 14.79 -0.18 0.02 0m59.26 -0.72l0.01 0 88.94 -1.09 103.64 -1.26 -103.6 1.26 -88.95 1.09m1792.92 -155.75l-22.11 -0.57 -0.22 0 -22.1 -0.58 -0.24 0 -22.09 -0.57 -0.24 0 -0.68 -0.02m-653.38 -14.27l-38.25 -0.7 -0.3 0 -22.05 -0.4 -0.3 0 -22.05 -0.39 -0.29 0 -22.06 -0.39 -0.29 0 -22.06 -0.38 -0.29 0 -22.06 -0.37m1276.06 67.71l-0.01 0m-332.31 84.83c-6.61,0.65 -13.24,1.28 -19.87,1.87"/>
   </g>
   <g id="_2495102310992">
    <path class="fil0" d="M2119.93 2528.03c3.61,7.83 7.3,16.9 3.7,24.78 -2.16,4.9 -6.78,8.21 -11.19,11.29 -91.31,64.16 -183.95,131.59 -278.99,190.09 -6.48,3.94 -13.07,7.97 -20.43,9.94 -15.03,4.09 -24.77,15.75 -37.26,6.44 -12.44,-9.37 -33.13,-44.95 -41.36,-58.16 -11.8,-19.02 -28.18,-44.95 -36.97,-65.51 -2.69,-6.44 -5.33,-13.3 -4.47,-20.22 1.1,-9.17 8.07,-16.47 14.65,-22.91 21.95,-21.18 51.24,-35.06 74.4,-54.89 33.27,-28.54 68.1,-48.81 105.08,-72.39 25.21,-16.09 50.48,-38.13 77.13,-51.72 18.06,-9.22 39.81,-25.65 59.7,-29.64 14.17,-2.83 21.32,7.45 28.52,17.97 25.12,36.45 49.04,74.77 67.49,114.93z"/>
    <path class="fil2" d="M2098.99 2529.52c3.02,6.82 6.2,14.69 3.27,21.47l-9.33 9.65c-76.36,54.8 -147.15,105.91 -226.69,155.8 -5.37,3.42 -22.42,16.62 -28.61,18.26 -12.6,3.46 -9.18,3.65 -19.74,-4.52 -10.57,-8.17 -28.3,-39.14 -35.27,-50.67 -10.07,-16.52 -24.05,-39.05 -31.54,-56.91 -2.41,-5.57 -4.67,-11.53 -3.99,-17.54 0.86,-7.92 6.63,-14.17 12.2,-19.68 18.24,-18.2 36.12,-23.45 55.46,-40.45 27.82,-24.4 56.92,-41.69 87.86,-61.75 21.07,-13.8 42.21,-32.62 64.54,-44.2 15.09,-7.87 33.29,-21.9 50.01,-25.16 11.89,-2.35 17.95,6.58 24.15,15.76 21.41,31.73 41.83,65.07 57.68,99.94z"/>
    <path class="fil2" d="M2098.99 2529.52c3.02,6.82 6.2,14.69 3.27,21.47l-9.33 9.65c-76.36,54.8 -147.15,105.91 -226.69,155.8 -5.37,3.42 -22.42,16.62 -28.61,18.26 -12.6,3.46 -9.18,3.65 -19.74,-4.52 -10.57,-8.17 -28.3,-39.14 -35.27,-50.67 -10.07,-16.52 -24.05,-39.05 -31.54,-56.91 -2.41,-5.57 -4.67,-11.53 -3.99,-17.54 0.86,-7.92 6.63,-14.17 12.2,-19.68 18.24,-18.2 36.12,-23.45 55.46,-40.45 27.82,-24.4 56.92,-41.69 87.86,-61.75 21.07,-13.8 42.21,-32.62 64.54,-44.2 15.09,-7.87 33.29,-21.9 50.01,-25.16 11.89,-2.35 17.95,6.58 24.15,15.76 21.41,31.73 41.83,65.07 57.68,99.94z"/>
    <path class="fil2" d="M2098.99 2529.52c3.02,6.82 6.2,14.69 3.27,21.47l-9.33 9.65c-76.36,54.8 -147.15,105.91 -226.69,155.8 -5.37,3.42 -22.42,16.62 -28.61,18.26 -12.6,3.46 -9.18,3.65 -19.74,-4.52 -10.57,-8.17 -28.3,-39.14 -35.27,-50.67 -10.07,-16.52 -24.05,-39.05 -31.54,-56.91 -2.41,-5.57 -4.67,-11.53 -3.99,-17.54 0.86,-7.92 6.63,-14.17 12.2,-19.68 18.24,-18.2 36.12,-23.45 55.46,-40.45 27.82,-24.4 56.92,-41.69 87.86,-61.75 21.07,-13.8 42.21,-32.62 64.54,-44.2 15.09,-7.87 33.29,-21.9 50.01,-25.16 11.89,-2.35 17.95,6.58 24.15,15.76 21.41,31.73 41.83,65.07 57.68,99.94z"/>
    <path class="fil3" d="M1768.7 2672.59c-4.66,-2.78 -10.42,-4.03 -15.66,-2.55 -6.14,1.83 -10.8,7.45 -12.39,13.65 -1.58,6.24 -0.47,12.92 2.11,18.77l4.52 6.68 11.63 2.99 11.23 -4.86 8.55 -9.32c4.85,-9.8 -1.39,-20.27 -9.99,-25.36z"/>
    <polygon class="fil4" points="1806.54,2583.88 1804,2587.73 1799.78,2585.91 1791.42,2592.77 1792.43,2595.07 1786.08,2599.02 1788.25,2603.67 1787.68,2608.24 1787.05,2615.68 1791.13,2620.09 1796.7,2623.65 1797.61,2626.49 1794.82,2628.7 1795.31,2630.09 1793.3,2629.99 1789.45,2625.38 1783.54,2621.73 1781.29,2618.85 1779.6,2615.82 1781.19,2613.08 1775.8,2609.05 1770.48,2601.36 1767.74,2594.5 1773.31,2589.69 1771.83,2590.07 1771.3,2588.3 1779.47,2579.81 1786.95,2572.5 1784.88,2572.89 1788.97,2566.4 1795.31,2568.47 1806.35,2569.33 1813.84,2567.41 1817.64,2573.46 1825.94,2574.47 1826.24,2582.87 1834.45,2586.58 1833.26,2590.56 1835.08,2591.91 1831.57,2596.76 1827.39,2594.16 1819.9,2588.74 1817.69,2589.41 1815.34,2585.32 1810.34,2588.25 "/>
    <path class="fil4" d="M1756.42 2588.26l0.32 0.48 4.95 -3.74 0.53 2.64 6.53 -6.01 -0.19 1.77 2.21 0 4.08 -5.76 0.48 4.22 4.9 -2.2 0.57 -1.54 0.29 2.7 2.88 -0.97 0.82 -3.12 0.87 1.58 1.63 -5.38 -0.87 -0.24 1.69 -7.11 3.74 -3.99 0.3 -0.34c-11.06,6.95 -21.9,13.2 -32.91,24.13l-2.82 2.88z"/>
    <path class="fil5" d="M3248.34 6380.16l0 0c316.12,0 632.34,-3.9 948.56,-7.79 316.12,-3.84 632.32,-7.73 948.44,-7.73l0 0c-316.12,0 -632.28,3.89 -948.4,7.73 -316.26,3.89 -632.44,7.79 -948.6,7.79zm2339 -13.51l0 0c218.87,0 438.22,-7.64 638.25,-56.18 46.06,-11.19 98.84,-37.09 76.17,-62.74 -15.12,-17.19 -54.75,-20.35 -88.18,-21.36 -476.39,-13.98 -953.02,-24.35 -1429.88,-31.12 -240.87,-3.42 -481.67,-5.96 -722.54,-7.54 -6.04,0 -12.04,-0.06 -18.05,-0.06l-2.69 0c0.47,0 0.96,0 1.44,0 6.44,0 12.86,0 19.3,0.06 240.87,1.58 481.73,4.12 722.54,7.54 476.86,6.77 953.55,17.14 1429.94,31.12 33.42,1.01 73,4.17 88.12,21.36 22.67,25.65 -30.06,51.55 -76.12,62.74 -200.04,48.54 -419.43,56.18 -638.3,56.18zm-2059.28 -163.67c-10.47,0 -20.99,-0.05 -31.5,-0.2 -40.68,-0.42 -81.36,-0.67 -122.04,-0.67l0 0c40.68,0 81.36,0.25 122.04,0.67 10.56,0.15 21.03,0.2 31.5,0.2l0 0z"/>
    <g style="clip-path:url(#id0)">
     <image x="2398.39" y="6141.21" width="3968.06" height="284.33" xlink:href="7.svg_Images\7.svg_ImgID1.png"/>
    </g>
    <path class="fil6" d="M3608.32 5967.21c-49.96,17.33 -101.78,0 -145.77,-40.39 139.14,-400.65 89.81,-830.07 254.79,-1225.2 14.69,-35.15 31.5,-70.64 61.47,-99.8 57.87,-56.28 223.72,-79.82 201.91,19.22 -22.38,102.15 -79.29,206.51 -112.92,307.56 -72.75,218.38 -134.42,438.78 -184.81,660.68 -28.58,125.59 -53.45,251.57 -74.67,377.93z"/>
    <path class="fil6" d="M4281.76 6006.3c-38.52,5.09 -77.95,6.29 -116.9,3.46 -3.7,-440.84 -31.8,-881.6 -84.09,-1320.62 -4.62,-38.91 -9.33,-78.87 4.37,-116.47 29.09,-80.01 172.31,-115.84 227.41,-31.75 46.97,71.86 15.89,203.7 16.71,280.78 2.73,252.09 -2.69,504.24 -16.38,756.15 -7.74,142.93 -18.11,285.72 -31.12,428.45z"/>
    <path class="fil7" d="M3914.1 2694.84c-34.81,-46.74 -85.67,-79.97 -117.85,-128.54 -27.67,-41.68 -39.53,-95.76 -22.73,-142.88 16.82,-47.06 65.9,-83.23 115.52,-76.84l-53.69 -3.13c-51.3,14.18 -109.14,33.82 -129.92,82.86 -15.23,36.02 -5.38,77.08 2.58,115.35 11.4,54.95 18.35,112.54 4.05,166.8 -10.96,41.5 -33.67,78.83 -48.19,119.21 -14.54,40.39 -19.78,87.95 3.14,124.2 19.49,30.89 56.67,47.65 93.17,49.33 36.45,1.68 72.43,-9.85 105.47,-25.41 28.86,-13.64 57.06,-31.22 74.77,-57.72 18.41,-27.72 23.44,-62.55 21.05,-95.72 -3.27,-45.87 -19.93,-90.69 -47.37,-127.51z"/>
    <path class="fil6" d="M4739.56 1926.91c114.69,419.37 72.14,416.35 -6.1,657.46 -14.89,45.87 -50.29,122.7 -73.53,164.98 -39.62,71.89 -101.48,128.42 -162.24,183.65 -12.67,11.48 -25.79,23.24 -41.84,29.15 -14.3,5.24 -30,5.38 -44.99,2.83 -45.43,-7.64 -84.1,-42.41 -100.53,-84.91 -19.88,-51.53 10.38,-71.12 49.28,-100.09 76.75,-57 112.87,-109.79 175.49,-184.76 35.17,-42.03 56.05,-93.8 75.36,-145.05 48.71,-129.62 71.89,-130.01 70.22,-324.14 -0.29,-33.7 -22.33,-139.47 -37.99,-169.29 -18.35,-35.01 -31.17,-65.32 -44.38,-94.52 -9.65,-10.32 -14.4,-32.8 -17.76,-41.97 -6.73,-18.49 -18.11,-35.26 -32.85,-48.32 -8.08,-7.11 -17.69,-14.12 -19.65,-24.7l-1.2 -10.98 -5.53 -10.24c-4.84,-6.48 -10.42,-12.49 -16.52,-17.86 -4.47,-3.84 -9.37,-7.64 -11.62,-13.07 -4.27,-10.7 -6.05,-39.48 1.3,-48.36 5.32,-6.48 39.23,-29.05 52.1,-26.71 8.79,1.63 17.87,-1.68 26.42,0.96 10.57,3.27 20.6,8.17 29.68,14.5 9.94,7.02 18.59,15.71 27,24.51 27.9,29.28 29.77,88.6 52.78,121.89l57.1 145.04z"/>
    <path class="fil8" d="M4121.45 2760.01c74.1,-6.01 158.1,-24.5 215.63,19.93 42.08,32.51 53.75,87.89 61.05,138.75 59.07,410.1 15.27,827.04 40.77,1240.22 7.93,127.71 22.39,255.07 43.47,381.44 6.48,38.8 13.84,78.33 33.62,112.86 11.28,19.7 26.52,37.56 34.67,58.6 24.02,62.1 -23.2,132.46 -85.86,161.71 -62.78,29.25 -135.93,27.95 -205.85,26.03 -218.29,-6.05 -436.58,-12.05 -654.87,-18.06 -55.08,-1.54 -115.84,-5.28 -154.7,-42.17 -38.99,-36.94 -42.64,-94.85 -40.49,-146.91 10.87,-261.46 107.83,-511.79 171.95,-766.33 63.54,-252.06 95.1,-510.15 156.37,-762.64 28.25,-116.28 55.14,-255.99 117.82,-361.03 57.11,-95.53 169.01,-34.48 266.42,-42.4z"/>
    <path class="fil6" d="M3382.01 3069.92c-40.49,32.18 -92.55,65.85 -140.11,45.58 -33.08,-14.12 -50.66,-49.65 -65.7,-82.31 -69.25,-150.71 -142.2,-299.7 -215.21,-448.68 -30.44,16.71 -64.55,38.62 -68.01,73.15 -1.87,18.39 5.72,36.3 13.26,53.21 86.99,195.57 181.69,387.74 283.85,575.9 9.75,17.97 20.46,36.89 38.47,46.58 21.61,11.63 48.07,7.11 71.94,1.41 141.59,-33.86 273.62,-99.09 400.08,-171.08 33.61,-19.11 68.97,-41.02 84.28,-76.47 12.24,-28.37 9.51,-60.71 6.54,-91.49 -7.98,-81.79 -51.05,-214.49 -152.49,-137.88 -88.28,66.65 -170.26,143.07 -256.9,212.08z"/>
    <path class="fil6" d="M2939.63 2497.2c-10.09,-7.6 -23.64,-7.69 -35.36,-12.16 -29.3,-11.19 -42.6,-47.12 -69.45,-63.59 -24.16,-14.79 -57.96,-10.08 -77.99,10.81 -19.31,20.17 -24.4,50.19 -28.54,78.18 -1.44,10 -2.87,20.28 -0.38,29.93 2.89,10.85 10.43,19.55 17.96,27.47 36.51,38.38 79.44,70.17 126.33,93.52 9.46,4.65 19.25,9.07 29.67,9.84 40.72,2.98 65.03,-37.94 64.99,-70.45 -0.06,-20.33 -10.24,-90.78 -27.23,-103.55z"/>
    <path class="fil6" d="M4318.35 2265.51c-7.77,-32.52 -17.62,-64.6 -31.88,-94.86 -49.61,-105.42 -199.32,-243.6 -323.48,-169.1 -28.81,17.29 -51,43.7 -71.7,70.26 -21.17,27.34 -41.45,55.52 -57.25,86.26 -29.82,58.06 -44.66,127.94 -36.41,193.12 7.7,60.61 37.57,120.26 65.61,173.77 37.22,70.93 85.88,143.22 161.18,170.49 100.24,36.27 217,-25.45 268.81,-118.58 51.83,-93.18 49.86,-207.67 25.12,-311.36z"/>
    <path class="fil7" d="M3998.44 2109.47c-26.12,43.03 -62.58,78.77 -100.28,112.14 -29.35,25.99 -61.14,52.93 -72.62,90.39 -9.42,30.6 -3.84,64.02 -11.66,95.04 -22.67,3.75 -40.02,-18.92 -51.68,-38.66 -17.88,-30.3 -36.08,-61.37 -42.6,-95.95 -4.81,-25.46 -3.04,-51.68 -0.91,-77.52 3.97,-48.79 9.5,-98.8 31.78,-142.41 23.35,-45.77 65.04,-81.83 113.68,-98.3 40.4,-13.74 116.38,-20.75 152.02,11.13 39.37,35.26 3.93,108.45 -17.73,144.14z"/>
    <path class="fil7" d="M4763.04 2744.73c-19.55,-33.76 -47.84,-61.48 -71.55,-92.45 -65.08,-85.06 -93.56,-191.73 -139.42,-288.6 -19.21,-40.54 -43.57,-81.56 -82.96,-103.12 -22.81,-12.49 -66.08,-16.99 -94.03,-2.59 0.67,-9.27 1.29,-18.58 1.48,-27.91 1.98,-95.09 -24.54,-194.66 -91.73,-261.99 -67.14,-67.28 -180.06,-92.65 -260.79,-42.55 -54.65,33.9 -82.12,127.32 -6.67,156.62 24.87,9.6 56.81,5.33 83.13,13.02 39.72,11.57 78.2,30.3 110.42,56.43 53.07,42.98 89.09,110.56 82.22,178.43 7.06,-10.49 12.44,-22.06 15.95,-34.2 20.55,13.49 10.66,44.57 4.07,68.24 -13.11,46.97 -3.02,96.97 7.07,144.66 16.57,-55.81 33.19,-112.14 44.1,-169.24 18.77,30.3 50.27,60.17 64.54,79.86 80.26,110.65 98.12,255.36 89.95,391.86 -2.4,40.39 -6.58,82.66 9.71,119.69 21.85,49.65 80.16,78.76 133.85,70.93 53.64,-7.77 99.75,-49.23 117.95,-100.32 18.26,-51.11 9.94,-109.8 -17.29,-156.77z"/>
    <path class="fil9" d="M4295.74 5925.38c8.3,0.96 17,2.2 23.67,7.16 8.46,6.23 11.96,16.99 14.08,27.27 9.07,44.19 0.82,92.6 21.37,132.71 10.57,20.6 28.38,37.35 49.61,46.58 22.14,9.66 47.22,11.14 69.26,20.98 22.09,9.85 41.78,33.44 34.48,56.49 -8.74,27.51 -45.48,31.5 -74.4,30.3 -52.06,-2.16 -104.17,-4.37 -156.28,-6.53 -37.12,-1.58 -77.99,-4.66 -104.27,-30.97 -21.66,-21.66 -27.91,-53.94 -31.65,-84.34 -5.57,-45.3 -26.98,-148.6 1.4,-188.27 26.32,-36.69 115.74,-15.6 152.73,-11.38z"/>
    <path class="fil9" d="M3579.78 5876.49c10.62,3.55 21.91,7.58 28.82,16.42 7.98,10.14 8.36,24.11 8.4,36.99 0.06,51.28 -0.38,102.58 -1.2,153.88 -0.38,22.57 -0.95,45.71 -9.08,66.8 -17.33,45.15 -70.36,72.28 -117.76,62.87 -23.62,-4.71 -44.95,-16.96 -65.7,-29.2 -8.21,-4.86 -16.61,-9.9 -22.23,-17.54 -7.49,-10.03 -9.22,-23.29 -9.32,-35.87 -0.24,-35.49 10.23,-70.13 20.55,-104.08 15.86,-51.87 26.61,-110.37 48.85,-159.73 19.89,-44.14 83.61,-2.41 118.67,9.46z"/>
    <path class="fil10" d="M4272.2 2036.37c-17.43,-14.8 -35.59,5.23 -46.19,18.83 -17.92,22.9 -36.9,48.26 -50.92,73.72 -4.81,8.78 3.21,18.01 11.43,17.14l10.23 8.74c4.71,2.6 11,3.02 15.65,0 10.91,-7.05 19.94,-19.11 28.92,-28.43 11.48,-11.91 23.1,-23.77 34.53,-35.77 17.97,-18.93 17.48,-36.22 -3.65,-54.23z"/>
    <path class="fil10" d="M4346.07 2114.71c-4.85,-11.72 -17.48,-19.99 -29.78,-14.37 -15.33,7.02 -29.48,25.35 -40.67,37.65 -13.02,14.32 -24.89,29.5 -35.31,45.77 -4.37,6.82 0.96,14.42 7.45,16.14 0.61,5.48 3.74,10.52 10.89,14.6 15.05,8.74 28.1,-5.38 38.57,-14.94 13.98,-12.72 26.56,-26.84 37.9,-41.87 9.51,-12.58 17.43,-27.14 10.95,-42.98z"/>
    <path class="fil11" d="M4965.11 3706.82c17.42,10.37 37.07,20.71 56.94,16.81 28.54,-5.57 43.28,-36.46 53.75,-63.53 38.23,-99.09 76.46,-198.17 114.69,-297.2 34.88,-90.54 70.41,-184.28 66.33,-281.2 -1.87,-44.96 -26.32,-100.72 -71.18,-97.07 -26.22,2.11 -45.48,24.78 -60.46,46.39 -58.65,84.58 -62.64,172.03 -86.31,272.18 -9.65,40.62 -31.16,138.03 -54.51,172.61 -23.39,34.58 -64.83,6.48 -103.55,-9.08 -32.27,-12.97 -89.86,-73.34 -112.52,-99.75 -49.63,-58.02 -61.39,-68.53 -98.52,-98.89 -24.01,-19.59 -27.99,-17.54 -58.97,-18.3 -163.69,-4.12 42.27,203.68 76.26,238.41 82.71,84.53 176.32,158.3 278.05,218.62z"/>
    <path class="fil11" d="M5687.05 3880.82c-195.03,6.12 -399.3,-43.36 -590.25,10.77 -1.16,735.97 39.99,1551.92 103.97,2282.71 60.95,-0.04 121.94,-0.1 182.85,-0.14 49.8,-397.04 35.44,-773.3 47.6,-1171.31 22.23,185.25 64.58,291.49 109.15,522.25 20.66,106.63 44.86,211.19 62.25,318.92 8.93,54.94 18.54,109.74 29.16,164.1 9.16,46.84 25.88,95.63 24.59,144.38 59.64,10.18 120.88,-15.42 179.23,-29.96 0.05,-98.61 0.05,-197.22 0.11,-295.81 0.09,-129.24 -6.16,-253.5 -17.59,-381.54 -10.66,-120.06 -27.48,-242.82 -27.48,-364.24 -6.29,-79.77 -12.58,-159.55 -17.04,-239.51 -10.18,-180.4 40.39,-431.39 32.61,-612.03 -3.89,-89.94 -61.13,-109.93 -70.21,-199.21 -4.37,-43.38 -9.27,-86.83 -15.9,-129.68 -2.4,-15.56 -1.54,-38.13 -15.09,-39.63 -3.06,-0.33 -9.5,19.65 -17.96,19.93z"/>
    <path class="fil11" d="M5410.51 2786.04c35.87,-28.01 66.27,-70.17 86.35,-125.5 37.03,-102.25 63.12,-211.56 48.27,-319.24 -17.14,-124.06 -110.32,-269.72 -248.45,-279.72 -161.8,-11.77 -209.3,187.4 -237.06,320.88 -22.05,106.04 -15.66,222.13 40.48,314.77 83.81,138.36 216.13,162.38 310.41,88.81z"/>
    <path class="fil4" d="M5202.59 2187.84c7.07,15.75 26.37,24.79 43,20.27 16.66,-4.56 28.61,-22.13 26.79,-39.29 18.98,39.87 81.98,48.23 110.75,14.71 -12.39,-3.32 -7.73,19.87 3.95,25.31 23.96,11.19 52.82,11.34 76.89,0.28 -17.59,10.19 -6.34,37.09 6.52,52.78 9.95,12.26 19.89,24.46 29.79,36.65 -17.73,28.01 14.4,70.8 46.19,61.53 -21.85,10.47 -28.29,43.6 -11.85,61.46 -15.09,17.25 -25.27,38.63 -29.26,61.15 13.64,0.87 18.73,23.25 6.78,29.92 10.51,7.6 25.12,9.18 36.97,3.99 -7.33,1.44 -4.27,14.4 3.14,15.31 7.39,0.88 13.58,-5.51 17.48,-11.91 11.13,-18.05 14.21,-40.87 8.4,-61.28 22.57,-10.52 28.44,-39.38 31.4,-64.12 1.54,-12.52 3.08,-25.06 4.57,-37.6 1.44,-11.95 2.84,-24.59 -1.73,-35.74 -4.61,-11.13 -17.33,-19.93 -28.72,-15.79 27.57,-4.28 42.41,-42.75 24.97,-64.45 38.48,-13.93 41.65,-78.72 4.71,-96.31 11.57,-24.34 6.01,-55.75 -13.26,-74.67 -19.21,-18.88 -50.71,-23.88 -74.82,-11.87 3.89,5.33 13.4,1.59 15.12,-4.79 1.79,-6.4 -1.63,-13.02 -5.47,-18.41 -25.5,-35.72 -77.9,-49.13 -117.48,-30.01 -22.51,-32.28 -70.83,-43.13 -105.03,-23.54 7.11,3.65 17.05,-0.15 19.88,-7.63 -19.88,-18.26 -43.89,-35.21 -70.89,-34.64 -26.89,0.63 -53.79,27.53 -44.66,52.93 -41.79,-21.7 -99.99,21 -91.84,67.39 -27.42,-2.12 -57.19,3.88 -76.11,23.87 -18.93,19.88 -21.57,55.95 -0.39,73.48 -31.36,-0.86 -61.48,23.53 -67.2,54.37 -5.81,30.84 13.61,64.41 43.13,74.88 -26.03,18.2 -44.9,46.34 -51.87,77.37 8.42,11.86 19.65,21.7 32.53,28.48 -7.69,3.69 -11.72,13.55 -8.89,21.61 16.95,12.53 36.12,25.74 57.06,23.25 20.89,-2.51 37.56,-30.84 22.13,-45.24 31.75,-14.84 48.47,-55.63 36.31,-88.48 7.79,-1.96 15.56,-3.88 23.35,-5.8 9.99,-16.15 16.47,-43.18 -1.59,-49.09 16.96,13.35 43.41,12.73 59.65,-1.45 16.29,-14.15 20.47,-40.24 9.6,-58.88z"/>
    <path class="fil4" d="M5667.84 1906.02c20.79,7.97 16.86,42.4 -2.54,53.21 -19.5,10.81 -43.89,4.37 -63.88,-5.43 10.66,2.51 16.13,17.2 9.75,26.09 -30.5,8.16 -64.6,1.53 -89.76,-17.44 7.35,-3.03 14.5,7.5 11.42,14.85 -3.06,7.34 -11.57,10.75 -19.44,12.05 -25.36,4.03 -52.5,-7.45 -67.24,-28.43 18.92,-5.91 31.94,24.87 18.87,39.67 -13.11,14.79 -36.75,13.93 -55.33,7.06 -5.28,-1.92 -11,-4.85 -12.73,-10.23 11.29,-0.28 17.88,15.51 11.68,24.97 -6.15,9.46 -19.93,11.53 -30.36,7.2 -10.47,-4.31 -18.05,-13.49 -24.2,-22.95 2.98,5.76 3.31,12.82 1,18.92 -20.93,-0.76 -40.05,-17.86 -43.22,-38.57l5.76 -6.63c-22.67,-11.61 -41.63,-30.53 -53.36,-53.31 -17.95,10.58 -43.98,3.7 -54.41,-14.4 -14.27,2.54 -29.58,-1.97 -40.2,-11.82 -5.19,9.51 -18.15,12.97 -28.43,9.56 -10.33,-3.41 -18.07,-12.3 -22.91,-22.05 -2.3,-4.56 -3.99,-10.27 -1.26,-14.69 2.65,-4.37 11.29,-3.79 11.39,1.34 -25.22,-1.1 -47.69,-23.49 -48.93,-48.74 7.63,0.04 15.16,3.59 20.06,9.41 -17.71,-1.58 -30.93,-22.14 -25.06,-38.9 5.91,-16.81 29.11,-24.55 43.89,-14.65 -10.71,-11.15 -15.22,-27.85 -11.62,-42.84 6.44,-1.59 12.82,-3.21 19.31,-4.81 -18.59,-7.29 -19.07,-38.28 -1.53,-47.74 17.48,-9.5 42.02,4.95 44.23,24.73 -16.67,-8.3 -17.1,-36.54 -0.68,-45.37 16.38,-8.8 39.67,7.05 37.52,25.54 0.82,-12.87 13.2,-23.92 26.07,-23.2 12.92,0.68 24.01,12.97 23.44,25.89 2.78,-15.03 11.72,-30.93 26.7,-33.76 15.03,-2.83 30.59,17.39 19.8,28.2 -6.1,-20.18 18.29,-38.76 39.14,-35.8 20.79,3.04 36.88,19.17 51.39,34.45 1.77,-12.39 14.02,-22.34 26.51,-21.53 12.48,0.82 23.33,12.2 23.52,24.74 -9.06,-9.08 -5.32,-27.13 6.63,-31.79 11.91,-4.71 26.94,6.01 26.43,18.87 8.4,-14.69 26.94,-22.76 43.41,-18.92 16.48,3.85 29.53,19.26 30.64,36.12 1,-10.85 11.68,-18.83 22.43,-20.47 10.81,-1.67 21.7,1.45 32.17,4.52 12.35,3.61 25.8,8.08 32.57,19.02 6.82,11 0.39,29.64 -12.49,28.73 17.2,-0.3 36.84,0.42 47.79,13.68 11,13.21 -1.68,40.15 -17.29,33 20.52,-1.88 43.47,7.44 50.92,26.6 7.33,19.21 -9.86,45.05 -29.89,40.53 16.91,2.26 30.36,19.51 28.39,36.52 -1.96,16.95 -19.02,30.68 -36.07,29z"/>
    <polygon class="fil11" points="5679.08,2956.01 5683.94,2967.3 5683.94,2967.24 "/>
    <path class="fil12" d="M5376.46 6239.77c0.38,-26.62 0.82,-53.22 1.16,-79.82 -46.02,-16.48 -98.8,-12.88 -142.18,9.75 -4.6,2.39 -13.73,0.85 -10.85,-3.61 -40.34,36.27 -86.88,65.6 -136.97,86.35 -11.38,4.71 -23.29,9.18 -32.13,17.82 -18.35,18.02 -15.46,52.69 5.72,67.34 19.78,13.74 46.38,9.12 69.92,3.93 66.77,-14.64 133.57,-29.33 200.28,-44.04 12.24,-2.68 25.31,-5.81 33.8,-14.97 10.24,-11.1 11.06,-27.67 11.25,-42.75z"/>
    <path class="fil12" d="M5839.83 6155.71c-9.61,-24.77 -19.21,-49.61 -28.76,-74.44 -48.85,1.98 -96.5,25.08 -128.2,62.25 -3.4,3.98 -12.44,5.9 -11.42,0.77 -23.88,48.7 -56.01,93.31 -94.71,131.31 -8.84,8.65 -18.2,17.24 -23.16,28.52 -10.28,23.58 5.43,54.66 30.51,60.33 23.43,5.33 46.44,-8.89 66.31,-22.48 56.45,-38.61 112.88,-77.23 169.26,-115.84 10.37,-7.07 21.27,-14.84 25.74,-26.51 5.34,-14.13 -0.09,-29.83 -5.57,-43.91z"/>
    <path class="fil13" d="M4976.15 4404.52c-14.5,20.18 -33.63,36.55 -48.32,56.54 -41.69,56.76 -40.92,138.51 -6.06,199.65 34.98,61.18 99.71,101.96 168.49,117.18 69.92,15.47 143.03,6.53 214.06,15.52 72.29,9.12 141.49,36.54 214.07,42.84 107.24,9.26 212.42,-28.1 313.56,-64.94 73.11,-26.6 156.77,-64.83 172.42,-141.01 7.79,-37.8 -3.84,-76.65 -16.28,-113.2 -31.46,-92.5 -68.82,-182.94 -111.85,-270.64 -6.39,-12.92 -13.11,-26.17 -24.11,-35.44 -24.5,-20.84 -61.05,-15.75 -92.7,-9.99 -157.82,28.72 -317.8,45.1 -478.07,49.09 -38.28,0.95 -76.64,1.24 -115.02,0.76 -34.15,-0.43 -94.09,-14.99 -125.69,-4.18 -33.57,11.54 -23.1,31.18 -30.26,69.07 -6.01,31.5 -15.37,62.39 -34.24,88.75z"/>
    <path class="fil14" d="M5523.47 2904.37c12.68,-1.24 25.89,-2.35 37.9,1.16 26.46,7.83 36.4,33.8 42.84,56.33 23.34,82.13 46.68,164.21 69.98,246.34 18.53,65.17 37.07,130.4 55.56,195.57 56.58,199.02 113.25,398.44 147.68,600.87 11.25,66.37 20.13,133 26.57,199.81 0.72,7.33 1.29,15.16 -3.03,21.66 -5.18,7.73 -15.94,11.51 -25.93,14.74 -280.82,89.51 -602.17,128.57 -880.45,33.9 5.86,-143.41 11.71,-286.82 17.58,-430.24 5.04,-124.68 10.18,-249.45 24.06,-373.69 17.48,-156.81 48.98,-312.57 94.04,-465.64 6.58,-22.23 13.06,-93.17 36.16,-106.53 23.83,-13.77 70.08,10.47 99.37,14.8 85.11,12.54 173.05,-0.72 257.67,-9.08z"/>
    <path class="fil11" d="M5635.85 2969.31c101.54,222.66 203.07,445.31 304.6,667.97 10.08,22.13 20.41,45.63 17.87,69.84 -2.93,28.04 -22.54,51.09 -41.12,72.28 -109.69,124.43 -224.39,252.57 -376.24,319.33 -24.74,10.85 -51.45,20.12 -78.2,16.86 -26.79,-3.31 -53.35,-22.71 -56.57,-49.52 -4.42,-36.84 32.7,-63.44 64.02,-83.37 87.13,-55.38 164.73,-125.69 228.42,-206.95 24.49,-31.27 47.65,-65.99 51.87,-105.47 4.71,-43.81 -14.65,-86.26 -33.43,-126.12 -63.78,-135.01 -138.41,-261.14 -209.11,-392.05 -26.32,-48.75 -38.86,-88.81 -7.16,-138.23 25.89,-40.39 103.74,-113.25 135.05,-44.57z"/>
    <path class="fil4" d="M5417.33 2265.65c-6.82,12.69 -13.83,26.08 -13.45,40.45 0.34,14.36 11.05,29.58 25.4,29.43 -25.54,13.16 -27.89,55.42 -3.97,71.38 -17.35,15.6 -13.7,48.11 6.67,59.45 -14.6,14.56 -8.12,43.76 11.34,50.71 -13.89,8.84 -19.12,28.77 -11.53,43.33 7.63,14.55 27.04,21.52 42.16,15.23 -8.4,9.12 -17.29,19.35 -17.96,31.79 -0.57,12.39 12.35,25.55 23.49,20.08 -17.67,14.06 -16.13,45.72 2.79,58.06 18.96,12.34 48.51,0.86 54.17,-20.99 8.55,12.01 27.38,12.98 39.77,4.94 12.34,-8.06 19.06,-22.57 22.09,-37.03 16.29,0.3 33.62,-1.05 46.73,-10.7 13.11,-9.71 19.07,-30.45 8.31,-42.65 14.35,1.35 29.19,-6.77 35.88,-19.65 6.57,-12.86 4.65,-29.62 -4.75,-40.62 18.05,-7.01 34.9,-21.28 37.98,-40.4 3.12,-19.07 -13.59,-40.77 -32.66,-37.27 27.47,-11.86 43.23,-45.62 34.83,-74.29 -2.26,-7.64 -11.58,-15.85 -16.76,-9.81 15.79,-11.81 27.17,-30.78 25.97,-50.42 -1.16,-19.69 -17.19,-38.57 -36.88,-39.33 15.56,-8.84 22.29,-30.5 14.36,-46.55 -7.88,-16.04 -29.16,-23.96 -45.63,-16.99 1.88,-12.4 3.7,-24.83 5.53,-37.22 0.62,-4.52 1.1,-9.67 -1.92,-13.03l-10.85 -3.46c-13.22,-0.29 -26.47,1.59 -39.01,5.62 3.7,-12.77 -2.83,-27.66 -14.65,-33.66 -11.85,-6.01 -27.72,-2.36 -35.78,8.16 -39.04,-32.18 -106.91,-16.91 -128.32,28.87 -28.48,-21.28 -48.81,18.58 -54,41.26 -3.11,13.4 -3.5,29.53 2.55,42.16 1.4,2.93 24.21,30.5 28.1,23.15z"/>
    <path class="fil15" d="M3999.21 3963.72c1.4,7.6 2.79,15.37 6.59,22.05 3.78,6.73 10.56,12.3 18.24,12.49l10.66 -0.15c5.43,1.06 9.23,5.96 11.53,10.96 8.45,18.53 3.89,42.73 17.63,57.82 10.95,12.01 30.16,13.16 45.49,7.49 13.2,-4.85 25.15,-14.65 29.58,-28 4.56,-13.41 1.01,-28.15 -3.99,-41.4 -16.76,-44.66 -50.01,-83.61 -56.39,-130.92 -0.95,-6.92 -1.48,-14.41 -5.91,-19.88 -7.01,-8.7 -20.31,-8.22 -31.31,-5.87 -15.85,3.42 -50.71,10.24 -55.96,28.92 -3.15,11.19 3.52,28.42 5.53,39.57 2.79,15.61 5.57,31.26 8.31,46.92z"/>
    <path class="fil15" d="M2036.03 2702.61c-7.26,-28.58 -10.28,-58.26 -19.46,-86.26 -2.49,-7.58 -5.66,-15.41 -11.82,-20.5 -4.37,-3.61 -9.88,-5.57 -14.74,-8.55 -25.35,-15.81 -27.8,-56.96 -55.37,-68.35 -16.09,-6.63 -34.87,0.14 -48.56,10.85 -21.23,16.63 -34.53,43.04 -35.15,70.04 -0.87,33.17 16.18,64.16 36.06,90.72 19.84,26.55 43.13,50.96 58.31,80.45 6.1,12 10.85,24.77 18.58,35.82 7.74,11.09 19.27,20.51 32.72,21.56 16.13,1.25 30.49,-9.46 43.07,-19.59 16.91,-13.55 39.83,-23.68 24.4,-45.72 -13.15,-18.92 -22.19,-37.99 -28.04,-60.47z"/>
    <path class="fil16" d="M3323.07 4885.96c3.42,58.01 7.2,116.18 18.16,173.24 8.59,44.61 21.42,88.22 34.91,131.59 76.7,247.1 173.1,488.1 287.94,719.94 9.75,19.74 21.22,40.92 41.5,49.47 31.93,13.49 69.25,-13.55 79.72,-46.59 10.51,-33.04 2.06,-68.78 -6.44,-102.4 -43.22,-171.31 -86.45,-342.63 -129.67,-513.94 -10.43,-41.26 -20.81,-82.61 -26.95,-124.68 -7.25,-49.47 -8.51,-99.56 -9.75,-149.51 -2.25,-92.26 -4.51,-184.87 5.52,-276.6 7.06,-64.54 20.23,-128.23 32.18,-192.11 21.51,-114.97 39.14,-230.72 52.84,-346.9 3.93,-33.19 7.43,-67.15 0.23,-99.75 -18.58,-83.53 -107.63,-138.19 -193.17,-138.23 -63.39,-0.09 -132.02,24.34 -182.55,62.68 -42.32,32.08 -37.42,62.76 -35.1,111.95 7.53,157.53 10.17,315.4 17.04,472.97 3.9,89.68 8.36,179.3 13.59,268.87z"/>
    <path class="fil16" d="M2851.39 4251.13c0.72,-69.46 2.55,-140.01 20.13,-205.28 17.53,-65.32 53.12,-125.68 104.84,-151.29 62.15,-30.69 139,-3.84 188.04,56.01 49.02,59.83 71.7,147.44 69.1,230.77 -1.34,43.76 -9.08,86.49 -14.07,129.68 -9.37,80.83 -9.32,163.19 -11.2,245.13 -5.7,255.84 -29.71,509.67 -53.73,763.07 -17.1,181.07 -34.29,362.08 -51.39,543.09 -4.22,44.77 -7.98,89.67 -12.73,134.34 -5.48,51.68 -10.66,70.03 -58.26,65.32 -59.64,-5.86 -62.49,-54.61 -69.83,-118.87 -41.21,-361.65 -77.47,-724.41 -96.87,-1087.92 -10.76,-201.06 -17.48,-403.11 -14.03,-604.05z"/>
    <path class="fil17" d="M2681.23 4181.63c-27.8,62 -71.71,116.56 -92.55,181.2 -20.79,64.7 -9.6,148.32 49.9,181.17 65.37,36.06 152.54,-6.63 219.48,26.37 50.15,24.74 74.54,85.25 124.07,111.19 43.03,22.51 95.82,14.02 141.29,-2.89 45.48,-16.91 88.42,-41.69 135.96,-51.44 50.87,-10.46 105.38,-2.5 151.2,22.09 39.05,20.99 74.79,54.41 119.06,55.32 80.25,1.64 129.92,-102.33 210.08,-107.38 33.33,-2.11 65.93,13.98 99.27,11.62 64.7,-4.56 105.51,-77.84 102.25,-142.63 -3.22,-64.75 -36.69,-123.44 -62.53,-182.9 -29.83,-68.58 -50.28,-141.2 -60.75,-215.26 -8.79,-62.25 -16.24,-135.34 -70.03,-167.85 -27,-16.25 -59.94,-18.02 -91.45,-18.36 -215.12,-2.3 -428.31,41.16 -643.62,33.14 -74.05,-2.78 -180.68,-50.37 -232.41,12.69 -57.44,69.92 -63.05,173.38 -99.22,253.92z"/>
    <path class="fil18" d="M2934.63 5892.05c-9.23,23.33 -2.07,49.46 3.59,73.86 10.96,47.26 15.72,95.96 14.03,144.47l-1.87 11.43c-3.84,8.69 -14.21,12.11 -23.44,14.16 -36.41,7.98 -74.25,9.47 -111.13,4.37 -23.92,-3.26 -51.11,-8.45 -69.79,6.73 -10.85,8.83 -16.13,22.72 -20.18,36.17 -5.57,18.59 -9.74,37.6 -12.39,56.87 -3.55,25.12 -2.73,54.89 17.39,70.36 12.82,9.79 30.02,10.94 46.11,11.51 99.62,3.61 199.41,0.34 298.59,-9.74 18.58,-1.87 39.96,-5.72 49.32,-21.95 5.24,-9.08 5.38,-20.18 5.34,-30.69 -0.19,-75.98 -2.22,-151.92 -6.01,-227.79 -1.87,-37.94 -4.13,-75.84 -6.87,-113.73 -0.86,-11.38 1.69,-30.17 -10.37,-36.17 -10.38,-5.23 -39.24,4.95 -50.91,6.34 -11.86,1.44 -120.46,1.44 -121.41,3.8z"/>
    <path class="fil18" d="M3774.59 5756.46c20.89,70.55 41.78,141.1 62.62,211.66 7.6,25.54 15.28,51.34 27.95,74.73 7.31,13.3 16.09,25.75 24.26,38.57 23.05,36.12 40.87,75.55 52.73,116.7 2.6,9.03 4.95,18.4 3.89,27.76 -1.29,10.96 -7.16,20.9 -13.97,29.59 -31.12,39.76 -85.3,59.9 -134.76,50.19 -10,-1.97 -19.99,-5.19 -27.97,-11.53 -9.88,-7.87 -15.65,-19.69 -20.4,-31.41 -34.24,-84.43 -31.94,-180.73 -69.5,-263.66 -9.17,-20.28 -20.66,-39.49 -29.53,-59.85 -6.73,-15.28 -11.92,-31.12 -17.1,-46.97 -6.2,-18.83 -22.33,-47.84 -22.19,-67.53 0.09,-18.83 22.23,-23.06 38.95,-30.21 40.1,-17.29 82.13,-30.07 125.02,-38.04z"/>
    <path class="fil2" d="M2709.08 3959.35c7.21,7.45 18.64,9.23 26.85,15.52 10.09,7.64 14.21,22.23 9.71,34.05 -4.47,11.48 -16.13,21.13 -14.02,33.29 2.77,16.18 26.41,17.52 41,9.93 14.61,-7.58 28.63,-20.21 44.96,-17.95 18.35,2.54 28.34,22.23 36.84,38.76 8.55,16.51 23.97,34.48 41.98,29.77 13.06,-3.42 21.46,-18.01 34.87,-19.79 19.97,-2.59 29.92,22.38 40.53,39.53 12.73,20.65 38.91,34.96 61.76,26.7 19.55,-7.01 32.76,-28.48 53.41,-30.84 21.13,-2.39 37.99,15.86 52.92,30.93 14.84,15.09 37.81,29.21 55.86,18.07 5.53,-3.42 9.56,-8.79 13.98,-13.55 21.8,-23.39 57.2,-33.04 87.9,-24.07 19.44,5.72 36.3,18.07 55.32,25.08 19.02,7.07 43.17,7.39 56.72,-7.69 6.29,-7.01 9.37,-16.47 15.7,-23.39 15.76,-17.18 43.71,-12.72 65.66,-4.85 21.95,7.89 46.53,17.82 67.47,7.64 21.43,-10.32 31.84,-38.95 55.23,-43.32 13.74,-2.55 27.38,4.52 41.36,5.47 23.87,1.64 47.31,-17.38 50.62,-41.06 16.91,1.35 34.73,2.49 50.24,-4.56 15.42,-7.1 27.13,-25.46 20.8,-41.26 22.8,1.06 37.75,-32.23 21.85,-48.61 -8.11,-8.4 -21.9,-12.52 -24.78,-23.86 -2.54,-9.99 4.13,-23.1 -3.94,-29.45 -22.52,9.42 -35.97,32.19 -53.36,49.38 -26.9,26.75 -64.03,40.53 -100.72,50.2 -137.98,36.25 -283.55,24.81 -425.67,12.38 -101.05,-8.89 -203.49,-18.44 -298.4,-54.08 -16.42,-6.2 -32.6,-13.11 -49.61,-17.43 -32.37,-8.17 -66.61,-15.52 -99.08,-22.63 -22.04,-4.9 -56.72,18.4 -33.96,41.69z"/>
    <path class="fil19" d="M3250.26 2229.77c-25.69,22.39 -59.93,31.37 -92.49,41.26 -32.57,9.89 -66.48,22.68 -87.42,49.52 -14.69,18.87 -21.28,42.7 -27.47,65.84 -11.43,42.46 -22.48,89.53 -2.59,128.72 10.18,20.13 27.85,36.26 34.96,57.67 8.93,26.85 -0.57,56.24 -12.97,81.7 -12.3,25.46 -27.9,50.24 -31.79,78.28 -2.83,20.33 0.62,41.56 -5.38,61.2 -10.56,34.68 -48.79,54.89 -85.01,56.09 -36.17,1.25 -71.08,-12.39 -104.74,-25.84 -22.86,-9.12 -48.76,-21.56 -54.28,-45.57 -4.03,-17.53 4.67,-35.54 15.75,-49.71 11.09,-14.22 24.88,-26.36 33.72,-42.07 4.56,-7.98 7.68,-17.86 3.8,-26.18 -4.96,-10.61 -19.27,-14.37 -24.21,-25.03 -6,-13.01 5.38,-27.37 17.14,-35.53 11.77,-8.21 26.09,-15.9 29.45,-29.88 5.76,-23.72 -23.82,-40.63 -31.18,-63.92 -7.97,-25.02 11.1,-49.8 28.77,-69.21 17.67,-19.45 36.6,-44.47 28.35,-69.4 -4.72,-14.31 -18.26,-27.13 -14.65,-41.83 4.75,-19.31 32.51,-20.07 47.2,-33.52 24.45,-22.38 1.82,-63.44 9.32,-95.72 7.83,-33.86 47.83,-52.5 56.81,-86.07 2.45,-9.22 2.36,-19.12 5.87,-28.01 4.41,-11.08 13.78,-19.3 22.81,-27.03 33.04,-28.24 68.11,-57.48 110.75,-65.94 28.25,-5.58 57.45,-1.44 85.63,4.37 24.89,5.14 51.05,12.53 67.77,31.64 38.19,43.66 17.82,167.82 -23.92,204.17z"/>
    <path class="fil20" d="M2202.39 2821.24c131.31,38.99 268.05,76.5 403.58,56.76 153.73,-22.42 293.36,-117.08 448.68,-118.81 9.26,-0.1 19.02,0.29 26.8,5.28 6.48,4.22 10.62,11.04 14.3,17.86 35.36,65.08 43.76,144.23 22.82,215.31 -11.53,39.33 -32.03,76.46 -61.48,105 -21.55,20.88 -47.45,36.88 -74.48,50.04 -91.98,44.81 -197.4,57.44 -299.22,47.73 -101.82,-9.65 -200.61,-40.72 -295.18,-79.76 -71.8,-29.64 -142.02,-64.17 -205.31,-109.18 -70.32,-50.04 -131.03,-112.09 -191.3,-173.85 -3.32,-3.42 -6.82,-7.26 -7.16,-12.01 -2.11,-34.25 67.62,-62.49 94.43,-56.14 41.06,9.69 81.26,39.71 123.52,51.77z"/>
    <path class="fil20" d="M3388.64 2722.69c22.23,-5.77 45.48,-13.26 68.34,-9.33 29.68,5.06 47.69,27.29 61.14,47.84 92.46,141.59 128.52,299.69 160.99,455.59 46.3,221.94 107.01,426.93 105.8,651.55 -0.24,53.69 -7.15,114.26 -62.15,148.46 -27.61,17.14 -63.45,24.78 -98.56,30.12 -150.9,22.89 -326.15,30.72 -479.45,20.02 -67.2,-4.71 -134.76,-9.46 -199.9,-22.87 -75.06,-15.41 -150.46,-45.57 -185.57,-97.87 -31.08,-46.25 -25.31,-101.16 -17.97,-152.69 27.91,-197.05 67.24,-393.2 117.97,-587.71 34.04,-130.73 73.19,-260.69 112.42,-390.66 17.44,-57.87 43.89,-122.85 136.69,-105.71 99.12,18.26 177.27,40.05 280.25,13.26z"/>
    <path class="fil15" d="M3287.82 2697.04c-30.55,3.02 -67.86,8.65 -97.98,3.27 -84.13,-15.03 -134.61,-101.44 -177.89,-177.33 -39.58,-69.2 -27.42,-196.33 -14.26,-276.3 4.37,-26.9 9.37,-54.75 24.59,-77.18 29.58,-43.56 87.08,-53.17 138.03,-55.81 89.19,-4.7 182.65,1.15 259.3,47.46 182.27,110.03 84.97,514.67 -131.79,535.89z"/>
    <path class="fil20" d="M3665.9 2874.16c228.46,269.1 321.16,617.75 407.75,954.32 1.88,7.35 3.76,15.18 1.16,22.34 -5.72,15.65 -58.31,23.67 -82.81,31.06 -11.04,3.33 -22.7,-1.19 -27.03,-11.47 -63.06,-151.43 -141.25,-320.21 -250.46,-471.73 -87.71,-121.66 -148.47,-234.47 -288.9,-306.32 -58.69,-30.02 -72.23,-58.45 -67.81,-124.93 4.37,-65.02 48.13,-131.93 101.1,-163.48 80.16,-47.69 156.47,10.66 207,70.21z"/>
    <path class="fil21" d="M3124.39 2894.58c16.94,79.48 28.57,160.02 40.43,240.47 1.73,11.87 4.66,25.4 15.27,30.93 15.37,8.02 32.47,-7.06 42.07,-21.47 53.37,-79.97 61.54,-181.16 98.76,-269.67 15.56,-37.03 36.35,-72.14 46.53,-110.95 1.92,-7.25 3.37,-15.07 0.63,-22.04 -5.91,-14.69 -25.84,-16.29 -41.69,-15.76 -25.07,0.82 -50.19,0.73 -75.22,-0.28 -19.59,-0.76 -39.27,-2.11 -58.16,-7.45 -23.04,-6.53 -49.66,-24.64 -74.1,-23.82 -22.57,0.77 -21.28,17.34 -20.99,36.65 0.67,55.38 15.03,109.55 26.47,163.39z"/>
    <path class="fil2" d="M3059.21 2751.89c2.06,8.78 11.58,14.5 12.87,23.43 1.54,10.13 -8.4,18.4 -18.15,21.47 -9.8,3.08 -20.56,3.41 -29.2,8.84 -8.7,5.43 -13.17,19.36 -5.09,25.59l12.01 4.05c15.88,3.59 30.25,20.16 24.58,35.43 -3.61,9.81 -13.68,15.43 -20.5,23.35 -6.82,7.93 -8.6,22.96 1.14,26.7l10.72 0.91c12.58,0.53 24.49,12.01 23.24,24.55 -0.96,10.37 -9.51,18.1 -16.38,25.97 -6.81,7.83 -12.53,19.27 -7.3,28.29 5.28,8.99 18.83,10.28 24.26,19.21 11.86,19.61 -27.38,44.77 -13.35,62.93 6.72,8.78 21.71,7.45 28.29,16.32 8.17,11.1 -3.32,25.75 -13.89,34.64 -10.56,8.83 -21.99,23.58 -13.74,34.62 6.21,8.22 18.64,6.97 28.92,6.15 10.28,-0.77 23.68,2.36 24.89,12.64 1.1,9.12 -8.95,16.03 -10.15,25.21 -2.35,18.34 27.72,22.38 35.84,39.04 10.22,20.98 -20.12,41.4 -19.31,64.74 0.67,19.07 21.99,32.52 23.15,51.64 0.81,14.88 -11.04,29 -7.64,43.51l3.65 11.42c1.69,9.08 -3.56,17.78 -7.54,26.09 -5.86,12.34 -9.22,27.03 -3.84,39.57 5.43,12.58 22.38,20.41 33.53,12.54 8.45,-5.91 10.37,-17.63 9.31,-27.85 -1.06,-10.24 -4.32,-20.33 -3.4,-30.61 2.05,-24.34 26.94,-42.98 26.45,-67.43 -0.29,-13.34 -8.25,-25.59 -8.78,-38.95 -0.87,-21.7 18.05,-41.59 13.78,-62.87 -2.5,-12.43 -12.43,-22.14 -16.23,-34.24 -6.48,-20.75 6.29,-42.41 7.05,-64.11 0.39,-10.71 -2.21,-21.28 -4.7,-31.65 -8.79,-36.02 -17.57,-71.99 -26.37,-108.02 -2.11,-8.7 -4.22,-17.48 -3.99,-26.41 0.19,-8.17 2.41,-16.14 3.46,-24.2 4.18,-30.12 -6.58,-60.04 -14.12,-89.49 -9.89,-38.57 -14.5,-78.47 -13.68,-118.24 0.42,-19.5 3.25,-54.89 -20.9,-60.95 -17.04,-4.28 -53.79,15.75 -48.89,36.17z"/>
    <path class="fil2" d="M3421.3 2758.66c10.51,20.79 2.45,47.16 -13.26,64.35 -3.61,3.84 -7.59,7.55 -9.37,12.49 -6.92,19.36 24.11,35.69 20.27,55.91 -4.37,22.9 -44.72,19.16 -53.31,40.87 -4.9,12.35 3.5,25.5 10.71,36.69 7.21,11.15 13.4,26.47 5.04,36.79 -13.98,17.44 -50.18,-1.58 -61.33,17.82 -6.2,10.66 1.48,23.58 6,35.05 5.15,13.36 4.43,31.13 -7.64,38.86 -12.92,8.36 -32.47,0.91 -44.08,11.05 -8.36,7.36 -8.26,20.07 -8.64,31.22 -0.44,11.1 -3.65,24.4 -14.27,27.86l-8.74 3.02 -3.46 10.81c-0.34,14.31 -0.63,28.63 -0.87,42.94 -11.71,-3.37 -25.25,6.48 -25.69,18.68 -0.25,6.19 2.3,12.87 -0.53,18.39 -3.21,6.38 -12.44,7.64 -18.83,4.37 -6.38,-3.31 -10.47,-9.69 -13.93,-15.94 -10.32,-18.64 -17.95,-40.83 -11.19,-61 5.43,-15.94 18.79,-27.56 29.35,-40.67 18.68,-23.3 28.87,-52.16 39.09,-80.26 26.33,-72.28 55.04,-143.66 86.16,-214.02 14.46,-32.66 27.67,-67.18 43.28,-99.03 11.33,-23.29 42.6,-21.22 55.24,3.75z"/>
    <path class="fil19" d="M3406.78 2290.19c30.8,19.89 56.3,49.76 64.94,85.35 11.48,47.6 -8.41,97.3 -34.48,138.8 -26.03,41.49 -58.84,79.3 -77.42,124.64 -8.17,19.78 -13.46,40.68 -17.34,61.71 -6.68,36.4 -9.17,74.78 2.55,109.88 11.76,35.11 40.24,66.42 76.69,73.01 36.46,6.63 78.2,-18.16 82.57,-54.94 2.34,-19.89 -4.77,-42.98 8.3,-58.16 17.29,-19.99 58.6,-11 67.68,-35.84 8.97,-24.68 -27.57,-43.47 -30.55,-69.54 -4.13,-35.74 52.31,-49.7 60.37,-84.77 7.06,-30.79 -26.99,-61.81 -15.7,-91.25 5.28,-13.88 19.02,-22.19 30.06,-32.14 11.04,-9.98 20.22,-26.03 13.16,-39.09 -2.69,-4.84 -7.2,-8.41 -10.47,-12.92 -8.36,-11.81 -6.34,-27.75 -4.9,-42.17 6.73,-69.39 -10.14,-140.85 -47.25,-199.89 -14.42,-22.95 -31.66,-43.94 -50.05,-63.87 -20.46,-22.19 -42.41,-43.23 -67.63,-59.8 -44.96,-29.54 -99.66,-43.9 -153.35,-40.2 -21.08,1.44 -42.26,5.72 -60.85,15.81 -51.67,28.14 -74.15,115.02 -44.47,165.89 46.53,79.86 137.98,64.2 208.14,109.49z"/>
    <path class="fil22" d="M2092.42 2486.33l1.86 4.86 -3.12 3.37 -3.07 -2.7c-4.47,-7.3 -8.84,-14.59 -13.31,-21.9l0.05 -7.06 5.67 4.22c4.09,6.35 7.97,12.83 11.92,19.21z"/>
    <polygon class="fil22" points="2072.28,2454.11 2068.1,2453.82 2068.5,2458 2072.67,2457.24 2072.77,2457.34 "/>
    <path class="fil11" d="M1893.57 2699.04l-1.3 -0.42c-8.25,-6.19 -16.47,-12.39 -24.68,-18.58 -7.49,-5.67 -15.18,-11.58 -19.84,-19.78l0.92 -11.63 7.35 0.76c9.17,3.95 13.97,10.96 21.03,18.01l13.3 11.38 8.08 -6 4.18 -14.02c1.1,-7.3 1.53,-8.78 3.02,-13.15l3.93 -4.52c13.3,-8.74 6.97,18.92 5.91,23.54 -1.93,8.83 -4.79,17.45 -8.55,25.71l-13.35 8.7z"/>
    <path class="fil7" d="M1938.57 2559.77c0.48,-5.66 2.93,-10.99 3.12,-16.66 0.15,-4.8 -1.63,-9.89 -5.42,-12.92l-13.45 -0.43 4.28 -2.98c4.94,-1.44 10.71,-2.79 14.93,0.19l5.67 9.61c1.88,5.14 4.23,10.23 8.22,13.93l10.03 7.34 6.1 10.43 -5.14 8.83 -9.98 3.31 -9.14 -0.95 -6.57 -6.78c-2.07,-3.98 -3.03,-8.5 -2.65,-12.92z"/>
    <path class="fil6" d="M1831.34 2538.69c11.99,40.44 15.31,37.99 34.09,53.83l14.51 9.86c6.96,3.88 14.93,5.38 22.76,6.82l4.9 0.29 3.84 -2.07c3.41,-2.98 4.81,-7.83 3.94,-12.16 -0.96,-5.28 -4.47,-5.32 -9.18,-5.7 -9.16,-0.78 -14.84,-3.27 -23.87,-6.25 -5.03,-1.68 -9.4,-4.85 -13.64,-8.12 -10.66,-8.16 -12.58,-7.01 -22.32,-23.1l-5.53 -15.9 -1.2 -10.03 -0.16 -1.04c-3.13,2.3 -6.25,4.66 -9.34,7.08l1.2 6.49z"/>
    <path class="fil8" d="M1924.84 2575.72c-6.44,3.31 -14.27,6.05 -16.76,12.68 -1.78,4.81 0.04,9.94 2.07,14.55 9.54,21.77 22.18,41.89 34.84,62.03 21.02,-14.25 41.74,-28.67 62.47,-43.31 -9.98,-10.92 -19.81,-21.98 -30.37,-32.36 -8.25,-8.17 -17.62,-18.3 -28.14,-23.73 -9.56,-4.94 -15.66,5.82 -24.11,10.14z"/>
    <path class="fil6" d="M2001.54 2563.43c5,0.57 11.04,0.67 13.93,-3.42l1.2 -10.12c-2.02,-15.96 -3.6,-32 -5.23,-47.99l9.31 2.54 1.63 5.05c2.89,20.6 4.91,41.25 6.1,61.96l-0.81 5.81 -5.86 3.79c-13.35,4.46 -27.57,5.87 -41.68,6.38l-10.81 -1.96 -5.25 -7.2c-3.55,-7.16 -6.76,-20.33 5.48,-19.17 10.71,0.97 21.37,3.08 31.99,4.33z"/>
    <path class="fil6" d="M2008.74 2493.64l2.26 -2.83 2.45 -8.79 7.01 -3.08 6.35 5 1.52 2.39 -0.04 3.23c-1.06,5 -2.92,9.79 -5.62,14.12l-1.92 2.35 -8.99 -2.5 -3.02 -9.89z"/>
    <path class="fil19" d="M1969.41 2487.49l9.8 -1.35 9.7 -0.38 5.62 3.99 6.82 10.52 0.1 6.53 5.22 6.05 6.63 4.81 3.56 4.79 9.85 0.25 7.3 -7.45 2.15 -6.53 -3.84 -3.31 -4.9 -1.73 -1.67 -1.98 0.72 -3.3 -3.21 -2.02 -3.95 -0.97 -0.72 -6.86 -5.91 -4.23 -5.9 -4.28 -0.96 -4.18 -5.57 -0.32 -5.68 -7.45 -9.07 -4.18 -1.92 -2.01 -3.26 -1.01 -12.5 0.19 -6.81 4.75 -3.95 6.06c-0.95,5.57 7.11,14.74 12.35,15.6z"/>
    <path class="fil20" d="M2079.03 2490.23c-6.86,7.17 -14.33,13.75 -23.36,17.67 -13.83,6.06 -30.17,5.39 -43.03,13.16l-1.92 1.83 -0.29 2.2c0.42,7.16 3.79,14.14 9.12,18.89l10.42 5.51 8.74 0.3c9.85,-1.01 19.17,-5.34 27.05,-11.34 7.92,-6 14.44,-13.59 20.26,-21.66 1.39,-1.93 2.73,-3.89 4.03,-5.91 -3.53,-6.96 -7.21,-13.83 -11.02,-20.65z"/>
    <path class="fil20" d="M1983.28 2535.18l-6.1 2.7 -2.58 7.1c-0.38,16.38 4.75,31.22 10.03,45.72 4.66,12.83 8.54,25.39 13.59,37.49 25.8,-18.12 51.53,-36.55 77.8,-55.42 -7.87,-8.55 -16.02,-16.84 -24.49,-24.9 -9.46,-9.04 -19.34,-17.73 -29.19,-26.42 -4.42,-3.89 -9.89,-7.87 -16.67,-1.73 -7.25,6.59 -12.53,12.38 -22.39,15.46z"/>
    <path class="fil15" d="M1990.25 2527.88l8.27 -4.75c6.14,-5.52 5.85,-15.23 5.57,-23.67 -0.29,-7.73 -7.79,-17.59 -12.98,-23.5l-5.95 -5.08c-4.65,-2.07 -9.89,0.1 -14.21,2.44 -7.6,4.18 -15.03,9.46 -18.98,17.15 -9.37,18.45 19.36,46.78 38.28,37.41z"/>
    <path class="fil20" d="M1968.16 2561.8c-4.03,27.32 1.82,54.41 9.53,80.73l13.52 -9.45c-0.64,-8.33 -0.81,-16.93 -0.19,-25.57 0.96,-14.5 0.24,-26.9 8.12,-40.01 3.26,-5.47 2.93,-8.49 -0.81,-13.73 -3.71,-5.19 -10.72,-8.4 -16.72,-8.31 -9.03,0.15 -12.29,8.89 -13.45,16.34z"/>
    <path class="fil21" d="M2013.79 2535.81c2.69,7.39 5.86,14.65 9.03,21.9l0.33 3.31 -4.61 0.38c-8.5,-3.88 -14.3,-11.76 -21.9,-17.19l-9.5 -6.77 -1.21 -1.78 2.64 -3.41 6.2 -3.89 4.42 -3.55 4.84 -5.76 3.61 1.92c2.79,4.61 4.37,9.8 6.15,14.84z"/>
    <polygon class="fil2" points="2011.86,2520.72 2012.01,2523.32 2014.61,2524.14 2017.44,2523.36 2019.21,2525.24 2018.45,2526.16 2018.2,2530.34 2021.13,2531.25 2022.38,2533.51 2021.53,2534.13 2020.9,2537.29 2023.54,2538.64 2025.56,2540.56 2024.59,2543.39 2028.92,2547.91 2027.42,2550.7 2030.31,2552.81 2033.23,2554.98 2031.18,2556.99 2029.74,2559.29 2031.85,2560.83 2030.93,2565.87 2035.83,2570.24 2036.56,2575.67 2039.43,2578.88 2039.67,2580 2041.65,2581.73 2044,2584.79 2041.84,2587.53 2039.67,2585.76 2038.38,2583.06 2032.76,2578.84 2031.46,2575.19 2027.19,2570.73 2026.75,2567.08 2022.86,2562.18 2021.62,2559.29 2018.3,2549.07 2017.29,2546.66 2015.71,2544.83 2012.35,2536.77 2007.45,2526.31 2006.01,2520.25 "/>
    <path class="fil2" d="M1982.43 2539.8l4.37 4.61 1.39 0.57 1.25 5.63 6.44 0.66 1 3.56 1.45 3.26 6 -1.68 1.24 3.22 2.64 2.83 4.18 -1.34 2.36 2.11 2.6 1.54 0.85 -0.2 0.88 0.73 2.24 3.51 3.04 0.19 1.01 1.54 1.77 -0.63 0.34 -2.01 -2.21 -5.63 -4.47 -1.82 -7.35 -4.66c-5.91,-4.57 -11.91,-8.98 -18.01,-13.22l-8.64 -5.89 -4.37 3.12z"/>
    <path class="fil19" d="M1959.66 2500.47l-0.96 10.37c1.44,4.51 5.62,7.58 9.89,9.65l12.77 6.29 4.57 4.22 5.43 9.18 -2.59 9.94 -9.61 -0.33 -3.7 -4.37 -7.34 0.52 -1.06 -7.3 -9.32 -3.89 -3.36 -8.31 -4.14 -1.1 -3.06 -2.55 0.23 -1.58 -1.82 -3.75c-4.09,-5.38 -6.29,-12.11 -6.29,-18.87l0.85 -7.83 2.51 -8.36c2.2,-4.75 5.95,-8.74 10.62,-11.14l5.8 -1.82c5.68,-0.34 11.96,5.66 12.16,11.38 0.19,8.93 -8.12,12.33 -11.58,19.65z"/>
    <path class="fil6" d="M1883.34 2545.08l-2.2 -9.46c-1.35,-11.25 3.93,-30.27 17.95,-30.5l9.52 2.17 9.07 4.16c5.48,3.23 10.24,8.27 12.92,14.04 2.45,5.38 3.03,11.8 3.46,17.67 0.58,7.73 0.24,16.19 -4.57,22.29 -6.38,8.11 -19.15,8.97 -28.14,3.99 -9.08,-5.06 -14.74,-14.56 -18.01,-24.36z"/>
    <path class="fil7" d="M1901.69 2515.84c4.32,2.2 9.18,3.3 13.97,4.12l10.62 3.7 5.81 7.25 2.31 -5.82 -1.39 -10.07 -3.9 -6.44 -9.89 -10.09c-4.28,-2.6 -9.6,-3.4 -14.41,-2.3 -4.03,0.95 -10.66,4.28 -11.95,8.69 -1.44,4.9 5.23,9.12 8.83,10.96z"/>
    <path class="fil7" d="M1871.24 2607.27l1.1 -11.29c1.01,-10.32 -2.05,-20.55 -3.21,-30.87l1.54 -12.73 7.58 -5.04 -1.54 -2.22c-5.04,-7.73 -7.92,-17.29 -5.85,-26.26 2.11,-8.99 10.13,-16.86 19.3,-16.86 6.25,0 13.26,6.29 8.55,12.58l-6.15 5.29 -6.24 10.32c-2.16,6.24 -1.63,13.64 2.4,18.92l-3.12 -2.02 3.22 5.82c3.45,3.21 5.18,7.83 6.77,12.29l-12.25 -11.72 -1.25 9.9c-0.95,13.2 5,26.03 12.63,36.88l5.29 10.33c0.77,5.23 -2.55,10.61 -7.34,12.73 -4.86,2.06 -10.77,1.01 -14.9,-2.26 -4.08,-3.27 -6.38,-8.51 -6.53,-13.79z"/>
    <path class="fil11" d="M1820 2643.78c-4.43,-0.49 -9.03,-2.35 -13.55,-5.91 -8.26,-6.53 -16,-14.22 -20.31,-23.82 -4.9,-11.1 -4.71,-27.86 6.19,-35.74 12.73,-9.27 26.85,4.71 35.93,14.31 7.2,7.6 12.67,17.49 12.77,27.96 0.19,15.7 -9.5,24.44 -21.03,23.2z"/>
    <path class="fil14" d="M1816.73 2659.34l-3.08 2.02 -0.63 6.82c2.32,7.96 4.58,15.89 6.83,23.86 1.82,6.29 3.6,12.64 5.48,18.93 2.38,8.41 4.78,16.81 7.34,25.16l5 -1.39c6.15,-1.68 23.2,-14.88 28.57,-18.3 10.51,-6.59 20.86,-13.2 31.1,-19.85 -3.69,-5.27 -7.49,-10.48 -11.49,-15.55 -9.46,-12 -20.04,-23.24 -31.56,-33.57l-8.45 -6.91 -7.4 6.34c-6.4,5.38 -14.32,8.74 -21.71,12.44z"/>
    <path class="fil11" d="M1810.82 2670.38l7.72 60.3c9.77,7.65 6.76,7.41 19.13,4.06l0.49 -0.15 -0.93 -0.57 -3.74 -12.11c-1.64,-14.4 -1.92,-28.61 -2.78,-42.98 -0.34,-5.37 -1.35,-9.32 -6.49,-11.76 -4.22,-2.03 -14.35,-4.04 -13.4,3.21z"/>
    <path class="fil4" d="M1792.81 2601.27l3.17 2.64 -0.57 3.75 3.99 5.67 2.49 5.23 1.63 4.76 3.17 2.97 -2.69 3.42 3.13 1.67 -0.91 2.89 2.73 4.9 -5.58 1.05 -2.97 2.45 -3.7 -1.92 -4.42 1.49 -2.88 -3.07 -3.98 0.19 -1.68 -3.56 -5.15 -1.38 0.73 -4.77 -6.63 -4.32 0.87 -1.68 -4.71 -2.83 1 -5.1 -3.55 -3.11 2.93 -3.71 -2.36 -2.83 -0.53 -1.14 0.72 -0.82 3.52 -1.54 -0.54 -3.55 3.33 -1.16c1.62,-4.61 7.96,-6.82 12.05,-4.18l6.57 0.63 1.97 3.59 -1.15 3.37z"/>
   </g>
  </g>
 </g>
</svg>
