<?xml version="1.0" encoding="UTF-8"?>
<!DOCTYPE svg PUBLIC "-//W3C//DTD SVG 1.1//EN" "http://www.w3.org/Graphics/SVG/1.1/DTD/svg11.dtd">
<!-- Creator: CorelDRAW 2017 -->
<svg xmlns="http://www.w3.org/2000/svg" xml:space="preserve" width="80mm" height="80mm" version="1.1" style="shape-rendering:geometricPrecision; text-rendering:geometricPrecision; image-rendering:optimizeQuality; fill-rule:evenodd; clip-rule:evenodd"
viewBox="0 0 8000 8000"
 xmlns:xlink="http://www.w3.org/1999/xlink">
 <defs>
  <style type="text/css">
   <![CDATA[
    .str0 {stroke:#FEFEFE;stroke-width:141.12;stroke-linejoin:bevel;stroke-miterlimit:22.9256}
    .str1 {stroke:#FEFEFE;stroke-width:141.12;stroke-linejoin:bevel;stroke-miterlimit:10}
    .fil5 {fill:#4D4D4D;fill-rule:nonzero}
    .fil7 {fill:#537082;fill-rule:nonzero}
    .fil9 {fill:#A0B0B8;fill-rule:nonzero}
    .fil12 {fill:#A34F47;fill-rule:nonzero}
    .fil10 {fill:#AA6A64;fill-rule:nonzero}
    .fil8 {fill:#ABBCC4;fill-rule:nonzero}
    .fil11 {fill:#B0554D;fill-rule:nonzero}
    .fil4 {fill:#B2B2B2;fill-rule:nonzero}
    .fil13 {fill:#D4C5B9;fill-rule:nonzero}
    .fil6 {fill:#DBCCBF;fill-rule:nonzero}
    .fil3 {fill:#EBEBEB;fill-rule:nonzero}
    .fil2 {fill:#F7F7F7;fill-rule:nonzero}
    .fil1 {fill:#F9E9DE;fill-rule:nonzero}
    .fil0 {fill:url(#id2)}
   ]]>
  </style>
    <clipPath id="id0">
     <path d="M4263.45 6999.99l-17 0c-37.2,-0.09 -74.4,-0.35 -112.12,-0.87 -111.06,-1.48 -222.12,-4.61 -333.18,-7.99 -215.73,-6.52 -434.13,-14.08 -640.3,-70.02 -16.48,-35.61 5.31,-78 39.85,-101.28 34.54,-23.28 78.11,-31.8 120.62,-38.83 190.77,-31.62 381.53,-38.22 572.83,-38.4l14.87 0c60.58,0 121.16,0.61 182.27,1.3 62.7,0.61 125.93,1.31 189.7,1.31 23.91,0 48.35,-0.09 72.26,-0.35 26.57,-0.09 52.61,-0.35 79.18,-0.35 133.37,0 266.75,3.91 396.41,29.28 34.54,6.77 69.61,15.46 98.3,34.4 28.16,18.93 48.36,50.38 43.04,81.56 -10.09,55.42 -86.61,75.75 -149.31,82.7 -184.92,20.59 -370.91,27.36 -557.42,27.54l0 0z"/>
    </clipPath>
    <clipPath id="id1">
     <path d="M4263.45 6999.99l-17 0c-37.2,-0.09 -74.4,-0.35 -112.12,-0.87 -111.06,-1.48 -222.12,-4.61 -333.18,-7.99 -215.73,-6.52 -434.13,-14.08 -640.3,-70.02 -16.48,-35.61 5.31,-78 39.85,-101.28 34.54,-23.28 78.11,-31.8 120.62,-38.83 190.77,-31.62 381.53,-38.22 572.83,-38.4l14.87 0c60.58,0 121.16,0.61 182.27,1.3 62.7,0.61 125.93,1.31 189.7,1.31 23.91,0 48.35,-0.09 72.26,-0.35 26.57,-0.09 52.61,-0.35 79.18,-0.35 133.37,0 266.75,3.91 396.41,29.28 34.54,6.77 69.61,15.46 98.3,34.4 28.16,18.93 48.36,50.38 43.04,81.56 -10.09,55.42 -86.61,75.75 -149.31,82.7 -184.92,20.59 -370.91,27.36 -557.42,27.54l0 0z"/>
    </clipPath>
  <linearGradient id="id2" gradientUnits="objectBoundingBox" x1="0.845337%" y1="50.014%" x2="141.787%" y2="50.014%">
   <stop offset="0" style="stop-opacity:1; stop-color:#CCCCCC"/>
   <stop offset="1" style="stop-opacity:1; stop-color:#CCCCCC"/>
  </linearGradient>
 </defs>
 <g id="Layer_x0020_1">
  <metadata id="CorelCorpID_0Corel-Layer"/>
  <g id="_2495093379968">
   <path class="fil0 str0" d="M4254.81 6999.96c-2.7,0 -5.44,0 -8.19,0l16.74 0c-2.8,0 -5.68,0 -8.55,0zm-120.43 -0.83c-111.1,-1.45 -222.25,-4.62 -333.17,-7.96 -215.72,-6.53 -434.19,-14.14 -640.69,-70.04 -16.41,-35.67 5.63,-77.98 40.04,-101.33 34.43,-23.3 78.35,-31.8 120.86,-38.79 193.86,-32.15 387.2,-38.5 581.38,-38.5 62.72,0 125.64,0.67 188.6,1.33 63.09,0.71 126.36,1.37 189.74,1.37 24.06,0 48.07,-0.12 72.13,-0.35 26.4,-0.12 52.85,-0.31 79.31,-0.31l0 0c-26.46,0 -52.86,0.19 -79.24,0.31 -24.2,0.23 -48.37,0.35 -72.55,0.35 -63.32,0 -126.54,-0.66 -189.56,-1.32 -60.83,-0.65 -121.52,-1.31 -182.16,-1.31l-15.13 0c-191.19,0.17 -381.59,6.76 -572.47,38.43 -42.49,7.06 -86.43,15.49 -120.84,38.79 -34.48,23.35 -56.45,65.66 -40.04,101.33 206.49,55.9 424.97,63.51 640.69,70.04 110.91,3.34 222,6.51 333.1,7.96z"/>
   <g style="clip-path:url(#id0)">
    <image x="3119.4" y="6716.54" width="1874.7" height="306.46" xlink:href="8.svg_Images\8.svg_ImgID1.png"/>
   </g>
   <path class="fil1 str1" d="M4244.87 4934.14c17.54,102.18 37.06,205.42 28.5,308.74 -6.17,74.58 -26.87,147.14 -48.49,218.77 -103.67,343.11 -231.89,678.6 -379.48,1005.23 -8.57,19.04 -18.21,39.15 -35.86,50.16 -36.75,22.8 -87.56,-8.98 -100.68,-50.16 -13.11,-41.17 -0.54,-85.65 11.49,-127.2 85.9,-296.11 146.41,-598.85 206.69,-901.19 12.86,-64.22 25.74,-128.98 24.77,-194.41 -1.01,-76.2 -20.7,-150.78 -40.99,-224.22 -68.12,-246.67 -144.37,-491.06 -228.65,-732.64 -26.21,-75.06 -52.49,-161.02 -14.25,-230.68 38.31,-69.74 126.18,-93.92 205.42,-101.87 49.39,-4.97 99.24,-6.23 148.87,-3.91 90.62,4.38 115.94,36.4 118.21,118.59 2.65,97.63 15.46,196.21 25.57,293.29 19.99,191.31 46.27,382 78.88,571.5z"/>
   <path class="fil1 str1" d="M3544.38 5831.99c-9.7,238.17 -19.39,476.46 -40.77,713.91 -41.59,5.19 -83.19,10.35 -124.79,15.56 -15.09,-499.51 -32.33,-999.84 -95.78,-1495.57 -32.85,-256.61 -78.05,-511.66 -102.7,-769.22 -9.59,-99.53 -9.83,-215.24 66.01,-280.36 33.4,-28.68 77.27,-42.62 120.98,-47.65 80.8,-9.33 232.11,23.4 251.93,120.13 10.06,49.27 -8.98,123.91 -11.08,175.15 -2.87,71.52 -5.74,143.05 -8.67,214.64 -11.79,288.15 -23.54,576.3 -35.21,864.51 -6.63,162.91 -13.28,325.92 -19.92,488.9z"/>
   <path class="fil2 str1" d="M3489.43 6931.43c-42.08,1.49 -83.69,-8.55 -124.14,-19.99 -9.82,-2.82 -20.53,-6.35 -25.62,-15.15 -3.36,-5.81 -3.59,-12.74 -3.71,-19.4 -0.24,-8.85 -0.36,-17.66 -0.6,-26.52l1.62 -7.22 10.65 -1.16c63.39,16.05 129.72,20.55 194.65,13.12 14.67,-1.68 30,-4.19 41.72,-13.12l8.14 -3.03 4.25 5.73c3.59,10.54 10.18,30.12 5.27,41.01 -4.61,10.3 -22.14,19.39 -31.54,24.6 -24.55,13.64 -52.8,20.18 -80.69,21.13z"/>
   <path class="fil3 str1" d="M3534.02 6497.41c5.2,-18.68 9.11,-41.77 -5.38,-54.59 -8.44,-7.43 -20.65,-8.56 -31.9,-8.8 -35.73,-0.78 -71.6,3.77 -106.08,13.4l-14.35 7.43c-4.08,4.74 -4.74,11.37 -5.09,17.6 -2.4,42.2 0.05,84.63 7.17,126.23 1.09,5.93 2.23,12.1 5.57,17.12 6.82,10.24 20.29,13.24 32.51,14.9 28.96,3.95 63.5,12.93 83.02,-12.2 20.83,-26.75 25.5,-88.35 34.53,-121.09z"/>
   <path class="fil3 str1" d="M3559.04 6724.5c-13.11,-14.83 -29.69,-26.1 -46.69,-36.21 -20.94,-12.46 -43.81,-23.59 -68.11,-23.87 -34.42,-0.43 -66.32,21.78 -84.88,50.81 -18.55,29.03 -25.44,63.98 -27.95,98.34 -0.9,12.69 -1.14,26.15 4.97,37.35 8.62,15.68 27.23,22.56 44.64,26.75 67.35,16.17 140.02,9.29 203.17,-19.2 43.5,-19.7 -2.51,-108.35 -25.15,-133.97z"/>
   <path class="fil3 str1" d="M3362.41 6565.77c-10.23,15.79 -11.72,35.49 -12.93,54.28 -4.43,69.61 -8.86,139.18 -13.34,208.78l1.43 8.21 10.66 3.22c60.52,-1.68 121.02,-4.24 181.48,-7.77 16.17,-0.97 35.75,-4.26 41.67,-19.34 3.88,-9.81 0.17,-20.77 -3.13,-30.83 -16.74,-51.77 -20.81,-107.01 -38.12,-158.61 -7.48,-22.33 -17.9,-44.47 -35.73,-59.81 -27.95,-24.11 -108.95,-33.69 -131.99,1.87z"/>
   <path class="fil2 str1" d="M3997.73 6841.16c-10.07,10.35 -23.28,18.38 -37.7,19.28 -9.83,0.59 -19.58,-2.09 -29.04,-4.74 -29.69,-8.31 -59.43,-16.63 -88.34,-27.59 -85.6,-32.37 -161.02,-86.66 -233.39,-142.81l-13.35 -12.88c-10.23,-15.25 -4.07,-35.66 2.34,-52.9l8.08 -11.32 14.54 2.34c23.16,12.03 41.79,31 61.71,47.82 81.36,68.78 185.31,103.5 286.54,136.72 9.09,2.93 40.87,6.11 46.44,12.27 7.12,7.9 -10.89,26.63 -17.83,33.81z"/>
   <path class="fil3 str1" d="M3816.79 6538.04c22.85,-32.01 44.47,-65 64.64,-98.93l2.87 -10.35 -5.87 -6.65c-24.48,-17.24 -50.51,-35.07 -80.39,-37.11 -9.69,-0.71 -20.11,0.59 -27.76,7.01 -7.19,5.92 -10.65,15.25 -13.83,24.11 -10.72,29.76 -21.02,60.05 -23.29,91.47 -0.71,9.99 -0.17,21.24 6.84,27.94l9.99 6.06c10.94,5.02 29.86,19.09 41.77,19.27 15.04,0.24 15.32,-9.34 25.03,-22.82z"/>
   <path class="fil3 str1" d="M3709.69 6429.17l-9.99 -9.22c-8.08,-3.59 -17.71,1.5 -22.69,8.74 -4.97,7.25 -6.7,16.22 -9.21,24.67 -9.04,30.41 -29.81,55.65 -45.96,82.95 -16.22,27.3 -28.13,60.53 -17.55,90.39 10.54,29.5 39.69,47.4 66.8,62.96 40.47,23.18 80.87,46.34 121.27,69.5 34.83,19.99 69.92,40.11 107.92,53.28 25.68,8.9 53.04,14.6 79.97,11.18 26.99,-3.41 53.57,-16.94 68.17,-39.81 14.8,-23.16 15.8,-52.36 13.65,-79.78 -2.02,-26.16 -7.06,-53.39 -23.33,-73.97 -19.58,-24.79 -52.21,-35.68 -83.69,-38.5 -31.42,-2.87 -63.15,1.14 -94.69,-0.12 -7.31,-0.24 -14.91,-0.9 -21.38,-4.43 -6.21,-3.41 -10.7,-9.16 -14.95,-14.78 -35.63,-46.03 -88.23,-90.74 -114.34,-143.06z"/>
   <path class="fil4 str1" d="M3401.2 6699.91c22.39,-0.31 41.55,-12.45 64.23,-11.27 17.48,0.97 34.84,6.35 48.48,17.12l-4.48 7.79c-33.88,-13.16 -71.25,-26.7 -101.34,2.99 -13,12.88 -25.27,-16.34 -6.89,-16.63z"/>
   <path class="fil4 str1" d="M3401.2 6660.82c32.03,-16.46 69.44,-21.67 100.61,-1.09 6.47,4.26 0.9,13.78 -6.04,10.3 -28.72,-14.23 -60.93,-15.13 -89.6,-0.66 -5.57,2.88 -10.59,-5.62 -4.97,-8.55z"/>
   <path class="fil4 str1" d="M3391.27 6602.21c34.29,-14.66 71.52,-13.16 101.99,9.17l-4.19 7.17c-29.39,-14.78 -62.61,-18.19 -93.61,-6.51 -5.63,2.15 -9.82,-7.43 -4.19,-9.83z"/>
   <path class="fil4 str1" d="M3888.54 6589.64l5.09 8.81c-21.55,16.57 -26.64,46.08 -41.65,67.22 -3.84,5.45 -11.25,1.97 -10.35,-4.38 4.31,-30.47 23.4,-53.68 46.91,-71.65z"/>
   <path class="fil4 str1" d="M3848.26 6581.09l3.24 5.45c-16.17,13.11 -30.4,33.88 -38.12,53.04 -2.94,7.17 -14.56,4.31 -11.86,-3.25 8.26,-23.39 19.63,-50.69 46.74,-55.24z"/>
   <path class="fil4 str1" d="M3742.63 6575.1c22.21,-17.48 49.61,-22.68 75.89,-11.55l-2.75 10.06c-22.4,0.18 -41.84,5.49 -60.64,17.71 -9.64,6.35 -21.79,-8.86 -12.5,-16.22z"/>
   <path class="fil5 str1" d="M3601.83 3952.63c44.85,-73.14 128.88,-115.34 213.7,-128.34 84.8,-13.05 171.25,-0.42 255.77,14.66 42.67,7.67 104.02,20.06 123.6,65.38 15.32,35.3 3.77,91.21 7.48,129.1 12.68,128.39 47.41,253.08 77.98,377.99 17.67,71.82 34.19,144.02 44.85,217.28 16.98,117.38 18.49,236.44 18.42,355.07 -0.11,225.36 -6.7,455.62 -85.05,666.86 -59.86,161.54 -200.76,500.04 -301.37,640.22 35.9,20.34 47.1,41.54 13.35,83.5 -10.77,13.4 -27.6,24.41 -47.78,26.21 -14.59,1.26 -29.55,-2.32 -43.93,-6.16 -68.36,-18.2 -134.37,-42.86 -196.44,-73.21 -7.91,-3.82 -16.46,-8.5 -18.85,-15.61l1.37 -13.66c7.72,-21.72 20.04,-42.13 36.33,-60.15l9.16 -7.06 14.9 -1.02c7.19,0.6 14.37,1.79 21.5,2.63 31.47,-238.47 104.73,-672.3 136.16,-910.77 5.63,-42.08 11.2,-84.4 10.13,-126.9 -2.04,-87.14 -31.68,-171.01 -61,-253.13 -70.63,-197.94 -141.27,-395.88 -211.9,-593.88 -22.62,-63.34 -45.3,-127.33 -53.38,-194.12 -8.03,-66.8 -0.12,-137.56 35,-194.89z"/>
   <path class="fil5 str1" d="M3167.95 4684.18c-38.43,-246.12 -76.93,-494.11 -66.63,-742.93 0.54,-15.14 1.44,-30.46 6.23,-44.76 6.22,-18.51 18.68,-34.36 33.64,-46.88 38.18,-32.14 90.86,-42.74 140.66,-39.38 49.87,3.36 97.87,19.39 145.2,35.25 55.86,18.68 111.65,37.42 167.49,56.08 38.48,12.93 107.31,21.38 137.67,49.93 49.61,46.75 6.77,173.82 4.31,233.79 -8.74,217.88 23.87,436.36 -1.61,653.75 -17.48,149.34 -62.26,294.49 -79.68,443.84 -7.13,61.35 -9.64,123.18 -15.51,184.72 -4.24,44.35 -10.23,88.52 -16.22,132.63 -15.73,116.43 -39.62,581.26 -55.41,697.69 12.31,1.32 17.4,6.53 18.54,25.08 1.2,21.37 -0.29,47.76 -19.51,56.99 -6.23,2.92 -13.17,3.46 -19.99,3.94 -51.48,3.66 -102.89,7.24 -154.32,10.84 -16.15,1.13 -32.25,2.27 -48.47,1.91l-12.39 -2.93 -6.83 -13.4c-4.43,-21.5 -3.94,-44 1.63,-65.26l5.56 -11.13 6.35 -2.94c-8.62,-17.4 -12.22,-38.53 -14.14,-58.35 -39.07,-405.29 -93.79,-1156.24 -156.57,-1558.48z"/>
   <path class="fil6 str1" d="M3565.27 1975.52c-26.45,-33.17 -45.07,-72.07 -57.23,-112.66 -6.64,-22.5 -7.65,-46.62 -14,-68.77 -7.13,-24.9 -14.73,-45.08 -15.32,-71.77 -0.61,-25.62 1.07,-51.48 -3.6,-76.67 -4.31,-22.99 -13.71,-44.71 -18.85,-67.58 -7.48,-32.8 -5.09,-67.51 5.45,-99.43 5.44,-16.27 12.93,-31.83 22.45,-46.13 9.21,-13.95 24.24,-24.44 32.91,-38.14 7.13,-11.37 10.23,-27.59 16.05,-40.05 7.11,-14.96 14.95,-29.5 23.57,-43.62 17.61,-28.79 38.26,-55.86 61.61,-80.15 67.15,-69.86 161.35,-118.7 260.36,-102.13 194.12,32.58 201.06,288.27 200.94,458.39 -0.12,135.21 -36.28,274.39 -125.46,370.69 -133.24,143.83 -295.56,134.67 -388.88,18.02z"/>
   <path class="fil5 str1" d="M3945.11 1038.34c47.76,19.23 107.98,-14.11 151.5,13.12 30.05,18.78 38.13,59.08 34.55,94.03 -3.67,34.95 -16.11,69.01 -15.7,104.15 0.24,23.7 6.18,48.37 -2.2,70.56 -11.86,31.44 -48.55,46.46 -82.19,49.75 -33.77,3.24 -68.3,-1.61 -101.28,6.04 -118.52,27.66 -173.4,205.49 -313.16,165.02 -11.62,-3.34 -20.77,-12.03 -31.31,-17.95 -28.37,-16.03 -67.88,-9.09 -89.01,15.63 -15.32,17.95 -20.59,42.43 -21.12,65.95 -0.31,12.52 0.59,25.45 6.58,36.51 7.42,13.83 21.96,22.87 37.23,27.12 17.83,4.97 36.75,-1.5 46.03,13.06 7.96,12.56 -2.93,46.98 -5.68,60.39 -9.23,45.67 -18.56,91.28 -27.78,136.95 -99.43,-107.86 -201.6,-220.52 -245.83,-359.8 -44.29,-139.28 -13.17,-313.35 110.86,-392.35 41.3,-26.28 89.25,-40.11 136.58,-52.92 96.43,-25.97 193.63,-48.9 291.45,-68.71 19.2,-3.89 39.26,-7.61 57.94,-2.09 23.16,6.82 40.21,26.57 62.54,35.54z"/>
   <path class="fil7 str1" d="M3722.5 2131.69c27.07,9.75 57.28,5.26 84.94,12.93 52.02,14.3 83.02,66.97 102.53,117.24 28.32,73.03 43.83,150.31 59.15,227.15 15.32,76.87 30.64,153.73 46.03,230.52 16.46,82.78 33.04,165.68 42.25,249.54 8.57,77.33 10.84,155.14 16.05,232.78 10.59,160.17 102.46,315.86 137.55,472.5 13.41,60.15 28.73,120.91 25.98,182.5 -0.73,16.1 -3.12,33.1 -13.3,45.56 -7.66,9.45 -19.02,15.13 -29.98,20.53 -83.74,41.23 -237.58,86.62 -329.22,104.45 -80.74,15.79 -163.88,12.5 -246,7.24 -75.78,-4.92 -268.93,-10.96 -344.47,-19.22 -35.38,-3.89 -71.72,-8.38 -102.89,-25.43 -55.02,-29.99 -83.44,-92.31 -101.41,-152.28 -50.21,-167.84 16.53,-358.72 43.88,-531.77 27.3,-173.03 35.68,-348.71 78.78,-518.53 40.63,-159.98 75.96,-322.85 140.48,-475.49 31.48,-74.52 70.09,-146.41 119.11,-211 72.18,-95.22 186.03,0.07 270.54,30.78z"/>
   <path class="fil8 str1" d="M3719.28 2832.65c-23.16,390.09 -22.14,781.84 2.93,1171.75 6.52,101.94 14.85,204.35 38.67,303.23 -229.73,-46.69 -463.59,-69.49 -697.33,-68 -13.76,0.07 -27.94,0.12 -40.47,-5.97 -31.18,-15.27 -37.15,-59.39 -38.54,-96.26 -19.14,-525.89 32.74,-1056.34 172.57,-1560.63 29.45,-106.37 62.84,-211.53 99.95,-315.08 20.36,-56.74 42.69,-114.44 81.36,-158.74 100.66,-115.28 314.65,-103.08 359.19,57.77 59.68,215.65 34.65,451.31 21.67,671.93z"/>
   <path class="fil8 str1" d="M3800.38 2244.99c16.93,87.38 34,175.14 62.44,258.99 33.15,97.63 81.51,189.45 105.59,290.12 47.03,197.23 -3.55,408.53 34.64,607.97 17.79,92.89 54.3,180.46 74.59,272.76 35.85,163.6 20.11,340.04 79.97,495.32 46.62,0.12 93.25,0.24 139.82,0.41 -22.56,-356.21 -140.06,-697.27 -191.06,-1050.06 -41.25,-286.05 -39.93,-584.84 -145.39,-851.16 -18.31,-46.13 -40.35,-91.88 -74.52,-125.93 -21.98,-21.85 -82.24,-66.73 -106.85,-33.88 -15.5,20.65 16.11,111.22 20.77,135.46z"/>
   <path class="fil9 str1" d="M3289.45 2091.46c37.18,-29.51 86.01,-42.79 126.66,-21.01 45.66,24.49 69.55,84.64 89.77,140.07 76.44,209.66 152.76,419.34 229.14,629.02 30.1,82.66 60.93,171.2 49.07,260.43 -11.91,89.24 -85.94,172.03 -156.57,143.72 -37.84,-15.2 -63.86,-56.39 -86.79,-95.89 -132.29,-228.41 -241.05,-476.88 -322.86,-737.85 -40.11,-127.85 -26.47,-240.68 71.58,-318.49z"/>
   <path class="fil9 str1" d="M3761.54 3233.57c45.78,-32.45 74.93,-92.36 88.52,-154.61 13.71,-62.18 13.83,-127.49 13.76,-191.9 -0.05,-69.85 -0.12,-139.7 -0.24,-209.49 -0.23,-136.72 -0.71,-274.49 -23.7,-408.35l-3.41 -11.42c-4.31,-7 -12.44,-7.9 -19.56,-8.14 -42.27,-1.68 -84.65,-3.36 -126.9,-4.97 28.3,1.07 -30.47,450.42 -36.27,490.4 -20.6,142.34 -56.39,321.66 -30.53,465.92 13.1,72.85 94.81,63.33 138.33,32.56z"/>
   <path class="fil10 str1" d="M4305.44 3200.95c-20.77,12.58 -41.47,25.13 -62.18,37.65 -9.64,5.86 -19.63,12.15 -24.89,22.08 -5.28,9.94 -3.31,24.6 6.87,29.33 5.04,2.35 42.31,-23.46 48.61,-26.8 17.12,-9.11 34.24,-18.02 51.36,-27.07 34.05,-17.9 68.05,-36.03 100.97,-56.14 16.41,-9.99 32.44,-20.41 48,-31.61 11.5,-8.19 34.19,-19.68 37.6,-34.71 3.46,-15.09 -11.56,-25.98 -25.38,-21.91 -18.57,5.57 -38.2,22.69 -54.77,32.75 -42.08,25.5 -84.16,50.98 -126.19,76.43z"/>
   <path class="fil10 str1" d="M4830.08 3019.47c-38.53,-3 -78.22,-8.5 -116.89,-9.89l-3.29 0.78 -1.08 2.58c-3.35,19.87 -5.62,43.17 -8.93,63.03 0.61,-3.95 96.09,4.37 105.06,4.98 12.93,0.83 19.21,0 22.08,-13.42 3.24,-15.26 2.15,-32.5 3.05,-48.06z"/>
   <path class="fil11 str1" d="M4389.19 3184.73c38.01,-26.7 142.76,-96.01 187.52,-111.33 33.17,-11.37 77.22,-13.29 112.17,-14l180.96 19.09c46.08,19.81 53.15,71.29 72.05,117.73 11.56,28.56 13.9,59.91 15.39,90.69 4.19,82.83 5.99,168.36 -3.05,251.03 -7.91,71.89 -59.74,73.33 -124.91,69.8 -132.96,-7.19 -265.89,-14.44 -398.78,-21.68 -77.27,-4.18 -163.1,-12.32 -214.33,-70.33 -38.43,-43.51 -47.54,-105.4 -48.37,-163.53 -0.71,-54.63 111.57,-90.25 221.35,-167.47z"/>
   <path class="fil12 str1" d="M4057.82 2309.15c-4.78,-9.52 1.5,-19.63 10.07,-26.81 -1.52,9.33 -4.93,18.44 -10.07,26.81zm95.95 7.85l-0.18 10.64c-1.14,9.16 -4.48,18.09 -11.85,24.01l-10.53 5.51c-4.13,-5.87 -8.15,-11.74 -12.22,-17.59l3.05 -3.72c5.28,-9.75 19.47,-15.56 31.73,-18.85zm83.09 35.55c2.87,10.06 2.75,21.07 -1.32,31.49 -1.97,5.14 -6.94,15.56 -13,17.36 -6.99,2.08 -8.91,-5.21 -9.64,-12.88 -1.61,-16.82 10.06,-28.85 23.96,-35.97zm117.55 51.24l0.66 5.21c0.36,6.75 -0.24,13.88 -2.27,20.34l-8.62 13.71c-5.52,4.67 -15.8,7.48 -23.35,2.87 -8.92,-5.5 -7.41,-21.18 -3.17,-28.3 5.09,-8.69 13.23,-12.27 22.99,-13.78l13.76 -0.05zm53.51 58.72c0.9,6.04 1.07,12.2 0.43,18.26 -0.66,7.18 -2.4,14.18 -5.52,20.77l-3.53 6.22 -22.99 9.57c-12.03,-3.05 -11.18,-23.51 -6.87,-31.3 4.07,-7.37 12.15,-12.86 19.45,-16.7 5.99,-3.12 12.38,-5.39 19.03,-6.82zm122.95 76.13c2.51,14.78 0.12,30.29 -11.2,41.42 -7.25,7.13 -19.28,12.34 -29.56,9.28 -9.87,-2.93 -21.61,-17.24 -17.85,-28.25 7.31,-21.38 34,-24.96 58.61,-22.45zm120.9 136.3l-3.59 7.48c-7.42,12.93 -23.76,27.59 -40.16,24.89 -21.43,-3.58 -28.25,-28.06 -13.22,-43.33 13.28,-13.59 36.09,-8.62 49.14,2.51l7.83 8.45zm-0.78 94.63c-4.9,6.65 -11.3,11.79 -19.75,14.18 -18.54,5.45 -46.74,-12.27 -31.78,-33.58 11.44,-16.34 37.35,-3.17 45.56,8.5l5.97 10.9zm-39.07 116.9l-14.73 8.43c-7.96,3.53 -16.95,6.7 -25.74,7.01 -12.45,0.42 -11.13,-0.66 -14.25,-14 -3.17,-13.42 -5.8,-13.23 5.28,-15.93 16.34,-4 33.81,1.98 46.67,12.1l2.77 2.39zm11.79 128.03c-8.69,10.47 -21.02,17.05 -37.17,15.44l-15.56 -5.56 -2.04 -19.46c3.53,-5.33 17.17,-3.77 22.8,-2.87 11.25,1.8 22.21,6.46 31.97,12.45zm49.68 136.11c-5.75,14.19 -15.2,27.66 -30.41,31.78 -23.34,6.47 -44.72,-19.44 -22.39,-36.8 15.86,-12.33 35.44,-6.34 52.8,5.02zm58.66 110.02l-1.85 6.77c-4.81,14.96 -15.27,29.74 -30.36,35.54 -10.72,4.08 -18.56,4.08 -27.11,-3.76 -6.58,-6.11 -7.96,-11.37 -3.89,-20.36l8.79 -10.29c15.09,-13.16 35.5,-13.47 54.42,-7.9zm79.6 96.42c0.43,11.44 -2.03,22.92 -8.85,32.39 -6.89,9.57 -21.31,16.88 -30.05,5.99 -3.9,-4.85 -3.9,-14.13 -2.04,-19.77 5.69,-17.05 22.93,-20.41 40.94,-18.61zm112.29 88.18c0.48,18.66 -6.1,37.89 -22.68,47.17l-8.15 3.34c-6.94,-4 -13.82,-7.96 -20.76,-11.96l5.92 -14.32c3.95,-6.23 9.87,-10.71 16.29,-14.24 8.97,-4.92 19.08,-8.38 29.38,-9.99zm-869.34 -1124.34l7.47 -1.02c10.12,-13.29 15.27,-28.67 15.81,-44.06l6.4 -2.63c14.72,-4.19 31.6,-2.33 44.89,5.27 10.96,6.35 18.8,16.46 22.45,28.07 -16.29,4.26 -30.76,12.81 -39.5,25.92 -7.84,11.85 -7.08,29.2 8.62,33.87 15.08,4.49 30.69,-6.94 37.29,-19.8 5.38,-10.61 6.87,-21.43 5.45,-31.66l0.29 -0.07c14.96,-2.75 31.84,-1.92 45.67,4.85 10.66,5.21 18.97,13.83 24.01,23.94 -25.74,14.37 -45.39,45.02 -18.75,69.67l6.06 0.78c24.65,-12.15 32.2,-40.82 25.13,-65.36l0.12 -0.06c28.31,-9.93 64.35,-5.21 86.92,15.44 8.19,7.6 14.9,17.66 18.66,28.55 -9.75,-0.9 -19.68,0.9 -29.15,6.11 -23.28,12.86 -26.5,57.52 5.4,61.71 30.17,3.88 38.12,-27.35 35.66,-54.47 5.82,1.92 11.32,4.79 16.22,8.39 12.58,9.21 21.5,22.8 25.93,37.76 -16.1,3.23 -30.76,10.42 -41.18,23.1 -9.94,12.09 -12.34,27.96 -3.41,41.24 6.99,10.47 19.75,16.94 32.02,11.49 23.65,-10.47 28.6,-41.06 24.67,-66.97 17.47,-1.92 35.78,1.07 51.53,7.36 25.73,10.17 47.83,30.17 57.75,56.27l1.21 3.41 -5.93 -0.19c-29.93,0.37 -81.95,21.62 -53.46,58.79 24.37,31.9 67.41,4.72 72.86,-27.77 1.07,-6.3 1.14,-12.52 0.47,-18.56 9.57,1.68 18.26,4.07 24.61,6.41 27.4,10.11 53.2,28.49 70.8,51.88 13.95,18.45 22.02,41.68 17.9,63.94 -4.73,-4.91 -10.23,-9.05 -16.76,-12.15 -29.27,-13.95 -67.52,3.7 -62.49,39.68 5.75,41.18 57.7,29.8 76.25,5.38l5.75 -9.04c2.87,6.65 4.61,13.9 5.56,21.26 1.75,14.73 0.61,34.41 -6.16,50.34 -6.7,-12.45 -17.06,-22.04 -32.01,-24.96 -31.56,-6.29 -56.57,28.61 -30.05,52.31 20.34,18.19 43.5,11.49 59.13,-4.85 4.67,18.73 2.22,39.63 -4.55,57.04 -6.22,16.41 -16.69,31.26 -30.05,42.67 -20.1,-18.78 -49.08,-29.5 -73.45,-13.21 -11.48,7.72 -13.28,22.02 -5.32,33.22 11.14,15.73 33.28,13.95 49.51,8.79 10.29,-3.29 19.93,-8.32 28.67,-14.61 15.68,19.15 21.48,46.34 20.82,70.58 -0.24,13.46 -3.65,28.37 -10.47,40.52 -16.81,-10.3 -74.05,-30.29 -77.69,5.63 -1.68,16.1 15.91,26.93 29.69,29.32 15.91,2.77 33.27,-2.75 45.37,-13.45l5.8 -5.99c16.04,12.15 28.73,28.6 36.99,46.93 9.94,22.26 13.4,48.41 6.94,72.11 -21.67,-13.17 -46.08,-18.78 -65.78,-1.26 -27.78,24.72 -1.26,62.44 32.08,55.62 19.46,-4.02 32.16,-18.87 39.52,-36.99 9.99,7.84 18.78,16.82 24.89,23.94 16.46,19.02 27.42,43.22 25.93,68.06 -28.56,-7.72 -85.55,3.65 -78.24,44.59 7.25,40.58 60.39,18.97 75.54,-2.99 5.8,-8.38 9.57,-17.37 11.72,-26.52 7.6,3.18 14.73,7.18 20.77,11.56 22.82,16.22 40.82,40.21 46.64,67.87l0.24 1.13c-11.79,-0.3 -23.04,1.61 -32.63,6.7 -21.19,11.25 -29.57,52.38 -1.18,61.12 17.1,5.33 32.72,-9.76 39.85,-23.82 4.79,-9.45 6.65,-19.87 6.53,-30.29 11.37,2.22 22.08,5.75 29.56,8.43 27.11,9.83 56.03,26.64 67.04,54.89l3.36 12.41c-31.38,5.07 -68.41,22.38 -61.31,54.51 3.06,13.71 16.41,20.12 29.58,18.68 17,-1.92 30.71,-14.96 37.77,-29.86 5.27,-11.08 7.24,-22.52 6.65,-33.7l5.44 0.05c33.94,1.5 66.21,26.52 66.69,62.68 0.35,32.25 -31.61,57.09 -62.56,48 -7.25,-2.09 -10.3,9.16 -3.11,11.25 34.84,10.18 72.49,-14.73 76.85,-50.99 4.92,-41.01 -29.15,-76.74 -68.42,-81.76 -4.59,-0.54 -10.23,-0.66 -16.33,-0.19 -4.48,-21.61 -18.02,-41.48 -36.16,-55.01 -18.38,-13.76 -48,-28.25 -76.06,-32.13l-2.23 -10.49c-10.06,-36.51 -39.62,-68.76 -75.18,-82.54 2.22,-26.33 -8.08,-53.57 -24.96,-74.69 -7.95,-9.99 -19.63,-21.97 -32.91,-31.8 4.48,-16.03 5.38,-33.32 3.46,-47.34 -4.48,-34.12 -23.16,-66.32 -50.63,-87.09 18.31,-30.28 14.25,-75.23 0.42,-105.23 -2.93,-6.46 -7.19,-12.86 -12.21,-18.78 18.73,-16.29 32.25,-38.79 37.58,-62.86 3.59,-15.99 3.48,-37.04 -2.45,-55.06l6.47 -13c9.33,-25.5 9.21,-59.6 -5.4,-83.73 8.93,-28.56 -0.9,-60.4 -19.98,-84.28 -24.79,-30.94 -63.58,-54.88 -103.74,-60.16 -8.13,-30.34 -34.72,-56.15 -62.37,-68.41 -17.77,-7.84 -40.64,-12.08 -62.12,-9.93 -1.56,-5.87 -3.48,-11.26 -5.75,-15.81 -9.21,-18.5 -27.59,-34.72 -48,-40.35 -1.39,-6.58 -3.41,-12.44 -5.82,-16.87 -20.16,-37.76 -67.21,-50.76 -106.84,-40.41l-6.75 2.22c-3.91,-8.57 -9.83,-16.17 -17.48,-21.85 -16.29,-12.03 -41.01,-16.46 -63.88,-12.93 -7.84,-22.8 -30.22,-40.76 -55.91,-42.49 -9.33,-0.66 -18.9,0.48 -27.64,3.65 -1.51,-15.2 -7.67,-30.11 -18.2,-42.74l-4.43 3.48c9.33,13.1 14.01,28.18 14.06,43.33l-12.69 10.59c-10.11,12.27 -13.28,28.32 -1.66,40.47z"/>
   <path class="fil11 str1" d="M3771.89 1940.38c-39.33,-65.3 -81.88,-128.88 -114.56,-197.7 -7.48,-15.62 -14.44,-31.49 -21.14,-47.4l-1.73 -12.17 7.96 -7.48c30.4,-17.88 60.88,-35.78 91.4,-53.69 5.92,-3.52 13.17,-7.12 19.58,-4.42l9.52 10.7c26.64,47.78 49.14,97.82 77.2,144.75 35.32,59.01 79.13,112.46 119.53,168.08 16.71,22.85 33.05,46.55 41.49,73.55 1.98,6.17 3.47,12.76 2.15,19.1 -1.19,5.57 -4.43,10.47 -7.96,14.97 -24.24,31.18 -92.77,73.07 -132.39,45.72 -18.44,-12.69 -27.66,-42.14 -37.84,-60.94 -17.05,-31.43 -34.78,-62.49 -53.21,-93.07z"/>
   <path class="fil11 str1" d="M4092.61 2034.65c12.81,18.45 17.95,41.01 21.9,63.09 4.6,25.45 7.96,52.8 -2.93,76.26 -7.96,17.17 -22.69,30.22 -37.89,41.59 -32.56,24.43 -70.76,43.88 -111.46,45.32 -70.33,2.51 -137.2,-57.64 -142.03,-127.92 -4.73,-68.41 46.98,-120.12 102.96,-150.71 51.1,-28.02 136.89,5.44 169.45,52.37z"/>
   <path class="fil11 str1" d="M3766.62 1499c12.81,18.43 17.9,41.06 21.92,63.15 4.6,25.44 7.96,52.74 -2.94,76.2 -8.02,17.24 -22.75,30.29 -37.95,41.66 -32.63,24.36 -70.69,43.81 -111.39,45.3 -70.4,2.46 -137.2,-57.64 -142.05,-127.9 -4.72,-68.48 47,-120.19 102.91,-150.79 51.17,-27.94 136.89,5.45 169.5,52.38z"/>
   <path class="fil13 str1" d="M3767.23 2223.85c-18.26,0.31 -38.19,-3.29 -50.41,-17 -6.47,-7.23 -9.99,-16.51 -13.29,-25.6 -15.67,-44.3 -26.92,-90.15 -33.51,-136.65 -1.08,-7.91 -2.03,-16.11 0.6,-23.54 2.7,-7.48 10.11,-13.88 17.95,-12.62 7.12,1.14 14.61,7.91 20.41,3.65l4.14 -7.54c6.46,-21.73 12.86,-43.47 19.21,-65.18 6.65,-22.45 15.32,-47.41 36.44,-57.35 13.54,-6.35 29.41,-4.97 44.12,-2.45 18.75,3.11 37.65,8.08 53.04,19.21 30.99,22.62 40.22,66.02 34.4,104.03 -5.85,37.95 -23.7,72.78 -37.34,108.7 -10.82,28.42 -13.4,73.67 -30.4,98.11 -12.75,18.25 -45.61,13.94 -65.36,14.23z"/>
   <path class="fil6 str1" d="M4582.16 3671.11c19.88,3.01 40.65,5.45 59.62,-1.25 18.92,-6.76 35.07,-25.67 31.85,-45.54 -2.34,-14.14 -13.78,-25.39 -26.88,-31.31 -13.05,-5.94 -27.59,-7.43 -41.84,-8.85 -42.79,-4.19 -192.25,-47 -207.41,13.45 -16.1,64.12 144.73,67.46 184.66,73.5z"/>
   <path class="fil9 str1" d="M3520.61 3677.71c8.15,-0.13 17.6,0.36 22.33,6.94l3.41 13.53c6.11,103.19 12.15,206.38 18.26,309.58 1.2,20.1 1.98,41.89 -9.34,58.58 -15.03,22.28 -45.31,27.12 -72.19,29.1 -102.89,7.54 -206.86,2.04 -308.43,-16.34 -11.08,-1.98 -23.29,-4.78 -30.05,-13.77 -5.99,-8.01 -6.22,-18.85 -6.17,-28.85 0.49,-67.51 2.53,-135.09 5.94,-202.55 1.9,-38.31 -10.42,-147.73 19.92,-175.68 29.57,-27.3 126.11,6.77 164.54,10.84 63.75,6.64 127.8,9.51 191.78,8.62z"/>
   <path class="fil0" d="M4254.81 6999.96c-2.7,0 -5.44,0 -8.19,0l16.74 0c-2.8,0 -5.68,0 -8.55,0zm-120.43 -0.83c-111.1,-1.45 -222.25,-4.62 -333.17,-7.96 -215.72,-6.53 -434.19,-14.14 -640.69,-70.04 -16.41,-35.67 5.63,-77.98 40.04,-101.33 34.43,-23.3 78.35,-31.8 120.86,-38.79 193.86,-32.15 387.2,-38.5 581.38,-38.5 62.72,0 125.64,0.67 188.6,1.33 63.09,0.71 126.36,1.37 189.74,1.37 24.06,0 48.07,-0.12 72.13,-0.35 26.4,-0.12 52.85,-0.31 79.31,-0.31l0 0c-26.46,0 -52.86,0.19 -79.24,0.31 -24.2,0.23 -48.37,0.35 -72.55,0.35 -63.32,0 -126.54,-0.66 -189.56,-1.32 -60.83,-0.65 -121.52,-1.31 -182.16,-1.31l-15.13 0c-191.19,0.17 -381.59,6.76 -572.47,38.43 -42.49,7.06 -86.43,15.49 -120.84,38.79 -34.48,23.35 -56.45,65.66 -40.04,101.33 206.49,55.9 424.97,63.51 640.69,70.04 110.91,3.34 222,6.51 333.1,7.96z"/>
   <g style="clip-path:url(#id1)">
    <image x="3119.4" y="6716.54" width="1874.7" height="306.46" xlink:href="8.svg_Images\8.svg_ImgID2.png"/>
   </g>
   <path class="fil1" d="M4244.87 4934.14c17.54,102.18 37.06,205.42 28.5,308.74 -6.17,74.58 -26.87,147.14 -48.49,218.77 -103.67,343.11 -231.89,678.6 -379.48,1005.23 -8.57,19.04 -18.21,39.15 -35.86,50.16 -36.75,22.8 -87.56,-8.98 -100.68,-50.16 -13.11,-41.17 -0.54,-85.65 11.49,-127.2 85.9,-296.11 146.41,-598.85 206.69,-901.19 12.86,-64.22 25.74,-128.98 24.77,-194.41 -1.01,-76.2 -20.7,-150.78 -40.99,-224.22 -68.12,-246.67 -144.37,-491.06 -228.65,-732.64 -26.21,-75.06 -52.49,-161.02 -14.25,-230.68 38.31,-69.74 126.18,-93.92 205.42,-101.87 49.39,-4.97 99.24,-6.23 148.87,-3.91 90.62,4.38 115.94,36.4 118.21,118.59 2.65,97.63 15.46,196.21 25.57,293.29 19.99,191.31 46.27,382 78.88,571.5z"/>
   <path class="fil1" d="M3544.38 5831.99c-9.7,238.17 -19.39,476.46 -40.77,713.91 -41.59,5.19 -83.19,10.35 -124.79,15.56 -15.09,-499.51 -32.33,-999.84 -95.78,-1495.57 -32.85,-256.61 -78.05,-511.66 -102.7,-769.22 -9.59,-99.53 -9.83,-215.24 66.01,-280.36 33.4,-28.68 77.27,-42.62 120.98,-47.65 80.8,-9.33 232.11,23.4 251.93,120.13 10.06,49.27 -8.98,123.91 -11.08,175.15 -2.87,71.52 -5.74,143.05 -8.67,214.64 -11.79,288.15 -23.54,576.3 -35.21,864.51 -6.63,162.91 -13.28,325.92 -19.92,488.9z"/>
   <path class="fil2" d="M3489.43 6931.43c-42.08,1.49 -83.69,-8.55 -124.14,-19.99 -9.82,-2.82 -20.53,-6.35 -25.62,-15.15 -3.36,-5.81 -3.59,-12.74 -3.71,-19.4 -0.24,-8.85 -0.36,-17.66 -0.6,-26.52l1.62 -7.22 10.65 -1.16c63.39,16.05 129.72,20.55 194.65,13.12 14.67,-1.68 30,-4.19 41.72,-13.12l8.14 -3.03 4.25 5.73c3.59,10.54 10.18,30.12 5.27,41.01 -4.61,10.3 -22.14,19.39 -31.54,24.6 -24.55,13.64 -52.8,20.18 -80.69,21.13z"/>
   <path class="fil3" d="M3534.02 6497.41c5.2,-18.68 9.11,-41.77 -5.38,-54.59 -8.44,-7.43 -20.65,-8.56 -31.9,-8.8 -35.73,-0.78 -71.6,3.77 -106.08,13.4l-14.35 7.43c-4.08,4.74 -4.74,11.37 -5.09,17.6 -2.4,42.2 0.05,84.63 7.17,126.23 1.09,5.93 2.23,12.1 5.57,17.12 6.82,10.24 20.29,13.24 32.51,14.9 28.96,3.95 63.5,12.93 83.02,-12.2 20.83,-26.75 25.5,-88.35 34.53,-121.09z"/>
   <path class="fil3" d="M3559.04 6724.5c-13.11,-14.83 -29.69,-26.1 -46.69,-36.21 -20.94,-12.46 -43.81,-23.59 -68.11,-23.87 -34.42,-0.43 -66.32,21.78 -84.88,50.81 -18.55,29.03 -25.44,63.98 -27.95,98.34 -0.9,12.69 -1.14,26.15 4.97,37.35 8.62,15.68 27.23,22.56 44.64,26.75 67.35,16.17 140.02,9.29 203.17,-19.2 43.5,-19.7 -2.51,-108.35 -25.15,-133.97z"/>
   <path class="fil3" d="M3362.41 6565.77c-10.23,15.79 -11.72,35.49 -12.93,54.28 -4.43,69.61 -8.86,139.18 -13.34,208.78l1.43 8.21 10.66 3.22c60.52,-1.68 121.02,-4.24 181.48,-7.77 16.17,-0.97 35.75,-4.26 41.67,-19.34 3.88,-9.81 0.17,-20.77 -3.13,-30.83 -16.74,-51.77 -20.81,-107.01 -38.12,-158.61 -7.48,-22.33 -17.9,-44.47 -35.73,-59.81 -27.95,-24.11 -108.95,-33.69 -131.99,1.87z"/>
   <path class="fil2" d="M3997.73 6841.16c-10.07,10.35 -23.28,18.38 -37.7,19.28 -9.83,0.59 -19.58,-2.09 -29.04,-4.74 -29.69,-8.31 -59.43,-16.63 -88.34,-27.59 -85.6,-32.37 -161.02,-86.66 -233.39,-142.81l-13.35 -12.88c-10.23,-15.25 -4.07,-35.66 2.34,-52.9l8.08 -11.32 14.54 2.34c23.16,12.03 41.79,31 61.71,47.82 81.36,68.78 185.31,103.5 286.54,136.72 9.09,2.93 40.87,6.11 46.44,12.27 7.12,7.9 -10.89,26.63 -17.83,33.81z"/>
   <path class="fil3" d="M3816.79 6538.04c22.85,-32.01 44.47,-65 64.64,-98.93l2.87 -10.35 -5.87 -6.65c-24.48,-17.24 -50.51,-35.07 -80.39,-37.11 -9.69,-0.71 -20.11,0.59 -27.76,7.01 -7.19,5.92 -10.65,15.25 -13.83,24.11 -10.72,29.76 -21.02,60.05 -23.29,91.47 -0.71,9.99 -0.17,21.24 6.84,27.94l9.99 6.06c10.94,5.02 29.86,19.09 41.77,19.27 15.04,0.24 15.32,-9.34 25.03,-22.82z"/>
   <path class="fil3" d="M3709.69 6429.17l-9.99 -9.22c-8.08,-3.59 -17.71,1.5 -22.69,8.74 -4.97,7.25 -6.7,16.22 -9.21,24.67 -9.04,30.41 -29.81,55.65 -45.96,82.95 -16.22,27.3 -28.13,60.53 -17.55,90.39 10.54,29.5 39.69,47.4 66.8,62.96 40.47,23.18 80.87,46.34 121.27,69.5 34.83,19.99 69.92,40.11 107.92,53.28 25.68,8.9 53.04,14.6 79.97,11.18 26.99,-3.41 53.57,-16.94 68.17,-39.81 14.8,-23.16 15.8,-52.36 13.65,-79.78 -2.02,-26.16 -7.06,-53.39 -23.33,-73.97 -19.58,-24.79 -52.21,-35.68 -83.69,-38.5 -31.42,-2.87 -63.15,1.14 -94.69,-0.12 -7.31,-0.24 -14.91,-0.9 -21.38,-4.43 -6.21,-3.41 -10.7,-9.16 -14.95,-14.78 -35.63,-46.03 -88.23,-90.74 -114.34,-143.06z"/>
   <path class="fil4" d="M3401.2 6699.91c22.39,-0.31 41.55,-12.45 64.23,-11.27 17.48,0.97 34.84,6.35 48.48,17.12l-4.48 7.79c-33.88,-13.16 -71.25,-26.7 -101.34,2.99 -13,12.88 -25.27,-16.34 -6.89,-16.63z"/>
   <path class="fil4" d="M3401.2 6660.82c32.03,-16.46 69.44,-21.67 100.61,-1.09 6.47,4.26 0.9,13.78 -6.04,10.3 -28.72,-14.23 -60.93,-15.13 -89.6,-0.66 -5.57,2.88 -10.59,-5.62 -4.97,-8.55z"/>
   <path class="fil4" d="M3391.27 6602.21c34.29,-14.66 71.52,-13.16 101.99,9.17l-4.19 7.17c-29.39,-14.78 -62.61,-18.19 -93.61,-6.51 -5.63,2.15 -9.82,-7.43 -4.19,-9.83z"/>
   <path class="fil4" d="M3888.54 6589.64l5.09 8.81c-21.55,16.57 -26.64,46.08 -41.65,67.22 -3.84,5.45 -11.25,1.97 -10.35,-4.38 4.31,-30.47 23.4,-53.68 46.91,-71.65z"/>
   <path class="fil4" d="M3848.26 6581.09l3.24 5.45c-16.17,13.11 -30.4,33.88 -38.12,53.04 -2.94,7.17 -14.56,4.31 -11.86,-3.25 8.26,-23.39 19.63,-50.69 46.74,-55.24z"/>
   <path class="fil4" d="M3742.63 6575.1c22.21,-17.48 49.61,-22.68 75.89,-11.55l-2.75 10.06c-22.4,0.18 -41.84,5.49 -60.64,17.71 -9.64,6.35 -21.79,-8.86 -12.5,-16.22z"/>
   <path class="fil5" d="M3601.83 3952.63c44.85,-73.14 128.88,-115.34 213.7,-128.34 84.8,-13.05 171.25,-0.42 255.77,14.66 42.67,7.67 104.02,20.06 123.6,65.38 15.32,35.3 3.77,91.21 7.48,129.1 12.68,128.39 47.41,253.08 77.98,377.99 17.67,71.82 34.19,144.02 44.85,217.28 16.98,117.38 18.49,236.44 18.42,355.07 -0.11,225.36 -6.7,455.62 -85.05,666.86 -59.86,161.54 -200.76,500.04 -301.37,640.22 35.9,20.34 47.1,41.54 13.35,83.5 -10.77,13.4 -27.6,24.41 -47.78,26.21 -14.59,1.26 -29.55,-2.32 -43.93,-6.16 -68.36,-18.2 -134.37,-42.86 -196.44,-73.21 -7.91,-3.82 -16.46,-8.5 -18.85,-15.61l1.37 -13.66c7.72,-21.72 20.04,-42.13 36.33,-60.15l9.16 -7.06 14.9 -1.02c7.19,0.6 14.37,1.79 21.5,2.63 31.47,-238.47 104.73,-672.3 136.16,-910.77 5.63,-42.08 11.2,-84.4 10.13,-126.9 -2.04,-87.14 -31.68,-171.01 -61,-253.13 -70.63,-197.94 -141.27,-395.88 -211.9,-593.88 -22.62,-63.34 -45.3,-127.33 -53.38,-194.12 -8.03,-66.8 -0.12,-137.56 35,-194.89z"/>
   <path class="fil5" d="M3167.95 4684.18c-38.43,-246.12 -76.93,-494.11 -66.63,-742.93 0.54,-15.14 1.44,-30.46 6.23,-44.76 6.22,-18.51 18.68,-34.36 33.64,-46.88 38.18,-32.14 90.86,-42.74 140.66,-39.38 49.87,3.36 97.87,19.39 145.2,35.25 55.86,18.68 111.65,37.42 167.49,56.08 38.48,12.93 107.31,21.38 137.67,49.93 49.61,46.75 6.77,173.82 4.31,233.79 -8.74,217.88 23.87,436.36 -1.61,653.75 -17.48,149.34 -62.26,294.49 -79.68,443.84 -7.13,61.35 -9.64,123.18 -15.51,184.72 -4.24,44.35 -10.23,88.52 -16.22,132.63 -15.73,116.43 -39.62,581.26 -55.41,697.69 12.31,1.32 17.4,6.53 18.54,25.08 1.2,21.37 -0.29,47.76 -19.51,56.99 -6.23,2.92 -13.17,3.46 -19.99,3.94 -51.48,3.66 -102.89,7.24 -154.32,10.84 -16.15,1.13 -32.25,2.27 -48.47,1.91l-12.39 -2.93 -6.83 -13.4c-4.43,-21.5 -3.94,-44 1.63,-65.26l5.56 -11.13 6.35 -2.94c-8.62,-17.4 -12.22,-38.53 -14.14,-58.35 -39.07,-405.29 -93.79,-1156.24 -156.57,-1558.48z"/>
   <path class="fil6" d="M3565.27 1975.52c-26.45,-33.17 -45.07,-72.07 -57.23,-112.66 -6.64,-22.5 -7.65,-46.62 -14,-68.77 -7.13,-24.9 -14.73,-45.08 -15.32,-71.77 -0.61,-25.62 1.07,-51.48 -3.6,-76.67 -4.31,-22.99 -13.71,-44.71 -18.85,-67.58 -7.48,-32.8 -5.09,-67.51 5.45,-99.43 5.44,-16.27 12.93,-31.83 22.45,-46.13 9.21,-13.95 24.24,-24.44 32.91,-38.14 7.13,-11.37 10.23,-27.59 16.05,-40.05 7.11,-14.96 14.95,-29.5 23.57,-43.62 17.61,-28.79 38.26,-55.86 61.61,-80.15 67.15,-69.86 161.35,-118.7 260.36,-102.13 194.12,32.58 201.06,288.27 200.94,458.39 -0.12,135.21 -36.28,274.39 -125.46,370.69 -133.24,143.83 -295.56,134.67 -388.88,18.02z"/>
   <path class="fil5" d="M3945.11 1038.34c47.76,19.23 107.98,-14.11 151.5,13.12 30.05,18.78 38.13,59.08 34.55,94.03 -3.67,34.95 -16.11,69.01 -15.7,104.15 0.24,23.7 6.18,48.37 -2.2,70.56 -11.86,31.44 -48.55,46.46 -82.19,49.75 -33.77,3.24 -68.3,-1.61 -101.28,6.04 -118.52,27.66 -173.4,205.49 -313.16,165.02 -11.62,-3.34 -20.77,-12.03 -31.31,-17.95 -28.37,-16.03 -67.88,-9.09 -89.01,15.63 -15.32,17.95 -20.59,42.43 -21.12,65.95 -0.31,12.52 0.59,25.45 6.58,36.51 7.42,13.83 21.96,22.87 37.23,27.12 17.83,4.97 36.75,-1.5 46.03,13.06 7.96,12.56 -2.93,46.98 -5.68,60.39 -9.23,45.67 -18.56,91.28 -27.78,136.95 -99.43,-107.86 -201.6,-220.52 -245.83,-359.8 -44.29,-139.28 -13.17,-313.35 110.86,-392.35 41.3,-26.28 89.25,-40.11 136.58,-52.92 96.43,-25.97 193.63,-48.9 291.45,-68.71 19.2,-3.89 39.26,-7.61 57.94,-2.09 23.16,6.82 40.21,26.57 62.54,35.54z"/>
   <path class="fil7" d="M3722.5 2131.69c27.07,9.75 57.28,5.26 84.94,12.93 52.02,14.3 83.02,66.97 102.53,117.24 28.32,73.03 43.83,150.31 59.15,227.15 15.32,76.87 30.64,153.73 46.03,230.52 16.46,82.78 33.04,165.68 42.25,249.54 8.57,77.33 10.84,155.14 16.05,232.78 10.59,160.17 102.46,315.86 137.55,472.5 13.41,60.15 28.73,120.91 25.98,182.5 -0.73,16.1 -3.12,33.1 -13.3,45.56 -7.66,9.45 -19.02,15.13 -29.98,20.53 -83.74,41.23 -237.58,86.62 -329.22,104.45 -80.74,15.79 -163.88,12.5 -246,7.24 -75.78,-4.92 -268.93,-10.96 -344.47,-19.22 -35.38,-3.89 -71.72,-8.38 -102.89,-25.43 -55.02,-29.99 -83.44,-92.31 -101.41,-152.28 -50.21,-167.84 16.53,-358.72 43.88,-531.77 27.3,-173.03 35.68,-348.71 78.78,-518.53 40.63,-159.98 75.96,-322.85 140.48,-475.49 31.48,-74.52 70.09,-146.41 119.11,-211 72.18,-95.22 186.03,0.07 270.54,30.78z"/>
   <path class="fil8" d="M3719.28 2832.65c-23.16,390.09 -22.14,781.84 2.93,1171.75 6.52,101.94 14.85,204.35 38.67,303.23 -229.73,-46.69 -463.59,-69.49 -697.33,-68 -13.76,0.07 -27.94,0.12 -40.47,-5.97 -31.18,-15.27 -37.15,-59.39 -38.54,-96.26 -19.14,-525.89 32.74,-1056.34 172.57,-1560.63 29.45,-106.37 62.84,-211.53 99.95,-315.08 20.36,-56.74 42.69,-114.44 81.36,-158.74 100.66,-115.28 314.65,-103.08 359.19,57.77 59.68,215.65 34.65,451.31 21.67,671.93z"/>
   <path class="fil8" d="M3800.38 2244.99c16.93,87.38 34,175.14 62.44,258.99 33.15,97.63 81.51,189.45 105.59,290.12 47.03,197.23 -3.55,408.53 34.64,607.97 17.79,92.89 54.3,180.46 74.59,272.76 35.85,163.6 20.11,340.04 79.97,495.32 46.62,0.12 93.25,0.24 139.82,0.41 -22.56,-356.21 -140.06,-697.27 -191.06,-1050.06 -41.25,-286.05 -39.93,-584.84 -145.39,-851.16 -18.31,-46.13 -40.35,-91.88 -74.52,-125.93 -21.98,-21.85 -82.24,-66.73 -106.85,-33.88 -15.5,20.65 16.11,111.22 20.77,135.46z"/>
   <path class="fil9" d="M3289.45 2091.46c37.18,-29.51 86.01,-42.79 126.66,-21.01 45.66,24.49 69.55,84.64 89.77,140.07 76.44,209.66 152.76,419.34 229.14,629.02 30.1,82.66 60.93,171.2 49.07,260.43 -11.91,89.24 -85.94,172.03 -156.57,143.72 -37.84,-15.2 -63.86,-56.39 -86.79,-95.89 -132.29,-228.41 -241.05,-476.88 -322.86,-737.85 -40.11,-127.85 -26.47,-240.68 71.58,-318.49z"/>
   <path class="fil9" d="M3761.54 3233.57c45.78,-32.45 74.93,-92.36 88.52,-154.61 13.71,-62.18 13.83,-127.49 13.76,-191.9 -0.05,-69.85 -0.12,-139.7 -0.24,-209.49 -0.23,-136.72 -0.71,-274.49 -23.7,-408.35l-3.41 -11.42c-4.31,-7 -12.44,-7.9 -19.56,-8.14 -42.27,-1.68 -84.65,-3.36 -126.9,-4.97 28.3,1.07 -30.47,450.42 -36.27,490.4 -20.6,142.34 -56.39,321.66 -30.53,465.92 13.1,72.85 94.81,63.33 138.33,32.56z"/>
   <path class="fil10" d="M4305.44 3200.95c-20.77,12.58 -41.47,25.13 -62.18,37.65 -9.64,5.86 -19.63,12.15 -24.89,22.08 -5.28,9.94 -3.31,24.6 6.87,29.33 5.04,2.35 42.31,-23.46 48.61,-26.8 17.12,-9.11 34.24,-18.02 51.36,-27.07 34.05,-17.9 68.05,-36.03 100.97,-56.14 16.41,-9.99 32.44,-20.41 48,-31.61 11.5,-8.19 34.19,-19.68 37.6,-34.71 3.46,-15.09 -11.56,-25.98 -25.38,-21.91 -18.57,5.57 -38.2,22.69 -54.77,32.75 -42.08,25.5 -84.16,50.98 -126.19,76.43z"/>
   <path class="fil10" d="M4830.08 3019.47c-38.53,-3 -78.22,-8.5 -116.89,-9.89l-3.29 0.78 -1.08 2.58c-3.35,19.87 -5.62,43.17 -8.93,63.03 0.61,-3.95 96.09,4.37 105.06,4.98 12.93,0.83 19.21,0 22.08,-13.42 3.24,-15.26 2.15,-32.5 3.05,-48.06z"/>
   <path class="fil11" d="M4389.19 3184.73c38.01,-26.7 142.76,-96.01 187.52,-111.33 33.17,-11.37 77.22,-13.29 112.17,-14l180.96 19.09c46.08,19.81 53.15,71.29 72.05,117.73 11.56,28.56 13.9,59.91 15.39,90.69 4.19,82.83 5.99,168.36 -3.05,251.03 -7.91,71.89 -59.74,73.33 -124.91,69.8 -132.96,-7.19 -265.89,-14.44 -398.78,-21.68 -77.27,-4.18 -163.1,-12.32 -214.33,-70.33 -38.43,-43.51 -47.54,-105.4 -48.37,-163.53 -0.71,-54.63 111.57,-90.25 221.35,-167.47z"/>
   <path class="fil12" d="M4057.82 2309.15c-4.78,-9.52 1.5,-19.63 10.07,-26.81 -1.52,9.33 -4.93,18.44 -10.07,26.81zm95.95 7.85l-0.18 10.64c-1.14,9.16 -4.48,18.09 -11.85,24.01l-10.53 5.51c-4.13,-5.87 -8.15,-11.74 -12.22,-17.59l3.05 -3.72c5.28,-9.75 19.47,-15.56 31.73,-18.85zm83.09 35.55c2.87,10.06 2.75,21.07 -1.32,31.49 -1.97,5.14 -6.94,15.56 -13,17.36 -6.99,2.08 -8.91,-5.21 -9.64,-12.88 -1.61,-16.82 10.06,-28.85 23.96,-35.97zm117.55 51.24l0.66 5.21c0.36,6.75 -0.24,13.88 -2.27,20.34l-8.62 13.71c-5.52,4.67 -15.8,7.48 -23.35,2.87 -8.92,-5.5 -7.41,-21.18 -3.17,-28.3 5.09,-8.69 13.23,-12.27 22.99,-13.78l13.76 -0.05zm53.51 58.72c0.9,6.04 1.07,12.2 0.43,18.26 -0.66,7.18 -2.4,14.18 -5.52,20.77l-3.53 6.22 -22.99 9.57c-12.03,-3.05 -11.18,-23.51 -6.87,-31.3 4.07,-7.37 12.15,-12.86 19.45,-16.7 5.99,-3.12 12.38,-5.39 19.03,-6.82zm122.95 76.13c2.51,14.78 0.12,30.29 -11.2,41.42 -7.25,7.13 -19.28,12.34 -29.56,9.28 -9.87,-2.93 -21.61,-17.24 -17.85,-28.25 7.31,-21.38 34,-24.96 58.61,-22.45zm120.9 136.3l-3.59 7.48c-7.42,12.93 -23.76,27.59 -40.16,24.89 -21.43,-3.58 -28.25,-28.06 -13.22,-43.33 13.28,-13.59 36.09,-8.62 49.14,2.51l7.83 8.45zm-0.78 94.63c-4.9,6.65 -11.3,11.79 -19.75,14.18 -18.54,5.45 -46.74,-12.27 -31.78,-33.58 11.44,-16.34 37.35,-3.17 45.56,8.5l5.97 10.9zm-39.07 116.9l-14.73 8.43c-7.96,3.53 -16.95,6.7 -25.74,7.01 -12.45,0.42 -11.13,-0.66 -14.25,-14 -3.17,-13.42 -5.8,-13.23 5.28,-15.93 16.34,-4 33.81,1.98 46.67,12.1l2.77 2.39zm11.79 128.03c-8.69,10.47 -21.02,17.05 -37.17,15.44l-15.56 -5.56 -2.04 -19.46c3.53,-5.33 17.17,-3.77 22.8,-2.87 11.25,1.8 22.21,6.46 31.97,12.45zm49.68 136.11c-5.75,14.19 -15.2,27.66 -30.41,31.78 -23.34,6.47 -44.72,-19.44 -22.39,-36.8 15.86,-12.33 35.44,-6.34 52.8,5.02zm58.66 110.02l-1.85 6.77c-4.81,14.96 -15.27,29.74 -30.36,35.54 -10.72,4.08 -18.56,4.08 -27.11,-3.76 -6.58,-6.11 -7.96,-11.37 -3.89,-20.36l8.79 -10.29c15.09,-13.16 35.5,-13.47 54.42,-7.9zm79.6 96.42c0.43,11.44 -2.03,22.92 -8.85,32.39 -6.89,9.57 -21.31,16.88 -30.05,5.99 -3.9,-4.85 -3.9,-14.13 -2.04,-19.77 5.69,-17.05 22.93,-20.41 40.94,-18.61zm112.29 88.18c0.48,18.66 -6.1,37.89 -22.68,47.17l-8.15 3.34c-6.94,-4 -13.82,-7.96 -20.76,-11.96l5.92 -14.32c3.95,-6.23 9.87,-10.71 16.29,-14.24 8.97,-4.92 19.08,-8.38 29.38,-9.99zm-869.34 -1124.34l7.47 -1.02c10.12,-13.29 15.27,-28.67 15.81,-44.06l6.4 -2.63c14.72,-4.19 31.6,-2.33 44.89,5.27 10.96,6.35 18.8,16.46 22.45,28.07 -16.29,4.26 -30.76,12.81 -39.5,25.92 -7.84,11.85 -7.08,29.2 8.62,33.87 15.08,4.49 30.69,-6.94 37.29,-19.8 5.38,-10.61 6.87,-21.43 5.45,-31.66l0.29 -0.07c14.96,-2.75 31.84,-1.92 45.67,4.85 10.66,5.21 18.97,13.83 24.01,23.94 -25.74,14.37 -45.39,45.02 -18.75,69.67l6.06 0.78c24.65,-12.15 32.2,-40.82 25.13,-65.36l0.12 -0.06c28.31,-9.93 64.35,-5.21 86.92,15.44 8.19,7.6 14.9,17.66 18.66,28.55 -9.75,-0.9 -19.68,0.9 -29.15,6.11 -23.28,12.86 -26.5,57.52 5.4,61.71 30.17,3.88 38.12,-27.35 35.66,-54.47 5.82,1.92 11.32,4.79 16.22,8.39 12.58,9.21 21.5,22.8 25.93,37.76 -16.1,3.23 -30.76,10.42 -41.18,23.1 -9.94,12.09 -12.34,27.96 -3.41,41.24 6.99,10.47 19.75,16.94 32.02,11.49 23.65,-10.47 28.6,-41.06 24.67,-66.97 17.47,-1.92 35.78,1.07 51.53,7.36 25.73,10.17 47.83,30.17 57.75,56.27l1.21 3.41 -5.93 -0.19c-29.93,0.37 -81.95,21.62 -53.46,58.79 24.37,31.9 67.41,4.72 72.86,-27.77 1.07,-6.3 1.14,-12.52 0.47,-18.56 9.57,1.68 18.26,4.07 24.61,6.41 27.4,10.11 53.2,28.49 70.8,51.88 13.95,18.45 22.02,41.68 17.9,63.94 -4.73,-4.91 -10.23,-9.05 -16.76,-12.15 -29.27,-13.95 -67.52,3.7 -62.49,39.68 5.75,41.18 57.7,29.8 76.25,5.38l5.75 -9.04c2.87,6.65 4.61,13.9 5.56,21.26 1.75,14.73 0.61,34.41 -6.16,50.34 -6.7,-12.45 -17.06,-22.04 -32.01,-24.96 -31.56,-6.29 -56.57,28.61 -30.05,52.31 20.34,18.19 43.5,11.49 59.13,-4.85 4.67,18.73 2.22,39.63 -4.55,57.04 -6.22,16.41 -16.69,31.26 -30.05,42.67 -20.1,-18.78 -49.08,-29.5 -73.45,-13.21 -11.48,7.72 -13.28,22.02 -5.32,33.22 11.14,15.73 33.28,13.95 49.51,8.79 10.29,-3.29 19.93,-8.32 28.67,-14.61 15.68,19.15 21.48,46.34 20.82,70.58 -0.24,13.46 -3.65,28.37 -10.47,40.52 -16.81,-10.3 -74.05,-30.29 -77.69,5.63 -1.68,16.1 15.91,26.93 29.69,29.32 15.91,2.77 33.27,-2.75 45.37,-13.45l5.8 -5.99c16.04,12.15 28.73,28.6 36.99,46.93 9.94,22.26 13.4,48.41 6.94,72.11 -21.67,-13.17 -46.08,-18.78 -65.78,-1.26 -27.78,24.72 -1.26,62.44 32.08,55.62 19.46,-4.02 32.16,-18.87 39.52,-36.99 9.99,7.84 18.78,16.82 24.89,23.94 16.46,19.02 27.42,43.22 25.93,68.06 -28.56,-7.72 -85.55,3.65 -78.24,44.59 7.25,40.58 60.39,18.97 75.54,-2.99 5.8,-8.38 9.57,-17.37 11.72,-26.52 7.6,3.18 14.73,7.18 20.77,11.56 22.82,16.22 40.82,40.21 46.64,67.87l0.24 1.13c-11.79,-0.3 -23.04,1.61 -32.63,6.7 -21.19,11.25 -29.57,52.38 -1.18,61.12 17.1,5.33 32.72,-9.76 39.85,-23.82 4.79,-9.45 6.65,-19.87 6.53,-30.29 11.37,2.22 22.08,5.75 29.56,8.43 27.11,9.83 56.03,26.64 67.04,54.89l3.36 12.41c-31.38,5.07 -68.41,22.38 -61.31,54.51 3.06,13.71 16.41,20.12 29.58,18.68 17,-1.92 30.71,-14.96 37.77,-29.86 5.27,-11.08 7.24,-22.52 6.65,-33.7l5.44 0.05c33.94,1.5 66.21,26.52 66.69,62.68 0.35,32.25 -31.61,57.09 -62.56,48 -7.25,-2.09 -10.3,9.16 -3.11,11.25 34.84,10.18 72.49,-14.73 76.85,-50.99 4.92,-41.01 -29.15,-76.74 -68.42,-81.76 -4.59,-0.54 -10.23,-0.66 -16.33,-0.19 -4.48,-21.61 -18.02,-41.48 -36.16,-55.01 -18.38,-13.76 -48,-28.25 -76.06,-32.13l-2.23 -10.49c-10.06,-36.51 -39.62,-68.76 -75.18,-82.54 2.22,-26.33 -8.08,-53.57 -24.96,-74.69 -7.95,-9.99 -19.63,-21.97 -32.91,-31.8 4.48,-16.03 5.38,-33.32 3.46,-47.34 -4.48,-34.12 -23.16,-66.32 -50.63,-87.09 18.31,-30.28 14.25,-75.23 0.42,-105.23 -2.93,-6.46 -7.19,-12.86 -12.21,-18.78 18.73,-16.29 32.25,-38.79 37.58,-62.86 3.59,-15.99 3.48,-37.04 -2.45,-55.06l6.47 -13c9.33,-25.5 9.21,-59.6 -5.4,-83.73 8.93,-28.56 -0.9,-60.4 -19.98,-84.28 -24.79,-30.94 -63.58,-54.88 -103.74,-60.16 -8.13,-30.34 -34.72,-56.15 -62.37,-68.41 -17.77,-7.84 -40.64,-12.08 -62.12,-9.93 -1.56,-5.87 -3.48,-11.26 -5.75,-15.81 -9.21,-18.5 -27.59,-34.72 -48,-40.35 -1.39,-6.58 -3.41,-12.44 -5.82,-16.87 -20.16,-37.76 -67.21,-50.76 -106.84,-40.41l-6.75 2.22c-3.91,-8.57 -9.83,-16.17 -17.48,-21.85 -16.29,-12.03 -41.01,-16.46 -63.88,-12.93 -7.84,-22.8 -30.22,-40.76 -55.91,-42.49 -9.33,-0.66 -18.9,0.48 -27.64,3.65 -1.51,-15.2 -7.67,-30.11 -18.2,-42.74l-4.43 3.48c9.33,13.1 14.01,28.18 14.06,43.33l-12.69 10.59c-10.11,12.27 -13.28,28.32 -1.66,40.47z"/>
   <path class="fil11" d="M3771.89 1940.38c-39.33,-65.3 -81.88,-128.88 -114.56,-197.7 -7.48,-15.62 -14.44,-31.49 -21.14,-47.4l-1.73 -12.17 7.96 -7.48c30.4,-17.88 60.88,-35.78 91.4,-53.69 5.92,-3.52 13.17,-7.12 19.58,-4.42l9.52 10.7c26.64,47.78 49.14,97.82 77.2,144.75 35.32,59.01 79.13,112.46 119.53,168.08 16.71,22.85 33.05,46.55 41.49,73.55 1.98,6.17 3.47,12.76 2.15,19.1 -1.19,5.57 -4.43,10.47 -7.96,14.97 -24.24,31.18 -92.77,73.07 -132.39,45.72 -18.44,-12.69 -27.66,-42.14 -37.84,-60.94 -17.05,-31.43 -34.78,-62.49 -53.21,-93.07z"/>
   <path class="fil11" d="M4092.61 2034.65c12.81,18.45 17.95,41.01 21.9,63.09 4.6,25.45 7.96,52.8 -2.93,76.26 -7.96,17.17 -22.69,30.22 -37.89,41.59 -32.56,24.43 -70.76,43.88 -111.46,45.32 -70.33,2.51 -137.2,-57.64 -142.03,-127.92 -4.73,-68.41 46.98,-120.12 102.96,-150.71 51.1,-28.02 136.89,5.44 169.45,52.37z"/>
   <path class="fil11" d="M3766.62 1499c12.81,18.43 17.9,41.06 21.92,63.15 4.6,25.44 7.96,52.74 -2.94,76.2 -8.02,17.24 -22.75,30.29 -37.95,41.66 -32.63,24.36 -70.69,43.81 -111.39,45.3 -70.4,2.46 -137.2,-57.64 -142.05,-127.9 -4.72,-68.48 47,-120.19 102.91,-150.79 51.17,-27.94 136.89,5.45 169.5,52.38z"/>
   <path class="fil13" d="M3767.23 2223.85c-18.26,0.31 -38.19,-3.29 -50.41,-17 -6.47,-7.23 -9.99,-16.51 -13.29,-25.6 -15.67,-44.3 -26.92,-90.15 -33.51,-136.65 -1.08,-7.91 -2.03,-16.11 0.6,-23.54 2.7,-7.48 10.11,-13.88 17.95,-12.62 7.12,1.14 14.61,7.91 20.41,3.65l4.14 -7.54c6.46,-21.73 12.86,-43.47 19.21,-65.18 6.65,-22.45 15.32,-47.41 36.44,-57.35 13.54,-6.35 29.41,-4.97 44.12,-2.45 18.75,3.11 37.65,8.08 53.04,19.21 30.99,22.62 40.22,66.02 34.4,104.03 -5.85,37.95 -23.7,72.78 -37.34,108.7 -10.82,28.42 -13.4,73.67 -30.4,98.11 -12.75,18.25 -45.61,13.94 -65.36,14.23z"/>
   <path class="fil6" d="M4582.16 3671.11c19.88,3.01 40.65,5.45 59.62,-1.25 18.92,-6.76 35.07,-25.67 31.85,-45.54 -2.34,-14.14 -13.78,-25.39 -26.88,-31.31 -13.05,-5.94 -27.59,-7.43 -41.84,-8.85 -42.79,-4.19 -192.25,-47 -207.41,13.45 -16.1,64.12 144.73,67.46 184.66,73.5z"/>
   <path class="fil9" d="M3520.61 3677.71c8.15,-0.13 17.6,0.36 22.33,6.94l3.41 13.53c6.11,103.19 12.15,206.38 18.26,309.58 1.2,20.1 1.98,41.89 -9.34,58.58 -15.03,22.28 -45.31,27.12 -72.19,29.1 -102.89,7.54 -206.86,2.04 -308.43,-16.34 -11.08,-1.98 -23.29,-4.78 -30.05,-13.77 -5.99,-8.01 -6.22,-18.85 -6.17,-28.85 0.49,-67.51 2.53,-135.09 5.94,-202.55 1.9,-38.31 -10.42,-147.73 19.92,-175.68 29.57,-27.3 126.11,6.77 164.54,10.84 63.75,6.64 127.8,9.51 191.78,8.62z"/>
  </g>
 </g>
</svg>
