<?xml version="1.0" encoding="UTF-8"?>
<!DOCTYPE svg PUBLIC "-//W3C//DTD SVG 1.1//EN" "http://www.w3.org/Graphics/SVG/1.1/DTD/svg11.dtd">
<!-- Creator: CorelDRAW 2017 -->
<svg xmlns="http://www.w3.org/2000/svg" xml:space="preserve" width="80mm" height="80mm" version="1.1" style="shape-rendering:geometricPrecision; text-rendering:geometricPrecision; image-rendering:optimizeQuality; fill-rule:evenodd; clip-rule:evenodd"
viewBox="0 0 8000 8000"
 xmlns:xlink="http://www.w3.org/1999/xlink">
 <defs>
  <style type="text/css">
   <![CDATA[
    .str0 {stroke:#FEFEFE;stroke-width:141.12;stroke-linejoin:bevel;stroke-miterlimit:22.9256}
    .str1 {stroke:#FEFEFE;stroke-width:141.12;stroke-linejoin:bevel;stroke-miterlimit:10}
    .fil11 {fill:#272826;fill-rule:nonzero}
    .fil14 {fill:#4D4D4D;fill-rule:nonzero}
    .fil4 {fill:#56585E;fill-rule:nonzero}
    .fil7 {fill:#62A845;fill-rule:nonzero}
    .fil5 {fill:#72757C;fill-rule:nonzero}
    .fil8 {fill:#878E80;fill-rule:nonzero}
    .fil9 {fill:#A88C77;fill-rule:nonzero}
    .fil3 {fill:#AA6A64;fill-rule:nonzero}
    .fil6 {fill:#B6BBC6;fill-rule:nonzero}
    .fil10 {fill:#C48447;fill-rule:nonzero}
    .fil13 {fill:#D9924E;fill-rule:nonzero}
    .fil1 {fill:#E5E5E5;fill-rule:nonzero}
    .fil12 {fill:#EBEFEB;fill-rule:nonzero}
    .fil2 {fill:#F8F7F6;fill-rule:nonzero}
    .fil0 {fill:url(#id2)}
   ]]>
  </style>
    <clipPath id="id0">
     <path d="M4119.73 6927.86c-110.99,0 -221.98,-2.77 -332.98,-9.45 -115.53,-7.05 -233.54,-19.27 -337.93,-67.86 -0.41,-1.58 -0.41,-3 -0.41,-4.43 0,-44.54 54.46,-71.09 100.26,-83.54 144.01,-39.07 293.37,-59.31 442.74,-59.99 2.47,-0.07 4.54,-0.07 7.01,-0.07l1.65 0c170.41,0.15 339.58,25.12 507.93,47.62 18.57,2.47 37.14,3.37 55.29,3.37 19.39,0 38.37,-0.98 56.94,-1.95 18.98,-0.97 37.14,-1.95 55.71,-1.95 44.14,0 87.47,5.7 130.38,30.82 36.72,21.37 51.17,41.62 51.17,59.39 -0.42,37.35 -63.96,63.75 -117.19,66.74 -206.3,11.63 -413.44,21.3 -620.57,21.3l0 0z"/>
    </clipPath>
    <clipPath id="id1">
     <path d="M4119.73 6927.86c-110.99,0 -221.98,-2.77 -332.98,-9.45 -115.53,-7.05 -233.54,-19.27 -337.93,-67.86 -0.41,-1.58 -0.41,-3 -0.41,-4.43 0,-44.54 54.46,-71.09 100.26,-83.54 144.01,-39.07 293.37,-59.31 442.74,-59.99 2.47,-0.07 4.54,-0.07 7.01,-0.07l1.65 0c170.41,0.15 339.58,25.12 507.93,47.62 18.57,2.47 37.14,3.37 55.29,3.37 19.39,0 38.37,-0.98 56.94,-1.95 18.98,-0.97 37.14,-1.95 55.71,-1.95 44.14,0 87.47,5.7 130.38,30.82 36.72,21.37 51.17,41.62 51.17,59.39 -0.42,37.35 -63.96,63.75 -117.19,66.74 -206.3,11.63 -413.44,21.3 -620.57,21.3l0 0z"/>
    </clipPath>
  <linearGradient id="id2" gradientUnits="objectBoundingBox" x1="99.9584%" y1="104.922%" x2="0.177706%" y2="60.8199%">
   <stop offset="0" style="stop-opacity:1; stop-color:#CCCCCC"/>
   <stop offset="1" style="stop-opacity:1; stop-color:#CCCCCC"/>
  </linearGradient>
 </defs>
 <g id="Layer_x0020_1">
  <metadata id="CorelCorpID_0Corel-Layer"/>
  <g id="_2495102314896">
   <path class="fil0 str0" d="M3448.52 6846.13c0,-44.54 54.42,-71.11 100.26,-83.56 143.71,-39.07 293.06,-59.32 442.64,-59.98 2.63,-0.05 5.26,-0.05 7.96,-0.05 170.65,0 339.87,25.03 508.6,47.58 18.79,2.52 37.23,3.36 55.42,3.36 19.27,0 38.24,-0.95 56.99,-1.92 18.67,-0.95 37.11,-1.92 55.36,-1.92 44.48,0 87.81,5.69 130.67,30.78 36.63,21.41 50.93,41.65 50.88,59.44 0.05,-17.79 -14.25,-38.03 -50.88,-59.44 -42.86,-25.09 -86.19,-30.78 -130.67,-30.78 -18.25,0 -36.69,0.97 -55.36,1.92 -18.75,0.97 -37.72,1.92 -56.99,1.92 -18.19,0 -36.63,-0.84 -55.42,-3.36 -168.45,-22.5 -337.42,-47.46 -507.77,-47.58l-1.66 0c-2.41,0 -4.8,0 -7.13,0.05 -149.58,0.66 -298.93,20.91 -442.64,59.98 -45.84,12.45 -100.26,39.02 -100.26,83.56z"/>
   <g style="clip-path:url(#id0)">
    <image x="3417.88" y="6685.72" width="1455.7" height="264.57" xlink:href="9.svg_Images\9.svg_ImgID1.png"/>
   </g>
   <path class="fil1 str1" d="M2957.51 2521.47c86.98,152.5 176.34,303.58 268.17,453.28 5.63,9.23 11.6,18.68 20.58,24.6 21.5,14.02 49.87,2.53 72.19,-9.99 51.84,-29.03 100.86,-63.03 146.29,-101.28 6.47,-5.5 13.05,-11.32 16.65,-19.09 8.36,-18.32 -3.29,-39.14 -14.49,-55.85 -93.37,-139.22 -189.32,-276.7 -287.85,-412.4 -9.46,-13.05 -20.29,-26.93 -35.85,-30.88 -16.1,-4.03 -32.51,3.64 -47.12,11.55 -42.74,23.09 -173.88,78.1 -138.57,140.06z"/>
   <path class="fil2 str1" d="M3127.57 2416.41c-36.63,20.65 -72.67,42.57 -107.92,65.55 -8.44,5.56 -31.54,14.25 -35.43,24.6 -3.24,8.92 3.46,21.9 7.65,29.57 12.1,22.09 26.11,43.27 41.61,63.15l4.14 3.41 6.22 -1.79c49.26,-29.75 98.46,-59.51 147.67,-89.18l6.94 -5.7c3.76,-5.57 1.42,-13.05 -1.21,-19.21 -10.7,-24.65 -25.43,-47.59 -43.45,-67.58l-9.33 -7.06c-5.75,-1.68 -11.68,1.31 -16.89,4.24z"/>
   <path class="fil3 str1" d="M3069.56 2653.51c5.4,9.21 18.33,11.44 28.63,8.5l9.69 -4.73c16.1,-12.27 8.21,-41.06 -12.46,-42.62 -16.98,-1.26 -34.71,23.58 -25.86,38.85z"/>
   <path class="fil4 str1" d="M3132.72 2608.07c-3.53,7.84 -0.72,18.99 7.48,21.43 6.34,1.92 12.88,-1.8 18.37,-5.38 5.57,-3.47 11.08,-7 16.58,-10.53l10.42 -8.93c9.04,-14.11 -5.86,-27.16 -19.63,-22.38 -10.66,3.72 -28.56,15.32 -33.22,25.79z"/>
   <path class="fil4 str1" d="M3227.53 2542.12c-11.44,6.64 -32.99,13.1 -36.57,27.66 -1.86,7.53 3.47,16.75 11.25,17.17l12.63 -4.67c6.22,-3.9 12.52,-7.78 18.75,-11.67 5.44,-3.36 11.53,-7.84 11.48,-14.25l-2.87 -8.38 -8.68 -7.89 -5.99 2.03z"/>
   <path class="fil5 str1" d="M3168.28 2681.34l1.85 1.8 3.65 -0.72c15.86,-8.21 31.01,-17.59 45.32,-28.13l2.69 -3.29 -1.39 -4.26 -7.89 -11.84 -5.21 -5.16 -10.23 2.58c-11.15,7.01 -22.04,14.96 -31.61,24.06 -11.13,10.6 -5.51,13.11 2.82,24.96z"/>
   <path class="fil5 str1" d="M3227.29 2630.76l5.87 7.79c10.54,8.19 30.29,-11.61 38.91,-17.07l5.38 -6.7 -1.85 -4.96 -6.94 -11.38 -3.41 -3.82 -9.05 1.49c-12.81,6.94 -23.16,15.61 -35.19,22.98l5.92 10.96 0.36 0.71z"/>
   <path class="fil6 str1" d="M3181.21 2740.89l4.12 -3.53 -2.99 -11.43 -9.28 -12.75 -3.88 -3.41 -5.57 0.95c-14.18,6.42 -26.82,16.17 -36.63,28.2l-3.95 8.98 2.98 6.53c8.08,11.06 10.3,13.71 22.15,6.82 11.14,-6.53 22.09,-13.59 33.05,-20.36z"/>
   <path class="fil6 str1" d="M3204.84 2687.99l-8.79 12.38c-1.62,8.5 5.69,15.92 12.2,21.55l2.77 1.38 1.97 -0.66c11.25,-5.86 22.63,-11.73 33.93,-17.6l5.28 -4.72c3.1,-8.56 -7.91,-26.04 -16.58,-28.26 -11.15,-2.75 -23.29,9.46 -30.78,15.93z"/>
   <path class="fil6 str1" d="M3252.67 2661.94l-1.85 3.13 1.26 4.19c3.41,5.97 7.24,11.72 11.49,17.05l5.09 3.83 5.8 -1.91c11.08,-7.06 21.31,-15.44 30.47,-24.91l1.85 -2.87 -0.95 -3.77 -6.11 -11.43 -6.58 -7.6c-11.13,-5.57 -34.24,17.17 -40.47,24.29z"/>
   <path class="fil6 str1" d="M3156.61 2798.24l-1.57 3.05 3.01 5.21 7.77 7.13 2.87 1.61 2.41 -0.83c12.67,-7.24 25,-15.22 36.86,-23.84l3.96 -4.66 -0.61 -4.84 -6.52 -11.98c-12.27,-9.52 -41.55,20.77 -48.18,29.15z"/>
   <path class="fil6 str1" d="M3225.44 2750.05l-3.83 8.69 2.46 4.36 10.47 11.44c12.62,-7.13 25.31,-14.19 38,-21.25l6.94 -8.09c0.12,-9.57 -10.52,-20.65 -19.68,-19.63 -12.22,1.26 -26.76,15.98 -34.36,24.48z"/>
   <path class="fil6 str1" d="M3302.42 2736.65l12.39 -6.11c9.21,-4.43 26.26,-11.91 27.47,-23.94 0.47,-5.51 -9.34,-17.59 -14.9,-18.44 -10.77,-1.66 -34.97,17.9 -44.54,23.34 2.39,5.57 8.81,23.89 15.14,25.69l4.44 -0.54z"/>
   <path class="fil7 str1" d="M3413.08 2849.84c6.29,-1.33 13.3,7.79 4.5,13.23 -6.11,3.77 -12.34,-2.27 -9.45,-8.74l4.95 -4.49z"/>
   <path class="fil8 str1" d="M3062.39 2568.81c32.86,-22.33 66.13,-43.99 99.97,-64.95 -8.33,-20.82 -19.23,-40.57 -32.46,-58.65l-2.51 -1.97 -2.56 0.83c-8.62,5.21 -103.93,58.84 -102.25,61.71l39.81 63.03z"/>
   <path class="fil9 str1" d="M3627.92 2462.75c-39.45,-19.87 -84.89,-40.16 -126.07,-24.36 -11.79,4.49 -23.04,12.5 -27.89,24.17 -6.47,15.56 0,34.19 11.55,46.46 11.61,12.27 27.35,19.56 42.79,26.4 14.19,6.28 30.29,14.47 33.58,29.62l2.46 8.15 7.37 4.36c40.28,13.9 82.66,21.67 125.28,23.04l10.83 -1.85c4.66,-2.93 6.04,-8.97 6.94,-14.42 4.3,-24.91 18.98,-57.89 0.18,-77.46 -11.08,-11.55 -71.34,-44.11 -87.02,-44.11z"/>
   <path class="fil10 str1" d="M3728.65 2498.01c-6.89,-2.34 -15.44,-4.07 -20.83,0.83l-5.21 14.13c-3.53,30.88 -7.13,61.83 -10.71,92.71 -0.66,5.87 -1.32,11.98 0.59,17.54l8.69 12.63c44.12,49.56 86.67,100.49 127.54,152.82 12.1,15.49 24.32,31.36 40.28,42.79 15.99,11.44 36.7,18.07 55.62,12.69 31.85,-9.04 45.61,-45.55 54.82,-77.33 13.54,-46.51 11.01,-49.26 -23.63,-80.32 -25.27,-22.64 -48.19,-47.6 -71.66,-72.08 -44.65,-46.63 -92.65,-95.47 -155.5,-116.41z"/>
   <path class="fil11 str1" d="M4646.78 5400.37c-13.65,-383.44 15.03,-774.53 12.52,-1160.37 8.97,-133.78 -5.57,-269.96 -42.57,-395.72 -2.28,-7.77 -4.72,-15.8 -9.34,-21.79 -14.18,-18.54 -38.43,-8.67 -57.28,1.21 -180.41,94.51 -393.5,72.24 -558.03,-61.24 -32.44,62.97 -41.79,140.14 -49.81,214.71 -12.98,120.55 -27.17,240.86 -30.65,361.89l-0.05 0.71c-0.66,25.98 -1.08,52.02 -0.73,78.12 2.28,150.9 25.22,299.58 43.1,448.39 11.67,97.01 21.97,194.71 22.94,293.05 0.83,80.44 13.76,139.88 21.84,250.2 14.25,196.56 19.22,387.92 33.93,586.11 15.87,212.24 31.37,424.55 44.3,637.12 0.54,8.48 1.07,16.93 1.61,25.43 8.39,2.82 137.01,40.47 137.01,-1.87 10.3,-412.64 20.6,-825.23 30.95,-1237.82 4.31,-173.64 25.98,-721.03 29.1,-925.62 14.3,1.8 14.3,1.8 28.54,3.6 35.37,562.59 149.46,1497.18 227.93,2043.19 6.89,48.12 51.43,107.02 76.32,138.03 24.96,30.95 71.47,22.26 78.83,-25.62 -22.92,-417.25 -25.62,-834.27 -40.46,-1251.71z"/>
   <path class="fil11 str1" d="M4239.46 6654.24l-3.17 -14.49c-12.34,-62.26 -18.49,-126.6 -18.44,-190.82 0,-29.26 1.32,-58.96 -4.08,-87.39 -28.65,0.66 -109.76,-6.28 -138.5,-5.69l-7.06 2.16 -3.24 9.28c-12.62,88.63 30,186.45 14.37,274.25 -6.15,35.14 -31.78,47.89 -55.05,65.85 -20.3,15.68 -126.43,54.4 -150.55,54.4 -13.95,7.24 -28.61,14.32 -38.91,28.44 -10.3,14.18 -14.42,37.95 -4.85,52.85 8.45,13.05 23.29,14.42 36.46,14.61 100.5,1.37 267.49,-9.94 366.44,-33.16 5.92,-1.44 12.27,-3.12 16.53,-8.56 3.41,-4.36 5.02,-10.59 6.27,-16.58 11.68,-56.09 -4.85,-95.9 -16.22,-145.15z"/>
   <path class="fil11 str1" d="M4688.62 6700.32c-3.23,-13.88 -9.88,-25.49 -13.46,-38.72 -3.66,-13.64 -1.8,-31 -1.8,-45.8 0.05,-67.22 0.17,-134.37 0.41,-201.58 0.07,-20.24 -1.37,-44.18 -14.24,-54.53 -8.85,-7.06 -19.93,-4.97 -30.04,-2.63 -29.34,6.75 -58.66,13.52 -87.93,20.27 -7.72,1.75 -16.29,4.26 -20.65,12.88 -4.37,8.62 -3.05,20.11 -1.68,30.35 8.67,64.65 12.08,130.48 10.23,196.14 -0.54,18.8 -1.44,37.72 0.07,56.39 -33.76,38.97 -142.22,86.26 -182.16,112.52 -11.72,7.67 -23.99,15.22 -32.13,28.74 -8.2,13.53 -10.66,35.19 -1.73,47.77 7.84,11.01 20.7,11.08 32.01,10.18 86.74,-7.01 243.92,-39.28 328.01,-68.25l13.78 -9.04c2.75,-4.19 3.89,-9.87 4.67,-15.37 3.76,-26.28 2.51,-53.75 -3.36,-79.32z"/>
   <path class="fil12 str1" d="M5022.33 4212.4c10.34,14.56 20.81,29.76 24.53,47.23 3.83,17.84 0.24,36.33 -5.09,53.76 -30.34,99.29 -122.52,176.74 -225.53,189.5 -25.26,3.17 -51.19,2.75 -75.79,9.52 -43.57,12.03 -77.86,45 -117.43,67.09 -53.56,29.93 -118.34,39.26 -178.19,25.69 -64.4,-14.56 -120.38,-53.64 -182.63,-75.42 -50.39,-17.61 -104.74,-23.65 -157.71,-17.55 -55.48,6.4 -108.52,25.74 -163.41,36.04 -54.84,10.28 -114.92,10.47 -162.58,-18.61 -37.77,-23.11 -66.49,-63.7 -109.95,-72.26 -30.64,-6.1 -64.22,5.09 -92.53,-7.96 -32.87,-15.14 -44.31,-56.38 -43.81,-92.54 0.52,-52.43 17.83,-103.19 36.51,-152.21 58.94,-154.61 133.89,-303.1 223.2,-442.4 10.42,-16.16 21.24,-32.44 36.14,-44.59 21.62,-17.6 49.87,-24.66 77.46,-29.03 111.22,-17.84 224.64,-0.17 336.69,11.5 78.36,8.13 156.95,13.34 235.61,15.61 74.14,2.16 163.63,-15.08 235.75,-1.92 45.92,8.33 54.96,103.2 75.07,146.12 28.32,60.58 64.4,117.26 102.53,172.08 42.5,61 87.99,119.78 131.16,180.35z"/>
   <path class="fil9 str1" d="M4069.83 1244.68c57.34,-8.75 115.1,-13.42 172.92,-16.41 63.75,72.37 103.55,168.56 124.8,267.92 17,79.84 22.63,164.12 6.17,244.1 -16.4,80.02 -56.51,155.56 -117.14,200.64 -92.11,68.58 -221.23,54.94 -310.48,-18.33 -89.3,-73.19 -139.94,-197.04 -148.49,-321.49 -7.13,-104.74 13.28,-209.66 48.3,-307.41 67.09,-30.52 156.34,-38.74 223.92,-49.02z"/>
   <path class="fil13 str1" d="M4049.3 2034.6c-35.26,0.71 -72.18,-0.61 -103.61,15.37 -47.77,24.25 -68.66,80.46 -82.25,132.23 -59.01,223.74 9.16,469.28 7.55,700.67 -2.04,282.95 -56.15,557.44 -69.55,838.06 -3.6,74.45 54.23,137.06 128.56,142.69 54.96,4.19 109.84,9.88 164.5,17.12 78.28,10.35 156.76,23.87 235.64,20.58 115.83,-4.83 315.14,-75.94 406.19,-147.71 10.06,-7.96 20.1,-16.46 26.21,-27.71 7.67,-14.08 8.5,-30.78 9.05,-46.81 9.92,-286.78 -1.62,-540.74 -20.84,-827.05 -14.78,-220.31 -38.24,-445.67 -120.43,-652.48 -26.93,-67.87 -158.61,-226.73 -242.29,-236.85 -44.59,-5.33 -104.88,33.34 -147.24,44.71 -62.37,16.76 -126.9,25.93 -191.49,27.18z"/>
   <path class="fil9 str1" d="M3321.81 2894.26c-16.4,-15.27 -35.98,-31.44 -56.56,-26.59 -13.9,3.24 -25.98,15.81 -40.05,14.73 -11.5,-0.9 -20.71,-10.59 -31.18,-16.1 -23.11,-12.08 -53.47,-0.24 -65.55,25.55 -7.48,15.81 -8.14,34.66 -7.72,52.68 0.24,13.1 1.38,27.18 8.39,37.53 7.41,11.01 19.8,15.44 31.47,19.21 48.9,15.81 98.17,30.17 147.73,43.04 13.95,3.65 29.03,7.06 42.08,0.48 73.15,-36.82 1.43,-122.59 -28.61,-150.53z"/>
   <path class="fil10 str1" d="M4258.14 2184.18c-35.92,-45.43 -103.19,-71.77 -153.53,-43.09 -24.13,13.81 -40.71,37.65 -55.08,61.47 -140.18,231.94 -151.19,522.77 -282.63,759.8 -8.08,14.68 -17.01,29.46 -30.22,39.69 -31.56,24.18 -76.51,15.68 -114.63,4.67 -66.38,-19.21 -131.57,-42.74 -194.84,-70.38 -19.7,-8.57 -43.04,-17.43 -61.54,-6.59 -13.04,7.72 -19.27,23.09 -24.53,37.35 -11.08,29.86 -21.36,66.08 -1.92,91.28 6.89,8.91 16.65,15.02 26.22,20.82 142.94,85.95 303.54,142.59 468.8,165.21 22.5,3.12 47.4,5.09 66.37,-7.6 12.51,-8.39 20.41,-21.91 27.85,-35.02 58.46,-103.25 112.76,-208.9 162.68,-316.58 21.97,-47.16 42.97,-94.76 63.98,-142.33 73.33,-165.87 240.08,-385.12 103.02,-558.7z"/>
   <path class="fil14 str1" d="M3706.51 1500.09c79.07,23.4 165.5,-43.59 243.38,-16.29 73.31,25.67 95.28,116.78 106.18,193.7 -0.55,-26.1 21.31,-50.82 47.33,-53.33 25.98,-2.58 52.33,17.36 56.88,43.09 7.6,42.98 -38.38,80.99 -33.53,124.44 4.14,36.4 40.77,58.3 65.54,85.29 58.37,63.7 51.84,163.53 25.44,245.77 -26.45,82.31 -69.31,161.31 -72.72,247.62 -0.83,20.67 0.83,41.96 10.18,60.4 19.56,38.6 68.1,55.96 87.21,94.82 21,42.62 -1.14,93.67 -27.96,132.93 -26.81,39.27 -59.98,78.54 -62.37,126 -2.94,56.45 47.23,110.13 103.73,111.03 18.85,0.31 38.98,-4.19 55.55,4.67 44.12,23.58 11.85,104.4 51.96,134.33 12.26,9.14 28.43,10.77 43.69,12.03 54.29,4.55 119.05,4.55 150.55,-39.99 8.73,-12.34 14.23,-27.54 26.33,-36.57 23.63,-17.66 56.5,-3 84.27,7.13 61.05,22.26 131.09,18.61 189.51,-9.89 23.94,-11.66 48.9,-34.65 41.77,-60.34 -6.04,-21.9 -31.78,-31.3 -45.79,-49.13 -31.05,-39.45 5.94,-96.38 46.1,-126.48 40.21,-30.11 90.67,-62.37 90.98,-112.59 0.23,-51.77 -52.79,-84.4 -90.27,-120.13 -69.38,-66.14 -95.1,-174.18 -63.03,-264.5 12.03,-33.81 31.79,-68.36 23.58,-103.31 -14.06,-59.74 -92.59,-72.32 -139.64,-111.7 -39.92,-33.4 -56.26,-86.73 -68.24,-137.36 -25.74,-109.07 -40.4,-220.76 -43.74,-332.81 -1.56,-51.65 -0.85,-104.26 -15.34,-153.89 -22.56,-77.39 -80.08,-139.95 -143.59,-189.63 -101.75,-79.66 -227.09,-134.31 -356.33,-133.24 -227.75,1.87 -414.86,197.06 -387.61,427.93z"/>
   <path class="fil0" d="M3448.52 6846.13c0,-44.54 54.42,-71.11 100.26,-83.56 143.71,-39.07 293.06,-59.32 442.64,-59.98 2.63,-0.05 5.26,-0.05 7.96,-0.05 170.65,0 339.87,25.03 508.6,47.58 18.79,2.52 37.23,3.36 55.42,3.36 19.27,0 38.24,-0.95 56.99,-1.92 18.67,-0.95 37.11,-1.92 55.36,-1.92 44.48,0 87.81,5.69 130.67,30.78 36.63,21.41 50.93,41.65 50.88,59.44 0.05,-17.79 -14.25,-38.03 -50.88,-59.44 -42.86,-25.09 -86.19,-30.78 -130.67,-30.78 -18.25,0 -36.69,0.97 -55.36,1.92 -18.75,0.97 -37.72,1.92 -56.99,1.92 -18.19,0 -36.63,-0.84 -55.42,-3.36 -168.45,-22.5 -337.42,-47.46 -507.77,-47.58l-1.66 0c-2.41,0 -4.8,0 -7.13,0.05 -149.58,0.66 -298.93,20.91 -442.64,59.98 -45.84,12.45 -100.26,39.02 -100.26,83.56z"/>
   <g style="clip-path:url(#id1)">
    <image x="3417.88" y="6685.72" width="1455.7" height="264.57" xlink:href="9.svg_Images\9.svg_ImgID2.png"/>
   </g>
   <path class="fil1" d="M2957.51 2521.47c86.98,152.5 176.34,303.58 268.17,453.28 5.63,9.23 11.6,18.68 20.58,24.6 21.5,14.02 49.87,2.53 72.19,-9.99 51.84,-29.03 100.86,-63.03 146.29,-101.28 6.47,-5.5 13.05,-11.32 16.65,-19.09 8.36,-18.32 -3.29,-39.14 -14.49,-55.85 -93.37,-139.22 -189.32,-276.7 -287.85,-412.4 -9.46,-13.05 -20.29,-26.93 -35.85,-30.88 -16.1,-4.03 -32.51,3.64 -47.12,11.55 -42.74,23.09 -173.88,78.1 -138.57,140.06z"/>
   <path class="fil2" d="M3127.57 2416.41c-36.63,20.65 -72.67,42.57 -107.92,65.55 -8.44,5.56 -31.54,14.25 -35.43,24.6 -3.24,8.92 3.46,21.9 7.65,29.57 12.1,22.09 26.11,43.27 41.61,63.15l4.14 3.41 6.22 -1.79c49.26,-29.75 98.46,-59.51 147.67,-89.18l6.94 -5.7c3.76,-5.57 1.42,-13.05 -1.21,-19.21 -10.7,-24.65 -25.43,-47.59 -43.45,-67.58l-9.33 -7.06c-5.75,-1.68 -11.68,1.31 -16.89,4.24z"/>
   <path class="fil3" d="M3069.56 2653.51c5.4,9.21 18.33,11.44 28.63,8.5l9.69 -4.73c16.1,-12.27 8.21,-41.06 -12.46,-42.62 -16.98,-1.26 -34.71,23.58 -25.86,38.85z"/>
   <path class="fil4" d="M3132.72 2608.07c-3.53,7.84 -0.72,18.99 7.48,21.43 6.34,1.92 12.88,-1.8 18.37,-5.38 5.57,-3.47 11.08,-7 16.58,-10.53l10.42 -8.93c9.04,-14.11 -5.86,-27.16 -19.63,-22.38 -10.66,3.72 -28.56,15.32 -33.22,25.79z"/>
   <path class="fil4" d="M3227.53 2542.12c-11.44,6.64 -32.99,13.1 -36.57,27.66 -1.86,7.53 3.47,16.75 11.25,17.17l12.63 -4.67c6.22,-3.9 12.52,-7.78 18.75,-11.67 5.44,-3.36 11.53,-7.84 11.48,-14.25l-2.87 -8.38 -8.68 -7.89 -5.99 2.03z"/>
   <path class="fil5" d="M3168.28 2681.34l1.85 1.8 3.65 -0.72c15.86,-8.21 31.01,-17.59 45.32,-28.13l2.69 -3.29 -1.39 -4.26 -7.89 -11.84 -5.21 -5.16 -10.23 2.58c-11.15,7.01 -22.04,14.96 -31.61,24.06 -11.13,10.6 -5.51,13.11 2.82,24.96z"/>
   <path class="fil5" d="M3227.29 2630.76l5.87 7.79c10.54,8.19 30.29,-11.61 38.91,-17.07l5.38 -6.7 -1.85 -4.96 -6.94 -11.38 -3.41 -3.82 -9.05 1.49c-12.81,6.94 -23.16,15.61 -35.19,22.98l5.92 10.96 0.36 0.71z"/>
   <path class="fil6" d="M3181.21 2740.89l4.12 -3.53 -2.99 -11.43 -9.28 -12.75 -3.88 -3.41 -5.57 0.95c-14.18,6.42 -26.82,16.17 -36.63,28.2l-3.95 8.98 2.98 6.53c8.08,11.06 10.3,13.71 22.15,6.82 11.14,-6.53 22.09,-13.59 33.05,-20.36z"/>
   <path class="fil6" d="M3204.84 2687.99l-8.79 12.38c-1.62,8.5 5.69,15.92 12.2,21.55l2.77 1.38 1.97 -0.66c11.25,-5.86 22.63,-11.73 33.93,-17.6l5.28 -4.72c3.1,-8.56 -7.91,-26.04 -16.58,-28.26 -11.15,-2.75 -23.29,9.46 -30.78,15.93z"/>
   <path class="fil6" d="M3252.67 2661.94l-1.85 3.13 1.26 4.19c3.41,5.97 7.24,11.72 11.49,17.05l5.09 3.83 5.8 -1.91c11.08,-7.06 21.31,-15.44 30.47,-24.91l1.85 -2.87 -0.95 -3.77 -6.11 -11.43 -6.58 -7.6c-11.13,-5.57 -34.24,17.17 -40.47,24.29z"/>
   <path class="fil6" d="M3156.61 2798.24l-1.57 3.05 3.01 5.21 7.77 7.13 2.87 1.61 2.41 -0.83c12.67,-7.24 25,-15.22 36.86,-23.84l3.96 -4.66 -0.61 -4.84 -6.52 -11.98c-12.27,-9.52 -41.55,20.77 -48.18,29.15z"/>
   <path class="fil6" d="M3225.44 2750.05l-3.83 8.69 2.46 4.36 10.47 11.44c12.62,-7.13 25.31,-14.19 38,-21.25l6.94 -8.09c0.12,-9.57 -10.52,-20.65 -19.68,-19.63 -12.22,1.26 -26.76,15.98 -34.36,24.48z"/>
   <path class="fil6" d="M3302.42 2736.65l12.39 -6.11c9.21,-4.43 26.26,-11.91 27.47,-23.94 0.47,-5.51 -9.34,-17.59 -14.9,-18.44 -10.77,-1.66 -34.97,17.9 -44.54,23.34 2.39,5.57 8.81,23.89 15.14,25.69l4.44 -0.54z"/>
   <path class="fil7" d="M3413.08 2849.84c6.29,-1.33 13.3,7.79 4.5,13.23 -6.11,3.77 -12.34,-2.27 -9.45,-8.74l4.95 -4.49z"/>
   <path class="fil8" d="M3062.39 2568.81c32.86,-22.33 66.13,-43.99 99.97,-64.95 -8.33,-20.82 -19.23,-40.57 -32.46,-58.65l-2.51 -1.97 -2.56 0.83c-8.62,5.21 -103.93,58.84 -102.25,61.71l39.81 63.03z"/>
   <path class="fil9" d="M3627.92 2462.75c-39.45,-19.87 -84.89,-40.16 -126.07,-24.36 -11.79,4.49 -23.04,12.5 -27.89,24.17 -6.47,15.56 0,34.19 11.55,46.46 11.61,12.27 27.35,19.56 42.79,26.4 14.19,6.28 30.29,14.47 33.58,29.62l2.46 8.15 7.37 4.36c40.28,13.9 82.66,21.67 125.28,23.04l10.83 -1.85c4.66,-2.93 6.04,-8.97 6.94,-14.42 4.3,-24.91 18.98,-57.89 0.18,-77.46 -11.08,-11.55 -71.34,-44.11 -87.02,-44.11z"/>
   <path class="fil10" d="M3728.65 2498.01c-6.89,-2.34 -15.44,-4.07 -20.83,0.83l-5.21 14.13c-3.53,30.88 -7.13,61.83 -10.71,92.71 -0.66,5.87 -1.32,11.98 0.59,17.54l8.69 12.63c44.12,49.56 86.67,100.49 127.54,152.82 12.1,15.49 24.32,31.36 40.28,42.79 15.99,11.44 36.7,18.07 55.62,12.69 31.85,-9.04 45.61,-45.55 54.82,-77.33 13.54,-46.51 11.01,-49.26 -23.63,-80.32 -25.27,-22.64 -48.19,-47.6 -71.66,-72.08 -44.65,-46.63 -92.65,-95.47 -155.5,-116.41z"/>
   <path class="fil11" d="M4646.78 5400.37c-13.65,-383.44 15.03,-774.53 12.52,-1160.37 8.97,-133.78 -5.57,-269.96 -42.57,-395.72 -2.28,-7.77 -4.72,-15.8 -9.34,-21.79 -14.18,-18.54 -38.43,-8.67 -57.28,1.21 -180.41,94.51 -393.5,72.24 -558.03,-61.24 -32.44,62.97 -41.79,140.14 -49.81,214.71 -12.98,120.55 -27.17,240.86 -30.65,361.89l-0.05 0.71c-0.66,25.98 -1.08,52.02 -0.73,78.12 2.28,150.9 25.22,299.58 43.1,448.39 11.67,97.01 21.97,194.71 22.94,293.05 0.83,80.44 13.76,139.88 21.84,250.2 14.25,196.56 19.22,387.92 33.93,586.11 15.87,212.24 31.37,424.55 44.3,637.12 0.54,8.48 1.07,16.93 1.61,25.43 8.39,2.82 137.01,40.47 137.01,-1.87 10.3,-412.64 20.6,-825.23 30.95,-1237.82 4.31,-173.64 25.98,-721.03 29.1,-925.62 14.3,1.8 14.3,1.8 28.54,3.6 35.37,562.59 149.46,1497.18 227.93,2043.19 6.89,48.12 51.43,107.02 76.32,138.03 24.96,30.95 71.47,22.26 78.83,-25.62 -22.92,-417.25 -25.62,-834.27 -40.46,-1251.71z"/>
   <path class="fil11" d="M4239.46 6654.24l-3.17 -14.49c-12.34,-62.26 -18.49,-126.6 -18.44,-190.82 0,-29.26 1.32,-58.96 -4.08,-87.39 -28.65,0.66 -109.76,-6.28 -138.5,-5.69l-7.06 2.16 -3.24 9.28c-12.62,88.63 30,186.45 14.37,274.25 -6.15,35.14 -31.78,47.89 -55.05,65.85 -20.3,15.68 -126.43,54.4 -150.55,54.4 -13.95,7.24 -28.61,14.32 -38.91,28.44 -10.3,14.18 -14.42,37.95 -4.85,52.85 8.45,13.05 23.29,14.42 36.46,14.61 100.5,1.37 267.49,-9.94 366.44,-33.16 5.92,-1.44 12.27,-3.12 16.53,-8.56 3.41,-4.36 5.02,-10.59 6.27,-16.58 11.68,-56.09 -4.85,-95.9 -16.22,-145.15z"/>
   <path class="fil11" d="M4688.62 6700.32c-3.23,-13.88 -9.88,-25.49 -13.46,-38.72 -3.66,-13.64 -1.8,-31 -1.8,-45.8 0.05,-67.22 0.17,-134.37 0.41,-201.58 0.07,-20.24 -1.37,-44.18 -14.24,-54.53 -8.85,-7.06 -19.93,-4.97 -30.04,-2.63 -29.34,6.75 -58.66,13.52 -87.93,20.27 -7.72,1.75 -16.29,4.26 -20.65,12.88 -4.37,8.62 -3.05,20.11 -1.68,30.35 8.67,64.65 12.08,130.48 10.23,196.14 -0.54,18.8 -1.44,37.72 0.07,56.39 -33.76,38.97 -142.22,86.26 -182.16,112.52 -11.72,7.67 -23.99,15.22 -32.13,28.74 -8.2,13.53 -10.66,35.19 -1.73,47.77 7.84,11.01 20.7,11.08 32.01,10.18 86.74,-7.01 243.92,-39.28 328.01,-68.25l13.78 -9.04c2.75,-4.19 3.89,-9.87 4.67,-15.37 3.76,-26.28 2.51,-53.75 -3.36,-79.32z"/>
   <path class="fil12" d="M5022.33 4212.4c10.34,14.56 20.81,29.76 24.53,47.23 3.83,17.84 0.24,36.33 -5.09,53.76 -30.34,99.29 -122.52,176.74 -225.53,189.5 -25.26,3.17 -51.19,2.75 -75.79,9.52 -43.57,12.03 -77.86,45 -117.43,67.09 -53.56,29.93 -118.34,39.26 -178.19,25.69 -64.4,-14.56 -120.38,-53.64 -182.63,-75.42 -50.39,-17.61 -104.74,-23.65 -157.71,-17.55 -55.48,6.4 -108.52,25.74 -163.41,36.04 -54.84,10.28 -114.92,10.47 -162.58,-18.61 -37.77,-23.11 -66.49,-63.7 -109.95,-72.26 -30.64,-6.1 -64.22,5.09 -92.53,-7.96 -32.87,-15.14 -44.31,-56.38 -43.81,-92.54 0.52,-52.43 17.83,-103.19 36.51,-152.21 58.94,-154.61 133.89,-303.1 223.2,-442.4 10.42,-16.16 21.24,-32.44 36.14,-44.59 21.62,-17.6 49.87,-24.66 77.46,-29.03 111.22,-17.84 224.64,-0.17 336.69,11.5 78.36,8.13 156.95,13.34 235.61,15.61 74.14,2.16 163.63,-15.08 235.75,-1.92 45.92,8.33 54.96,103.2 75.07,146.12 28.32,60.58 64.4,117.26 102.53,172.08 42.5,61 87.99,119.78 131.16,180.35z"/>
   <path class="fil9" d="M4069.83 1244.68c57.34,-8.75 115.1,-13.42 172.92,-16.41 63.75,72.37 103.55,168.56 124.8,267.92 17,79.84 22.63,164.12 6.17,244.1 -16.4,80.02 -56.51,155.56 -117.14,200.64 -92.11,68.58 -221.23,54.94 -310.48,-18.33 -89.3,-73.19 -139.94,-197.04 -148.49,-321.49 -7.13,-104.74 13.28,-209.66 48.3,-307.41 67.09,-30.52 156.34,-38.74 223.92,-49.02z"/>
   <path class="fil13" d="M4049.3 2034.6c-35.26,0.71 -72.18,-0.61 -103.61,15.37 -47.77,24.25 -68.66,80.46 -82.25,132.23 -59.01,223.74 9.16,469.28 7.55,700.67 -2.04,282.95 -56.15,557.44 -69.55,838.06 -3.6,74.45 54.23,137.06 128.56,142.69 54.96,4.19 109.84,9.88 164.5,17.12 78.28,10.35 156.76,23.87 235.64,20.58 115.83,-4.83 315.14,-75.94 406.19,-147.71 10.06,-7.96 20.1,-16.46 26.21,-27.71 7.67,-14.08 8.5,-30.78 9.05,-46.81 9.92,-286.78 -1.62,-540.74 -20.84,-827.05 -14.78,-220.31 -38.24,-445.67 -120.43,-652.48 -26.93,-67.87 -158.61,-226.73 -242.29,-236.85 -44.59,-5.33 -104.88,33.34 -147.24,44.71 -62.37,16.76 -126.9,25.93 -191.49,27.18z"/>
   <path class="fil9" d="M3321.81 2894.26c-16.4,-15.27 -35.98,-31.44 -56.56,-26.59 -13.9,3.24 -25.98,15.81 -40.05,14.73 -11.5,-0.9 -20.71,-10.59 -31.18,-16.1 -23.11,-12.08 -53.47,-0.24 -65.55,25.55 -7.48,15.81 -8.14,34.66 -7.72,52.68 0.24,13.1 1.38,27.18 8.39,37.53 7.41,11.01 19.8,15.44 31.47,19.21 48.9,15.81 98.17,30.17 147.73,43.04 13.95,3.65 29.03,7.06 42.08,0.48 73.15,-36.82 1.43,-122.59 -28.61,-150.53z"/>
   <path class="fil10" d="M4258.14 2184.18c-35.92,-45.43 -103.19,-71.77 -153.53,-43.09 -24.13,13.81 -40.71,37.65 -55.08,61.47 -140.18,231.94 -151.19,522.77 -282.63,759.8 -8.08,14.68 -17.01,29.46 -30.22,39.69 -31.56,24.18 -76.51,15.68 -114.63,4.67 -66.38,-19.21 -131.57,-42.74 -194.84,-70.38 -19.7,-8.57 -43.04,-17.43 -61.54,-6.59 -13.04,7.72 -19.27,23.09 -24.53,37.35 -11.08,29.86 -21.36,66.08 -1.92,91.28 6.89,8.91 16.65,15.02 26.22,20.82 142.94,85.95 303.54,142.59 468.8,165.21 22.5,3.12 47.4,5.09 66.37,-7.6 12.51,-8.39 20.41,-21.91 27.85,-35.02 58.46,-103.25 112.76,-208.9 162.68,-316.58 21.97,-47.16 42.97,-94.76 63.98,-142.33 73.33,-165.87 240.08,-385.12 103.02,-558.7z"/>
   <path class="fil14" d="M3706.51 1500.09c79.07,23.4 165.5,-43.59 243.38,-16.29 73.31,25.67 95.28,116.78 106.18,193.7 -0.55,-26.1 21.31,-50.82 47.33,-53.33 25.98,-2.58 52.33,17.36 56.88,43.09 7.6,42.98 -38.38,80.99 -33.53,124.44 4.14,36.4 40.77,58.3 65.54,85.29 58.37,63.7 51.84,163.53 25.44,245.77 -26.45,82.31 -69.31,161.31 -72.72,247.62 -0.83,20.67 0.83,41.96 10.18,60.4 19.56,38.6 68.1,55.96 87.21,94.82 21,42.62 -1.14,93.67 -27.96,132.93 -26.81,39.27 -59.98,78.54 -62.37,126 -2.94,56.45 47.23,110.13 103.73,111.03 18.85,0.31 38.98,-4.19 55.55,4.67 44.12,23.58 11.85,104.4 51.96,134.33 12.26,9.14 28.43,10.77 43.69,12.03 54.29,4.55 119.05,4.55 150.55,-39.99 8.73,-12.34 14.23,-27.54 26.33,-36.57 23.63,-17.66 56.5,-3 84.27,7.13 61.05,22.26 131.09,18.61 189.51,-9.89 23.94,-11.66 48.9,-34.65 41.77,-60.34 -6.04,-21.9 -31.78,-31.3 -45.79,-49.13 -31.05,-39.45 5.94,-96.38 46.1,-126.48 40.21,-30.11 90.67,-62.37 90.98,-112.59 0.23,-51.77 -52.79,-84.4 -90.27,-120.13 -69.38,-66.14 -95.1,-174.18 -63.03,-264.5 12.03,-33.81 31.79,-68.36 23.58,-103.31 -14.06,-59.74 -92.59,-72.32 -139.64,-111.7 -39.92,-33.4 -56.26,-86.73 -68.24,-137.36 -25.74,-109.07 -40.4,-220.76 -43.74,-332.81 -1.56,-51.65 -0.85,-104.26 -15.34,-153.89 -22.56,-77.39 -80.08,-139.95 -143.59,-189.63 -101.75,-79.66 -227.09,-134.31 -356.33,-133.24 -227.75,1.87 -414.86,197.06 -387.61,427.93z"/>
  </g>
 </g>
</svg>
